<svg xmlns="http://www.w3.org/2000/svg" viewBox="0 0 795.79 186.29"><defs><style>.cls-1{fill:#8b4e11;}.cls-2{fill:#a0540c;}.cls-3{fill:#b06b28;}.cls-4{fill:#e8994c;}.cls-5{fill:#dd9147;}.cls-6{fill:#d1863d;}.cls-7{fill:#f0bf90;}.cls-8{fill:#954e09;}.cls-9{fill:#a55f1d;}.cls-10{fill:#b97129;}.cls-11{fill:#a75b13;}.cls-12{fill:#ab6420;}.cls-13{fill:#917b64;}.cls-14{fill:#e5b78a;}.cls-15{fill:#cd7e30;}.cls-16{fill:#605549;}.cls-17{fill:#d08133;}.cls-18{font-size:87px;fill:#492405;font-family:NeatChalk, Neat Chalk;}</style></defs><title>load button</title><g id="Layer_2" data-name="Layer 2"><g id="Layer_1-2" data-name="Layer 1"><path class="cls-1" d="M23.91,133.92,5.6,113.28l2.73-2.83,46.37-1.11,52.47,2.88c9.52,7.36,18.27,7.53,25.92-2.74L164.4,113a9.26,9.26,0,0,1,.09,3l-41.28,12.24-35.29-.4Z"/><path class="cls-2" d="M17.62,181.93q3.73-13.17,7.48-26.34l14.82-.18c1.73,3.6,3.33,10.26,5.21,10.34,24.83,1,49.69,1.16,74.55,1.51L139,169.12c-2.7,2.76-4.93,6.75-8.21,8-8.4,3.29-17.27,5.38-25.95,8l-9,1.18c-10.72-.12-21.46.2-32.15-.45C48.36,184.9,33,183.26,17.62,181.93Z"/><path class="cls-3" d="M8.33,110.45,5.6,113.28c-2-5.2-6.11-10.64-5.55-15.55.72-6.24,5.2-12,8-18l5.39-3.85,78.8,3C66.65,85.51,40.92,91.81,15.5,99.17,12.29,100.1,10.68,106.56,8.33,110.45Z"/><path class="cls-4" d="M23.91,133.92l64-6.1,10.95,4.62-6,3.55-14.77.33-7.93,7.33-30,4.41c-8.57.19-17,.26-15.86-12.2A1.4,1.4,0,0,1,23.91,133.92Z"/><path class="cls-5" d="M24.37,135.86c-1.17,12.46,7.29,12.39,15.85,12.2-.1,2.44-.2,4.9-.3,7.35l-14.82.18Q24.74,145.72,24.37,135.86Z"/><path class="cls-6" d="M92.29,78.88l-78.8-3c-2.26-10.3,2.33-13.64,12.31-15.7,7.92-1.63,22.05,1.77,20.4-14.57C59.83,52.8,73.35,59,89.82,56.44c11.3-1.74,23.28.78,34.52-1.16,7.35-1.27,13.91-7.11,20.83-10.91,21.27-7,46.33-1,64.43-18.79l11.49-.22,11.31-.54,23.07-1.28,41.37.76c-34.25,9.12-68.68,17.6-102.68,27.57-25.23,7.4-53.62,4.83-75.41,23.34l-8.68,3.86Z"/><path class="cls-7" d="M255.47,23.53,232.4,24.82l-11.31.54-11.48.21-185.85,1c-2.38-4-4.77-8-9.65-16.16l55.14-.51L92,7l19,3.14,49.39-.41,91-1.36,56.72.29c-3.57,2.56-6.83,6.53-10.77,7.41C283.59,19.1,269.48,21.11,255.47,23.53Z"/><path class="cls-4" d="M23.76,26.61l185.85-1c-18.11,17.83-43.17,11.82-64.44,18.8l-115-2.79-19.87-5.1Z"/><path class="cls-3" d="M30.2,41.58l115,2.79c-6.92,3.8-13.48,9.64-20.83,10.91-11.24,1.94-23.22-.58-34.52,1.16C73.35,59,59.83,52.8,46.2,45.58Z"/><path class="cls-1" d="M787,64.8l-4.26,26.49L741.35,77.17l-48.5.4-16-4.37a27.1,27.1,0,0,1,.92-3.07l67.74-4.93h34.18Z"/><path class="cls-8" d="M689.87,179.8l-30.77.35c7.42-2.4,14.93-4.54,22.22-7.26,6.67-2.49,13.1-5.6,19.64-8.44l22.59-7.16c6.49.88,13,2.23,19.47,2.54,8.85.41,17.74,0,26.6,0l7.27,4.52c-6.29,2.39-12.4,6-18.9,6.94C735.36,174.62,712.59,177,689.87,179.8Z"/><path class="cls-9" d="M792.07,117.59c9.3,13.23-.63,18.51-10,24L723.53,153l-7.41-7.58,29.51-4.54,45.84-19Z"/><path class="cls-1" d="M792.07,117.59c-.2,1.4-.4,2.8-.59,4.2l-34.11-3.36c-2.85-2.47-5.61-5.06-8.57-7.4-3.37-2.66-6.91-5.09-10.38-7.62l7.53-.26,11.48-.75,13.94-.86,16,1Q789.69,110.07,792.07,117.59Z"/><path class="cls-9" d="M689.87,179.8c22.72-2.76,45.49-5.18,68.12-8.51,6.5-.95,12.61-4.55,18.9-6.94l15,11.42c-27.14,1.29-54.28,2.63-81.43,3.83C703.58,179.9,696.72,179.74,689.87,179.8Z"/><path class="cls-10" d="M723.52,153l58.59-11.33-12.49,18.2c-8.86,0-17.75.41-26.6,0-6.51-.31-13-1.66-19.47-2.55Z"/><path class="cls-11" d="M787.32,102.56q-8-.51-15.94-1c-2.86-3.24-5.21-7.35-8.74-9.51-3.78-2.31-8.68-2.79-13.09-4.08l-8.21-10.8,41.42,14.12Z"/><path class="cls-4" d="M787,64.8l-7.33.39L790,56.61l.93,7.32Z"/><path class="cls-2" d="M701,164.45c-6.54,2.84-13,6-19.64,8.44-7.29,2.72-14.8,4.86-22.22,7.26l-18.87.25L519,181c6.76-2.39,13.81-4.22,20.21-7.37,5-2.48,9.25-6.58,13.82-10L594.53,162l52.37-3.66,19.46-.39Z"/><path class="cls-12" d="M790,56.61l-10.26,8.58H745.51L768.9,53.35,654.42,54.42,634.94,36.24,642.59,34l-.45-1.68-34,.32-18.72-8L616,21.53l38.2,2.85c10.15,10.74,35.27,10.51,45.47-.42l45.41,3.35c13.6,6.12,27.4,11.85,40.63,18.69C788.26,47.32,788.59,53,790,56.61Z"/><path class="cls-13" d="M711.19,4.52,792.11,0c-13.25,16.77-31,15.54-46.56,19.61-7.08-1.23-14.11-2.95-21.24-3.56-13.41-1.14-26.88-1.64-40.32-2.4l11.57-1.87Z"/><path class="cls-3" d="M684,13.65c13.44.76,26.91,1.26,40.32,2.4,7.13.61,14.16,2.33,21.24,3.56q-.22,3.84-.48,7.7L699.66,24l-45.47.42L616,21.53Z"/><path class="cls-14" d="M683.72.55,710.64,1a24.63,24.63,0,0,1,.55,3.51l-15.63,7.26L672.74,2l4.32-1.2Z"/><path class="cls-4" d="M589.4,24.69l18.73,8c-18.92,5.06-37.69,10.84-56.81,15C518,54.94,484.38,60.9,451,68c-40.75,8.65-81.59,17-122,27.14-49.35,12.37-98.28,26.36-147.3,40-3.51,1-6.22,4.81-9.31,7.32l-68,1.38,18.78-15.63L164.49,116c6.84-.75,13.87-.69,20.46-2.36,50.55-12.89,100.88-26.71,151.56-39.06,51.24-12.49,102.6-24.64,154.32-34.85,20.14-4,41.43-2,62.17-3.26,6.18-.37,18.74,3.09,9.92-11.25l0,0c0-1.2,0-2.41,0-3.61Z"/><path class="cls-4" d="M164.4,113l-31.3-3.53q2-8.13,4.1-16.23c32.09-7.19,64.2-14.28,96.25-21.61,45.28-10.36,90.49-21,135.77-31.32,26.42-6,52.92-11.69,79.38-17.51l57.67,2.29c-6.8,2.77-13.38,6.49-20.44,8.15-27.16,6.38-54.56,11.72-81.7,18.14C349.78,64.24,295.45,77.2,241.3,90.85,215.45,97.36,190,105.56,164.4,113Z"/><path class="cls-15" d="M164.4,113c25.62-7.44,51-15.64,76.9-22.15C295.45,77.2,349.78,64.24,404.13,51.38c27.14-6.42,54.54-11.76,81.7-18.14,7.06-1.66,13.64-5.38,20.44-8.15l56.59-3.54c0,1.2,0,2.41,0,3.61l-20.72,1.32q1.14,3.86,2.3,7.71l18.46-9c8.82,14.34-3.74,10.88-9.92,11.25-20.74,1.26-42-.72-62.17,3.26C439.11,49.92,387.75,62.07,336.51,74.56c-50.68,12.35-101,26.17-151.56,39.06-6.59,1.67-13.62,1.61-20.46,2.36A9.31,9.31,0,0,0,164.4,113Z"/><path class="cls-4" d="M92.29,78.88l17.76.19q-2.68,5.79-5.34,11.57l-50,18.7L8.33,110.45c2.35-3.89,4-10.35,7.17-11.28C40.92,91.81,66.65,85.51,92.29,78.88Z"/><path class="cls-16" d="M104.71,90.64q2.66-5.79,5.34-11.57l8.7-3.86c3.6,1.49,7.19,3,10.79,4.47l7.65,13.55q-2,8.11-4.09,16.24c-7.66,10.28-16.41,10.11-25.92,2.76Q106,101.43,104.71,90.64Zm28.49,6h-1.29l.06,5.65h1.29Z"/><path class="cls-6" d="M104.71,90.64q1.23,10.8,2.47,21.59L54.7,109.34Z"/><path class="cls-5" d="M123.21,128.21l-18.78,15.62L88.28,148.1c2.06-5.37,3.34-8.74,4.63-12.11l6-3.55-10.95-4.62Q105.57,128,123.21,128.21Z"/><path class="cls-3" d="M92.91,136c-1.29,3.37-2.57,6.74-4.63,12.11l16.15-4.27,68-1.37,11.73,7.72c-18.52,3.87-37.09,7.58-55.55,11.77-3.22.73-6,3.49-8.94,5.31-24.86-.35-49.72-.47-74.55-1.51-1.88-.08-3.48-6.74-5.21-10.34.1-2.45.2-4.91.3-7.35l30-4.4,7.93-7.34Z"/><path class="cls-4" d="M119.68,167.26c3-1.82,5.72-4.58,8.94-5.31,18.46-4.19,37-7.9,55.56-11.77l19.06-.05,0,0L184,162.16l-18.7,4.08L139,169.12Z"/><path class="cls-8" d="M139,169.12l26.23-2.88c-3.05,3.7-5.38,8.94-9.31,10.78-7.7,3.62-16.29,5.36-24.52,7.87l-26.56.22c8.68-2.57,17.55-4.66,26-8C134.09,175.87,136.32,171.88,139,169.12Z"/><path class="cls-5" d="M78.14,136.32l-7.93,7.34Z"/><path class="cls-4" d="M129.54,79.69l-10.79-4.48c21.79-18.51,50.18-15.94,75.41-23.34,34-10,68.43-18.45,102.68-27.58l11.78-.84,3.7,1.22c-4.61,3.54-8.72,8.69-13.93,10.3-10.68,3.3-22.12,4.05-32.93,7C220.09,54.31,174.84,67.08,129.54,79.69Z"/><path class="cls-14" d="M308.62,23.44l-11.78.85q-20.68-.36-41.37-.75c14-2.43,28.12-4.44,42-7.52,3.94-.88,7.2-4.85,10.77-7.41l19.14-1.44,30.29,1c-4.24,2.57-8.18,6.25-12.78,7.47C333,18.81,320.73,20.91,308.62,23.44Z"/><path class="cls-4" d="M221.09,25.36l11.31-.54Z"/><path class="cls-4" d="M654.42,54.42,768.9,53.35,745.51,65.2l-67.74,4.93c-16,2.63-32.13,4.86-48,8.1-7.06,1.43-13.52,5.82-20.58,7.3-43.33,9-86.93,16.84-130.09,26.58-41.73,9.42-83.11,20.39-124.5,31.23-20.36,5.34-40.4,11.95-60.57,18l-18.63,4-29.93,1.51-45.94-1.06c32.23-10.56,64.12-22.39,96.79-31.35C334.17,124,372.68,116,411,107.37c12.25-2.75,25-3.23,37.25-5.94,39.29-8.7,78.44-18,117.66-27C595.41,67.69,624.92,61.09,654.42,54.42Z"/><path class="cls-15" d="M294,161.32c20.18-6,40.22-12.64,60.58-18,41.39-10.84,82.77-21.81,124.5-31.23,43.16-9.74,86.76-17.54,130.09-26.58,7.06-1.48,13.52-5.87,20.58-7.3,15.9-3.24,32-5.47,48-8.1a27.1,27.1,0,0,0-.92,3.07q-5,6-10.07,11.92c-27.37,5.07-54.69,10.4-82.12,15.11-23.47,4-47.34,6-70.52,11.28-41.64,9.39-82.92,20.43-124.31,30.94-22.81,5.79-45.56,11.87-68.27,18-.33.09.1,3,.18,4.6l-4.34,3.07Z"/><path class="cls-16" d="M666.78,85.12q5-6,10.07-11.92l16,4.37,4.48,14.74q-.6,5.66-1.19,11.31L674,111.8l-9.62-8Q665.55,94.45,666.78,85.12Z"/><path class="cls-5" d="M697.34,92.31q-2.25-7.36-4.49-14.74l48.5-.4q4.1,5.4,8.2,10.81Z"/><path class="cls-17" d="M701,164.45l-34.59-6.53q24.87-6.28,49.75-12.54l7.41,7.58c0,1.44,0,2.88,0,4.32Q712.26,160.88,701,164.45Z"/><path class="cls-10" d="M757.37,118.43l34.11,3.36-45.84,19-41.13-3-11.67-7.36-7.7-.86c3.15-2.28,6.14-6.25,9.48-6.57C715.49,121.07,736.45,119.88,757.37,118.43Z"/><path class="cls-5" d="M704.51,137.85l41.13,3-29.52,4.54q-24.87,6.27-49.75,12.54l-19.46.39Z"/><path class="cls-11" d="M757.37,118.43c-20.92,1.45-41.88,2.64-62.75,4.63-3.34.32-6.33,4.29-9.48,6.58L636.19,131l-30.48.07c10-2.63,19.95-5.11,29.86-7.93,12.83-3.65,25.59-7.57,38.38-11.37l22.19-8.18,42.28-.21c3.47,2.53,7,5,10.38,7.62C751.76,113.37,754.52,116,757.37,118.43Z"/><path class="cls-15" d="M738.42,103.41l-42.28.21q.6-5.66,1.19-11.31L749.55,88c4.41,1.28,9.31,1.76,13.09,4.07,3.53,2.16,5.88,6.27,8.74,9.51-4.66.27-9.3.55-14,.84q-5.73.39-11.48.75Z"/><path class="cls-11" d="M746,103.15q5.74-.36,11.48-.75Z"/><path class="cls-4" d="M636.19,131l48.95-1.39,7.7.84c-3.58,2.54-6.81,6.3-10.8,7.43C653,146.23,623.72,154,594.53,162L553,163.69l-30.73-1c26.88-6.72,53.84-13.15,80.6-20.28C614.17,139.38,625.09,134.87,636.19,131Z"/><path class="cls-11" d="M522.25,162.68l30.73,1c-4.57,3.4-8.8,7.5-13.82,10-6.4,3.15-13.45,5-20.21,7.37l-11.82,1.09-34.21-3.57,4-4.46,7.4-10.8Z"/><path class="cls-17" d="M594.53,162c29.19-8,58.43-15.75,87.51-24.07,4-1.13,7.22-4.89,10.8-7.43l11.67,7.37-57.6,20.46Z"/><path class="cls-15" d="M654.42,54.42c-29.5,6.67-59,13.27-88.48,20-39.22,9-78.37,18.29-117.66,27-12.25,2.71-25,3.19-37.25,5.94-38.35,8.59-76.86,16.67-114.74,27-32.67,9-64.56,20.79-96.79,31.35L184,162.16l19.26-12.07c21.66-5.31,43.29-10.81,65-15.91C311.37,124,354.63,114.35,397.74,104c33.67-8,67-17.73,100.82-25C541.84,69.8,585.5,62.31,629,53.87c3.44-.67,6.61-2.78,9.91-4.22l-1.53-5.24c-11.41,2.28-22.79,6.35-34.23,6.53-37.73.59-74.27,5-110.95,15.83-41.11,12.15-84.31,17-126.13,27-54.48,13-108.49,28-162.68,42.22-.89.23-1.42,1.82-2.83,3.76l10.9,4.36-8.18,6-19.06.05-11.74-7.72c3.08-2.51,5.79-6.34,9.3-7.32,49-13.64,97.95-27.63,147.3-40C369.42,85,410.26,76.65,451,68c33.37-7.1,67-13.06,100.31-20.33,19.12-4.18,37.89-10,56.81-15l34-.32.45,1.68-7.65,2.23Z"/><path class="cls-7" d="M622.87,5.13l23.54.28L661.3,1.72,672.74,2l22.82,9.84L684,13.65l-68,7.88L589.4,24.69l-26.54-3.14-56.59,3.54-57.67-2.3L411,23.37l-7.69.34-22.41.13-15.62-.43-34,.86-4,.26-15,.15-3.7-1.23c12.11-2.54,24.33-4.64,36.26-7.83,4.6-1.22,8.54-4.9,12.78-7.47q68.25-1.25,136.49-2.49L521,5Z"/><path class="cls-10" d="M654.19,24.38,699.66,24C689.46,34.89,664.34,35.12,654.19,24.38Z"/><path class="cls-17" d="M411,23.37l37.62-.58c-26.46,5.83-53,11.49-79.38,17.52-45.28,10.33-90.49,21-135.77,31.32-32,7.33-64.16,14.42-96.25,21.61l-7.66-13.56c45.3-12.6,90.55-25.37,135.92-37.72,10.81-2.94,22.25-3.69,32.93-7,5.21-1.61,9.32-6.76,13.93-10.3l15-.14,4-.26,34-.87c-18.73,5.24-37.59,10.09-56.15,15.88-9.29,2.9-18.06,7.49-27.07,11.32l-11.49,1.14.87,3.1,10.65-4.21C313,45.12,344,39.82,374.78,33.71c2.59-.51,4.1-6.45,6.11-9.86l22.4-.14Z"/><path class="cls-4" d="M562.92,25.2l-18.46,9q-1.15-3.85-2.3-7.71l20.72-1.32Z"/><ellipse class="cls-1" cx="132.58" cy="99.52" rx="0.91" ry="3.99" transform="translate(-0.95 1.28) rotate(-0.55)"/><path class="cls-11" d="M184,162.16l15.55,3.61,45.94,1c-2.77,3.19-4.94,7.87-8.44,9.3-8.17,3.34-17,5.12-25.53,7.54L162,185.32l-30.58-.43c8.23-2.51,16.82-4.25,24.52-7.87,3.93-1.84,6.26-7.08,9.31-10.78Z"/><path class="cls-11" d="M283.59,183.07l-38.15,0c6.95-2.33,14.31-3.9,20.7-7.29,3.85-2,6.21-6.9,9.23-10.5l18.63-4,23.4,6.85Z"/><path class="cls-8" d="M275.37,165.32c-3,3.6-5.38,8.46-9.23,10.5-6.39,3.39-13.75,5-20.7,7.29l-34,.55c8.55-2.42,17.36-4.2,25.53-7.54,3.5-1.43,5.67-6.11,8.44-9.3Q260.41,166.09,275.37,165.32Z"/><path class="cls-4" d="M666.78,85.12q-1.23,9.33-2.47,18.66c-21.17,2.24-42.41,3.85-63.44,6.85-38.93,5.56-77.74,11.94-116.61,18-11.24,3.9-22.33,8.34-33.75,11.58-27.83,7.88-55.81,15.2-83.73,22.75L347.5,164.8l-19,1.06a2.69,2.69,0,0,0-3.34,0,25,25,0,0,0-3.42-.82c-.08-1.6-.51-4.51-.18-4.6,22.71-6.17,45.46-12.25,68.27-18,41.39-10.51,82.67-21.55,124.31-30.94,23.18-5.23,47.05-7.25,70.52-11.28C612.09,95.52,639.41,90.19,666.78,85.12Z"/><path class="cls-8" d="M321.74,165.09a26,26,0,0,1,3.41.81l3.35,0,19-1.06c-3.11,3.54-6,7.33-9.4,10.57-2.8,2.68-6.22,4.71-9.37,7l-7.5.07-7.51.11-30.14.5,33.82-14.91Z"/><path class="cls-10" d="M484.26,128.6c38.87-6,77.68-12.41,116.61-18,21-3,42.27-4.61,63.44-6.85l9.64,8c-12.79,3.8-25.55,7.72-38.38,11.37-9.91,2.82-19.9,5.3-29.86,7.93l-38,.17-64.31,1.12Z"/><path class="cls-15" d="M567.72,131.27l38-.17,30.48-.07c-11.1,3.84-22,8.35-33.34,11.37-26.76,7.13-53.72,13.56-80.6,20.28l-37.94.61-7.47,3-7.56-4.17c1.29-2,2.25-5.45,3.9-5.81,27.29-5.95,54.72-11.28,82-17.39C559.69,138,563.55,133.91,567.72,131.27Z"/><path class="cls-8" d="M469.29,162.15q3.76,2.1,7.55,4.18c0,2.59.05,5.18.07,7.77l-4,4.46-113.5,4c10.49-2.55,21.19-4.48,31.38-7.94,4-1.37,6.84-6.16,10.21-9.4l41.5-1.55q2.63,5,5.24,10,3.18-5.25,6.35-10.49Z"/><path class="cls-11" d="M401,165.21c-3.37,3.23-6.21,8-10.21,9.39-10.19,3.46-20.89,5.39-31.38,7.94l-30.69-.15c3.15-2.31,6.57-4.34,9.37-7,3.41-3.24,6.29-7,9.4-10.57q9.64-.93,19.28-1.86l22.66,1.13Z"/><path class="cls-2" d="M476.91,174.1c0-2.59-.05-5.18-.07-7.77l7.47-3Z"/><path class="cls-4" d="M203.24,150.13l8.18-6-10.9-4.36c1.41-1.94,1.94-3.53,2.83-3.76C257.54,121.79,311.55,106.84,366,93.8c41.82-10,85-14.88,126.13-27,36.68-10.84,73.22-15.24,111-15.83,11.44-.18,22.82-4.25,34.23-6.53l1.53,5.24c-3.3,1.44-6.47,3.55-9.91,4.22-43.46,8.44-87.12,15.93-130.4,25.19C464.72,86.3,431.41,96,397.74,104c-43.11,10.32-86.37,20-129.52,30.15-21.72,5.1-43.35,10.6-65,15.91Z"/><path class="cls-4" d="M282,50.6c9-3.83,17.78-8.42,27.07-11.32,18.56-5.79,37.42-10.64,56.15-15.88l15.62.44c-2,3.42-3.51,9.36-6.1,9.87C344,39.82,313,45.12,282.07,50.63Z"/><path class="cls-4" d="M411,23.37l-7.69.34Z"/><path class="cls-4" d="M331.29,24.27l-4,.26Z"/><path class="cls-4" d="M282.07,50.63l-10.65,4.21-.87-3.1L282,50.6Z"/><path class="cls-17" d="M389.44,164.07l-22.66-1.13c27.92-7.56,55.9-14.88,83.73-22.76,11.42-3.24,22.51-7.68,33.75-11.58l19.14,3.79c-5,2.49-9.79,6-15.1,7.31C455.41,148.09,422.41,156,389.44,164.07Z"/><path class="cls-11" d="M328.5,165.86l-3.35,0A2.72,2.72,0,0,1,328.5,165.86Z"/><path class="cls-4" d="M389.44,164.07c33-8.07,66-16,98.86-24.37,5.31-1.35,10.08-4.82,15.1-7.31l64.32-1.12c-4.17,2.64-8,6.68-12.56,7.69-27.26,6.11-54.69,11.44-82,17.39-1.65.36-2.61,3.81-3.9,5.81l-15.18,1-11.59.51L401,165.2Z"/><path class="cls-11" d="M442.51,163.65l11.59-.51q-3.17,5.25-6.35,10.49Q445.14,168.64,442.51,163.65Z"/><text class="cls-18" transform="translate(207.15 135.89) rotate(-0.54)">Load</text></g></g></svg>