<svg xmlns="http://www.w3.org/2000/svg" viewBox="0 0 1410.49 861.49"><defs><style>.cls-1{fill:#b97129;}.cls-2{fill:#fefefe;}.cls-3{fill:#f0bf90;}.cls-4{fill:#d1863d;}.cls-5{fill:#e8994c;}.cls-6{fill:#e5b78a;}.cls-7{fill:#a55f1d;}.cls-8{fill:#9a734e;}.cls-9{fill:#ab6420;}.cls-10,.cls-23{fill:#492405;}.cls-11{fill:#d08133;}.cls-12{fill:#b06b28;}.cls-13{fill:#605549;}.cls-14{fill:#cd7e30;}.cls-15{fill:#a0540c;}.cls-16{fill:#dd9147;}.cls-17{fill:#a75b13;}.cls-18{fill:#954e09;}.cls-19{fill:#917b64;}.cls-20{fill:#fdfbf8;}.cls-21{fill:#edeceb;}.cls-22{fill:#cfbfb0;}.cls-23{font-size:56.76px;font-family:NeatChalk, Neat Chalk;}.cls-24{font-size:104px;fill:#512609;stroke:#492107;stroke-miterlimit:10;stroke-width:7px;font-family:MongolianBaiti, Mongolian Baiti;}</style></defs><title>rankings with text</title><g id="Layer_2" data-name="Layer 2"><g id="Layer_1-2" data-name="Layer 1"><path class="cls-1" d="M122.86,351.59l3.88,1.19Z"/><path class="cls-2" d="M86.67,272.19l-1.2-72.59,97.09-.53q.58,36.3,1.16,72.59l0,0-97.13.53Z"/><path class="cls-2" d="M279.69,200.88l-4.08-2.32Z"/><path class="cls-3" d="M144.5,182.32l44.3-.1,56-.1,18.38-.64,40.8.48,159-1.24,92.61.38c-7.48,2.5-14.47,6.09-22.53,7.3-20.82,3.14-42.11,5.22-63.21,7.72l-46.7,1.44-7.82,2.49-11.19.19c-8.41-1-16.83-2.85-25.23-2.82q-156.77.6-313.51,1.67-9.35-5.66-18.71-11.29l2-5Z"/><path class="cls-4" d="M423.15,197.56l46.69-1.43,99.11,0,13.78,3.3L576,211.4l-26.24.4-.34-4.05,25.34-4c-36.73-6.79-61.41-.51-88.36,3.7-71.23,11.1-143.93,19-215.56,29.34-10,1.43-17.24,9.22-25.77,14.07l-39.64,12.66c2.18-6.71,4.7-13.55-14.17-11.76l-93.76-5.94-51.9-1L53,233.57c19.62.81,37,.05,32.72-15.75l33.51,11.25c41.7-.18,83.5.43,125.06-1.06,11.3-.41,21.92-7.14,32.85-11l127.05-16.79,11.2-.19C418,199.23,420.55,198.39,423.15,197.56Z"/><path class="cls-5" d="M404.14,200.24,277.09,217c-32.33-2.07-64.64-5.52-97-5.72-20.75-.12-41.58,4.55-62.37,7.07a26.4,26.4,0,0,0,1.64,3.45q-.08,3.61-.17,7.23L85.67,217.82c-12.88-2.37-25.82-4.66-38.41-7.47-.45-.1,2.51-5.34,3.88-8.19l14-3,.26-.09q156.75-.9,313.51-1.67C387.31,197.39,395.73,199.25,404.14,200.24Z"/><path class="cls-3" d="M65.14,199.18l-14,3Z"/><path class="cls-6" d="M569,196.16l-99.11,0c21.11-2.51,42.4-4.59,63.22-7.73,8.06-1.21,15.05-4.8,22.53-7.3l65.69-1.9,252.84-1-.23,1.12q6,3.33,11.9,6.69l8.16-7,45.81-1.64,199.42,0,60.29-4.05,32.32-.29h32.52l14.84,4.14c-12,2.53-23.71,5.64-36,7.49-27.79,4.18-55.86,7.74-83.81,11.55l-118.79,1.18-34.17-3.29-13.14-.78-151.76,1-33.62.31c-37.5-8.5-74.87-5.24-112.22.4l-21.25,1-12.51-1Z"/><path class="cls-7" d="M1040.56,197.39l118.77-1.18a34.7,34.7,0,0,0,6.23.55c8.57,2.47,16.92,6.67,25.76,7.06,20.38.88,41-.09,61.51-.3l66-7.92,1.08,10.69c-7.59,3-15,6.11-22.81,8.84s-16.22,5.08-24.35,7.59l-99,4.2c3.65-21.88,38.61-4.24,56.31-16.86l-83.33,5.22-46,1.24-26.21-7.31,19.23-.28,58.61-.32-.6-3.72-58.74.32Z"/><path class="cls-8" d="M1318.81,195.6l-66,7.92c-8.54-2.39-16.85-6.46-25.66-6.85-20.41-.92-41.06-.06-61.61.09a34.7,34.7,0,0,1-6.23-.55c28-3.81,56-7.37,83.82-11.55,12.29-1.85,24-5,36-7.49l110.24-.6,2.07,4.93Z"/><path class="cls-1" d="M1272.72,222.72c8.14-2.51,16.46-4.85,24.36-7.59s15.22-5.88,22.81-8.84l85.92,8.28-9.55,27.07-76.49-3.46,41.11-10.62Z"/><path class="cls-5" d="M423.15,197.56c-2.6.83-5.2,1.67-7.81,2.49Z"/><path class="cls-9" d="M1408.46,290.71q.3,6.32.59,12.63l-82.25,11.38-72.27-3.37-20.12-7.5-98.92,1c-14,0-28-.13-41.93-.15q-35.73-.06-71.46-.08l-119,1.32-26.33-3.69c86.18-7.62,172.5-14.8,258.45-23.23,18.36-1.8,44.72,4,52.52-13.09,11.5,10.67,19,27.63,48.28,10.24l11.29.67c31.58.16,64.44,2.62,85.71-15.88.56-.5,1.47-1,1.57-1.52s-.5-1.26-1.18-1.45c-9.21-2.64-18.48-5.19-27.74-7.77l82.49,7,11,18.7c-35.45-.21-70.66.17-109.86,14.33,31.11,1.26,53.53,2.69,76,2.9C1379.67,293.23,1394.08,291.57,1408.46,290.71Z"/><path class="cls-10" d="M1388.15,257.17l-82.49-7c-22,3.62-49.18-8.65-67,7.41l-23.58-14,44.25-2.09,8-.24,52.43-3.09,76.49,3.46Z"/><path class="cls-10" d="M1408.46,290.71c-14.38.86-28.79,2.52-43.15,2.39-22.46-.21-44.88-1.64-76-2.9,39.2-14.16,74.41-14.54,109.86-14.33Z"/><path class="cls-7" d="M1326.79,314.72l82.26-11.38-9.27,11-3.23,0-3.22.16-72.49.44C1322.82,314.74,1324.8,314.7,1326.79,314.72Z"/><path class="cls-11" d="M549.38,207.75c.12,1.35.23,2.7.34,4.05l-22.36,9.76c49-5.24,88.25-9,127.17-13.83,14.06-1.74,27.22-5.9,40.8-8.95l32.18-.47,8,.43,32.17.69c-6.49,2.38-12.54,6.21-19.53,6.92-40.85,4.18-82.33,6.54-122.82,11.6-58.85,7.36-117.06,16.44-175.5,24.89q-94.65,13.68-189.22,27.55L251.34,252c22.35-2.84,44.9-5.25,67-8.6C395.45,231.66,472.39,219.64,549.38,207.75Zm-66.05,19.52L519.61,226l-3.91-7.73-32.34,9-20.11,1.12,1.53,3.15Z"/><path class="cls-5" d="M549.38,207.75c-77,11.89-153.93,23.91-231,35.6-22.12,3.35-44.67,5.76-67,8.6a42.16,42.16,0,0,1-6.31-1.12c8.53-4.85,15.79-12.64,25.77-14.07,71.63-10.32,144.33-18.24,215.56-29.34,26.95-4.21,51.63-10.49,88.36-3.7Z"/><path class="cls-5" d="M36,287.33l-2.68-.18-.42-1.55c4.8-4.41,8.19-11.7,14.62-12.75,47.56-7.74,95.72-14.24,143.69-21.12,18.87-1.79,16.35,5,14.17,11.76l.07-.05c-22,2.84-44.41,4.95-65.88,8.79-12,2.15-22.43,7.16-33.57,10.87Z"/><path class="cls-12" d="M117.72,218.38c20.79-2.52,41.62-7.19,62.37-7.07,32.36.2,64.67,3.65,97,5.72-10.93,3.84-21.55,10.57-32.85,11-41.56,1.49-83.36.88-125.06,1.06q.1-3.63.17-7.24c.67-.46,2.05-1.22,1.92-1.32A31.74,31.74,0,0,0,117.72,218.38Z"/><path class="cls-12" d="M191.22,251.73c-48,6.88-96.13,13.38-143.69,21.12-6.43,1-9.82,8.34-14.62,12.75C9.68,279,23.28,271.46,31.11,264c16.29-2.86,33-5.14,48.7-8.85,6.94-1.64,11.83-6.18,17.65-9.4Z"/><path class="cls-13" d="M245,250.83a42.16,42.16,0,0,0,6.31,1.12q4.64,9.23,9.25,18.45-4.18,7.75-8.34,15.51l-40,.32q-3.39-11.4-6.76-22.79l-.07.05Z"/><path class="cls-5" d="M695.33,198.78c-13.58,3.05-26.74,7.21-40.8,8.95-38.92,4.8-78.21,8.59-127.17,13.83l22.36-9.76,26.24-.4L596,207.62l13-.19,13.23-.27,52.1-11.11,21.25-1C695.55,196.31,695.46,197.55,695.33,198.78Z"/><path class="cls-10" d="M97.46,245.79c-5.82,3.22-10.71,7.76-17.65,9.4-15.7,3.71-32.41,6-48.7,8.85l14.45-19.26Z"/><path class="cls-3" d="M569,196.16l92.93-1.11-66.36,4.09-12.79.32Z"/><path class="cls-11" d="M582.73,199.46l12.79-.32.51,8.48L576,211.4Z"/><path class="cls-10" d="M212.22,286.23l40-.32,45.06.58c.18,3.53.35,7.05.53,10.57l-38.41,2.12-14.89-.5-19-.15-40.21.72-20,2.51-39,1.72-7.58,2.24-55.1.91L36,287.33l70-4.23Z"/><path class="cls-1" d="M60.12,360.35l-6.39-7.85q6.63-9.6,13.28-19.19l52.84-11.92c9.55,2.54,19,7,28.65,7.25,37.22.81,74.53.24,111.81.18L234,343.32c-46.87.46-93.74,1.44-140.59,1.17C72.87,344.36,62.34,348.8,60.12,360.35Z"/><path class="cls-5" d="M119.85,321.39,67,333.31Q65.26,320,63.54,306.62l55.13-.9,7.57-2.24,39-1.72,20-2.51,40.21-.72a16.38,16.38,0,0,1-.07,2.8L153,317.6Z"/><path class="cls-4" d="M117.72,218.38a31.74,31.74,0,0,1,3.55,2.13c.13.1-1.25.86-1.92,1.32A27.67,27.67,0,0,1,117.72,218.38Z"/><path class="cls-5" d="M259.43,299.18l38.42-2.11c42-7.82,83.5-16.74,126.11-23.21,64.23-9.75,129.19-17.91,193.93-26.54,89.89-12,179.48-24.87,270-35.14,38.32-4.35,78.57-3,125.1-4.51l-43.3-5.77,36.73-7.8,34.18,3.29,52.4,7.81a30.28,30.28,0,0,1,.72,3.73l-19.24.27c-5.52,0-11.28-.74-16.5,0-78.1,10.3-156.05,21-234.21,31.15-56.19,7.29-112.61,14-169,20.77-36.51,4.4-73.59,7.49-109.58,13-71.28,10.91-142,23.1-212.95,34.75l-13.36,7.5-112.28,4.07c5.92-3.82,10.82-8.54,18-11.24C235.35,305.09,247.73,302.43,259.43,299.18Z"/><path class="cls-5" d="M297.31,286.49l-45.06-.58q4.16-7.76,8.34-15.51,94.62-13.8,189.23-27.56c58.44-8.45,116.65-17.53,175.5-24.89,40.49-5.06,82-7.42,122.82-11.6,7-.71,13-4.54,19.53-6.93l40.19-4.75,33.61-.31L908,197.68c-8.52,2.65-16.54,6.56-25.63,7.75-55,7.2-110.25,13.69-165.36,20.59-69,8.64-138.36,16.56-206.85,26.45C438.76,262.78,368.22,275.07,297.31,286.49Z"/><path class="cls-14" d="M297.31,286.49c70.91-11.42,141.45-23.71,212.84-34C578.64,242.58,648,234.66,717,226c55.11-6.9,110.37-13.39,165.36-20.59,9.09-1.19,17.11-5.1,25.62-7.75l25.33-.55,14.08-2.38,45.85-1.43,13.14.78-36.74,7.8,43.3,5.77c-46.53,1.48-86.78.16-125.1,4.51-90.47,10.27-180.06,23.15-270,35.14C553.15,256,488.19,264.11,424,273.86c-42.61,6.47-84.11,15.39-126.11,23.21C297.66,293.54,297.49,290,297.31,286.49Z"/><path class="cls-3" d="M807.86,194.67l-40.19,4.75-32.17-.68-8-.43-32.18.47c.13-1.23.22-2.47.3-3.71C733,189.43,770.36,186.17,807.86,194.67Z"/><path class="cls-3" d="M933.31,197.13l-25.33.55-66.51-3.32,151.77-1-45.85,1.43Z"/><path class="cls-4" d="M596,207.62l-.51-8.48,66.36-4.09,12.51,1-52.11,11.11L617,201.33l-7.91,6.1Z"/><path class="cls-5" d="M1259.29,241.51,1215,243.59l-15.59,7c-10-1.76-21-6-29.91-4.79-21.93,2.87-42.38,9.63-64.35,12.29-78.76,9.5-158.28,17-236.8,27.07C783.79,296,699.81,308.55,616,321.22c-26.64,4-52,10.84-78,16.37l-33.24,1.82-52.59,3-78.95-.25c3.26-2.18,5.86-5.68,9.9-6.36,57.06-9.76,114.07-19.66,171.57-28.48,79.75-12.24,159.52-24.55,240-35,73.29-9.55,147.63-16.35,221.28-25,52.79-6.22,105.19-13.52,157.77-20.35l99-4.2,88.15,4.84-41.11,10.62-52.43,3.09Z"/><path class="cls-14" d="M1173.69,226.92c-52.58,6.83-105,14.13-157.77,20.35-73.65,8.67-148,15.47-221.28,25-80.45,10.48-160.22,22.79-240,35C497.17,316.14,440.16,326,383.1,335.8c-4,.68-6.64,4.18-9.91,6.37l-34.29-3.6L376,324.72l-17.75-1.21L332,316.32l.23-7.5c70.95-11.65,141.66-23.84,212.94-34.75,36-5.51,73.07-8.6,109.58-13,56.37-6.8,112.79-13.48,169-20.77,78.16-10.14,156.11-20.85,234.21-31.15,5.22-.69,11,0,16.5,0l26.21,7.32c-6.52,2.49-13,7.13-19.55,7.15-67,.14-132.24,4.35-196.81,16.2-50.5,9.27-103.8,13.31-155.47,20.57-97.09,13.65-193.91,27.95-290.84,42-19,2.75-38,5.43-63.36,9l30.6,8.45-8.76,1.44,1.7,1.47,7.07-2.91c14.11-.9,28.68-.8,42.26-2.87,62.66-9.52,124.73-20.42,187.64-29.34,65.36-9.27,131.42-16.9,197.22-25.13,85.59-10.69,171.57-20.44,256.57-32.51,19.48-2.76,49.66,4.22,57.76-14.76l83.33-5.21C1212.3,222.68,1177.34,205,1173.69,226.92Z"/><path class="cls-5" d="M405.21,319.88l-30.6-8.45c25.32-3.6,44.35-6.28,63.36-9,96.93-14,193.75-28.31,290.84-42,51.67-7.26,105-11.3,155.47-20.57,64.57-11.85,129.84-16.06,196.81-16.2,6.53,0,13-4.66,19.55-7.15l46-1.24c-8.1,19-38.28,12-57.76,14.75-85,12.07-171,21.82-256.57,32.51-65.8,8.23-131.86,15.86-197.22,25.13-62.91,8.92-125,19.82-187.64,29.34-13.58,2.07-28.15,2-42.26,2.87Z"/><path class="cls-14" d="M1165.56,196.76c20.55-.15,41.2-1,61.61-.09,8.81.39,17.12,4.46,25.66,6.85-20.51.21-41.13,1.18-61.51.3C1182.48,203.43,1174.13,199.23,1165.56,196.76Z"/><path class="cls-14" d="M1093.67,208.93a30.28,30.28,0,0,0-.72-3.73l58.73-.31.6,3.72Z"/><path class="cls-15" d="M1367.58,330l27,18.94c-10.25,1.39-20.45,3.89-30.73,4-64.93.66-129.87.78-194.8,1.08,12.86-2.35,25.88-4.44,38.52-7.13,11.58-2.47,22.74-5.58,34.09-8.41l45.94-4.63Z"/><path class="cls-1" d="M1367.58,330l-80,3.84L1274.54,319l46.3-4.14,72.49-.44Z"/><path class="cls-15" d="M60.12,360.35c2.22-11.55,12.75-16,33.31-15.86,46.85.27,93.72-.71,140.58-1.17l85.13-3.19c-5.41,3.68-9.61,8.82-16.49,10.72-13.44,3.71-28.37,5.61-42.68,8.26l-13.81,1-12.94,0-45.77,2.26-.32,1.39L67.27,362.4l-6.39-1.93Z"/><path class="cls-5" d="M1187.73,265.92c-7.8,17.11-34.16,11.29-52.52,13.09-86,8.43-172.27,15.61-258.46,23.23-19.68,3.88-39.06,8.37-59.07,11.53-51,8.06-102.38,15.52-153.6,23.22l-32.68,1.79L619,338.63l-34.21,2.56-6.85.54-5.64-.66c14-4.87,27-12.05,42.2-14.22Q764.28,305.43,915,286c29.78-3.89,60.47-5.38,90.58-8.51,60.73-6.31,121.34-13,182-19.54C1187.6,260.61,1187.66,263.26,1187.73,265.92Z"/><path class="cls-14" d="M1022.1,304.61q35.73,0,71.46.08c14,0,28,.1,41.93.15-4.41,2.37-8.3,6.32-13.3,6.87-30.09,3.33-61,4.56-90.53,9.05-30,4.57-58.62,12.1-87.85,18.33l-80.41,1.12L830,336c41.65-6.39,83.4-12.58,124.92-19.25C977.51,313.15,999.72,308.7,1022.1,304.61Z"/><path class="cls-5" d="M943.82,339.09c29.22-6.23,57.86-13.76,87.84-18.33,29.49-4.49,60.44-5.72,90.53-9.05,5-.55,8.89-4.5,13.3-6.87l98.92-1c-5.07,2.63-9.49,6.79-15.33,7.62-23.27,3.32-47,5.61-70.53,8.29L1135,323.45l-26.22.46-33,11.12L996,339.44Z"/><path class="cls-5" d="M1022.1,304.61c-22.38,4.09-44.59,8.54-67.19,12.17C913.39,323.45,871.64,329.64,830,336l-106,4.87L705,340.39c1.18-1.75,1.82-4.81,3.62-5.06,44.2-6.13,88.67-11.63,132.78-18,20.92-3,41.18-7.56,61.74-11.42Z"/><path class="cls-14" d="M903.09,305.93c-20.56,3.86-40.82,8.4-61.74,11.42-44.11,6.35-88.58,11.85-132.78,18-1.8.25-2.44,3.31-3.63,5.06q-20.43-1.68-40.86-3.4c51.22-7.7,102.55-15.16,153.6-23.22,20-3.16,39.39-7.65,59.07-11.53Z"/><path class="cls-13" d="M1187.73,265.92c-.07-2.66-.13-5.31-.19-8l11.9-7.37,15.59-7,23.6,14q-1.31,9.27-2.62,18.54C1206.74,293.55,1199.23,276.59,1187.73,265.92Z"/><path class="cls-16" d="M1236,276.16q1.32-9.27,2.62-18.54c17.85-16.06,45.07-3.79,67-7.41,9.26,2.58,18.53,5.13,27.74,7.77.68.19,1.27,1,1.18,1.45s-1,1-1.57,1.53c-23.55,1.47-47.33,2.26-70.48,4.9-6.09.69-10.21,7.16-15.23,11Z"/><path class="cls-11" d="M1247.3,276.83c5-3.81,9.14-10.28,15.23-11,23.15-2.64,46.93-3.43,70.48-4.9C1311.74,279.45,1278.88,277,1247.3,276.83Z"/><path class="cls-16" d="M1320.84,314.86l-46.3,4.14-66.25,4.31-13.4-3.86,59.64-8.1,72.27,3.37C1324.8,314.7,1322.82,314.74,1320.84,314.86Z"/><path class="cls-14" d="M1254.53,311.35l-59.64,8.1-46.34.31c23.55-2.68,47.26-5,70.53-8.29,5.84-.83,10.26-5,15.33-7.62Z"/><path class="cls-1" d="M1259.29,241.51l8-.24Z"/><path class="cls-5" d="M483.36,227.29l32.34-9,3.91,7.73-36.28,1.28Z"/><path class="cls-5" d="M483.33,227.27l-18.55,4.29-1.53-3.15,20.11-1.12Z"/><path class="cls-5" d="M727.51,198.31l8,.43Z"/><path class="cls-4" d="M212.22,286.23,106,283.1c11.14-3.71,21.59-8.72,33.57-10.87,21.47-3.84,43.87-6,65.88-8.79Q208.84,274.84,212.22,286.23Z"/><path class="cls-11" d="M609.05,207.43l7.91-6.1,5.32,5.83Z"/><path class="cls-4" d="M259.43,299.18c-11.7,3.25-24.08,5.91-34.87,10-7.17,2.7-12.07,7.42-18,11.24L153,317.6q36.19-8.13,72.42-16.26l19.08-2.66Z"/><path class="cls-16" d="M244.54,298.68l-19.08,2.66a17.61,17.61,0,0,0,.06-2.81Z"/><path class="cls-16" d="M185.31,299.25l-20,2.51Z"/><path class="cls-4" d="M126.24,303.48l-7.57,2.24Z"/><path class="cls-7" d="M153,317.6l53.53,2.79,112.28-4.07H332l26.23,7.19-97.91,5.31c-37.28.06-74.59.63-111.81-.18-9.69-.21-19.1-4.71-28.65-7.25Z"/><path class="cls-5" d="M260.31,328.82l97.91-5.31L376,324.72,338.9,338.58l-19.76,1.55L234,343.32Z"/><path class="cls-16" d="M332,316.32H318.85l13.36-7.5Q332.11,312.57,332,316.32Z"/><path class="cls-5" d="M933.31,197.13l14.08-2.38Z"/><path class="cls-14" d="M1199.44,250.58l-11.9,7.37c-60.67,6.54-121.28,13.23-182,19.54-30.11,3.13-60.8,4.62-90.58,8.51q-150.57,19.63-300.49,40.85c-15.17,2.17-28.19,9.35-42.21,14.23L538,337.59c26-5.53,51.34-12.34,78-16.37,83.85-12.67,167.83-25.2,252.42-36.07,78.52-10.09,158-17.57,236.8-27.07,22-2.66,42.42-9.42,64.35-12.29C1178.42,244.62,1189.41,248.82,1199.44,250.58Z"/><path class="cls-17" d="M319.14,340.13l19.76-1.55,34.29,3.59,78.95.25-59.27,15.31-86.77,1.63L260,359.11c14.31-2.65,29.24-4.55,42.68-8.26C309.53,349,313.73,343.81,319.14,340.13Z"/><path class="cls-17" d="M538,337.59l34.27,3.49,5.65.65,7.18,4-.13-.12q.12,5.49.23,11l-20.57.27-12.3,0-100.46.32c11.21-2.16,23.18-3.52,33.38-6.75,7.68-2.44,13.09-7.29,19.51-11.06Z"/><path class="cls-18" d="M504.74,339.41c-6.42,3.77-11.83,8.62-19.51,11.06-10.2,3.23-22.17,4.59-33.38,6.76l-59,.5,59.26-15.31Z"/><path class="cls-5" d="M405.22,319.88l-7.07,2.91-1.7-1.47,8.76-1.44Z"/><path class="cls-7" d="M1169.05,354l-46.77,3-111.87.75c39.52-3.66,79.2-6.87,118.43-11.39,7.4-.85,13-6.91,19.43-10.57l32.33-4.1,61.06,6.8c-11.35,2.83-22.51,5.94-34.09,8.41C1194.93,349.54,1181.91,351.63,1169.05,354Z"/><path class="cls-14" d="M1241.66,338.44q-30.53-3.4-61.05-6.81l27.68-8.31,66.25-4.32,13.06,14.81Z"/><path class="cls-17" d="M664.08,337q20.43,1.71,40.86,3.4l19.08.53c-4.77,2.64-8.8,6.58-14.47,7.68-16.85,3.28-34.34,5.45-51.58,8l-53.3-.12,0-10.69,12.7-.63,15.45,2.9-1.39-9.33Z"/><path class="cls-14" d="M617.34,345.21l-12.7.63L585,345.62l.12.12c-.11-1.52-.21-3-.32-4.55l34.2-2.56Q618.14,341.92,617.34,345.21Z"/><path class="cls-15" d="M617.34,345.21q.79-3.3,1.61-6.58l12.45.15q.71,4.67,1.39,9.33Z"/><path class="cls-15" d="M584.75,341.19c.11,1.52.21,3,.32,4.55l-7.17-4Z"/><path class="cls-15" d="M658,356.65c17.24-2.6,34.73-4.77,51.58-8,5.67-1.1,9.7-5,14.47-7.68L830,336l33.4,4.17q-8.76,4-17.51,8.05c-5.2,2.4-10.37,4.82-15.55,7.24l-13.29.08-19.59.18Z"/><path class="cls-17" d="M830.34,355.5c5.18-2.42,10.35-4.84,15.55-7.24q8.73-4,17.51-8.05l80.41-1.12,52.2.36-78.69,16Z"/><path class="cls-18" d="M917.32,355.43l78.69-16,79.84-4.42,72.42.71c-6.43,3.66-12,9.72-19.43,10.57-39.23,4.52-78.91,7.73-118.43,11.39l-92.37.8A23.94,23.94,0,0,1,917.32,355.43Z"/><path class="cls-4" d="M1148.27,335.74l-72.42-.71,33-11.12,25.58,6.75c.21-2.4.43-4.8.64-7.21l13.52-3.69,46.34-.31,13.4,3.86-27.68,8.32Z"/><path class="cls-14" d="M1135,323.45c-.21,2.41-.43,4.81-.64,7.21l-25.58-6.75Z"/><path class="cls-15" d="M604.67,356.53l-19.49.07q-.1-5.49-.23-11l19.69.22Z"/><path class="cls-10" d="M74,487.53,42.34,466.9l4.73-2.84L127.19,463l90.66,2.88c16.44,7.36,31.56,7.53,44.78-2.74l54.1,3.52a5.7,5.7,0,0,1,.16,3l-71.32,12.23-61-.39Z"/><path class="cls-15" d="M63.11,535.54,76,509.2l25.6-.18c3,3.6,5.76,10.26,9,10.34,42.89,1,85.86,1.16,128.8,1.52l33.44,1.86c-4.68,2.75-8.53,6.74-14.2,8-14.51,3.29-29.84,5.38-44.84,8l-15.47,1.18c-18.52-.12-37.08.2-55.54-.45C116.22,538.51,89.68,536.88,63.11,535.54Z"/><path class="cls-12" d="M47.06,464.06l-4.72,2.84c-3.49-5.21-10.55-10.65-9.58-15.56,1.24-6.23,9-12,13.91-18l9.3-3.85,136.17,3c-44.3,6.63-88.76,12.94-132.7,20.29C53.9,453.71,51.12,460.17,47.06,464.06Z"/><path class="cls-5" d="M74,487.53l110.62-6.1,18.91,4.62-10.31,3.55-25.53.33L154,497.27l-51.8,4.4c-14.8.2-29.43.26-27.4-12.2C73.58,489,73.31,488.31,74,487.53Z"/><path class="cls-16" d="M74.78,489.47c-2,12.46,12.6,12.4,27.39,12.2-.18,2.45-.35,4.9-.53,7.35L76,509.2Z"/><path class="cls-4" d="M192.14,432.49,56,429.46c-3.9-10.29,4-13.64,21.28-15.7,13.68-1.63,38.09,1.77,35.26-14.57,23.53,7.23,46.91,13.39,75.35,10.86,19.53-1.74,40.24.78,59.65-1.16,12.71-1.27,24-7.11,36-10.9,36.75-7,80.05-1,111.34-18.8l19.84-.21,19.55-.55,39.85-1.28,71.49.76C486.4,387,426.9,395.51,368.16,405.48c-43.61,7.4-92.66,4.84-130.31,23.34l-15,3.86Z"/><path class="cls-3" d="M474.09,377.14l-39.86,1.29-19.55.55-19.84.2-321.11,1L57.05,364.06l95.28-.51,39.35-3,32.9,3.13,85.34-.41,157.32-1.36,98,.29c-6.18,2.56-11.8,6.53-18.62,7.41C522.67,372.71,498.3,374.72,474.09,377.14Z"/><path class="cls-5" d="M73.73,380.22l321.11-1C363.55,397,320.25,391,283.51,398L84.85,395.19l-34.34-5.1Z"/><path class="cls-12" d="M84.85,395.19,283.51,398c-12,3.8-23.29,9.64-36,10.91-19.41,1.94-40.12-.58-59.65,1.16-28.44,2.53-51.82-3.63-75.35-10.86Z"/><path class="cls-10" d="M1392.53,418.41q-3.69,13.24-7.37,26.49l-71.55-14.12-83.79.4-27.65-4.37a18.68,18.68,0,0,1,1.59-3.07l117-4.93h59Z"/><path class="cls-18" d="M1224.66,533.41l-53.16.35c12.81-2.4,25.79-4.54,38.39-7.26,11.52-2.49,22.64-5.6,33.93-8.44l39-7.16c11.22.89,22.4,2.23,33.66,2.54,15.28.41,30.63,0,46,0L1375,518c-10.86,2.39-21.42,6-32.65,6.94C1303.26,528.23,1263.92,530.65,1224.66,533.41Z"/><path class="cls-7" d="M1401.24,471.2c16.07,13.24-1.07,18.51-17.19,24l-101.23,11.33L1270,499l51-4.54,79.21-19.05Z"/><path class="cls-10" d="M1401.24,471.2c-.34,1.4-.68,2.8-1,4.2L1341.3,472c-4.92-2.47-9.7-5.06-14.81-7.4-5.82-2.65-11.94-5.09-17.93-7.62l13-.25,19.84-.76,24.07-.86,27.56,1Q1397.15,463.69,1401.24,471.2Z"/><path class="cls-7" d="M1224.66,533.41c39.26-2.76,78.6-5.18,117.71-8.51,11.23-.95,21.79-4.55,32.65-6.94l25.85,11.43q-70.35,1.92-140.69,3.82C1248.36,533.51,1236.5,533.36,1224.66,533.41Z"/><path class="cls-1" d="M1282.81,506.57l101.24-11.33-21.58,18.2c-15.33,0-30.68.41-46,0-11.26-.31-22.44-1.65-33.65-2.54C1282.84,509.45,1282.83,508,1282.81,506.57Z"/><path class="cls-17" d="M1393,456.17q-13.79-.51-27.55-1c-4.93-3.24-9-7.35-15.09-9.51-6.53-2.31-15-2.79-22.61-4.07l-14.19-10.81,71.56,14.12Q1389.11,450.53,1393,456.17Z"/><path class="cls-5" d="M1392.53,418.41l-12.68.39,17.74-8.58q.81,3.66,1.6,7.32Z"/><path class="cls-15" d="M1243.82,518.06c-11.29,2.84-22.41,6-33.93,8.44-12.6,2.72-25.58,4.86-38.39,7.26l-32.6.25-209.56.65c11.69-2.4,23.86-4.23,34.92-7.38,8.68-2.48,16-6.58,23.89-10l71.78-1.73,90.49-3.66,33.63-.39Z"/><path class="cls-9" d="M1397.59,410.22l-17.74,8.58h-59L1361.23,407,1163.4,408l-33.64-18.18,13.21-2.23c-.26-.56-.52-1.12-.77-1.68l-58.78.32-32.36-8,46-3.16,66,2.86c17.54,10.73,61,10.5,78.57-.42l78.47,3.34c23.5,6.12,47.34,11.85,70.2,18.69C1394.67,400.93,1395.24,406.57,1397.59,410.22Z"/><path class="cls-19" d="M1261.5,358.14l139.82-4.53c-22.89,16.77-53.54,15.54-80.44,19.61-12.24-1.22-24.39-3-36.71-3.56-23.17-1.14-46.44-1.63-69.66-2.4l20-1.87Z"/><path class="cls-12" d="M1214.5,367.26c23.23.77,46.5,1.26,69.67,2.4,12.32.61,24.47,2.34,36.71,3.56-.27,2.57-.55,5.13-.83,7.7l-78.47-3.35L1163,378l-66-2.86Z"/><path class="cls-6" d="M1214,354.16l46.52.47a15.51,15.51,0,0,1,1,3.51l-27,7.26-39.44-9.84,7.48-1.2Z"/><path class="cls-5" d="M1051.06,378.3l32.37,8c-32.69,5.06-65.12,10.85-98.15,15-57.59,7.27-115.67,13.24-173.34,20.33-70.39,8.65-141,17-210.74,27.14-85.26,12.37-169.82,26.36-254.51,40-6.06,1-10.75,4.82-16.08,7.32l-117.5,1.38,32.46-15.63,71.32-12.23c11.81-.75,24-.68,35.34-2.36,87.36-12.89,174.31-26.7,261.89-39.06,88.52-12.49,177.27-24.64,266.63-34.85,34.81-4,71.59-2,107.42-3.26,10.68-.37,32.38,3.09,17.14-11.25l-.06,0c0-1.21,0-2.41,0-3.62Z"/><path class="cls-5" d="M316.73,466.61l-54.09-3.53c2.37-5.41,4.72-10.82,7.09-16.23,55.45-7.19,110.93-14.28,166.31-21.61,78.23-10.36,156.35-21,234.59-31.32,45.65-6,91.43-11.69,137.15-17.51l99.66,2.29c-11.76,2.77-23.12,6.49-35.33,8.15C825.19,393.23,777.85,398.57,731,405,637,417.85,543.16,430.81,449.6,444.46,404.93,451,361,459.17,316.73,466.61Z"/><path class="cls-14" d="M316.73,466.61C361,459.17,404.93,451,449.6,444.46,543.16,430.81,637,417.85,731,405c46.9-6.42,94.24-11.76,141.16-18.14,12.21-1.66,23.57-5.38,35.32-8.15q48.9-1.76,97.79-3.54c0,1.21,0,2.41,0,3.62l-35.81,1.32q2,3.84,4,7.7l31.9-9c15.24,14.34-6.46,10.88-17.14,11.25-35.83,1.26-72.61-.72-107.42,3.26-89.36,10.21-178.11,22.36-266.63,34.85-87.58,12.36-174.53,26.17-261.89,39.06-11.38,1.68-23.53,1.61-35.34,2.36A5.7,5.7,0,0,0,316.73,466.61Z"/><path class="cls-5" d="M192.14,432.49l30.68.19q-4.65,5.79-9.23,11.57L127.19,463l-80.12,1.11c4-3.89,6.83-10.35,12.37-11.28C103.38,445.43,147.84,439.12,192.14,432.49Z"/><path class="cls-13" d="M213.59,444.25q4.59-5.78,9.23-11.57l15-3.86q9.31,2.25,18.64,4.47l13.21,13.56q-3.52,8.11-7.07,16.23c-13.23,10.28-28.35,10.11-44.79,2.76Q215.74,455,213.59,444.25Zm49.24,6.05H260.6l.09,5.64h2.23Z"/><path class="cls-4" d="M213.59,444.25q2.13,10.8,4.26,21.59L127.19,463Z"/><path class="cls-16" d="M245.57,481.82l-32.46,15.62-27.91,4.28,8-12.12,10.31-3.55-18.91-4.62Z"/><path class="cls-12" d="M193.21,489.6l-8,12.12,27.91-4.28,117.5-1.36,20.29,7.71c-32,3.87-64.1,7.58-96,11.77-5.56.73-10.32,3.49-15.46,5.32-42.94-.36-85.91-.48-128.8-1.52-3.25-.08-6-6.74-9-10.34.18-2.45.35-4.9.53-7.35l51.81-4.4,13.7-7.34Z"/><path class="cls-5" d="M239.45,520.88c5.14-1.83,9.9-4.59,15.46-5.32,31.89-4.19,64-7.9,96-11.76l32.94-.06-.06,0-33.27,12.07-32.32,4.09-45.3,2.88Z"/><path class="cls-18" d="M272.89,522.74l45.3-2.89c-5.27,3.7-9.29,8.94-16.07,10.79C288.8,534.26,274,536,259.75,538.5l-45.9.22c15-2.57,30.33-4.66,44.84-8C264.36,529.48,268.21,525.49,272.89,522.74Z"/><path class="cls-16" d="M167.68,489.93,154,497.27Z"/><path class="cls-5" d="M256.5,433.3l-18.64-4.48c37.64-18.5,86.69-15.94,130.3-23.34,58.74-10,118.24-18.45,177.41-27.57l20.35-.85,6.39,1.22c-8,3.54-15.07,8.69-24.07,10.3-18.44,3.3-38.21,4.05-56.89,7C413,407.92,334.76,420.69,256.5,433.3Z"/><path class="cls-6" d="M565.93,377.05l-20.36.86-71.49-.76c24.22-2.43,48.59-4.44,72.55-7.52,6.82-.88,12.44-4.85,18.62-7.41l33.08-1.44,52.33,1c-7.33,2.57-14.14,6.25-22.09,7.47C608,372.42,586.84,374.52,565.93,377.05Z"/><path class="cls-5" d="M414.68,379l19.55-.55Z"/><path class="cls-5" d="M1163.4,408,1361.23,407l-40.42,11.85-117,4.93c-27.69,2.63-55.51,4.86-83,8.1-12.21,1.44-23.37,5.83-35.57,7.3-74.86,9-150.19,16.84-224.78,26.58-72.09,9.42-143.6,20.39-215.12,31.24-35.18,5.33-69.79,11.94-104.65,18q-16.1,2-32.18,4l-51.72,1.5-79.39-1.06C433.07,508.82,488.17,497,544.62,488c65.44-10.38,132-18.46,198.25-27,21.16-2.75,43.19-3.23,64.37-5.94,67.88-8.7,135.52-18,203.29-27Q1086.93,417.93,1163.4,408Z"/><path class="cls-14" d="M540.65,514.93c34.87-6,69.48-12.64,104.66-18,71.52-10.85,143-21.82,215.12-31.24,74.59-9.74,149.92-17.54,224.78-26.58,12.2-1.47,23.36-5.86,35.57-7.3,27.47-3.24,55.29-5.47,83-8.1a17.87,17.87,0,0,0-1.58,3.07l-17.41,11.92c-47.29,5.07-94.5,10.4-141.89,15.11-40.55,4-81.81,6.05-121.85,11.28-71.95,9.39-143.27,20.43-214.78,30.94q-59.14,8.69-118,18c-.57.09.19,3,.32,4.6l-7.5,3.07Z"/><path class="cls-13" d="M1184.77,438.73l17.41-11.92,27.63,4.37q3.89,7.36,7.75,14.74-1.05,5.65-2.06,11.31l-38.34,8.18-16.63-8Q1182.65,448.06,1184.77,438.73Z"/><path class="cls-16" d="M1237.57,445.92l-7.76-14.74,83.8-.4,14.18,10.81Z"/><path class="cls-11" d="M1243.82,518.06l-59.77-6.53L1270,499l12.8,7.58c0,1.44,0,2.88,0,4.33Z"/><path class="cls-1" d="M1341.3,472l58.93,3.36L1321,494.45l-71.06-3-20.17-7.36-13.3-.86c5.45-2.28,10.61-6.25,16.38-6.57C1268.94,474.68,1305.14,473.5,1341.3,472Z"/><path class="cls-16" d="M1250,491.46l71,3L1270,499l-86,12.54-33.61.39Z"/><path class="cls-17" d="M1341.3,472c-36.16,1.46-72.36,2.64-108.43,4.63-5.77.32-10.93,4.29-16.37,6.58l-84.59,1.39-52.66.07c17.2-2.63,34.48-5.11,51.59-7.93,22.18-3.65,44.22-7.57,66.32-11.37l38.35-8.18,73-.21c6,2.53,12.11,5,17.93,7.62C1331.6,467,1336.38,469.57,1341.3,472Z"/><path class="cls-14" d="M1308.56,457l-73,.21q1-5.66,2-11.31l90.23-4.33c7.62,1.28,16.08,1.76,22.61,4.07,6.1,2.16,10.16,6.27,15.09,9.51q-12.06.4-24.08.84l-19.84.76Z"/><path class="cls-17" d="M1321.57,456.77l19.84-.76Z"/><path class="cls-5" d="M1131.91,484.65l84.59-1.4,13.3.85c-6.19,2.54-11.78,6.29-18.66,7.43-50.25,8.31-100.77,16.1-151.21,24.06q-35.9.85-71.78,1.71l-53.1-1c46.44-6.72,93-13.14,139.26-20.28C1093.87,493,1112.73,488.48,1131.91,484.65Z"/><path class="cls-17" d="M935,516.29l53.11,1c-7.91,3.4-15.21,7.5-23.89,10-11.06,3.15-23.23,5-34.92,7.38l-20.42,1.08-59.11-3.57,6.89-4.46,12.78-10.8Z"/><path class="cls-11" d="M1059.93,515.59c50.44-8,101-15.75,151.21-24.06,6.88-1.14,12.47-4.89,18.66-7.43l20.16,7.36-99.52,20.46Z"/><path class="cls-14" d="M1163.4,408q-76.44,10-152.87,20c-67.77,9-135.41,18.29-203.29,27-21.18,2.71-43.21,3.19-64.37,5.94-66.26,8.59-132.81,16.67-198.25,27-56.45,9-111.55,20.79-167.24,31.35l-26.87-3.61,33.27-12.07c37.44-5.31,74.81-10.8,112.34-15.91,74.56-10.13,149.3-19.83,223.79-30.14,58.18-8.06,115.73-17.73,174.2-25,74.78-9.26,150.22-16.75,225.31-25.19,5.95-.67,11.43-2.78,17.13-4.22L1133.9,398c-19.71,2.28-39.37,6.35-59.14,6.53-65.2.59-128.34,5-191.71,15.83-71,12.15-145.67,17-217.93,27-94.13,13-187.46,28-281.09,42.21-1.53.24-2.45,1.82-4.89,3.76L398,497.75l-14.14,6-32.94.06-20.29-7.72c5.33-2.51,10-6.35,16.08-7.33,84.69-13.64,169.25-27.63,254.51-40,69.78-10.13,140.35-18.49,210.74-27.14,57.67-7.09,115.75-13.06,173.34-20.33,33-4.17,65.46-10,98.15-15l58.77-.32c.25.56.51,1.12.77,1.68l-13.21,2.23Z"/><path class="cls-3" d="M1108.9,358.74l40.67.28,25.73-3.69,19.76.23,39.44,9.84-20,1.86L1097,375.14l-46,3.16-45.84-3.14q-48.9,1.77-97.79,3.54l-99.64-2.29-65,.57-13.29.34-38.72.13-27-.43-58.69.86-6.93.26-25.86.15-6.39-1.23c20.92-2.54,42-4.64,62.65-7.83,7.95-1.22,14.76-4.9,22.09-7.47l235.83-2.49,46.3-.71Z"/><path class="cls-1" d="M1163,378l78.57-.43C1224,388.5,1180.55,388.73,1163,378Z"/><path class="cls-11" d="M742.79,377l65-.57c-45.73,5.82-91.51,11.49-137.16,17.51-78.24,10.33-156.36,21-234.59,31.32-55.38,7.33-110.86,14.42-166.31,21.61q-6.63-6.78-13.23-13.56c78.26-12.6,156.46-25.37,234.85-37.72,18.68-2.94,38.45-3.69,56.89-7,9-1.61,16.11-6.76,24.07-10.3l25.85-.14,6.94-.26,58.69-.86c-32.37,5.23-64.95,10.09-97,15.87-16.06,2.9-31.21,7.49-46.77,11.32l-19.86,1.14,1.5,3.1,18.4-4.21c53.44-5.51,107-10.81,160.19-16.92,4.47-.51,7.08-6.45,10.56-9.86l38.71-.14Z"/><path class="cls-5" d="M1005.31,378.81l-31.9,9q-2-3.85-4-7.7l35.81-1.32Z"/><ellipse class="cls-10" cx="261.76" cy="453.13" rx="1.58" ry="4" transform="translate(-8.42 4.97) rotate(-1.07)"/><path class="cls-17" d="M350.51,515.77l26.87,3.61q39.67.54,79.38,1c-4.8,3.19-8.55,7.87-14.59,9.3-14.12,3.34-29.34,5.13-44.11,7.54l-85.48,1.66-52.83-.43c14.21-2.51,29.05-4.24,42.37-7.86,6.78-1.85,10.8-7.09,16.07-10.79Z"/><path class="cls-17" d="M522.67,536.68l-65.92.05c12-2.34,24.72-3.91,35.78-7.3,6.65-2,10.72-6.9,16-10.49q16.1-2,32.18-4l40.43,6.85Z"/><path class="cls-18" d="M508.48,518.94c-5.23,3.59-9.3,8.45-16,10.49-11.06,3.39-23.77,5-35.78,7.3l-58.69.54c14.77-2.41,30-4.2,44.11-7.54,6-1.43,9.79-6.11,14.59-9.3Z"/><path class="cls-5" d="M1184.77,438.73c-1.42,6.22-2.83,12.44-4.28,18.66-36.57,2.24-73.26,3.85-109.61,6.85-67.26,5.56-134.32,11.94-201.47,18-19.43,3.9-38.58,8.35-58.33,11.58C763,501.67,714.65,509,666.41,516.54l-33.31,1.87-32.83,1.06a7.45,7.45,0,0,0-5.77,0c-1.94-.35-3.91-.63-5.91-.82-.13-1.6-.89-4.51-.32-4.6q58.88-9.25,118-18c71.51-10.51,142.83-21.55,214.78-30.94,40-5.23,81.3-7.24,121.85-11.28C1090.27,449.13,1137.48,443.8,1184.77,438.73Z"/><path class="cls-18" d="M588.59,518.7c2,.19,4,.47,5.9.81l5.78,0,32.83-1.06c-5.37,3.55-10.35,7.33-16.23,10.57-4.85,2.68-10.76,4.71-16.21,7l-12.95.07-13,.11-52.08.5,58.43-14.91Z"/><path class="cls-1" d="M869.41,482.21c67.15-6,134.21-12.41,201.47-18,36.35-3,73-4.61,109.61-6.85q8.37,4,16.67,8c-22.1,3.8-44.14,7.72-66.32,11.37-17.11,2.82-34.39,5.3-51.59,7.93l-65.64.17L902.48,486Z"/><path class="cls-14" d="M1013.61,484.88l65.64-.17,52.66-.07c-19.18,3.84-38,8.35-57.6,11.37-46.24,7.14-92.82,13.56-139.26,20.28l-65.57.61-12.9,3-13.05-4.17c2.21-2,3.88-5.45,6.72-5.81,47.16-5.95,94.55-11.28,141.65-17.39C999.73,491.56,1006.4,487.52,1013.61,484.88Z"/><path class="cls-18" d="M843.53,515.77l13.05,4.17c0,2.6.08,5.18.12,7.77l-6.89,4.46-196.12,4c18.13-2.54,36.63-4.48,54.22-7.94,6.92-1.37,11.82-6.16,17.65-9.4l71.7-1.55,9.07,10,11-10.49Z"/><path class="cls-17" d="M725.56,518.82c-5.83,3.23-10.73,8-17.65,9.39-17.59,3.46-36.09,5.4-54.22,7.94l-53-.15c5.44-2.31,11.35-4.34,16.2-7,5.88-3.24,10.86-7,16.23-10.57l33.31-1.86,39.16,1.13Z"/><path class="cls-15" d="M856.7,527.71c0-2.59-.08-5.17-.12-7.77l12.9-3Z"/><path class="cls-5" d="M383.84,503.74l14.14-6-18.84-4.36c2.44-1.94,3.36-3.52,4.89-3.76,93.63-14.23,187-29.18,281.09-42.21,72.26-10,146.9-14.89,217.93-27,63.37-10.83,126.51-15.24,191.71-15.83,19.77-.18,39.43-4.25,59.14-6.53l2.65,5.24c-5.7,1.44-11.18,3.55-17.13,4.22-75.09,8.44-150.53,15.93-225.31,25.19-58.47,7.25-116,16.92-174.2,25-74.49,10.31-149.23,20-223.79,30.14-37.53,5.11-74.9,10.6-112.34,15.91Z"/><path class="cls-5" d="M520,404.21c15.56-3.83,30.71-8.42,46.77-11.32,32.07-5.78,64.65-10.64,97-15.87l27,.43c-3.47,3.42-6.08,9.36-10.55,9.87C627,393.43,573.48,398.73,520,404.24Z"/><path class="cls-5" d="M742.79,377l-13.29.34Z"/><path class="cls-5" d="M605.1,377.88l-6.94.26Z"/><path class="cls-5" d="M520,404.24l-18.4,4.21-1.5-3.1L520,404.21Z"/><path class="cls-11" d="M705.57,517.68l-39.16-1.13C714.65,509,763,501.67,811.08,493.79c19.75-3.23,38.9-7.68,58.33-11.58L902.48,486c-8.68,2.49-16.93,6-26.1,7.31C819.56,501.7,762.53,509.61,705.57,517.68Z"/><path class="cls-17" d="M600.27,519.47l-5.78,0A7.52,7.52,0,0,1,600.27,519.47Z"/><path class="cls-5" d="M705.57,517.68c57-8.07,114-16,170.81-24.37,9.17-1.35,17.42-4.82,26.1-7.31l111.13-1.12c-7.21,2.64-13.88,6.68-21.71,7.69C944.8,498.68,897.41,504,850.25,510c-2.84.36-4.51,3.81-6.72,5.81l-26.24,1-20,.51-71.7,1.55Z"/><path class="cls-17" d="M797.26,517.26l20-.51-11,10.49Z"/><path class="cls-9" d="M1311.27,536.73l88.3,19.63q-2.31,8.6-4.63,17.18l-11.16,5.22-1.19-.19-7.49-6.18-4.56,5.77-20.36-2.85c-9.06-3.86-18.19-11.08-27.2-11-54.17.31-108.32,2.28-162.48,3.7l-.18-10.73,31.37-1-.9-3.64-135.62,5c.17-2.38.35-4.76.52-7.14l19-.37,55.07-.3-.09-7.64-55.36.3-25.35-.24,18.91-5.81L1133,538Z"/><path class="cls-10" d="M1396.93,620.11q.78,7.82,1.54,15.62L1350.76,628l-19.5,0-32.67-.07c0-3.6,0-7.19-.08-10.79l86.21-9.45,10.77,10.43C1394.81,619.11,1395.29,619.75,1396.93,620.11Z"/><path class="cls-1" d="M1384.72,607.74l-86.21,9.45-13.42-.31c7.17-2.54,14.57-4.88,21.42-7.68,6-2.42,11.29-5.36,16.9-8.07l.36-7.24,6.18-3.18c19.8,10.75,35.56,4.32,50.86-4l5-.88-2.07,15.44C1384.05,603.41,1384.38,605.58,1384.72,607.74Z"/><path class="cls-20" d="M1384.72,607.74c-.34-2.16-.67-4.33-1-6.49l11.78,16.92Z"/><path class="cls-20" d="M1383.78,578.76l11.16-5.22-9.16,12.27-5,.88C1381.81,584.05,1382.8,581.4,1383.78,578.76Z"/><path class="cls-5" d="M78.8,552.16l-24.35-5.81,18.49-6.28,177.28-1.61,78.25.15,85.52.31-131.2,19.13c-35.45-3.39-70.74-8.53-106.4-9.65C144.07,547.38,111.34,550.74,78.8,552.16Z"/><path class="cls-3" d="M250.22,538.45,72.94,540.07l-5.87-13.59,84.49-5.17,40.32-4.42,18,3.46,39.77.18,32.92-.16L295,520l13.07.37a19.06,19.06,0,0,1,.44,3.67Z"/><path class="cls-12" d="M78.8,552.16c32.54-1.42,65.27-4.78,97.59-3.76,35.66,1.12,71,6.26,106.4,9.65l-26.1,11.24-32.4.52-19.74.05L192.38,577a9.54,9.54,0,0,1-.47-3.16l-80.16-3.63,6.07-8.27Z"/><path class="cls-12" d="M42.38,626c-25-10.64-4-21.82-1.14-32.78,1.7-.23,3.43-.41,5.17-.54l44.85,1.88L80.21,582l98.09,6.47,13,3.86c-45.25,6.72-90.7,13-135.52,20.63-6.19,1-9.24,8.31-13.74,12.7Z"/><path class="cls-16" d="M178.3,588.48,80.21,582,50,582.35l61.73-12.17,80.15,3.63-20.79.81.06,2.47,21.2-.12,12.17-7.11,19.74-.05,32.4-.51-12.81,8.3-6.2,3.41C214.29,573.94,195.08,578,178.3,588.48Zm-40-9.89c.19.9.37,1.8.56,2.7L152.55,580c-.17-.74-.35-1.48-.53-2.22Z"/><path class="cls-10" d="M50,582.35,80.21,582l11.05,12.57-44.85-1.88Q48.22,587.54,50,582.35Z"/><path class="cls-16" d="M69.78,664.71q.54-9.12,1.06-18.25,73.79-6.74,147.6-13.45l19.09,1.69c.26,2.64.51,5.27.76,7.91L206,653.31l-26.11,7.51q-3.09-.21-6.19-.14c-9-10.59-18.17-10.3-27.42-.1Z"/><path class="cls-10" d="M218.43,633,70.84,646.46,42.38,626l-.32-.35c47.27-1,94.57-2.76,141.82-2.42,18.08.13,27.31-3.12,33-12.06Z"/><path class="cls-10" d="M69.78,664.71l76.52-4.12,27.42.09q3.1-.07,6.19.14l-.48,7.08c-19,.26-38.33-.56-56.86,1.3-7.88.79-14.09,7.18-21,11L82.15,698.84l-12.81.4Q69.57,682,69.78,664.71Z"/><path class="cls-7" d="M1358.86,676.41l51.63,19.19L1260,696.85l-99.72.89-17.8-1.66-65.7-3c10-3.58,19.56-7.86,30.27-10.56,13.39-3.37,27.77-5.44,41.73-8.08l32.52-.61,6.7,4.29L1175,695.6c40.63-5.54,78.39-11.35,116.66-15.63C1313.6,677.5,1336.41,677.51,1358.86,676.41Z"/><path class="cls-1" d="M1188,678.13l-6.7-4.28,36-15.08-16.83-8.07,21.62-5-21.66-5.53L1298.59,628l32.67.07,0,7.55-58.86,4.78c.19,1,.37,2,.56,3l58.45-.31c2.5,3.81,3.76,10.31,7.73,10.92,9.87,1.52,21,.36,31.57.28l4.7,2.67-18.14,16.48c-9.27-.91-18.69-2.94-27.8-2.54C1282.3,673,1235.19,675.66,1188,678.13Zm59.88-23.61,1.74-2.86-11.86-2.59a27.57,27.57,0,0,0-1.7,3C1240,653,1244,653.75,1247.92,654.52Zm66.26,2.23c-.38-.38-.64-1-1.2-1.09a9.44,9.44,0,0,0-2.43.16l1.63,1.7Z"/><path class="cls-18" d="M1188,678.13c47.15-2.47,94.26-5.16,141.46-7.24,9.11-.4,18.53,1.63,27.8,2.54a4.48,4.48,0,0,1,1.56,3c-22.45,1.1-45.26,1.09-67.25,3.56-38.27,4.28-76,10.09-116.66,15.63Z"/><path class="cls-15" d="M1350.76,628l47.71,7.71c-.94,2.4-1.89,4.79-2.83,7.19l-5.49,3.33-.38.32-18.87.29Zm27.56,12.1a13,13,0,0,0-2.75.56c-.26.12.4.9.64,1.38a12.46,12.46,0,0,0,2.75-.57C1379.22,641.38,1378.56,640.6,1378.32,640.12Z"/><path class="cls-1" d="M1370.9,646.86l18.87-.29-14.34,10.37-4.69-2.66C1370.79,651.81,1370.85,649.33,1370.9,646.86Z"/><path class="cls-17" d="M1390.15,646.25l5.49-3.33Z"/><path class="cls-3" d="M1133,538l-65.13-1.57L924,536l-124.62.37-71.72.64-26.18-.6,71.76-15.27L930.37,517c2.09-.18,4.15-.42,6.18-.75l157.31-.84,44.72-.2,7,.24,13.25-.29,40-.19,19.25-.07,36.43-.28,62.15.6c-36.33,2.51-73.09,3.81-108.86,7.95C1182.24,526.14,1157.93,532.91,1133,538Z"/><path class="cls-8" d="M1133,538c24.9-5.07,49.21-11.84,74.84-14.8,35.77-4.14,72.53-5.44,108.86-7.95l85.39-.47-90.85,22Z"/><path class="cls-5" d="M1160.5,568c54.16-1.42,108.31-3.39,162.48-3.7,9-.06,18.14,7.16,27.2,11l-143.79,8.42-59.23,3.62c-35,5.19-69.89,10.86-105.15,15.48-93.64,12.26-187.52,23.95-281.2,36.12-61.6,8-123.17,16.15-184.42,25-10.75,1.56-19.81,7-29.65,10.68l-52.74,4-38.69.87L370,678.71c21.61-4.94,42.71-10.92,64.93-14.63C501.6,653,568.35,641.79,635.8,632.39c92.53-12.9,185.6-24.57,278.7-36.06,63.92-7.9,128.3-14.56,192.46-21.85C1124.85,572.45,1142.66,570.16,1160.5,568Z"/><path class="cls-5" d="M206,653.31l32.27-10.71q42.14-6.69,84.26-13.34c31.82-5,63.48-10.46,95.5-15q93.74-13.44,187.8-26.07c87.46-11.71,174.91-23.5,262.74-34.23,28.93-3.53,57.53-6.86,89.07-4.53,29.44,2.17,60.81-4.42,91.32-7.15l25.35.24c.13,2.54.25,5.09.38,7.64l-19,.37c-44.92,5.1-89.93,9.94-134.71,15.39-51.23,6.24-102.42,12.65-153.35,19.64C678.28,597.78,588.91,610.06,500,623.3c-50.47,7.52-100.07,17-150.06,25.57Z"/><path class="cls-14" d="M1160.5,568c-17.84,2.17-35.65,4.46-53.54,6.49-64.16,7.29-128.54,13.95-192.46,21.85-93.1,11.49-186.17,23.16-278.7,36.06-67.45,9.4-134.2,20.57-200.89,31.69-22.22,3.71-43.32,9.69-64.93,14.64l-19.82-3.05,47.23-16.1-27.78.16q-.23-3.65-.47-7.27l1-.45c14.23,1.92,28.4,4.06,42.76,5.64,7.21.8,15.29,1.72,22.07.66,95.85-15.09,191-31.67,287.43-45.48,72.92-10.46,147.31-17.49,221-26q78.75-9.13,157.5-18.23l59.4-11.31Z"/><path class="cls-11" d="M1049,542.23c-30.51,2.73-61.88,9.32-91.32,7.15-31.54-2.33-60.14,1-89.07,4.53-87.83,10.73-175.28,22.52-262.74,34.23q-94.08,12.58-187.8,26.07c-32,4.59-63.68,10-95.49,15.06a19.31,19.31,0,0,0,.63-3.15c14.18-4,27.72-9.29,42.66-11.77,73-12.1,146.15-24.13,219.82-34.86,54-7.87,109-13.53,163.36-20.48,58.41-7.47,116.67-15.3,175-23l143.87.38Z"/><path class="cls-14" d="M349.93,648.87c50-8.58,99.59-18,150.06-25.57,88.92-13.24,178.29-25.52,267.64-37.79,50.93-7,102.12-13.4,153.35-19.64,44.78-5.45,89.79-10.29,134.71-15.39-.17,2.38-.35,4.76-.52,7.14q0,3.75,0,7.51a1360.73,1360.73,0,0,0-222.26,19.35c-88.08,14.8-178.72,24.43-267.87,37.21-65.3,9.35-130,20.16-194.93,30.32l-1,.44Z"/><path class="cls-10" d="M1206.39,583.72l143.79-8.42,20.35,2.87,12.06.4,1.19.19c-1,2.64-2,5.29-3,7.93-15.31,8.34-31.07,14.77-50.87,4l-6.6.62-105.49-.81h-11.33C1206.48,588.26,1206.44,586,1206.39,583.72Z"/><path class="cls-16" d="M1055.18,565.13q0-3.76,0-7.51l135.62-5,.9,3.64-31.37,1-59.4,11.31Z"/><path class="cls-14" d="M1074.71,550.11c-.13-2.55-.25-5.1-.38-7.64l55.36-.3.09,7.64Z"/><path class="cls-15" d="M1298.59,628l-98.08,12.24-104.72,4.4,91.61-15.89,46.19-7.8,51.5-4,13.42.31C1298.54,620.79,1298.57,624.38,1298.59,628Z"/><path class="cls-17" d="M1370.9,646.86c-.05,2.47-.11,4.95-.16,7.42-10.61.08-21.7,1.24-31.57-.28-4-.61-5.23-7.11-7.73-10.92l-.15-7.48,0-7.55,19.5,0Z"/><path class="cls-5" d="M1217.85,590.52l105.5.81a14,14,0,0,1,.42,2.56q-.18,3.61-.35,7.25L1234,605.81Z"/><path class="cls-11" d="M1234,605.81l89.44-4.67c-5.62,2.7-11,5.64-16.91,8.06-6.85,2.8-14.25,5.14-21.42,7.68l-51.51,4Q1233.78,613.37,1234,605.81Z"/><path class="cls-11" d="M1323.77,593.89a14,14,0,0,0-.42-2.56l6.6-.62Z"/><path class="cls-11" d="M243.88,577.6l12.81-8.3,26.1-11.25L414,538.92l58.84-1.79,58.44.69c-39.73,6-79.29,12.43-119.24,17.91C356.13,563.39,299.94,570.34,243.88,577.6Z"/><path class="cls-3" d="M472.82,537.13,414,538.92l-85.51-.31c5.18-17.31,29.33-9.26,45.81-11.47L505,526.4Z"/><path class="cls-6" d="M374.29,527.14c-16.49,2.21-40.64-5.84-45.82,11.47l-78.25-.15L308.55,524Z"/><path class="cls-11" d="M192.38,577l-21.2.12-.06-2.47,20.79-.81A9.54,9.54,0,0,0,192.38,577Z"/><path class="cls-11" d="M224.29,569.81l-19.74.05Z"/><path class="cls-5" d="M243.88,577.6c56.06-7.26,112.25-14.21,168.14-21.87,40-5.48,79.51-11.91,119.24-17.91l66,.11c-64.4,10.35-128.86,20.58-193.17,31.1-53.34,8.72-106.5,17.79-159.74,26.71-19.34-.91-27.72,4.73-27.56,15.46-5.65,8.94-14.88,12.19-33,12.06-47.25-.34-94.55,1.46-141.82,2.42,4.5-4.39,7.55-11.65,13.74-12.7,44.82-7.58,90.27-13.91,135.53-20.63L237.68,581Z"/><path class="cls-11" d="M237.68,581l-46.35,11.34-13-3.86C195.08,578,214.29,573.94,237.68,581Z"/><path class="cls-11" d="M138.28,578.59l13.74-.77c.18.74.36,1.48.53,2.22l-13.71,1.25C138.65,580.39,138.47,579.49,138.28,578.59Z"/><path class="cls-7" d="M212.84,702.39l-11-.7L95.49,698.78l65.3-3.9,71.56-.27,52.8-.33,136.93-.71,7.26,2.94-119.06,4.4Z"/><path class="cls-18" d="M160.79,694.88l-65.3,3.9-13.34.06,19.37-18.61L199.3,680Z"/><path class="cls-9" d="M349.93,648.87l19.21,3.58c.16,2.43.32,4.85.47,7.28l-110.45,8.76-79.73-.59.48-7.08L206,653.31Z"/><path class="cls-13" d="M216.84,611.2c-.16-10.73,8.22-16.37,27.56-15.46l22.22,12,4,18.37-33.11,8.57L218.44,633Q217.63,622.09,216.84,611.2Z"/><path class="cls-7" d="M237.53,634.7l33.12-8.57h52.54a19.31,19.31,0,0,1-.63,3.15q-42.13,6.65-84.27,13.33Q237.92,638.66,237.53,634.7Z"/><path class="cls-9" d="M173.72,660.68l-27.42-.09C155.55,650.38,164.69,650.09,173.72,660.68Z"/><path class="cls-14" d="M179.43,667.9l79.72.58-26.49,10.91-33.36.6-97.78.24c7-3.85,13.17-10.24,21-11C141.1,667.34,160.43,668.16,179.43,667.9Z"/><path class="cls-16" d="M1095.79,644.62l104.72-4.4,21.66,5.53-21.62,5,16.83,8.07-36,15.08q-16.26.28-32.52.6l-169.88,2.28-78.59-1.24c-.58-11,7.57-13,24.08-8.49,8.06,2.2,18.1,4.59,26.17,3.69,26.7-3,53.16-7,79.24-11.47,15.93-2.76,31-7.22,46.43-10.91Z"/><path class="cls-4" d="M310.28,700.9l119.06-4.38,45.2-.55,47.29-.05,71.38-2.86,83.32-.19,139.18-1,108.49-.56,113.42,2.21,13.3-.18,25.9-.27,65.7,3-.28,1.68-45.37.21-157.4.85-156.86.52-157,.75-157.34.48-155.59,1.27Z"/><path class="cls-18" d="M1076.82,693.09l-25.9.27-13.3.18q-56.71-1.11-113.4-2.22l54.72-14.58,169.88-2.29c-14,2.64-28.34,4.71-41.73,8.08C1096.38,685.23,1086.86,689.51,1076.82,693.09Z"/><path class="cls-15" d="M1331.29,635.6l.15,7.48-58.45.31c-.19-1-.37-2-.56-3Z"/><path class="cls-16" d="M1247.92,654.52c-4-.77-8-1.51-11.82-2.44a27.57,27.57,0,0,1,1.7-3l11.86,2.59Z"/><path class="cls-17" d="M1314.18,656.75l-2,.77-1.63-1.7a9.44,9.44,0,0,1,2.43-.16C1313.54,655.78,1313.8,656.37,1314.18,656.75Z"/><path class="cls-17" d="M1378.32,640.12c.24.48.9,1.26.64,1.37a12.46,12.46,0,0,1-2.75.57c-.24-.48-.9-1.26-.64-1.38A13,13,0,0,1,1378.32,640.12Z"/><path class="cls-5" d="M323.19,626.12H270.65q-2-9.18-4-18.37c11.77-2.65,23.16-6.16,35.31-7.84,97.8-13.46,195.62-26.91,293.71-39.66,53.15-6.91,106.85-12.43,160.29-18.61,14.5-1.68,29-3.49,43.44-5.25L924,536c-58.33,7.68-116.59,15.51-175,23-54.41,7-109.36,12.61-163.36,20.48C512,590.22,438.88,602.25,365.85,614.35,350.91,616.83,337.37,622.12,323.19,626.12Z"/><path class="cls-11" d="M799.41,536.4c-14.48,1.76-28.94,3.57-43.44,5.25-53.44,6.18-107.14,11.7-160.29,18.61C497.59,573,399.77,586.46,302,599.92c-12.15,1.68-23.54,5.19-35.31,7.84q-11.18-6-22.26-12c53.24-8.92,106.4-18,159.74-26.71,64.31-10.52,128.77-20.75,193.16-31.11l64.57-.74L551.16,556.5l-32.6,4-35.71,1.3,3.33,7.77,32.39-9.06,32.69-3.93L727.69,537Z"/><path class="cls-6" d="M661.87,537.18l-64.57.74-66-.1-58.44-.69L505,526.4l268.3-5.23-71.76,15.27Z"/><path class="cls-5" d="M661.87,537.18l39.64-.74,26.18.6L551.26,556.58l-.1-.08Z"/><path class="cls-14" d="M546.74,674.63c9.84-3.66,18.9-9.12,29.65-10.68,61.25-8.86,122.82-17,184.42-25,93.68-12.17,187.56-23.86,281.2-36.12,35.26-4.62,70.11-10.29,105.15-15.48q.48,3.52.95,7c-10.54,2.75-20.63,6.77-31.67,8-68.12,7.79-136.85,13.93-204.61,22.62-76.91,9.87-153.11,21.62-229.44,33-41,6.09-81.6,13-122.39,19.58Z"/><path class="cls-17" d="M422.07,693.57l-136.92.71,19.13-14.68,45.88-3.93L370,678.72l85.33.8Z"/><path class="cls-17" d="M546.74,674.63l13.26,3,19.7,1.22-57.87,17.1-47.29.06L494,678.66Z"/><path class="cls-18" d="M494,678.66,474.54,696l-45.2.55-7.26-2.95,33.23-14.05Z"/><path class="cls-7" d="M1148.12,594.39l-1-7,59.23-3.62c0,2.27.09,4.54.14,6.81l-8,7.71Z"/><path class="cls-5" d="M1055.18,565.13l45.74,3.44q-78.75,9.1-157.5,18.23c-73.74,8.54-148.13,15.57-221,26C626,626.64,530.79,643.22,434.94,658.31c-6.78,1.06-14.86.14-22.07-.66-14.36-1.58-28.53-3.72-42.76-5.64,65-10.16,129.64-21,194.94-30.32,89.15-12.78,179.79-22.41,267.87-37.21A1360.73,1360.73,0,0,1,1055.18,565.13Z"/><path class="cls-5" d="M350.16,675.67l-45.88,3.93-45.28,1-26.34-1.21,26.49-10.91,110.46-8.75,27.78-.16Z"/><path class="cls-13" d="M1198.57,598.23l8-7.7h11.33q8,7.65,16.11,15.29c-.12,5-.26,10.08-.39,15.12l-46.18,7.8q-4.1-9.27-8.17-18.53Z"/><path class="cls-1" d="M1179.22,610.21q4.1,9.25,8.18,18.52l-91.61,15.89-19.52,3.69-52.77-7.48-.48-12.38,56.68-6.61Z"/><path class="cls-17" d="M232.66,679.39l26.34,1.2-26.65,14-71.56.27L199.3,680Z"/><path class="cls-18" d="M232.35,694.61l26.65-14,45.28-1-19.13,14.68Z"/><path class="cls-14" d="M1023.5,640.83l52.77,7.48c-15.45,3.69-30.5,8.15-46.43,10.91-26.08,4.52-52.54,8.49-79.24,11.47-8.07.9-18.11-1.49-26.17-3.69-16.51-4.5-24.66-2.54-24.08,8.49l-51.86,4.11-13.89-4.39c4.52-3.43,8.17-9.23,13.7-9.91,29.37-3.58,59.73-4.71,88.73-9,20.93-3.09,40.27-9.8,60.33-14.89Z"/><path class="cls-17" d="M848.49,679.6l51.86-4.11,78.59,1.24-54.72,14.59-108.51.56Z"/><path class="cls-18" d="M848.49,679.6l-32.78,12.28-139.16,1c6.94-2.79,13.72-5.7,20.83-8.31,6.39-2.34,13.15-4.34,19.74-6.5L834.6,675.2Z"/><path class="cls-17" d="M717.12,678.07c-6.59,2.15-13.35,4.15-19.74,6.49-7.11,2.61-13.89,5.52-20.83,8.31l-83.35.19,25.18-14.95L671,674l19.85,2.86Z"/><path class="cls-18" d="M618.38,678.11,593.2,693.06l-71.37,2.86L579.7,678.8Z"/><path class="cls-5" d="M518.58,560.51l-32.4,9.06-3.33-7.77,35.71-1.3Z"/><path class="cls-5" d="M518.56,560.5l32.6-4,.1.08-32.69,3.93Z"/><path class="cls-5" d="M618.38,678.11l-38.68.69L560,677.59C600.79,671,641.4,664.1,682.39,658c76.33-11.34,152.53-23.09,229.44-33,67.76-8.69,136.49-14.83,204.61-22.62,11-1.27,21.13-5.29,31.67-8l50.47,3.85-19.35,12-99.53,11.64L1023,628.47l-106.18,9.16c.38,1.4.76,2.81,1.15,4.21l79.36-.43C977.3,646.5,958,653.21,937,656.3c-29,4.29-59.36,5.42-88.73,9-5.53.68-9.18,6.48-13.7,9.91l-117.48,2.85-26.25-1.19c45.07-6.5,90.31-12.63,135.07-19.78,11-1.76,20.4-6.87,30.54-10.45-51.15,3.64-98.69,9.91-145.82,17.1-13.82,2.1-26.46,6.78-39.64,10.27Z"/><path class="cls-9" d="M997.36,641.41l-79.36.43c-.39-1.4-.77-2.81-1.15-4.21L1023,628.47c.15,4.11.31,8.24.47,12.36Z"/><path class="cls-11" d="M671,674c13.18-3.49,25.82-8.17,39.64-10.27,47.13-7.19,94.67-13.46,145.82-17.1-10.14,3.58-19.54,8.69-30.54,10.45-44.76,7.15-90,13.28-135.07,19.78Z"/><path class="cls-19" d="M1404.36,678.11l-87.68,14-12.9-3.39-119.32-.19c31.85-2.54,63.79-4.72,95.48-7.81,10.4-1,20.12-4.39,30.16-6.68l83.92-1.55,10.4,2.62A2.39,2.39,0,0,0,1404.36,678.11Z"/><path class="cls-4" d="M52.88,744.6,91,725.75A19.82,19.82,0,0,1,96.9,727a5.46,5.46,0,0,0,1.16,1.71,8.47,8.47,0,0,0,2.23.79c4.3-4.08,8.5-8.19,12.71-12.31l4.89,6.57c9.74,1.66,19.52,4.78,29.2,4.68,26.84-.29,53.68-1.61,80.42-3.13,19.38-1.11,38.59-3.21,57.87-4.86,35.09-5.21,70.3-10.19,105.21-15.78,8.84-1.42,16.74-4.79,25.08-7.27l13,.07,45.7,10.67c-59.44,8-119.28,15.18-178.11,24.48-22.16,3.5-42,11.94-62.86,18.12l-9.32,1.13-37.44-1Z"/><path class="cls-3" d="M428.72,697.48l-13.05-.08-151-2-12.61.15-13.43,2.2-31.86.8-131.12.25-10.32-11.4,94.77-.51,111.72-.64,12.84-.08,26.29.1,248-.91c-.18,1.38-.35,2.76-.53,4.13l-11.58-.25-27.06,3.44-59.26,3.86Z"/><path class="cls-12" d="M285.38,720.45c-19.28,1.65-38.49,3.75-57.87,4.86-26.74,1.52-53.58,2.84-80.42,3.13-9.68.1-19.46-3-29.2-4.68L113,717.19c-4.21,4.12-8.41,8.23-12.71,12.31a8.47,8.47,0,0,1-2.23-.79A5.46,5.46,0,0,1,96.9,727l-27-13.75a9.19,9.19,0,0,0-.51-2.91l98.12-.68,33.29,3.51Z"/><path class="cls-5" d="M167.55,709.66l-98.12.68-5.88,2.81-41.09-3.83,53.21-10.54,131.12-.25Z"/><path class="cls-4" d="M63.55,713.16l5.88-2.82a9.19,9.19,0,0,1,.51,2.91Z"/><path class="cls-18" d="M130.87,860.68l-45.54.24L73.42,846.35c25.09-.14,46.35.47,67.31-.69,10.09-.55,19.62-4.46,29.4-6.86l32.18-.69c-10.68,3.83-21.09,7.94-32.11,11.4C157.37,853.54,144,857,130.87,860.68Z"/><path class="cls-17" d="M130.87,860.68c13.13-3.7,26.5-7.14,39.33-11.17,11-3.46,21.43-7.57,32.11-11.4l13.19-.27,19.62,11.27-25.58,11-8.13,1.4Z"/><path class="cls-9" d="M170.13,838.81c-9.78,2.39-19.31,6.3-29.4,6.85-21,1.16-42.22.55-67.31.69l11.91,14.57C48.28,863,75.1,846.2,66.74,839.8a1.76,1.76,0,0,0,0-.23,13.54,13.54,0,0,0,5-.76Z"/><path class="cls-10" d="M72,804.71l-28.58-22.4,73.22-1.24,103,2.79,1.95,8.56-1,3-47.08,4.2-23.92,1-26.16,0Z"/><path class="cls-5" d="M116.61,781.07l-73.23,1.24-6.55-2.62c31.45-5.91,63.13-11.45,94.2-18,9.16-1.92,16.61-6.56,24.83-10l30.81-.87,37.43.94c-1,2.37-2,4.74-3,7.12Z"/><path class="cls-1" d="M155.86,751.79c-8.22,3.39-15.67,8-24.83,10-31.07,6.5-62.75,12-94.2,18q2-8.24,4-16.47Z"/><path class="cls-15" d="M155.86,751.79,40.8,763.22q6-9.32,12.08-18.62l133.8,6.32Z"/><path class="cls-9" d="M72,804.71l51.43-4.06L123,808l-45.14.54a14.53,14.53,0,0,0-4.61-.14Z"/><path class="cls-16" d="M73.25,808.43a14.53,14.53,0,0,1,4.61.14l20.71,11.48-25.8,7.11a3.84,3.84,0,0,1-3.3.77Z"/><path class="cls-21" d="M71.69,838.81a13.54,13.54,0,0,1-5,.76l2.73-11.64a3.87,3.87,0,0,0,3.3-.76c-.19,2.56-.39,5.13-.58,7.69C72,836.18,71.86,837.49,71.69,838.81Z"/><path class="cls-7" d="M1315,696.43l34.09,11.06c-10.24,2.48-20.38,5.12-30.75,7.41-11.45,2.52-23.11,4.73-34.68,7.08l-116.18,4.48q-.39-3.42-.76-6.85l18.72-.41,62.23-5.6-2.72-8.39-72.12,10.23-71.2,4.15c-2.07-15.52,18.72-9.94,31.76-11.51l85-7.74.12-.05,13.23-.2Z"/><path class="cls-1" d="M1283.68,722c11.58-2.34,23.24-4.55,34.69-7.07,10.37-2.29,20.51-4.93,30.75-7.41l50.27,11.32-14.85,22.83-49.09-5c-5.71-4.64-9.79-11.46-17.53-13.41C1308.06,720.76,1295.23,722.22,1283.68,722Z"/><path class="cls-16" d="M1315,696.43l-83.3,3.67c0-2.37.09-4.75.13-7.12l71.92-4.22,12.9,3.39Z"/><path class="cls-3" d="M1243.46,670l66.64,4.07c-10,2.3-19.76,5.67-30.16,6.69-31.69,3.09-63.63,5.27-95.47,7.81l-61.07,1.61-121.9.41-10.5,0-171.26.66q-12.68.08-25.34.15l-19.66,3.16-45.85,1.34-84.5-3.61-45.55.25.16-2.1,38.24-5.8,456.55-2.81,33.4-7,12.61-4,1.65.16,56.39-.6Z"/><path class="cls-7" d="M1123.41,690.18l61.06-1.61,119.31.19L1231.85,693l-13.35,7.31-.11.05-85.24.86-38.74-.1.21-6.92Z"/><path class="cls-17" d="M1364.76,838.8l32.49,8.34c-8.69,2.34-17.28,6.54-26.1,6.7-54.25,1-108.55,1.14-162.84,1.55,6.84-2.58,13.14-6.12,20.64-7.56,16.59-3.18,33.78-5.3,50.72-7.86Z"/><path class="cls-17" d="M1135.6,856.17l-97.39-.31c4.18-2.36,7.86-6.32,12.62-6.82,20.1-2.09,41-2.13,60.69-4.92,15.21-2.15,29.17-7.27,43.69-11.08l32.65-.26c.24,3.67.47,7.35.71,11l-39.11,11.34Z"/><path class="cls-18" d="M1149.46,855.14l39.11-11.34,64.32-4.16,13.5-7.27,13-.11q.15,3.86.28,7.72c-16.94,2.55-34.13,4.67-50.72,7.85-7.5,1.44-13.8,5-20.64,7.56Z"/><path class="cls-1" d="M1279.39,832.26l-13,.11-13.5,7.27-64.32,4.16c-.24-3.67-.47-7.35-.71-11l19.65-7.66,12.9-.27c13.06,5,25.44,8,32.68-3.81q3.11-.15,6.21-.16l26.33-7.5,12.38-.46,7.24.33c4.92,2,10.23,6,14.69,5.72,19.31-1.28,38.37-3.81,57.52-5.89l-18.87,18.47Z"/><path class="cls-7" d="M1377.46,813.08c-19.15,2.08-38.21,4.61-57.52,5.89-4.46.29-9.77-3.7-14.69-5.72l19.88-7.82c1.88,0,3.77,0,5.65,0l65.81-.25-10.47,4.44-8.83,3.45Z"/><path class="cls-12" d="M1396.59,805.22l-65.8.25,19.88-11.53,45.88-7.58c1.26.21,2.54.41,3.82.58Z"/><path class="cls-10" d="M1279.39,832.26l79.2-.71q3.08,3.63,6.17,7.25L1279.67,840Q1279.53,836.12,1279.39,832.26Z"/><path class="cls-1" d="M1377.29,813.11l8.83-3.45Z"/><path class="cls-10" d="M1335.44,736.65l49.1,5c-1.49,3.57-3,7.14-4.5,10.72l-50.78.8-102.82.27c-13.41-11.94-26.78-11.88-40.11,0l-6.25,3.84.16-.21-24.07-.94-.21-12.8Z"/><path class="cls-10" d="M1396.55,786.36l-45.88,7.58-28.21-6.31-30.86.07c0-4,0-8.06,0-12.09l31.86-1,61.55-4.42Q1390.79,778.25,1396.55,786.36Z"/><path class="cls-12" d="M1385,770.15l-61.55,4.43q-.08-7.33-.17-14.67l6-6.75,50.79-.8Z"/><path class="cls-17" d="M385.67,859l-59.38,1.82-11.05,0-60.68.06.58-.7c14.25-3.77,28.88-7.14,42.63-11.44,10.13-3.16,19.11-7.55,28.6-11.39l25.35-.85,20.5.56,117.51,0c-7.47,2.37-14.54,5.44-22.5,7C440.21,849.36,412.88,854.07,385.67,859Z"/><path class="cls-5" d="M460.59,696.52l59.26-3.86,27.06-3.44,11.58.24,46.63,6.95c-4.24,2.37-7.86,6.16-12.82,6.89-39.08,5.74-78.41,10.89-117.67,16.23l-13.05,3.54-26.16,4.13.12,0-32.7,4,.05,0-32.4.47L258.61,751.38l-25.17-.64c20.88-6.18,40.7-14.62,62.86-18.12,58.83-9.3,118.67-16.47,178.11-24.48l48.42-6.29-.27-5.66Z"/><path class="cls-5" d="M285.38,720.45l-84.54-7.28c14.86-2.51,30.22-4.34,44.38-7.82,7.57-1.86,13-6.56,19.47-10l151,2c-8.34,2.48-16.24,5.85-25.08,7.27C355.68,710.26,320.47,715.24,285.38,720.45Z"/><path class="cls-13" d="M233.44,750.74l25.18.64,8.07,44.6a54.79,54.79,0,0,0-6.11.85L228.25,796l-6.68-3.57c-.65-2.85-1.3-5.71-1.94-8.55q.74-12.45,1.44-24.89c1-2.38,2-4.75,3-7.12Z"/><path class="cls-14" d="M460.59,696.52l62-.33.27,5.66-48.42,6.29-45.7-10.67Z"/><path class="cls-4" d="M264.69,695.38c-6.42,3.41-11.9,8.11-19.47,10-14.16,3.48-29.52,5.31-44.38,7.82l-33.29-3.51,39.24-11.13,31.86-.79,13.43-2.21Z"/><path class="cls-6" d="M559,685.34l78.22-.68L599,690.46l-.16,2.1,45.55-.25c-.13,1.28-.25,2.57-.38,3.86l-38.89.25-46.63-7C558.67,688.1,558.84,686.72,559,685.34Z"/><path class="cls-6" d="M546.91,689.22l-27.06,3.44Z"/><path class="cls-5" d="M252.08,695.53l-13.43,2.21Z"/><path class="cls-16" d="M71.69,838.81c.17-1.32.33-2.63.5-3.95l116.59-4.69,39.69,4.34.21,2.58-13.18.75-13.19.27-32.18.69Z"/><path class="cls-18" d="M326.37,837.37c-9.49,3.84-18.47,8.23-28.6,11.39-13.75,4.3-28.38,7.67-42.63,11.44l-45.6-.11,25.58-11,59-11Z"/><path class="cls-9" d="M294.08,838.09l-59,11L215.5,837.84l13.18-.74Z"/><path class="cls-4" d="M221.07,759q-.7,12.45-1.44,24.89l-103-2.8Z"/><path class="cls-16" d="M228.25,796l32.33.84-26,18.45-32.89-2.58c3.18-13.48-14.12-12.11-28.24-13.05l47.09-4.19Z"/><path class="cls-5" d="M173.47,799.65c14.12.94,31.42-.43,28.24,13l-32,3.88-20.09-.49q-.06-7.7-.11-15.39Z"/><path class="cls-16" d="M149.55,800.69q0,7.69.12,15.38l-19.61,2.55L123,808l.39-7.38Z"/><path class="cls-9" d="M228.25,796l-7.69-.53c.33-1,.67-2,1-3Z"/><path class="cls-5" d="M123,808l7.06,10.59-31.49,1.43L77.86,808.57Z"/><path class="cls-10" d="M98.57,820.05l31.49-1.43,19.61-2.55q10,.25,20.07.49l19,13.61L72.19,834.86c.19-2.56.39-5.13.58-7.69Z"/><path class="cls-5" d="M489.73,837.13l-117.51,0c78.73-13.07,157.2-26.71,236.3-39,53.64-8.33,108.12-14.84,162.31-22,79.95-10.53,159.88-21.12,240-31.23,52.08-6.57,104.46-12.33,156.7-18.45L1283.69,722c11.54.24,24.37-1.22,34.23,1.26,7.74,2,11.82,8.77,17.53,13.41l-179.51,6.7c-16.49,3.58-32.49,8.42-49.51,10.54-76.35,9.54-153.27,17.6-229.44,27.57-69.5,9.09-138.45,19.63-207.36,30.16-42.93,6.55-85.33,14.26-128,21.45l-19.44,3.19Z"/><path class="cls-5" d="M294.08,838.09l-65.4-1-.21-2.59L379,819.61c-.41-1.51-.81-3-1.21-4.52l-12.39-.75c59.92-10.36,119.48-21.49,179.85-30.85,61-9.46,122.77-17.14,184.18-25.66,70.36-9.76,140.16-21.21,211.19-28.84,52.85-5.68,107.28-6.44,161-9.4l71.2-4.15,12.61,3.76-18.72.41c-37.16,5.13-74.16,10.7-111.52,15.29-57.36,7-115,13.25-172.46,20.09-59.56,7.1-119.34,13.74-178.44,22Q569.1,795.83,434.82,816.91c-28.64,4.54-55.45,13-83.1,19.61l-25.35.85Z"/><path class="cls-14" d="M1101.66,719.59c-53.73,3-108.16,3.72-161,9.4-71,7.63-140.83,19.08-211.19,28.84-61.41,8.52-123.2,16.2-184.18,25.66-60.37,9.36-119.93,20.49-179.85,30.85l-13.31-3.27c19.24-5,37.8-11.3,57.84-14.68,66.4-11.22,133-22.15,200.14-31.76,89-12.74,178.46-24.37,267.9-36,63.23-8.25,126.75-15.74,190.15-23.57l26.26-3.93,38.74.1c.1,2.29.18,4.58.27,6.88C1120.38,709.65,1099.59,704.07,1101.66,719.59Z"/><path class="cls-14" d="M351.72,836.52c27.65-6.65,54.46-15.07,83.1-19.61Q569,795.66,704.33,777c59.1-8.24,118.88-14.88,178.44-22,57.44-6.84,115.1-13,172.46-20.09,37.36-4.59,74.36-10.16,111.52-15.29q.38,3.43.76,6.85c-52.23,6.11-104.61,11.87-156.69,18.44-80.11,10.11-160,20.7-240,31.23-54.19,7.13-108.67,13.64-162.31,22-79.1,12.28-157.57,25.92-236.3,39Z"/><path class="cls-1" d="M1185.47,719.2l-12.61-3.76L1245,705.21l2.72,8.39Z"/><path class="cls-1" d="M1133.42,708.08c-.09-2.3-.17-4.59-.27-6.88l85.24-.86Z"/><path class="cls-1" d="M1218.5,700.29l13.35-7.31c0,2.37-.08,4.75-.12,7.12Z"/><path class="cls-5" d="M1068.15,705c-63.4,7.83-126.92,15.32-190.15,23.57-89.44,11.66-178.91,23.29-267.9,36C543,774.24,476.36,785.17,410,796.39c-20,3.38-38.6,9.7-57.84,14.68L234.6,815.28l26-18.45a54.79,54.79,0,0,1,6.11-.85c6.8-.4,18,.38,19.47-1.46,2.83-3.49,3.06-10.89-.79-12.47-25.78-10.62-10.15-14.92,7.73-18.08,29.49-5.22,59.39-9.67,89.21-14.24q75.51-11.57,151.15-22.85c10.76-.33,21.76,0,32.26-1.09,58.42-6.35,116.86-12.7,175-19.9,18.29-2.26,35.61-7.13,53.38-10.8a8.59,8.59,0,0,1,.32-3.66l25.34-.16c6.67,3.59,12.59,9.46,20.15,10.28,14.57,1.58,30.07.31,45.18.23C852.66,707,820.54,713,787.78,717.41c-102.12,13.66-204.64,26.32-306.68,40.15C430,764.49,379.42,772.81,328.94,781.2c-10.2,1.69-18.86,6.5-28.23,9.87a114.08,114.08,0,0,0,37.17-.07c85-13.89,169.68-28.64,255-41.84,37.45-5.79,76.54-8,114.46-12.87,65.39-8.48,129.94-19.53,195.84-26.21,45.56-4.62,92.79-3.7,139.28-5.26Q1055.31,704.94,1068.15,705Z"/><path class="cls-11" d="M1042.5,704.82c-46.49,1.56-93.72.64-139.28,5.26-65.9,6.68-130.45,17.73-195.84,26.21-37.92,4.91-77,7.08-114.46,12.87-85.36,13.2-170,28-255,41.84a114.08,114.08,0,0,1-37.17.07c9.37-3.37,18-8.18,28.23-9.87,50.48-8.39,101.05-16.71,152.16-23.64,102-13.83,204.56-26.49,306.68-40.15,32.76-4.38,64.88-10.37,97.3-15.63l25.41-.59,14.12-2.89L991,690.61l10.51,0c3.69,16.32,26.19,8.19,40.66,10.48Q1042.24,702.95,1042.5,704.82Z"/><path class="cls-5" d="M644,696.17c.12-1.29.24-2.58.37-3.86l84.5,3.61c-2.19,2-3.88,5.52-6.66,5.84C659.36,709.05,596.37,716,533.4,723l-19.7.06c40.19-6.49,80.45-12.83,120.43-19.71C638.29,702.61,640.76,698.63,644,696.17Z"/><path class="cls-11" d="M533.4,723c63-7,126-13.93,188.83-21.22,2.78-.32,4.47-3.82,6.66-5.84l45.84-1.34,19.35.51c-17.77,3.67-35.09,8.54-53.38,10.8-58.12,7.2-116.56,13.55-175,19.9-10.5,1.14-21.5.76-32.26,1.08Z"/><path class="cls-6" d="M991,690.61l-66.39,7.69-14.12,2.89-25.41.59c-15.12.08-30.62,1.35-45.19-.23-7.56-.82-13.48-6.69-20.15-10.28Z"/><path class="cls-6" d="M1042.17,701.07c-14.47-2.29-37,5.84-40.66-10.48l121.89-.41-28.78,4Z"/><path class="cls-22" d="M1094.34,674.87l32.84,0-33.39,7C1094,679.52,1094.15,677.2,1094.34,674.87Z"/><path class="cls-6" d="M794.08,695.09l-19.35-.51,19.67-3.16A8.65,8.65,0,0,0,794.08,695.09Z"/><path class="cls-1" d="M1042.17,701.07l52.45-6.89-.21,6.92L1068.15,705q-12.83-.1-25.65-.21Q1042.24,702.95,1042.17,701.07Z"/><path class="cls-17" d="M920.71,856.55,783.54,857l53.79-13.44-14.82-9a46.72,46.72,0,0,1,5.66-.88l98.94.4h104.4c-9.68,2.43-19.12,5.25-29.08,7.2C975.31,846.53,948,851.47,920.71,856.55Z"/><path class="cls-18" d="M920.71,856.55c27.26-5.08,54.6-10,81.72-15.33,10-2,19.4-4.77,29.08-7.2l26-.71c10.09,1.13,20.26,3.37,30.26,3.16,22.54-.5,45-2.21,67.48-3.43-14.52,3.81-28.48,8.93-43.69,11.08-19.73,2.79-40.59,2.83-60.69,4.92-4.76.5-8.44,4.46-12.62,6.82Z"/><path class="cls-18" d="M822.51,834.51l14.82,9L783.54,857l-143.36.8c17.88-3.7,35.49-7.93,53.69-11,25.29-4.23,51-7.57,76.58-11.29Z"/><path class="cls-17" d="M770.45,835.54c-25.55,3.72-51.29,7.06-76.58,11.29-18.2,3-35.81,7.27-53.69,11l-78.59.31c7.58-2.42,14.9-5.17,22.78-7.18,20.46-5.22,41.16-10.11,61.77-15.13l26-3.42,20,2.94Z"/><path class="cls-17" d="M522.22,836.26l19.44-3.19,20.06,2.9,58.6.39c-8.57,2.39-16.83,5.28-25.75,7.07-26,5.22-52.26,10-78.41,15l-72.08.3c14.36-3.61,29-6.92,43-10.92C499.13,844.34,510.53,840.13,522.22,836.26Z"/><path class="cls-18" d="M522.22,836.26c-11.69,3.87-23.09,8.08-35.15,11.51-14,4-28.63,7.31-43,10.92l-58.41.29c27.21-4.91,54.54-9.62,81.56-14.87,8-1.54,15-4.61,22.5-7Z"/><path class="cls-18" d="M516.16,858.39c26.15-4.95,52.41-9.74,78.41-15,8.92-1.79,17.18-4.68,25.75-7.07l25.82-.56c-20.61,5-41.31,9.91-61.77,15.13-7.88,2-15.2,4.76-22.78,7.18Z"/><path class="cls-14" d="M1155.21,833c-22.49,1.22-44.94,2.93-67.48,3.43-10,.21-20.17-2-30.26-3.16q74.38-11.68,148.68-23.56c.66-.11,0-2.9,0-4.45,6.82-3.47,12.74-8.79,20.63-10.06,21.16-3.44,43.16-5.14,64.82-7.53l30.88-.08c-4,2.14-7.5,5-12.24,6.33-18.56,5.28-37.53,10.09-56.34,15.08l-82.29,14.15,1.5,2.11,34.41-.18-19.65,7.66Z"/><path class="cls-17" d="M1252.89,839.64l13.5-7.27Z"/><path class="cls-5" d="M1207.51,825.12l-34.41.18-1.5-2.11L1253.88,809l43.93-2.61.2,6.49-12.38.46-26.33,7.5q-3.1,0-6.21.16l-32.68,3.81Z"/><path class="cls-14" d="M1220.41,824.85l32.68-3.81C1245.85,832.82,1233.47,829.81,1220.41,824.85Z"/><path class="cls-14" d="M1259.3,820.88l26.33-7.5Z"/><path class="cls-14" d="M1298,812.92q-.1-3.24-.2-6.5l27.32-1-19.88,7.82Z"/><path class="cls-17" d="M1325.13,805.43l-27.32,1q-22,1.32-43.93,2.62c18.82-5,37.79-9.8,56.35-15.08,4.74-1.34,8.21-4.19,12.24-6.34q14.08,3.18,28.2,6.32l-19.88,11.53C1328.9,805.47,1327,805.46,1325.13,805.43Z"/><path class="cls-5" d="M646.14,835.8l-25.82.56-58.6-.39C615.13,827.71,668.36,819,722,811.29c76.41-11,152.86-22,229.75-31.81,67.82-8.63,136.26-15.61,204.43-23.32l24.08.94c-1.13,5.54-2.25,11.07-3.41,16.6-21.27,1-42.88,1.08-63.67,3.47-19.51,2.24-38.16,7-57.19,10.64L903.5,797.44l.86,6.63,74.26-.41,19.13.14c-4,2.38-7.5,6.34-12.18,6.9-48.77,5.89-97.78,11.11-146.57,16.93-4.15.5-7.25,3.93-10.83,6a46.72,46.72,0,0,0-5.66.88l-52.06,1-78.35-.22c5.79-1.25,11.43-2.93,17.41-3.69,53-6.75,106.07-13.35,166.9-21-12.16-3.2-16.47-5.46-19.65-5-61.62,8.72-123.11,17.75-184.62,26.72Z"/><path class="cls-14" d="M1156.17,756.16c-68.17,7.71-136.61,14.69-204.43,23.32-76.89,9.8-153.34,20.78-229.75,31.81C668.36,819,615.13,827.71,561.72,836l-20.06-2.9c42.64-7.19,85-14.9,128-21.45,68.91-10.53,137.86-21.07,207.36-30.16,76.17-10,153.09-18,229.44-27.57,17-2.12,33-7,49.51-10.54Q1156.07,749.77,1156.17,756.16Z"/><path class="cls-13" d="M1176.87,773.71q1.7-8.31,3.38-16.61l-.17.21,6.25-3.84c13.33-11.92,26.7-12,40.1,0q4.18,8.94,8.37,17.88c-1,1.35-1.91,2.68-2.85,4-6.23,14-25.31,12.32-43.38,11.85Q1182.71,780.45,1176.87,773.71Z"/><path class="cls-16" d="M1234.81,771.31l-8.38-17.88,102.83-.27-6,6.75C1292.22,759.57,1261.41,760,1234.81,771.31Z"/><path class="cls-5" d="M1186.33,753.47l-6.25,3.84Z"/><path class="cls-17" d="M1188.58,787.18c18.06.47,37.14,2.19,43.38-11.84l59.65.27c0,4,0,8,0,12.09-21.67,2.4-43.67,4.1-64.83,7.54-7.89,1.27-13.81,6.59-20.63,10.07l-110,1.93c6.87-4,12.64-10.19,20.81-11.55C1140.28,791.8,1164.62,789.88,1188.58,787.18Z"/><path class="cls-14" d="M1291.61,775.61l-59.65-.27c.93-1.35,1.87-2.68,2.84-4,26.61-11.36,57.42-11.74,88.5-11.4q.09,7.33.17,14.67Z"/><path class="cls-4" d="M533.4,723l.06,3.89q-75.59,11.42-151.15,22.86c-29.82,4.57-59.72,9-89.21,14.24-17.88,3.16-33.51,7.46-7.73,18.08,3.85,1.58,3.62,9,.79,12.47-1.5,1.84-12.67,1.06-19.47,1.46l-8.07-44.6,111.87-19.82c11.3,11.6,22.11,11.53,32.4-.46l-.05,0,32.7-4-.12,0,26.16-4.13,13.05-3.54q3.45,1.89,6.88,3.8l32.36-.35-.17.06Z"/><path class="cls-14" d="M481.51,723.33q-3.43-1.91-6.88-3.8c39.26-5.34,78.59-10.49,117.67-16.23,5-.73,8.58-4.52,12.82-6.89l38.89-.24c-3.25,2.46-5.72,6.44-9.88,7.16-40,6.88-80.24,13.22-120.43,19.71l.17-.06Z"/><path class="cls-14" d="M402.89,731.1c-10.29,12-21.1,12.06-32.4.46Z"/><path class="cls-14" d="M435.54,727.16l-32.7,4Z"/><path class="cls-14" d="M461.58,723.07l-26.16,4.13Z"/><path class="cls-9" d="M234.6,815.28l117.52-4.21,13.31,3.27,12.39.75c.4,1.5.8,3,1.21,4.52l-150.56,14.9-39.69-4.34-19-13.61,32-3.87Z"/><path class="cls-5" d="M910.49,701.19l14.12-2.89Z"/><path class="cls-11" d="M828.17,833.63c3.58-2.07,6.68-5.5,10.83-6,48.79-5.82,97.8-11,146.57-16.93,4.68-.56,8.15-4.52,12.18-6.9l78.93,6.9c-32.42,5.24-64.8,10.57-97.28,15.68-17.35,2.74-34.86,5.11-52.29,7.65Z"/><path class="cls-5" d="M927.11,834c17.43-2.54,34.94-4.91,52.29-7.65,32.48-5.11,64.86-10.44,97.28-15.68l19.42-3.46,110-1.93c0,1.54.67,4.33,0,4.44q-74.25,12-148.68,23.56l-26,.71Z"/><path class="cls-11" d="M672.14,832.38c61.51-9,123-18,184.62-26.72,3.18-.45,7.49,1.81,19.65,5-60.83,7.61-113.9,14.21-166.9,21-6,.76-11.62,2.44-17.41,3.69Z"/><path class="cls-1" d="M1096.1,807.24l-19.42,3.46-78.93-6.9-19.13-.14c7.24-2.55,14-6.52,21.81-7.4,20-2.26,40.51-3.16,60.8-4.6a16.9,16.9,0,0,0-2.18-3.43c-.34-.36-2-.29-3.07-.42,19-3.65,37.68-8.4,57.19-10.64,20.79-2.39,42.4-2.42,63.67-3.47l11.73,13.48c-24,2.7-48.29,4.62-71.66,8.51C1108.74,797.05,1103,803.25,1096.1,807.24Z"/><path class="cls-9" d="M1056,787.81c1.06.13,2.73.06,3.07.42a16.9,16.9,0,0,1,2.18,3.43c-20.29,1.44-40.78,2.34-60.8,4.6-7.8.88-14.57,4.85-21.81,7.4l-74.26.41-.86-6.63Z"/><path class="cls-5" d="M481.51,723.33l32.36-.35Z"/><path class="cls-19" d="M1381.9,8.11l-87.68,14-12.9-3.39L1162,18.57c31.84-2.54,63.79-4.72,95.48-7.81,10.4-1,20.12-4.39,30.16-6.68l83.91-1.55L1382,5.15A2.39,2.39,0,0,0,1381.9,8.11Z"/><path class="cls-4" d="M30.42,74.6,68.55,55.75A19.82,19.82,0,0,1,74.44,57a5.29,5.29,0,0,0,1.16,1.71,8.44,8.44,0,0,0,2.22.79c4.31-4.08,8.51-8.19,12.72-12.31l4.89,6.57c9.73,1.66,19.52,4.78,29.2,4.68,26.83-.29,53.68-1.61,80.42-3.13,19.38-1.11,38.58-3.21,57.87-4.86,35.09-5.21,70.3-10.19,105.21-15.78,8.84-1.42,16.74-4.79,25.08-7.27l13,.07L452,38.14c-59.44,8-119.28,15.18-178.12,24.48-22.15,3.5-42,11.94-62.85,18.12l-9.32,1.13-37.45-1Z"/><path class="cls-3" d="M406.25,27.48l-13-.08-151-2-12.62.15-13.42,2.2-31.86.8L53.2,28.78,42.88,17.38l94.78-.51,111.71-.64,12.84-.08,26.29.1,248.06-.91c-.18,1.38-.35,2.76-.53,4.13l-11.58-.25-27.07,3.44-59.25,3.86Z"/><path class="cls-12" d="M262.92,50.45c-19.29,1.65-38.49,3.75-57.87,4.86-26.74,1.52-53.59,2.84-80.42,3.13-9.68.1-19.47-3-29.2-4.68l-4.89-6.57c-4.21,4.12-8.41,8.23-12.72,12.31a8.44,8.44,0,0,1-2.22-.79A5.29,5.29,0,0,1,74.44,57l-27-13.75A8.66,8.66,0,0,0,47,40.34l98.12-.68,33.3,3.51Z"/><path class="cls-5" d="M145.08,39.66,47,40.34l-5.88,2.81L0,39.32,53.2,28.78l131.13-.25Z"/><path class="cls-4" d="M41.09,43.16,47,40.34a8.9,8.9,0,0,1,.5,2.91Z"/><path class="cls-18" d="M108.4,190.68l-45.54.24c-3-3.66-6-7.31-11.9-14.57,25.09-.14,46.35.47,67.31-.69,10.09-.55,19.62-4.46,29.4-6.86l32.18-.69c-10.68,3.83-21.09,7.94-32.11,11.4C134.91,183.54,121.54,187,108.4,190.68Z"/><path class="cls-17" d="M108.4,190.68c13.14-3.7,26.51-7.14,39.34-11.17,11-3.46,21.43-7.57,32.11-11.4l13.19-.27,19.62,11.27-25.58,11-8.13,1.4Z"/><path class="cls-9" d="M147.67,168.81c-9.78,2.39-19.31,6.3-29.4,6.85-21,1.16-42.22.55-67.31.69,5.93,7.26,8.92,10.91,11.9,14.57-37,2.05-10.22-14.72-18.58-21.12v-.23a13.54,13.54,0,0,0,4.95-.76Z"/><path class="cls-10" d="M49.5,134.71l-28.59-22.4,73.23-1.24,103,2.79,2,8.56-1,3L151,129.65l-23.93,1-26.16,0Z"/><path class="cls-5" d="M94.14,111.07l-73.23,1.24-6.54-2.62c31.44-5.91,63.12-11.45,94.2-18,9.15-1.92,16.6-6.56,24.83-9.95l30.8-.87,37.44.94c-1,2.37-2,4.74-3,7.12Z"/><path class="cls-1" d="M133.4,81.79c-8.23,3.39-15.68,8-24.83,9.95-31.08,6.5-62.76,12-94.2,18q2-8.23,4-16.47Z"/><path class="cls-15" d="M133.4,81.79,18.34,93.22q6-9.31,12.08-18.62l133.79,6.32Z"/><path class="cls-9" d="M49.5,134.71l51.42-4.06q-.18,3.69-.38,7.38l-45.15.54a14.46,14.46,0,0,0-4.6-.14Z"/><path class="cls-16" d="M50.79,138.43a14.46,14.46,0,0,1,4.6.14l20.72,11.48-25.8,7.11a3.84,3.84,0,0,1-3.3.77Z"/><path class="cls-21" d="M49.23,168.81a13.54,13.54,0,0,1-4.95.76L47,157.93a3.87,3.87,0,0,0,3.3-.76c-.2,2.56-.39,5.13-.58,7.69C49.56,166.18,49.39,167.49,49.23,168.81Z"/><path class="cls-7" d="M1292.57,26.43l34.09,11.06c-10.24,2.48-20.38,5.12-30.75,7.41-11.45,2.52-23.12,4.73-34.68,7.08l-116.18,4.48q-.39-3.42-.76-6.85L1163,49.2l62.22-5.6c-.9-2.8-1.81-5.59-2.71-8.39l-72.13,10.23-71.19,4.15c-2.07-15.52,18.72-9.94,31.76-11.51l85-7.74.12-.05,13.23-.2Z"/><path class="cls-1" d="M1261.22,52c11.57-2.34,23.24-4.55,34.69-7.07,10.37-2.29,20.51-4.93,30.75-7.41l50.27,11.32q-7.42,11.42-14.85,22.83l-49.1-5c-5.7-4.64-9.78-11.46-17.52-13.41C1285.59,50.76,1272.77,52.22,1261.22,52Z"/><path class="cls-16" d="M1292.57,26.43l-83.3,3.67c0-2.37.08-4.75.13-7.12l71.92-4.22,12.9,3.39Z"/><path class="cls-3" d="M1221,0l66.64,4.07c-10,2.3-19.76,5.67-30.16,6.69-31.69,3.09-63.64,5.27-95.47,7.81l-61.08,1.61L979,20.59l-10.5,0-171.27.66q-12.66.07-25.34.15l-19.65,3.16-45.85,1.34-84.5-3.61-45.55.25.16-2.1,38.24-5.8,456.55-2.81,33.4-7,12.61-4L1119,1l56.38-.6Z"/><path class="cls-7" d="M1101,20.18,1162,18.57l119.31.19L1209.39,23,1196,30.29l-.12.05-85.23.86L1072,31.1l.21-6.92Z"/><path class="cls-17" d="M1342.29,168.8l32.49,8.34c-8.69,2.34-17.27,6.54-26.09,6.7-54.25,1-108.55,1.14-162.84,1.55,6.84-2.58,13.13-6.12,20.64-7.56,16.58-3.18,33.78-5.3,50.72-7.86Z"/><path class="cls-17" d="M1113.14,186.17l-97.39-.31c4.18-2.36,7.86-6.32,12.62-6.82,20.1-2.09,41-2.13,60.69-4.92,15.21-2.15,29.17-7.27,43.69-11.08l32.65-.26c.23,3.67.47,7.35.71,11L1127,185.14Z"/><path class="cls-18" d="M1127,185.14l39.1-11.34,64.33-4.16,13.5-7.27,13-.11q.15,3.86.28,7.72c-16.94,2.55-34.14,4.67-50.72,7.85-7.51,1.44-13.8,5-20.64,7.56Z"/><path class="cls-1" d="M1256.93,162.26l-13,.11-13.49,7.27-64.33,4.16c-.23-3.67-.47-7.35-.7-11l19.65-7.66,12.9-.27c13.06,5,25.44,8,32.67-3.81,2.07-.1,4.15-.15,6.22-.16l26.33-7.5,12.38-.46,7.24.33c4.92,2,10.23,6,14.69,5.72,19.3-1.28,38.36-3.81,57.51-5.89l-18.87,18.47Z"/><path class="cls-7" d="M1355,143.08c-19.15,2.08-38.21,4.61-57.51,5.89-4.46.29-9.77-3.7-14.69-5.72l19.88-7.82c1.88,0,3.76,0,5.65,0l65.81-.25-10.47,4.44-8.84,3.45Z"/><path class="cls-12" d="M1374.13,135.22l-65.81.25,19.89-11.53,45.88-7.58c1.26.21,2.53.41,3.82.58Z"/><path class="cls-10" d="M1256.93,162.26l79.19-.71q3.09,3.63,6.17,7.25L1257.21,170Q1257.07,166.12,1256.93,162.26Z"/><path class="cls-1" d="M1354.83,143.11l8.83-3.45Z"/><path class="cls-10" d="M1313,66.65l49.1,5-4.5,10.72-50.79.8L1204,83.43c-13.4-11.94-26.77-11.88-40.1,0l-6.26,3.84.17-.21-24.07-.94q-.11-6.39-.22-12.8Z"/><path class="cls-10" d="M1374.09,116.36l-45.88,7.58L1300,117.63l-30.86.07c0-4,0-8.06,0-12.09l31.85-1,61.56-4.42Z"/><path class="cls-12" d="M1362.56,100.15,1301,104.58q-.08-7.33-.18-14.67l6-6.75,50.79-.8Z"/><path class="cls-17" d="M363.21,189l-59.38,1.82-11.05,0-60.69.06.59-.7c14.25-3.77,28.88-7.14,42.63-11.44,10.12-3.16,19.11-7.55,28.6-11.39l25.35-.85,20.5.56,117.51,0c-7.48,2.37-14.55,5.44-22.5,7C417.75,179.36,390.42,184.07,363.21,189Z"/><path class="cls-5" d="M438.13,26.52l59.25-3.86,27.07-3.44c3.86.08,7.72.17,11.58.24l46.62,7c-4.24,2.37-7.85,6.16-12.81,6.89C530.76,39,491.43,44.19,452.17,49.53l-13.06,3.54L413,57.2l.12,0-32.7,4,.05,0-32.4.47L236.15,81.38,211,80.74c20.88-6.18,40.7-14.62,62.85-18.12C332.67,53.32,392.51,46.15,452,38.14l48.42-6.29-.27-5.66Z"/><path class="cls-5" d="M262.92,50.45l-84.55-7.28c14.86-2.51,30.23-4.34,44.39-7.82,7.57-1.86,13.05-6.56,19.47-10l151,2c-8.34,2.48-16.24,5.85-25.08,7.27C333.22,40.26,298,45.24,262.92,50.45Z"/><path class="cls-13" d="M211,80.74l25.17.64q4,22.29,8.07,44.6a55.12,55.12,0,0,0-6.11.85L205.79,126l-6.68-3.57c-.65-2.85-1.3-5.71-1.94-8.55L198.61,89c1-2.38,2-4.75,3-7.12Z"/><path class="cls-14" d="M438.13,26.52l62-.33.27,5.66L452,38.14l-45.7-10.67Z"/><path class="cls-4" d="M242.23,25.38c-6.42,3.41-11.9,8.11-19.47,10-14.16,3.48-29.53,5.31-44.39,7.82l-33.29-3.51,39.25-11.13,31.86-.79,13.42-2.21Z"/><path class="cls-6" d="M536.56,15.34l78.22-.68-38.24,5.8-.16,2.1,45.54-.25c-.12,1.28-.24,2.57-.37,3.86l-38.89.25-46.63-7C536.21,18.1,536.38,16.72,536.56,15.34Z"/><path class="cls-6" d="M524.45,19.22l-27.07,3.44Z"/><path class="cls-5" d="M229.61,25.53l-13.42,2.21Z"/><path class="cls-16" d="M49.23,168.81c.16-1.32.33-2.63.5-3.95l116.59-4.69L206,164.51c.07.86.14,1.72.2,2.58l-13.17.75-13.19.27-32.18.69Z"/><path class="cls-18" d="M303.91,167.37c-9.49,3.84-18.48,8.23-28.6,11.39-13.75,4.3-28.38,7.67-42.63,11.44l-45.6-.11,25.58-11,59-11Z"/><path class="cls-9" d="M271.61,168.09l-59,11L193,167.84l13.17-.74Z"/><path class="cls-4" d="M198.61,89l-1.44,24.89-103-2.8Z"/><path class="cls-16" d="M205.79,126l32.32.84-26,18.45-32.88-2.58c3.18-13.48-14.12-12.11-28.24-13l47.08-4.19Z"/><path class="cls-5" d="M151,129.65c14.12.94,31.42-.43,28.23,13l-32,3.88-20.08-.49-.12-15.39Z"/><path class="cls-16" d="M127.08,130.69l.12,15.38-19.61,2.55-7-10.59q.19-3.69.38-7.38Z"/><path class="cls-9" d="M205.79,126l-7.7-.53,1-3Z"/><path class="cls-5" d="M100.54,138q3.52,5.29,7.06,10.59l-31.49,1.43L55.39,138.57Z"/><path class="cls-10" d="M76.11,150.05l31.49-1.43,19.6-2.55q10,.26,20.08.49l19,13.61L49.73,164.86c.19-2.56.38-5.13.58-7.69Z"/><path class="cls-5" d="M467.27,167.13l-117.51,0c78.73-13.07,157.2-26.71,236.3-39,53.64-8.33,108.12-14.84,162.3-22,80-10.53,159.89-21.12,240-31.23,52.07-6.57,104.45-12.33,156.7-18.45L1261.23,52c11.54.24,24.36-1.22,34.23,1.26,7.74,1.95,11.82,8.77,17.52,13.41l-179.5,6.7C1117,76.93,1101,81.77,1084,83.89c-76.35,9.54-153.27,17.6-229.44,27.57-69.5,9.09-138.45,19.63-207.36,30.16-42.93,6.55-85.33,14.26-128,21.45l-19.44,3.19Z"/><path class="cls-5" d="M271.61,168.09l-65.4-1c-.06-.87-.13-1.73-.2-2.59l150.55-14.9-1.2-4.52L343,144.34c59.92-10.36,119.48-21.49,179.85-30.85C583.79,104,645.59,96.35,707,87.83,777.35,78.07,847.15,66.62,918.19,59c52.85-5.68,107.28-6.44,161-9.4l71.2-4.15L1163,49.2l-18.72.41c-37.16,5.13-74.16,10.7-111.52,15.29-57.36,7-115,13.25-172.46,20.09C800.74,92.09,741,98.73,681.87,107q-135.23,18.86-269.51,39.94c-28.65,4.54-55.45,13-83.1,19.61l-25.35.85Z"/><path class="cls-14" d="M1079.2,49.59c-53.73,3-108.16,3.72-161,9.4-71,7.63-140.84,19.08-211.19,28.84-61.41,8.52-123.21,16.2-184.18,25.66C462.45,122.85,402.89,134,343,144.34l-13.31-3.27c19.24-5,37.8-11.3,57.84-14.68,66.4-11.22,133-22.15,200.14-31.76,89-12.74,178.46-24.37,267.9-36C918.77,50.35,982.29,42.86,1045.69,35L1072,31.1l38.74.1.27,6.88C1097.92,39.65,1077.13,34.07,1079.2,49.59Z"/><path class="cls-14" d="M329.26,166.52c27.65-6.65,54.45-15.07,83.1-19.61Q546.52,125.66,681.87,107C741,98.73,800.74,92.09,860.31,85c57.44-6.84,115.1-13,172.46-20.09,37.36-4.59,74.36-10.16,111.52-15.29q.38,3.44.76,6.85c-52.24,6.11-104.62,11.87-156.69,18.44-80.11,10.11-160,20.7-240,31.23-54.18,7.13-108.66,13.64-162.3,22-79.1,12.28-157.57,25.92-236.3,39Z"/><path class="cls-1" d="M1163,49.2l-12.61-3.76,72.12-10.23c.9,2.8,1.81,5.59,2.71,8.39Z"/><path class="cls-1" d="M1111,38.08l-.27-6.88,85.23-.86Z"/><path class="cls-1" d="M1196,30.29,1209.39,23l-.12,7.12Z"/><path class="cls-5" d="M1045.68,35C982.29,42.86,918.77,50.35,855.54,58.6c-89.44,11.66-178.91,23.29-267.9,36-67.14,9.61-133.74,20.54-200.14,31.76-20,3.38-38.6,9.7-57.84,14.68l-117.53,4.21,26-18.45a55,55,0,0,1,6.12-.85c6.8-.4,18,.38,19.47-1.46,2.83-3.49,3.06-10.89-.79-12.47-25.78-10.62-10.15-14.92,7.73-18.08,29.49-5.22,59.39-9.67,89.21-14.24Q435.36,68.16,511,56.88c10.77-.33,21.77,0,32.27-1.09,58.42-6.35,116.86-12.7,175-19.9,18.28-2.26,35.61-7.13,53.38-10.8a8.44,8.44,0,0,1,.32-3.66l25.34-.16c6.66,3.59,12.59,9.46,20.15,10.28,14.57,1.58,30.07.31,45.18.23C830.2,37,798.08,43,765.31,47.41,663.2,61.07,560.68,73.73,458.64,87.56,407.52,94.49,357,102.81,306.48,111.2c-10.2,1.69-18.86,6.5-28.23,9.87a114.08,114.08,0,0,0,37.17-.07c85-13.89,169.68-28.64,255-41.84,37.46-5.79,76.55-8,114.46-12.87,65.4-8.48,130-19.53,195.85-26.21,45.55-4.62,92.79-3.7,139.27-5.26Z"/><path class="cls-11" d="M1020,34.82c-46.48,1.56-93.72.64-139.27,5.26-65.9,6.68-130.45,17.73-195.85,26.21-37.91,4.91-77,7.08-114.46,12.87-85.35,13.2-170,28-255,41.84a114.08,114.08,0,0,1-37.17.07c9.37-3.37,18-8.18,28.23-9.87,50.47-8.39,101-16.71,152.16-23.64,102-13.83,204.56-26.49,306.67-40.15C798.08,43,830.2,37,862.62,31.78l25.4-.59,14.13-2.89,66.39-7.69,10.51,0c3.68,16.32,26.18,8.19,40.66,10.48C1019.76,32.32,1019.87,33.57,1020,34.82Z"/><path class="cls-5" d="M621.55,26.17c.13-1.29.25-2.58.37-3.86l84.51,3.61c-2.19,2-3.88,5.52-6.66,5.84C636.9,39.05,573.9,46,510.94,53l-19.7.06c40.18-6.49,80.45-12.83,120.43-19.71C615.82,32.61,618.3,28.63,621.55,26.17Z"/><path class="cls-11" d="M510.94,53c63-7,126-13.93,188.83-21.22,2.78-.32,4.47-3.82,6.66-5.84l45.84-1.34,19.35.51c-17.77,3.67-35.1,8.54-53.38,10.8-58.12,7.2-116.56,13.55-175,19.9-10.5,1.14-21.5.76-32.26,1.08Z"/><path class="cls-6" d="M968.54,20.61,902.15,28.3,888,31.19l-25.4.59c-15.12.08-30.62,1.35-45.19-.23-7.56-.82-13.49-6.69-20.15-10.28Z"/><path class="cls-6" d="M1019.71,31.07c-14.48-2.29-37,5.84-40.66-10.48l121.88-.41-28.77,4Z"/><path class="cls-22" d="M1071.87,4.87l32.85,0-33.39,7Z"/><path class="cls-6" d="M771.62,25.09l-19.35-.51,19.66-3.16A8.65,8.65,0,0,0,771.62,25.09Z"/><path class="cls-1" d="M1019.71,31.07l52.45-6.89L1072,31.1,1045.69,35q-12.84-.11-25.66-.21C1019.87,33.57,1019.76,32.32,1019.71,31.07Z"/><path class="cls-17" d="M898.25,186.55,761.08,187l53.79-13.44-14.82-9.05a46.72,46.72,0,0,1,5.66-.88l98.94.4h104.4c-9.68,2.43-19.12,5.25-29.08,7.2C952.85,176.53,925.5,181.47,898.25,186.55Z"/><path class="cls-18" d="M898.25,186.55c27.25-5.08,54.6-10,81.72-15.33,10-1.95,19.4-4.77,29.08-7.2l26-.71c10.1,1.13,20.26,3.37,30.27,3.16,22.53-.5,45-2.21,67.48-3.43-14.52,3.81-28.48,8.93-43.69,11.08-19.74,2.79-40.59,2.83-60.69,4.92-4.76.5-8.44,4.46-12.62,6.82Z"/><path class="cls-18" d="M800.05,164.51l14.82,9.05L761.08,187l-143.36.8c17.87-3.7,35.49-7.93,53.69-11,25.29-4.23,51-7.57,76.57-11.29Z"/><path class="cls-17" d="M748,165.54c-25.54,3.72-51.28,7.06-76.57,11.29-18.2,3-35.82,7.27-53.69,11l-78.59.31c7.58-2.42,14.89-5.17,22.78-7.18,20.46-5.22,41.16-10.11,61.77-15.13l26-3.42,20,2.94Z"/><path class="cls-17" d="M499.76,166.26l19.44-3.19,20.06,2.9,58.6.39c-8.57,2.39-16.83,5.28-25.76,7.07-26,5.22-52.25,10-78.4,15l-72.08.3c14.36-3.61,29-6.92,43-10.92C476.67,174.34,488.07,170.13,499.76,166.26Z"/><path class="cls-18" d="M499.76,166.26c-11.69,3.87-23.09,8.08-35.15,11.51-14,4-28.63,7.31-43,10.92l-58.41.29c27.21-4.91,54.54-9.62,81.56-14.87,8-1.54,15-4.61,22.5-7Z"/><path class="cls-18" d="M493.7,188.39c26.15-4.95,52.41-9.74,78.4-15,8.93-1.79,17.19-4.68,25.76-7.07l25.82-.56c-20.61,5-41.31,9.91-61.77,15.13-7.89,2-15.2,4.76-22.78,7.18Z"/><path class="cls-14" d="M1132.75,163c-22.49,1.22-45,2.93-67.48,3.43-10,.21-20.17-2-30.27-3.16q74.38-11.69,148.69-23.56c.66-.11,0-2.9,0-4.45,6.82-3.47,12.75-8.79,20.64-10.06,21.16-3.44,43.15-5.14,64.82-7.53l30.88-.08c-4,2.14-7.5,5-12.24,6.33-18.56,5.28-37.53,10.09-56.34,15.08l-82.29,14.15,1.5,2.11,34.41-.18-19.65,7.66Z"/><path class="cls-17" d="M1230.43,169.64l13.49-7.27Q1237.19,166,1230.43,169.64Z"/><path class="cls-5" d="M1185.05,155.12l-34.41.18-1.5-2.11L1231.42,139l43.92-2.61.21,6.49-12.38.46-26.33,7.5c-2.07,0-4.15.06-6.22.16L1198,154.85Z"/><path class="cls-14" d="M1198,154.85l32.67-3.81C1223.39,162.82,1211,159.81,1198,154.85Z"/><path class="cls-14" d="M1236.84,150.88l26.33-7.5Z"/><path class="cls-14" d="M1275.55,142.92q-.1-3.24-.2-6.5l27.32-1-19.88,7.82Z"/><path class="cls-17" d="M1302.67,135.43l-27.32,1q-22,1.32-43.93,2.62c18.82-5,37.79-9.8,56.35-15.08,4.74-1.34,8.21-4.19,12.24-6.34q14.09,3.18,28.2,6.32l-19.89,11.53C1306.43,135.47,1304.55,135.46,1302.67,135.43Z"/><path class="cls-5" d="M623.68,165.8l-25.82.56-58.6-.39c53.41-8.26,106.64-16.94,160.27-24.68,76.4-11,152.86-22,229.75-31.81,67.82-8.63,136.26-15.61,204.43-23.32l24.07.94q-1.68,8.31-3.4,16.6c-21.27,1-42.88,1.08-63.67,3.47-19.51,2.24-38.16,7-57.19,10.64L881,127.44l.86,6.63,74.26-.41,19.12.14c-4,2.38-7.49,6.34-12.17,6.9-48.77,5.89-97.78,11.11-146.58,16.93-4.14.5-7.24,3.93-10.82,6a46.72,46.72,0,0,0-5.66.88l-52.07,1-78.34-.22c5.79-1.25,11.42-2.93,17.4-3.69,53-6.75,106.08-13.35,166.91-21-12.16-3.2-16.48-5.46-19.65-5-61.62,8.72-123.11,17.75-184.62,26.72Z"/><path class="cls-14" d="M1133.71,86.16c-68.17,7.71-136.61,14.69-204.43,23.32-76.89,9.8-153.35,20.78-229.75,31.81C645.9,149,592.67,157.71,539.26,166l-20.06-2.9c42.64-7.19,85-14.9,128-21.45,68.91-10.53,137.86-21.07,207.36-30.16,76.17-10,153.09-18,229.44-27.57,17-2.12,33-7,49.51-10.54Q1133.61,79.77,1133.71,86.16Z"/><path class="cls-13" d="M1154.41,103.71q1.68-8.31,3.37-16.61l-.17.21,6.26-3.84c13.33-11.92,26.7-12,40.1,0q4.18,8.94,8.36,17.88l-2.84,4c-6.23,14-25.31,12.32-43.38,11.85Q1160.25,110.45,1154.41,103.71Z"/><path class="cls-16" d="M1212.35,101.31,1204,83.43l102.82-.27-6,6.75C1269.76,89.57,1239,90,1212.35,101.31Z"/><path class="cls-5" d="M1163.87,83.47l-6.26,3.84Z"/><path class="cls-17" d="M1166.12,117.18c18.06.47,37.14,2.19,43.37-11.84l59.66.27c0,4,0,8,0,12.09-21.67,2.4-43.66,4.1-64.82,7.54-7.89,1.27-13.82,6.59-20.63,10.07l-110,1.93c6.86-4,12.63-10.19,20.81-11.55C1117.82,121.8,1142.16,119.88,1166.12,117.18Z"/><path class="cls-14" d="M1269.15,105.61l-59.66-.27c.94-1.35,1.88-2.68,2.84-4,26.62-11.36,57.43-11.74,88.51-11.4q.09,7.34.17,14.67Z"/><path class="cls-4" d="M510.94,53l.06,3.89Q435.42,68.29,359.85,79.73C330,84.3,300.13,88.75,270.64,94c-17.88,3.16-33.51,7.46-7.73,18.08,3.85,1.58,3.62,9,.79,12.47-1.5,1.84-12.67,1.06-19.47,1.46q-4-22.31-8.08-44.6L348,61.56c11.3,11.6,22.11,11.53,32.4-.46l-.05,0,32.7-4-.12,0,26.15-4.13,13.06-3.54,6.88,3.8L491.41,53l-.17.06Z"/><path class="cls-14" d="M459.05,53.33l-6.88-3.8C491.43,44.19,530.76,39,569.84,33.3c5-.73,8.57-4.52,12.81-6.89l38.9-.24c-3.25,2.46-5.73,6.44-9.88,7.16-40,6.88-80.25,13.22-120.43,19.71l.17-.06Z"/><path class="cls-14" d="M380.43,61.1c-10.29,12-21.1,12.06-32.4.46Z"/><path class="cls-14" d="M413.08,57.16l-32.7,4Z"/><path class="cls-14" d="M439.11,53.07,413,57.2Z"/><path class="cls-9" d="M212.13,145.28l117.53-4.21L343,144.34l12.39.75,1.2,4.52L206,164.51l-39.69-4.34-19-13.61,32-3.87Z"/><path class="cls-5" d="M888,31.19l14.13-2.89Z"/><path class="cls-11" d="M805.71,163.63c3.58-2.07,6.68-5.5,10.82-6,48.8-5.82,97.81-11,146.58-16.93,4.68-.56,8.14-4.52,12.18-6.9l78.93,6.9c-32.42,5.24-64.81,10.57-97.29,15.68-17.34,2.74-34.85,5.11-52.28,7.65Z"/><path class="cls-5" d="M904.65,164c17.43-2.54,34.94-4.91,52.28-7.65,32.48-5.11,64.87-10.44,97.29-15.68l19.42-3.46,110-1.93c0,1.54.67,4.33,0,4.44q-74.25,12-148.69,23.56l-26,.71Z"/><path class="cls-11" d="M649.68,162.38c61.51-9,123-18,184.62-26.72,3.17-.45,7.49,1.81,19.65,5-60.83,7.61-113.9,14.21-166.91,21-6,.76-11.61,2.44-17.4,3.69Z"/><path class="cls-1" d="M1073.64,137.24l-19.42,3.46-78.93-6.9-19.13-.14c7.24-2.55,14-6.52,21.81-7.4,20-2.26,40.5-3.16,60.8-4.6a17.35,17.35,0,0,0-2.18-3.43c-.34-.36-2-.29-3.07-.42,19-3.65,37.68-8.4,57.19-10.64,20.79-2.39,42.4-2.42,63.67-3.47l11.73,13.48c-23.95,2.7-48.29,4.62-71.66,8.51C1086.27,127.05,1080.5,133.25,1073.64,137.24Z"/><path class="cls-9" d="M1033.52,117.81c1.06.13,2.73.06,3.07.42a17.35,17.35,0,0,1,2.18,3.43c-20.3,1.44-40.78,2.34-60.8,4.6-7.81.88-14.57,4.85-21.81,7.4l-74.26.41-.86-6.63Z"/><path class="cls-5" d="M459.05,53.33,491.41,53Z"/><text class="cls-23" transform="translate(462.91 115.77)">Rankings</text><text class="cls-24" transform="translate(413.49 290.98)"><tspan xml:space="preserve">1.  GG-Gupta</tspan></text><text class="cls-24" transform="translate(415.49 469.98)"><tspan xml:space="preserve">2.  Johny Jain</tspan></text><text class="cls-24" transform="translate(413.49 627.98)"><tspan xml:space="preserve">3.  Red Rastogi</tspan></text></g></g></svg>