<svg xmlns="http://www.w3.org/2000/svg" viewBox="0 0 567.29 165.87"><defs><style>.cls-1{fill:#4b2607;}.cls-2{fill:#c68555;}.cls-3{font-size:71px;fill:#512609;stroke:#492107;stroke-miterlimit:10;stroke-width:7px;font-family:MongolianBaiti, Mongolian Baiti;}</style></defs><title>Go back button</title><g id="Layer_2" data-name="Layer 2"><g id="Layer_1-2" data-name="Layer 1"><path class="cls-1" d="M83,4.84c14.16,1.08,23.32-.9,32.54-3.2,11.07-2.77,22.33-1.47,33.55-.16,25.06,2.93,50,7.73,75.45,6a102.82,102.82,0,0,0,14-2.28A96,96,0,0,1,261.6,3.24c23.42.72,46.8-1,70.21-1.08,10.94-.05,21.67,2,32.56,2.47,5.76.26,11.41,3.07,17.09,4.79,17.16,5.21,34.89,5.25,52.63,6.43,20.79,1.39,41.88.77,62.31,5.9a27.59,27.59,0,0,1,6.48,2.09c12.24,6.68,26,9.08,39.24,12.66a16.34,16.34,0,0,1,10.41,7.76c8,13.18,14.26,26.87,13.57,42.68-.12,2.68.62,5.4.95,8.1,1.62,13.38-5.15,24.35-11.15,35.42-12.32,22.73-33.95,27.91-57.63,26.12-14.46-1.08-28.69-2-42.91.6-10.27,1.88-20.35-.79-30.54-.28-5.84.3-11.55.53-17,3-2.94,1.34-6.21,1-9.37,1.15-21.4,1-42.68,3.79-64.12,3.89-21.67.11-43.61,2.24-64.93-.37-22.55-2.76-45-5.07-67.59-4.34-12.78.4-25.59.82-38.35,2.42-12.05,1.51-24.24.51-36.25-1.41a416,416,0,0,1-64.87-15.37c-9.75-3.21-18.05-9-26.91-13.74-4-2.15-8.28-3.63-12.31-5.74C13,121.1,9.8,111.49,7.12,102c-2.06-7.29-3.64-14.72-6-22C-1.07,73-.26,63.83,5.07,60.53c11.64-7.21,14.16-20.35,23.4-28.59,8-7.1,15.1-15.82,24.82-20.23C63.81,7,75.41,3.65,83,4.84ZM469,91.53c4.83-8.85,6.13-10.49,11-12.35,12.4-4.71,25.58-4.74,38.43-4.13,11.06.53,7.68,3,13.94-6.83a31.67,31.67,0,0,0,2.4-4.53c3.44-7.95.46-15.66-7.71-19a226.16,226.16,0,0,0-24.28-8.57c-25.9-7.32-52.43-9.51-79.28-9.48-4.43,0-9.5,1.29-13.25-1-7.69-4.76-15.62-5.95-24.54-5.2-5.68.47-11.39,1.73-17.26.59-8.92-1.72-17.91-3.83-26.93-4.14-16.32-.56-32.7-.88-49.05.56a148.88,148.88,0,0,1-23.23.15c-10.15-.73-20.24-2.5-29.83,2.61a8.17,8.17,0,0,1-3.6.45c-8.24.08-16.47.29-24.7.11-14.18-.31-28.42.53-42.43-3-7.69-2-15.62-1.29-23.55-.31-5.72.7-11.41,3.16-17.12,2-5.14-1.07-10.15-.78-15.17-.42C97.12,20,81.42,21.51,65.69,22.7c-8.2.62-15.44,2.7-20.61,9.55-5.7,7.56-11.69,14.9-17.62,22.29-.91,1.14-1.43,1.9-.8,3.55,2.8,7.32,1.18,14.18-3.61,20.16-4.37,5.44-4.44,11.31-2.82,17.42,5,19,30.56,34.47,51,31.08,6.27-1,12.64-.35,19-.52a4.53,4.53,0,0,1,3.23,1.47c4.12,3.74,8.72,3.93,13.54,1.54,3.8-1.88,7-1,10.11,1.49,2.18,1.73,4.45,4,7.35,3.55,6.37-.89,12.5,1,19.37-1.33s15.91-1.48,23.18,2.75c4.19,2.45,8.5,4.35,13.36,2.9,9.23-2.75,18.22-2.07,27.2.87,1,.33,2.35.17,2.74,1.22,2.35,6.32,7.89,5.86,13.14,5.87q49.94,0,99.87,0c1.47,0,3.12.59,4.6-.79-.38-.77-.75-1.51-1.11-2.25-.82-1.72-3.37-3.19-1.91-5.25,1.71-2.4,4.45-2.91,7.56-2.31a53.88,53.88,0,0,0,7.86.46c15.94.74,31.6-3.37,47.65-2.34,6.79.44,13.71-1.73,20.78-1.78a291.28,291.28,0,0,0,49.72-4.65c6.5-1.18,13.07-3.7,19.73-2.22,5.55,1.24,10.82.72,16.16-.25,4.83-.87,9.64-1.66,14.55-2.08,8.13-.71,12.65-4.36,13.76-10.47.52-2.85.19-4.79-3.58-5.28a41.42,41.42,0,0,1-14.34-5C493.72,96.44,482.84,90.47,469,91.53Z"/><path class="cls-2" d="M469,91.53c13.85-1.06,24.73,4.91,35.68,10.8a41.42,41.42,0,0,0,14.34,5c3.77.49,4.1,2.43,3.58,5.28-1.11,6.11-5.63,9.76-13.76,10.47-4.91.42-9.72,1.21-14.55,2.08-5.34,1-10.61,1.49-16.16.25-6.66-1.48-13.23,1-19.73,2.22a291.28,291.28,0,0,1-49.72,4.65c-7.07.05-14,2.22-20.78,1.78-16.05-1-31.71,3.08-47.65,2.34a53.88,53.88,0,0,1-7.86-.46c-3.11-.6-5.85-.09-7.56,2.31-1.46,2.06,1.09,3.53,1.91,5.25.36.74.73,1.48,1.11,2.25-1.48,1.38-3.13.78-4.6.79q-49.94.06-99.87,0c-5.25,0-10.79.45-13.14-5.87-.39-1.05-1.75-.89-2.74-1.22-9-2.94-18-3.62-27.2-.87-4.86,1.45-9.17-.45-13.36-2.9-7.27-4.23-16.26-5.06-23.18-2.75s-13,.44-19.37,1.33c-2.9.4-5.17-1.82-7.35-3.55-3.08-2.44-6.31-3.37-10.11-1.49-4.82,2.39-9.42,2.2-13.54-1.54a4.53,4.53,0,0,0-3.23-1.47c-6.33.17-12.7-.53-19,.52-20.39,3.39-45.91-12-50.95-31.08-1.62-6.11-1.55-12,2.82-17.42,4.79-6,6.41-12.84,3.61-20.16-.63-1.65-.11-2.41.8-3.55,5.93-7.39,11.92-14.73,17.62-22.29,5.17-6.85,12.41-8.93,20.61-9.55,15.73-1.19,31.43-2.67,47.17-3.78,5-.36,10-.65,15.17.42,5.71,1.19,11.4-1.27,17.12-2,7.93-1,15.86-1.66,23.55.31,14,3.56,28.25,2.72,42.43,3,8.23.18,16.46,0,24.7-.11a8.17,8.17,0,0,0,3.6-.45c9.59-5.11,19.68-3.34,29.83-2.61a148.88,148.88,0,0,0,23.23-.15c16.35-1.44,32.73-1.12,49.05-.56,9,.31,18,2.42,26.93,4.14,5.87,1.14,11.58-.12,17.26-.59,8.92-.75,16.85.44,24.54,5.2,3.75,2.32,8.82,1,13.25,1,26.85,0,53.38,2.16,79.28,9.48a226.16,226.16,0,0,1,24.28,8.57c8.17,3.37,11.15,11.08,7.71,19a31.67,31.67,0,0,1-2.4,4.53c-6.26,9.81-2.88,7.36-13.94,6.83-12.85-.61-26-.58-38.43,4.13C475.12,81,473.82,82.68,469,91.53ZM249.48,52.33c-2.64,0-5.28-.11-7.91,0-9.23.48-15.25,5.53-17.42,14.15-1.07,4.22,0,8.65-1.15,12.67-1.94,6.71,2.67,11.32,5.73,15.58,4.43,6.14,22.71,7.36,29.71,3.38,11.38-6.46,15.16-16.23,11-30.92-4-14.21-6.91-15.12-18.39-14.87C250.53,52.35,250,52.34,249.48,52.33Zm46.13,16.08c-1.53-4.46-2.61-7.87-3.86-11.22-1.09-2.9-2.77-5.56-6.51-4.47-3.45,1-7.45,2-6.82,7A139.47,139.47,0,0,1,279.25,75c.11,6-.36,11.93.92,17.85.77,3.59,2.12,6.82,6.12,7.44,3.68.58,4-3.13,5.54-5.22,1.9-2.55,2.65-7.17,6.11-7.05,3.94.13,4.29,4.87,5.57,7.88,3.05,7.13,5.5,8.71,13.09,8.17,2.52-.17,3.22-1.1,3.36-3.42.29-4.7-2.79-8-4.88-11.65-6.4-11.18-7.91-21.86,2.27-31.85,2-1.92,1.22-3.25-1-4.31-2.52-1.21-4.63-1.73-6.9.91C305.31,58.54,300.75,63,295.61,68.41Z"/><path class="cls-1" d="M249.48,52.34h1.58c11.48-.25,14.39.66,18.39,14.87,4.15,14.69.37,24.46-11,30.92-7,4-25.28,2.76-29.71-3.38-3.06-4.26-7.67-8.87-5.73-15.58,1.17-4,.08-8.45,1.15-12.67,2.17-8.62,8.19-13.67,17.42-14.15C244.2,52.22,246.84,52.33,249.48,52.34Zm8.11,22.49a52.93,52.93,0,0,0-1.39-6.51c-1.43-4.24-5-6.22-9.24-6.44s-7.24,2-8.7,6.08a25.16,25.16,0,0,0-.78,13.63c.93,4.63,4.42,7.47,9.28,7.71s7.83-2.75,9.3-6.94A52.57,52.57,0,0,0,257.59,74.83Z"/><path class="cls-1" d="M295.61,68.41c5.14-5.4,9.7-9.87,13.85-14.69,2.27-2.64,4.38-2.12,6.9-.91,2.21,1.06,2.95,2.39,1,4.31-10.18,10-8.67,20.67-2.27,31.85,2.09,3.63,5.17,7,4.88,11.65-.14,2.32-.84,3.25-3.36,3.42-7.59.54-10-1-13.09-8.17-1.28-3-1.63-7.75-5.57-7.88-3.46-.12-4.21,4.5-6.11,7.05-1.57,2.09-1.86,5.8-5.54,5.22-4-.62-5.35-3.85-6.12-7.44-1.28-5.92-.81-11.9-.92-17.85a139.47,139.47,0,0,0-.83-15.29c-.63-5,3.37-6,6.82-7,3.74-1.09,5.42,1.57,6.51,4.47C293,60.54,294.08,64,295.61,68.41Z"/><path class="cls-2" d="M257.59,74.83a52.57,52.57,0,0,1-1.53,7.53c-1.47,4.19-4.49,7.17-9.3,6.94s-8.35-3.08-9.28-7.71A25.16,25.16,0,0,1,238.26,68c1.46-4,4.41-6.31,8.7-6.08s7.81,2.2,9.24,6.44A52.93,52.93,0,0,1,257.59,74.83Z"/><rect class="cls-2" x="207.29" y="36.87" width="129" height="79"/><text class="cls-3" transform="translate(151.29 92.14)">Go Back</text></g></g></svg>