<svg xmlns="http://www.w3.org/2000/svg" viewBox="0 0 812.3 186.99"><defs><style>.cls-1{fill:#f0bf90;}.cls-2{fill:#d1863d;}.cls-3{fill:#e8994c;}.cls-4{fill:#e5b78a;}.cls-5{fill:#a55f1d;}.cls-6{fill:#9a734e;}.cls-7{fill:#b97129;}.cls-8{fill:#ab6420;}.cls-9{fill:#8b4e11;}.cls-10{fill:#d08133;}.cls-11{fill:#b06b28;}.cls-12{fill:#605549;}.cls-13{fill:#cd7e30;}.cls-14{fill:#a0540c;}.cls-15{fill:#dd9147;}.cls-16{fill:#a75b13;}.cls-17{fill:#954e09;}.cls-18{font-size:87px;fill:#492405;font-family:NeatChalk, Neat Chalk;}</style></defs><title>Actual Button</title><g id="Layer_2" data-name="Layer 2"><g id="Layer_1-2" data-name="Layer 1"><path class="cls-1" d="M73.74,3.43l25.92.13,32.73.21,10.76-.55L167,3.93l93-.38,54.18.9c-4.4,2.49-8.53,6.08-13.26,7.26-12.21,3-24.68,5-37.05,7.46L236.6,20.36,232,22.83l-6.55.13c-4.91-1-9.82-3-14.73-3-61.14-.18-122.27-.07-183.41,0Q21.9,14.18,16.47,8.43l1.2-5Z"/><path class="cls-2" d="M236.6,20.36l27.32-1.19,58,.57,8,3.42q-2,6-4.07,12l-15.35.26-.16-4.09,14.86-3.94c-21.42-7.06-35.92-.85-51.72,3.25C231.71,41.5,189.1,49.11,147.11,59.14c-5.86,1.4-10.18,9.23-15.21,14.08L108.59,85.8c1.34-6.76,2.87-13.67-8.18-12L45.62,67.32,15.27,66q2.22-5.64,4.43-11.29C31.17,55.65,41.33,55,39,39l19.5,11.55c24.39,0,48.83.9,73.16-.38,6.61-.35,12.89-7.1,19.32-10.91L225.45,23c2.18,0,4.36-.09,6.55-.12Q234.31,21.61,236.6,20.36Z"/><path class="cls-3" d="M225.45,23,151,39.24C132.08,37,113.21,33.3,94.28,32.92c-12.13-.24-24.36,4.37-36.55,6.81.26,1.18.57,2.34.93,3.49,0,2.44-.11,4.87-.17,7.31L39,39c-7.51-2.47-15.06-4.85-22.39-7.76-.27-.11,1.51-5.39,2.34-8.25L27.16,20l.15-.09c61.14,0,122.27-.14,183.41,0C215.63,20,220.54,21.92,225.45,23Z"/><path class="cls-1" d="M27.16,20,18.94,23Z"/><path class="cls-4" d="M321.89,19.74l-58-.57c12.37-2.42,24.84-4.41,37.05-7.46,4.73-1.18,8.86-4.77,13.26-7.26l38.44-1.56,147.91.39-.15,1.12,6.9,6.82,4.84-7Q525.58,3.52,539,2.83l116.66,1L690.94.12,709.85,0l19,.19,8.64,4.27c-7,2.49-13.92,5.57-21.13,7.37C700.09,15.9,683.64,19.34,667.25,23l-69.5.54-20-3.52-7.67-.85-88.79.21-19.67.13c-21.85-8.8-43.75-5.7-65.65-.21l-12.44.87-7.31-1.08Z"/><path class="cls-1" d="M512.17,4.24l-4.84,7-6.9-6.82Z"/><path class="cls-5" d="M597.75,23.58l69.5-.54a11.79,11.79,0,0,0,3.63.59c5,2.54,9.83,6.84,15,7.28,11.91,1,24,.14,36,0l38.67-7.64c.18,3.6.35,7.21.53,10.81-4.47,3-8.82,6.09-13.43,8.81s-9.54,5-14.32,7.54l-58,3.7c2.34-22.09,22.62-4.07,33.1-16.73l-48.79,4.82-26.94,1-15.26-7.54,11.25-.17H663c-.1-1.26-.21-2.52-.32-3.77H628.32Z"/><path class="cls-6" d="M760.54,23.3l-38.67,7.64c-5-2.46-9.8-6.62-15-7.06-11.93-1-24-.28-36-.25a11.79,11.79,0,0,1-3.63-.59c16.39-3.7,32.84-7.14,49.13-11.21,7.21-1.8,14.1-4.88,21.13-7.37H802l1.17,5Z"/><path class="cls-7" d="M733.32,50.46c4.78-2.5,9.68-4.81,14.32-7.54s9-5.86,13.43-8.81L811.25,43,805.4,70.26l-44.7-3.92,24.15-10.51Z"/><path class="cls-3" d="M236.6,20.36q-2.29,1.25-4.6,2.48Z"/><path class="cls-8" d="M812.08,119.92q.1,6.39.22,12.77l-48.22,11.05-42.24-3.8-11.7-7.69-57.87.46c-8.18-.13-16.35-.29-24.53-.39q-20.9-.25-41.8-.47l-69.63.68-15.37-3.88c50.49-7.23,101.05-14,151.41-22.05,10.75-1.72,26.12,4.3,30.84-12.94,6.63,10.84,10.86,28,28.15,10.61l6.6.74c18.47.33,37.66,3,50.28-15.58.33-.5.87-1,.94-1.53a1.75,1.75,0,0,0-.68-1.47c-5.36-2.72-10.76-5.35-16.16-8l48.2,7.48,6.27,19c-20.73-.4-41.34-.22-64.4,13.88,18.18,1.45,31.29,3,44.42,3.35C795.21,122.31,803.65,120.71,812.08,119.92Z"/><path class="cls-9" d="M800.52,85.91l-48.19-7.48c-12.88,3.54-28.69-9-39.29,7.11l-13.66-14.3,25.9-1.86,4.72-.2,30.7-2.84,44.7,3.92Z"/><path class="cls-9" d="M812.08,119.92c-8.43.79-16.87,2.39-25.27,2.18-13.13-.34-26.24-1.9-44.42-3.35,23.06-14.1,43.67-14.28,64.4-13.88Q809.43,112.4,812.08,119.92Z"/><path class="cls-5" d="M764.08,143.74l48.22-11.05q-2.76,5.51-5.53,11l-1.89,0-1.88.14-42.41,0A29,29,0,0,1,764.08,143.74Z"/><path class="cls-10" d="M310.34,31.36c.05,1.36.11,2.73.16,4.09l-13.17,9.74c28.69-5,51.7-8.64,74.51-13.28,8.25-1.68,16-5.81,24-8.82l18.83-.3,4.67.48,18.81.87c-3.82,2.38-7.4,6.21-11.5,6.89-23.93,4-48.22,6.15-71.95,11-34.49,7.11-68.63,16-102.89,24.19q-55.5,13.32-111,26.81-2.62-9.35-5.24-18.69c13.1-2.75,26.31-5.06,39.28-8.33C220.07,54.67,265.19,43,310.34,31.36ZM271.51,50.72l21.24-1.1c-.74-2.61-1.47-5.22-2.21-7.83l-19,9-11.77,1c.29,1.06.58,2.12.86,3.18Z"/><path class="cls-3" d="M310.34,31.36C265.19,43,220.07,54.67,174.86,66.06c-13,3.27-26.18,5.58-39.28,8.33a15.78,15.78,0,0,1-3.68-1.17c5-4.85,9.35-12.68,15.21-14.08,42-10,84.6-17.64,126.37-28.47,15.8-4.1,30.3-10.31,51.72-3.25Z"/><path class="cls-3" d="M9.28,109l-1.56-.2-.24-1.57c2.85-4.43,4.91-11.78,8.68-12.81,27.89-7.56,56.12-13.86,84.25-20.56,11-1.7,9.52,5.21,8.18,12l0,0c-12.9,2.75-26,4.76-38.62,8.53-7,2.1-13.19,7.1-19.74,10.8Z"/><path class="cls-11" d="M57.73,39.73c12.19-2.44,24.42-7,36.55-6.81,18.93.38,37.8,4,56.69,6.32-6.43,3.81-12.71,10.56-19.32,10.91-24.33,1.28-48.77.43-73.16.38.06-2.44.12-4.87.17-7.31.39-.46,1.21-1.22,1.13-1.33A20,20,0,0,0,57.73,39.73Z"/><path class="cls-11" d="M100.41,73.83c-28.13,6.7-56.36,13-84.25,20.56-3.77,1-5.83,8.38-8.68,12.81C-6,100.44,2,92.85,6.63,85.4c9.56-2.8,19.36-5,28.58-8.67,4.07-1.62,7-6.19,10.41-9.41Z"/><path class="cls-12" d="M131.9,73.22a15.78,15.78,0,0,0,3.68,1.17q2.63,9.35,5.23,18.69-2.52,7.83-5,15.63l-23.42.11q-1.87-11.53-3.74-23.07l0,0Z"/><path class="cls-3" d="M395.8,23.09c-8,3-15.71,7.14-24,8.82C349,36.55,326,40.16,297.33,45.19l13.17-9.74,15.35-.26,11.78-3.71,7.62-.13,7.74-.2,30.58-10.93L396,19.34Q395.92,21.22,395.8,23.09Z"/><path class="cls-9" d="M45.62,67.32c-3.43,3.22-6.34,7.79-10.41,9.41C26,80.39,16.19,82.6,6.63,85.4L15.27,66Z"/><path class="cls-1" d="M321.89,19.74l54.38-.61L337.41,22.9l-7.49.26Z"/><path class="cls-10" d="M329.92,23.16l7.49-.26q.1,4.29.22,8.58l-11.78,3.71Q327.89,29.18,329.92,23.16Z"/><path class="cls-9" d="M112.37,108.82l23.42-.1,26.35.83.21,10.69-22.49,1.93-8.7-.59L120,121.33l-23.53.5-11.74,2.43-22.85,1.52L57.45,128l-32.23.61L9.28,109l41-3.89Z"/><path class="cls-7" d="M22.69,182.9l-3.66-8,8-19.32,31-11.76c5.56,2.62,11,7.22,16.69,7.49,21.77,1,43.6.65,65.4.79l-15.51,14.51c-27.42.22-54.85,1-82.25.41C30.3,166.81,24.1,171.24,22.69,182.9Z"/><path class="cls-3" d="M58,143.85,27,155.61q-.9-13.5-1.78-27,16.14-.29,32.26-.6l4.45-2.23,22.85-1.52,11.74-2.43,23.53-.5c0,.94,0,1.89-.06,2.83l-42.52,16Z"/><path class="cls-2" d="M57.73,39.73a20,20,0,0,1,2.06,2.16c.08.11-.74.87-1.13,1.33C58.3,42.07,58,40.91,57.73,39.73Z"/><path class="cls-3" d="M139.86,122.17l22.49-1.93c24.65-7.67,49-16.45,74-22.75C274,88,312.09,80.09,350,71.72c52.69-11.62,105.22-24.15,158.24-34,22.46-4.19,46-2.63,73.22-3.87l-25.27-6.07,21.56-7.68,20,3.51,30.58,8.19c.17,1.24.3,2.5.38,3.77l-11.25.17c-3.23-.09-6.59-.82-9.65-.15-45.79,10-91.49,20.38-137.31,30.2-32.93,7.06-66,13.5-99,20.06-21.4,4.25-43.12,7.17-64.22,12.54-41.8,10.64-83.28,22.56-124.89,34l-7.89,7.5-65.72,3.5c3.5-3.83,6.41-8.57,10.63-11.26C125.72,128,133,125.4,139.86,122.17Z"/><path class="cls-3" d="M162.14,109.55l-26.35-.83q2.51-7.81,5-15.64,55.49-13.41,111-26.81c34.26-8.21,68.4-17.08,102.89-24.19,23.73-4.9,48-7,71.95-11,4.1-.68,7.68-4.51,11.5-6.89l23.55-4.59,19.67-.12,38.87,3.71c-5,2.64-9.73,6.55-15.06,7.7-32.23,7-64.62,13.22-96.92,19.9-40.46,8.36-81.1,16-121.26,25.6C245.11,86.37,203.73,98.4,162.14,109.55Z"/><path class="cls-13" d="M162.14,109.55c41.59-11.15,83-23.18,124.82-33.21,40.16-9.62,80.8-17.24,121.26-25.6,32.3-6.68,64.69-12.93,96.92-19.9,5.33-1.15,10.06-5.06,15.06-7.69L535,22.73l8.26-2.33,26.83-1.19,7.68.85-21.56,7.69,25.27,6.07c-27.23,1.24-50.76-.32-73.22,3.87-53,9.88-105.55,22.41-158.24,34-38,8.37-76,16.26-113.7,25.77-25,6.3-49.34,15.08-74,22.75Z"/><path class="cls-1" d="M461.66,19.55l-23.55,4.59-18.81-.87-4.67-.48-18.83.3q.12-1.87.21-3.75C417.91,13.85,439.81,10.75,461.66,19.55Z"/><path class="cls-1" d="M535,22.73l-14.82.42-38.87-3.72,88.79-.22L543.28,20.4Z"/><path class="cls-2" d="M337.63,31.48q-.12-4.29-.22-8.58l38.86-3.77,7.3,1.08L353,31.16l-3.06-5.92-4.68,6.11Z"/><path class="cls-3" d="M725.28,69.38l-25.91,1.86-9.18,7c-5.85-1.83-12.24-6.13-17.45-5C659.88,76,647.86,82.71,635,85.27c-46.16,9.18-92.75,16.3-138.78,26.07-49.58,10.51-98.82,22.72-148,35.07-15.62,3.92-30.54,10.66-45.77,16.12L283,164.18l-30.79,2.75L206,166.24c1.93-2.19,3.49-5.71,5.85-6.38,33.47-9.55,66.92-19.25,100.64-27.84,46.76-11.93,93.54-23.93,140.7-34.09,43-9.24,86.52-15.71,129.68-24.07,30.94-6,61.66-13.09,92.48-19.7l58-3.7,51.53,5.37L760.7,66.34,730,69.18Z"/><path class="cls-13" d="M675.35,54.16c-30.82,6.61-61.54,13.71-92.48,19.7-43.16,8.36-86.72,14.83-129.68,24.07C406,108.09,359.25,120.09,312.49,132c-33.72,8.59-67.17,18.29-100.64,27.84-2.36.67-3.92,4.19-5.85,6.39l-20-3.83,21.82-13.79-10.37-1.33-15.28-7.41.21-7.57c41.61-11.4,83.09-23.32,124.89-34,21.1-5.37,42.82-8.29,64.22-12.54,33-6.56,66.11-13,99-20.06,45.82-9.82,91.52-20.22,137.31-30.2,3.06-.67,6.42.06,9.65.15l15.26,7.54c-3.84,2.48-7.68,7.14-11.51,7.11C582,50.14,543.82,54,505.94,65.66c-29.63,9.09-60.85,12.88-91.14,19.94-56.93,13.25-113.7,27.18-170.53,40.81-11.15,2.67-22.31,5.27-37.15,8.78l17.82,8.7-5.14,1.41c.33.5.66,1,1,1.49l4.16-2.9c8.27-.83,16.79-.65,24.75-2.66,36.75-9.29,73.16-20,110-28.63,38.32-9,77-16.36,115.61-24.31C525.51,78,575.89,68.57,625.73,56.84c11.42-2.69,29,4.53,33.93-14.6l48.79-4.81C698,50.09,677.69,32.07,675.35,54.16Z"/><path class="cls-3" d="M224.94,143.89l-17.82-8.7c14.84-3.51,26-6.11,37.15-8.78C301.1,112.78,357.87,98.85,414.8,85.6c30.29-7.06,61.51-10.85,91.14-19.94C543.82,54,582,50.14,621.21,50.36c3.83,0,7.67-4.63,11.51-7.11l26.94-1c-4.93,19.12-22.51,11.9-33.93,14.59C575.89,68.57,525.51,78,475.34,88.29c-38.57,7.95-77.29,15.3-115.61,24.31-36.88,8.67-73.29,19.34-110,28.63-8,2-16.48,1.83-24.75,2.66Z"/><path class="cls-13" d="M670.88,23.63c12,0,24.11-.79,36,.25,5.15.44,10,4.6,15,7.06-12,.11-24.08,1-36,0C680.71,30.47,675.87,26.17,670.88,23.63Z"/><path class="cls-13" d="M628.71,35.54c-.08-1.27-.21-2.53-.38-3.77h34.35c.11,1.25.22,2.51.32,3.77Z"/><path class="cls-14" d="M787.79,159.38l15.61,19.29c-6,1.35-12,3.82-18,3.87-38,.3-76,.07-114,0,7.54-2.31,15.18-4.35,22.6-7,6.8-2.43,13.36-5.51,20-8.31L741,162.82Z"/><path class="cls-7" d="M787.79,159.38,741,162.83l-7.5-15.05,27.12-3.93,42.41,0Z"/><path class="cls-14" d="M22.69,182.9c1.41-11.66,7.61-16.09,19.64-15.85,27.4.54,54.83-.19,82.24-.4l49.83-2.76c-3.2,3.69-5.71,8.86-9.75,10.74-7.89,3.68-16.64,5.52-25,8.12l-8.09.9-7.57-.09-26.79,2L97,187l-70.09-2-3.72-2Z"/><path class="cls-3" d="M683.19,93.66c-4.72,17.24-20.09,11.22-30.84,12.94-50.36,8.05-100.92,14.82-151.41,22.05C489.39,132.47,478,136.9,466.27,140c-29.94,7.87-60,15.13-90.07,22.63l-19.13,1.63-7.28-.22-20,2.4-4,.51-3.3-.7c8.25-4.84,15.93-12,24.83-14.14,58.56-13.88,117.32-27,176.16-39.64,17.45-3.77,35.42-5.1,53.06-8.1,35.59-6,71.11-12.48,106.66-18.75Z"/><path class="cls-13" d="M585.94,131.85q20.89.24,41.8.47c8.18.1,16.35.26,24.52.38-2.6,2.38-4.91,6.34-7.84,6.88-17.63,3.19-35.75,4.27-53,8.65-17.58,4.45-34.41,11.9-51.56,18l-47.05.69-19.5-4.41c24.42-6.23,48.9-12.26,73.25-18.77C559.77,140.23,572.81,135.86,585.94,131.85Z"/><path class="cls-3" d="M539.82,166.26c17.15-6.13,34-13.58,51.56-18,17.29-4.38,35.41-5.46,53-8.65,2.93-.54,5.24-4.5,7.84-6.88l57.88-.45c-3,2.63-5.62,6.8-9,7.62-13.64,3.23-27.54,5.41-41.34,8l-7.94,3.66-15.34.32-19.39,11.06-46.75,4Z"/><path class="cls-3" d="M585.94,131.85c-13.13,4-26.17,8.38-39.42,11.93-24.35,6.51-48.83,12.54-73.25,18.78l-62,4.34-11.15-.63c.71-1.77,1.11-4.85,2.17-5.09,25.91-6,52-11.27,77.83-17.45,12.27-2.93,24.17-7.42,36.23-11.2Z"/><path class="cls-13" d="M516.31,132.53c-12.06,3.78-24,8.27-36.23,11.2-25.85,6.18-51.92,11.5-77.83,17.45-1.06.24-1.46,3.32-2.17,5.09l-23.88-3.66c30-7.5,60.13-14.76,90.07-22.63,11.74-3.08,23.12-7.51,34.67-11.33Z"/><path class="cls-12" d="M683.19,93.66l0-8.06,7-7.39,9.18-7,13.68,14.3-1.71,18.73C694.05,121.69,689.82,104.5,683.19,93.66Z"/><path class="cls-15" d="M711.34,104.27l1.71-18.73c10.59-16.13,26.4-3.57,39.28-7.11,5.39,2.65,10.79,5.28,16.15,8a1.75,1.75,0,0,1,.68,1.47c-.07.54-.61,1-.94,1.54-13.78,1.36-27.71,2-41.27,4.56-3.57.67-6,7.18-9,11Z"/><path class="cls-10" d="M717.94,105c3-3.83,5.44-10.34,9-11,13.56-2.54,27.49-3.2,41.27-4.56C755.6,108,736.41,105.34,717.94,105Z"/><path class="cls-15" d="M760.59,143.85l-27.12,3.93-38.8,4-7.8-4,35-7.86,42.24,3.8A29,29,0,0,0,760.59,143.85Z"/><path class="cls-13" d="M721.84,139.94l-35,7.86-27.11,0c13.8-2.57,27.7-4.75,41.34-8,3.42-.82,6-5,9-7.62Z"/><path class="cls-7" d="M725.28,69.38l4.72-.2Z"/><path class="cls-3" d="M271.53,50.74l19-9c.74,2.61,1.47,5.22,2.21,7.83l-21.24,1.1Z"/><path class="cls-3" d="M271.51,50.72,260.62,55c-.28-1.06-.57-2.12-.86-3.18l11.77-1Z"/><path class="cls-3" d="M414.63,22.79l4.67.48Z"/><path class="cls-2" d="M112.37,108.82l-62.1-3.74c6.55-3.7,12.71-8.7,19.74-10.8,12.6-3.77,25.72-5.78,38.62-8.53Q110.51,97.29,112.37,108.82Z"/><path class="cls-10" d="M345.25,31.35l4.68-6.11L353,31.16Z"/><path class="cls-2" d="M139.86,122.17c-6.88,3.23-14.14,5.84-20.49,9.89-4.22,2.69-7.13,7.43-10.63,11.26L77.45,140.2l42.52-16c3.73-.85,7.46-1.72,11.19-2.58Z"/><path class="cls-15" d="M131.16,121.58c-3.73.86-7.46,1.73-11.19,2.58.06-.94.08-1.89.06-2.83Z"/><path class="cls-15" d="M96.5,121.83l-11.74,2.43Z"/><path class="cls-2" d="M61.91,125.78,57.46,128Z"/><path class="cls-5" d="M77.45,140.2l31.29,3.12,65.72-3.49,7.68.06,15.28,7.41-57.33,4.83c-21.8-.14-43.63.23-65.4-.79-5.66-.27-11.13-4.87-16.69-7.49Z"/><path class="cls-3" d="M140.09,152.13l57.33-4.83,10.37,1.33L186,162.43l-11.57,1.46-49.83,2.76Z"/><path class="cls-15" d="M182.14,139.89l-7.68-.06,7.89-7.51Z"/><path class="cls-3" d="M535,22.73l8.26-2.33Z"/><path class="cls-13" d="M690.19,78.21l-7,7.39c-35.55,6.27-71.07,12.7-106.66,18.75-17.64,3-35.61,4.33-53.06,8.1-58.84,12.68-117.6,25.76-176.16,39.64-8.9,2.11-16.58,9.3-24.83,14.14l-20-3.7c15.23-5.46,30.15-12.2,45.77-16.12,49.17-12.35,98.41-24.56,148-35.07,46-9.77,92.62-16.89,138.78-26.07,12.88-2.56,24.9-9.28,37.76-12.06C678,72.08,684.34,76.38,690.19,78.21Z"/><path class="cls-16" d="M174.4,163.89,186,162.43l20,3.82,46.18.68-34.82,15.16-50.77,1.16-27-.5c8.4-2.6,17.15-4.44,25-8.12C168.69,172.75,171.2,167.58,174.4,163.89Z"/><path class="cls-16" d="M302.44,162.53l20,3.7,3.3.7,4.16,4.09-.07-.12,0,11.09-12,.17-7.19,0-58.77-.23c6.57-2.12,13.59-3.43,19.59-6.64,4.51-2.42,7.72-7.29,11.51-11.07Z"/><path class="cls-17" d="M283,164.18c-3.79,3.78-7,8.65-11.51,11.07-6,3.21-13,4.52-19.59,6.65l-34.5.18,34.81-15.15Z"/><path class="cls-3" d="M224.94,143.89l-4.16,2.9c-.32-.5-.65-1-1-1.49l5.14-1.41Z"/><path class="cls-5" d="M671.43,182.56,644,185.3l-65.44.14C601.75,182,625,178.93,648,174.59c4.34-.82,7.67-6.92,11.47-10.58l18.95-4,35.65,7.21c-6.66,2.8-13.22,5.88-20,8.31C686.61,178.21,679,180.25,671.43,182.56Z"/><path class="cls-13" d="M714.05,167.25,678.4,160l16.27-8.25,38.8-4,7.5,15.05Z"/><path class="cls-16" d="M376.2,162.61l23.88,3.66,11.15.64c-2.82,2.64-5.21,6.6-8.54,7.69-9.88,3.22-20.14,5.31-30.25,7.85L341.27,182c0-3.6.05-7.2.08-10.81l7.44-.56,9,3-.73-9.44Z"/><path class="cls-13" d="M348.79,170.66l-7.44.56-11.51-.33.07.13-.15-4.6,20-2.4Q349.28,167.33,348.79,170.66Z"/><path class="cls-14" d="M348.79,170.66q.49-3.33,1-6.64l7.28.22c.24,3.15.49,6.29.73,9.44Z"/><path class="cls-14" d="M329.76,166.42l.15,4.6-4.16-4.09Z"/><path class="cls-14" d="M372.44,182.45c10.11-2.54,20.37-4.63,30.25-7.85,3.33-1.09,5.72-5,8.54-7.69l62-4.35,19.5,4.4q-5.16,4-10.32,8c-3.07,2.4-6.11,4.82-9.17,7.23h-7.77l-11.46.07Z"/><path class="cls-16" d="M473.28,182.23c3.06-2.41,6.1-4.83,9.17-7.23q5.15-4,10.32-8l47.05-.69,30.52.65-46.18,15.72Z"/><path class="cls-17" d="M524.16,182.64l46.18-15.72,46.75-4L659.45,164c-3.8,3.66-7.13,9.76-11.47,10.58-23,4.34-46.23,7.37-69.38,10.85l-54.05.31C524.38,184.71,524.25,183.68,524.16,182.64Z"/><path class="cls-2" d="M659.45,164l-42.36-1.12,19.39-11.06,14.9,7c.15-2.43.29-4.86.44-7.29l7.94-3.66,27.11,0,7.8,4L678.4,160Z"/><path class="cls-13" d="M651.82,151.51c-.15,2.43-.29,4.86-.44,7.29l-14.9-7Z"/><path class="cls-14" d="M341.27,182l-11.4,0c0-3.71,0-7.4,0-11.1l11.51.32C341.32,174.83,341.3,178.43,341.27,182Z"/><text class="cls-18" transform="translate(224.22 128.33)">Play</text></g></g></svg>