<svg xmlns="http://www.w3.org/2000/svg" viewBox="0 0 829.93 165.87"><defs><style>.cls-1{fill:#4b2607;}.cls-2{fill:#e8994c;}.cls-3{fill:#c68555;}.cls-4{font-size:71px;fill:#512609;stroke:#492107;stroke-miterlimit:10;stroke-width:7px;font-family:MongolianBaiti, Mongolian Baiti;}</style></defs><title>Credits_presses</title><g id="Layer_2" data-name="Layer 2"><g id="Layer_1-2" data-name="Layer 1"><path class="cls-1" d="M121.43,4.84c20.72,1.08,34.11-.9,47.6-3.2,16.19-2.77,32.68-1.47,49.08-.16,36.67,2.93,73.1,7.73,110.38,6,7-.34,13.79-1.31,20.5-2.28a204.11,204.11,0,0,1,33.72-1.92c34.27.72,68.47-1,102.72-1.08,16-.05,31.7,2,47.64,2.47,8.43.26,16.69,3.07,25,4.79,25.1,5.21,51,5.25,77,6.43,30.42,1.39,61.27.77,91.16,5.9a54.26,54.26,0,0,1,9.48,2.09c17.91,6.68,38,9.08,57.4,12.66,7.22,1.34,11.78,3.86,15.23,7.76C820,57.44,829.2,71.13,828.19,86.94c-.17,2.68.9,5.4,1.38,8.1,2.38,13.38-7.52,24.35-16.3,35.42-18,22.73-49.67,27.91-84.32,26.12-21.15-1.08-42-2-62.77.6-15,1.88-29.77-.79-44.67-.28-8.55.3-16.91.53-24.83,3-4.28,1.34-9.07,1-13.7,1.15-31.3,1-62.43,3.79-93.81,3.89-31.7.11-63.8,2.24-95-.37-33-2.76-65.78-5.07-98.88-4.34-18.69.4-37.43.82-56.1,2.42-17.64,1.51-35.46.51-53-1.41a852.41,852.41,0,0,1-94.9-15.37c-14.27-3.21-26.41-9-39.37-13.74-5.84-2.15-12.11-3.63-18-5.74C19,121.1,14.33,111.49,10.41,102c-3-7.29-5.33-14.72-8.72-22C-1.56,73-.37,63.83,7.42,60.53c17-7.21,20.72-20.35,34.23-28.59C53.32,24.84,63.74,16.12,78,11.71,93.35,7,110.32,3.65,121.43,4.84ZM686.12,91.53c7.06-8.85,9-10.49,16.13-12.35,18.14-4.71,37.43-4.74,56.23-4.13,16.18.53,11.24,3,20.39-6.83a30.71,30.71,0,0,0,3.52-4.53c5-7.95.67-15.66-11.29-19-11.59-3.26-23.38-6.22-35.51-8.57-37.9-7.32-76.71-9.51-116-9.48-6.48,0-13.89,1.29-19.38-1-11.25-4.76-22.85-5.95-35.9-5.2-8.31.47-16.66,1.73-25.26.59-13-1.72-26.2-3.83-39.39-4.14-23.89-.56-47.84-.88-71.77.56a318.11,318.11,0,0,1-34,.15c-14.86-.73-29.62-2.5-43.65,2.61a17.18,17.18,0,0,1-5.27.45c-12.05.08-24.1.29-36.13.11-20.75-.31-41.59.53-62.07-3-11.26-2-22.85-1.29-34.46-.31-8.36.7-16.69,3.16-25,2-7.52-1.07-14.85-.78-22.19-.42-23,1.11-46,2.59-69,3.78-12,.62-22.58,2.7-30.14,9.55-8.34,7.56-17.11,14.9-25.79,22.29-1.33,1.14-2.08,1.9-1.16,3.55,4.1,7.32,1.72,14.18-5.29,20.16-6.39,5.44-6.49,11.31-4.12,17.42,7.37,19,44.7,34.47,74.54,31.08,9.17-1,18.49-.35,27.74-.52a8.25,8.25,0,0,1,4.73,1.47c6,3.74,12.75,3.93,19.81,1.54,5.56-1.88,10.28-1,14.79,1.49,3.18,1.73,6.51,4,10.76,3.55,9.31-.89,18.29,1,28.33-1.33a60.74,60.74,0,0,1,33.91,2.75c6.13,2.45,12.44,4.35,19.56,2.9,13.49-2.75,26.64-2.07,39.79.87,1.44.33,3.43.17,4,1.22,3.44,6.32,11.54,5.86,19.23,5.87q73.05,0,146.11,0c2.14,0,4.56.59,6.73-.79-.56-.77-1.11-1.51-1.63-2.25-1.2-1.72-4.94-3.19-2.79-5.25,2.5-2.4,6.5-2.91,11.05-2.31a115.1,115.1,0,0,0,11.51.46c23.32.74,46.23-3.37,69.7-2.34,9.93.44,20.06-1.73,30.4-1.78a618.46,618.46,0,0,0,72.74-4.65c9.52-1.18,19.13-3.7,28.87-2.22,8.11,1.24,15.83.72,23.64-.25,7.07-.87,14.11-1.66,21.29-2.08,11.9-.71,18.5-4.36,20.13-10.47.75-2.85.27-4.79-5.24-5.28a80.57,80.57,0,0,1-21-5C722.3,96.44,706.38,90.47,686.12,91.53Z"/><path class="cls-2" d="M686.12,91.53c20.26-1.06,36.18,4.91,52.2,10.8a80.57,80.57,0,0,0,21,5c5.51.49,6,2.43,5.24,5.28-1.63,6.11-8.23,9.76-20.13,10.47-7.18.42-14.22,1.21-21.29,2.08-7.81,1-15.53,1.49-23.64.25-9.74-1.48-19.35,1-28.87,2.22a618.46,618.46,0,0,1-72.74,4.65c-10.34.05-20.47,2.22-30.4,1.78-23.47-1-46.38,3.08-69.7,2.34a115.1,115.1,0,0,1-11.51-.46c-4.55-.6-8.55-.09-11.05,2.31-2.15,2.06,1.59,3.53,2.79,5.25.52.74,1.07,1.48,1.63,2.25-2.17,1.38-4.59.78-6.73.79q-73,.06-146.11,0c-7.69,0-15.79.45-19.23-5.87-.57-1.05-2.56-.89-4-1.22-13.15-2.94-26.3-3.62-39.79-.87-7.12,1.45-13.43-.45-19.56-2.9A60.74,60.74,0,0,0,210.3,133c-10,2.29-19,.44-28.33,1.33-4.25.4-7.58-1.82-10.76-3.55-4.51-2.44-9.23-3.37-14.79-1.49-7.06,2.39-13.78,2.2-19.81-1.54a8.25,8.25,0,0,0-4.73-1.47c-9.25.17-18.57-.53-27.74.52C74.3,130.14,37,114.7,29.6,95.67c-2.37-6.11-2.27-12,4.12-17.42,7-6,9.39-12.84,5.29-20.16-.92-1.65-.17-2.41,1.16-3.55C48.85,47.15,57.62,39.81,66,32.25c7.56-6.85,18.15-8.93,30.14-9.55,23-1.19,46-2.67,69-3.78,7.34-.36,14.67-.65,22.19.42,8.36,1.19,16.69-1.27,25-2,11.61-1,23.2-1.66,34.46.31,20.48,3.56,41.32,2.72,62.07,3,12,.18,24.08,0,36.13-.11a17.18,17.18,0,0,0,5.27-.45c14-5.11,28.79-3.34,43.65-2.61a318.11,318.11,0,0,0,34-.15c23.93-1.44,47.88-1.12,71.77-.56,13.19.31,26.35,2.42,39.39,4.14,8.6,1.14,17-.12,25.26-.59,13-.75,24.65.44,35.9,5.2,5.49,2.32,12.9,1,19.38,1,39.28,0,78.09,2.16,116,9.48,12.13,2.35,23.92,5.31,35.51,8.57,12,3.37,16.32,11.08,11.29,19a30.71,30.71,0,0,1-3.52,4.53c-9.15,9.81-4.21,7.36-20.39,6.83-18.8-.61-38.09-.58-56.23,4.13C695.09,81,693.18,82.68,686.12,91.53ZM365,52.33c-3.85,0-7.72-.11-11.57,0-13.51.48-22.3,5.53-25.49,14.15-1.56,4.22,0,8.65-1.68,12.67-2.84,6.71,3.91,11.32,8.39,15.58,6.47,6.14,33.22,7.36,43.46,3.38,16.65-6.46,22.17-16.23,16.11-30.92C388.34,53,384.1,52.09,367.3,52.34,366.53,52.35,365.75,52.34,365,52.33Zm67.5,16.08c-2.24-4.46-3.83-7.87-5.66-11.22-1.59-2.9-4-5.56-9.52-4.47-5.05,1-10.9,2-10,7A97,97,0,0,1,408.54,75c.16,6-.53,11.93,1.34,17.85,1.13,3.59,3.11,6.82,9,7.44,5.39.58,5.81-3.13,8.1-5.22,2.78-2.55,3.88-7.17,8.94-7.05,5.76.13,6.27,4.87,8.15,7.88,4.46,7.13,8.05,8.71,19.15,8.17,3.69-.17,4.71-1.1,4.92-3.42.41-4.7-4.09-8-7.14-11.65-9.37-11.18-11.57-21.86,3.31-31.85,2.87-1.92,1.79-3.25-1.44-4.31-3.69-1.21-6.78-1.73-10.1.91C446.66,58.54,440,63,432.48,68.41Z"/><path class="cls-1" d="M365,52.34h2.32c16.8-.25,21,.66,26.9,14.87,6.06,14.69.54,24.46-16.11,30.92-10.24,4-37,2.76-43.46-3.38-4.48-4.26-11.23-8.87-8.39-15.58,1.71-4,.12-8.45,1.68-12.67,3.19-8.62,12-13.67,25.49-14.15C357.26,52.22,361.13,52.33,365,52.34Zm11.87,22.49c-.67-2.2-1-4.43-2-6.51-2.1-4.24-7.29-6.22-13.53-6.44s-10.58,2-12.72,6.08a17.64,17.64,0,0,0-1.15,13.63c1.36,4.63,6.47,7.47,13.59,7.71s11.44-2.75,13.6-6.94C375.84,80,376.12,77.38,376.85,74.83Z"/><path class="cls-1" d="M432.48,68.41c7.51-5.4,14.18-9.87,20.25-14.69,3.32-2.64,6.41-2.12,10.1-.91,3.23,1.06,4.31,2.39,1.44,4.31C449.39,67.11,451.59,77.79,461,89c3.05,3.63,7.55,7,7.14,11.65-.21,2.32-1.23,3.25-4.92,3.42-11.1.54-14.69-1-19.15-8.17-1.88-3-2.39-7.75-8.15-7.88-5.06-.12-6.16,4.5-8.94,7.05-2.29,2.09-2.71,5.8-8.1,5.22-5.85-.62-7.83-3.85-9-7.44C408,86.9,408.7,80.92,408.54,75a97,97,0,0,0-1.21-15.29c-.93-5,4.92-6,10-7,5.48-1.09,7.93,1.57,9.52,4.47C428.65,60.54,430.24,64,432.48,68.41Z"/><path class="cls-3" d="M376.85,74.83c-.73,2.55-1,5.14-2.24,7.53-2.16,4.19-6.56,7.17-13.6,6.94s-12.23-3.08-13.59-7.71A17.64,17.64,0,0,1,348.57,68c2.14-4,6.46-6.31,12.72-6.08s11.43,2.2,13.53,6.44C375.85,70.4,376.18,72.63,376.85,74.83Z"/><rect class="cls-2" x="303.26" y="36.87" width="188.72" height="79"/><text class="cls-4" transform="translate(243.33 104.14) scale(1.46 1)">Credits</text></g></g></svg>