<svg xmlns="http://www.w3.org/2000/svg" viewBox="0 0 799.81 194.89"><defs><style>.cls-1{fill:#917b64;}.cls-2{fill:#d1863d;}.cls-3{fill:#f0bf90;}.cls-4{fill:#b06b28;}.cls-5{fill:#e8994c;}.cls-6{fill:#954e09;}.cls-7{fill:#a75b13;}.cls-8{fill:#ab6420;}.cls-9{fill:#8b4e11;}.cls-10{fill:#b97129;}.cls-11{fill:#a0540c;}.cls-12{fill:#dd9147;}.cls-13{fill:#edeceb;}.cls-14{fill:#a55f1d;}.cls-15{fill:#605549;}.cls-16{fill:#cd7e30;}.cls-17{fill:#e5b78a;}.cls-18{fill:#d08133;}.cls-19{fill:#cfbfb0;}.cls-20{font-size:86.36px;fill:#492405;font-family:NeatChalk, Neat Chalk;}</style></defs><title>Exit button</title><g id="Layer_2" data-name="Layer 2"><g id="Layer_1-2" data-name="Layer 1"><path class="cls-1" d="M799.78,8.11,749,22.15l-7.47-3.39-69-.19c18.43-2.54,36.92-4.72,55.26-7.81,6-1,11.64-4.39,17.45-6.68l48.57-1.55,6,2.62A3.8,3.8,0,0,0,799.78,8.11Z"/><path class="cls-2" d="M17.61,74.6q11-9.43,22.07-18.85A7.58,7.58,0,0,1,43.08,57a6.77,6.77,0,0,0,.67,1.71A3.76,3.76,0,0,0,45,59.5c2.49-4.08,4.93-8.19,7.36-12.31l2.83,6.57c5.63,1.66,11.3,4.78,16.9,4.68,15.53-.29,31.07-1.61,46.54-3.13,11.22-1.11,22.33-3.21,33.49-4.86,20.31-5.21,40.69-10.19,60.89-15.78,5.12-1.42,9.7-4.79,14.52-7.27l7.55.07,26.45,10.67c-34.4,8-69,15.18-103.09,24.48-12.82,3.5-24.29,11.94-36.38,18.12l-5.39,1.13L95,80.92Z"/><path class="cls-3" d="M235.12,27.48l-7.55-.08-87.38-2-7.3.15-7.77,2.2-18.44.8-75.89.25-6-11.4,54.85-.51,64.66-.64,7.43-.08,15.21.1,143.57-.91c-.11,1.38-.21,2.76-.31,4.13l-6.7-.25-15.67,3.44-34.29,3.86Z"/><path class="cls-4" d="M152.16,50.45C141,52.1,129.89,54.2,118.67,55.31c-15.47,1.52-31,2.84-46.54,3.13-5.6.1-11.27-3-16.9-4.68L52.4,47.19C50,51.31,47.53,55.42,45,59.5a3.76,3.76,0,0,1-1.29-.79A6.77,6.77,0,0,1,43.08,57L27.48,43.25a15.79,15.79,0,0,0-.3-2.91L84,39.66l19.27,3.51Z"/><path class="cls-5" d="M84,39.66l-56.79.68-3.4,2.81L0,39.32,30.79,28.78l75.89-.25Z"/><path class="cls-2" d="M23.78,43.16l3.4-2.82a15.79,15.79,0,0,1,.3,2.91Z"/><path class="cls-6" d="M62.74,190.68l-26.36.24c-1.73-3.66-3.45-7.31-6.89-14.57,14.52-.14,26.83.47,39-.69,5.84-.55,11.35-4.46,17-6.86l18.63-.69c-6.18,3.83-12.21,7.94-18.59,11.4C78.08,183.54,70.34,187,62.74,190.68Z"/><path class="cls-7" d="M62.74,190.68c7.6-3.7,15.34-7.14,22.76-11.17,6.38-3.46,12.41-7.57,18.59-11.4l7.63-.27,11.35,11.27-14.8,11-4.7,1.4Z"/><path class="cls-8" d="M85.46,168.81c-5.66,2.39-11.17,6.3-17,6.85-12.13,1.16-24.44.55-39,.69,3.44,7.26,5.16,10.91,6.89,14.57C14.94,193,30.47,176.2,25.62,169.8c0,0,0-.22,0-.23a4.91,4.91,0,0,0,2.86-.76Z"/><path class="cls-9" d="M28.65,134.71q-8.28-11.19-16.55-22.4l42.38-1.24,59.62,2.79c.38,2.85.76,5.71,1.13,8.56-.19,1-.39,2-.59,3l-27.24,4.2-13.85,1-15.14,0Z"/><path class="cls-5" d="M54.49,111.07,12.1,112.31l-3.78-2.62c18.2-5.91,36.53-11.45,54.52-18,5.29-1.92,9.6-6.56,14.37-9.95L95,80.92l21.67.94Q115.82,85.42,115,89Z"/><path class="cls-10" d="M77.21,81.79c-4.77,3.39-9.08,8-14.37,9.95-18,6.5-36.32,12-54.52,18q1.14-8.23,2.29-16.47Z"/><path class="cls-11" d="M77.21,81.79,10.61,93.22l7-18.62L95,80.92Z"/><path class="cls-8" d="M28.65,134.71l29.76-4.06c-.07,2.46-.15,4.92-.22,7.38l-26.13.54a4.91,4.91,0,0,0-2.66-.14Z"/><path class="cls-12" d="M29.4,138.43a4.91,4.91,0,0,1,2.66.14l12,11.48-14.93,7.11a1.62,1.62,0,0,1-1.91.77Z"/><path class="cls-13" d="M28.49,168.81a4.91,4.91,0,0,1-2.86.76q.78-5.82,1.58-11.64a1.62,1.62,0,0,0,1.91-.76c-.12,2.56-.23,5.13-.34,7.69C28.68,166.18,28.59,167.49,28.49,168.81Z"/><path class="cls-14" d="M748.08,26.43l19.73,11.06C761.88,40,756,42.61,750,44.9c-6.63,2.52-13.38,4.73-20.07,7.08L662.7,56.46c-.15-2.28-.29-4.56-.44-6.85l10.83-.41,36-5.6c-.53-2.8-1.05-5.59-1.57-8.39L665.79,45.44l-41.2,4.15c-1.2-15.52,10.83-9.94,18.38-11.51l49.17-7.74.07-.05,7.66-.2Z"/><path class="cls-10" d="M729.94,52c6.69-2.34,13.44-4.55,20.07-7.07,6-2.29,11.87-4.93,17.8-7.41L796.9,48.81q-4.29,11.42-8.59,22.83l-28.42-5c-3.3-4.64-5.66-11.46-10.14-13.41C744,50.76,736.62,52.22,729.94,52Z"/><path class="cls-12" d="M748.08,26.43,699.87,30.1c0-2.37,0-4.75.07-7.12l41.63-4.22L749,22.15C748.72,23.57,748.4,25,748.08,26.43Z"/><path class="cls-3" d="M706.66,0l38.56,4.07c-5.81,2.3-11.43,5.67-17.45,6.69-18.34,3.09-36.83,5.27-55.26,7.81l-35.34,1.61-70.55.41-6.07,0-99.13.66c-4.88.05-9.77.11-14.66.15l-11.38,3.16-26.53,1.34-48.91-3.61-26.36.25.09-2.1,22.14-5.8L620,11.85l19.33-7,7.3-4,1,.16,32.63-.6Z"/><path class="cls-14" d="M637.18,20.18l35.33-1.61,69,.19L699.94,23l-7.73,7.31-.07.05-49.33.86-22.42-.1.12-6.92Z"/><path class="cls-7" d="M776.86,168.8l18.8,8.34c-5,2.34-10,6.54-15.1,6.7-31.4,1-62.83,1.14-94.25,1.55,4-2.58,7.6-6.12,12-7.56,9.6-3.18,19.55-5.3,29.35-7.86Z"/><path class="cls-7" d="M644.23,186.17l-56.36-.31c2.42-2.36,4.55-6.32,7.3-6.82,11.64-2.09,23.7-2.13,35.13-4.92,8.8-2.15,16.88-7.27,25.28-11.08l18.9-.26c.13,3.67.27,7.35.41,11l-22.64,11.34Z"/><path class="cls-6" d="M652.25,185.14l22.64-11.34,37.22-4.16,7.81-7.27,7.53-.11q.09,3.86.16,7.72c-9.8,2.55-19.75,4.67-29.35,7.85-4.35,1.44-8,5-12,7.56Z"/><path class="cls-10" d="M727.45,162.26l-7.53.11-7.81,7.27-37.22,4.16c-.14-3.67-.28-7.35-.41-11l11.37-7.66,7.46-.27c7.56,5,14.73,8,18.92-3.81,1.19-.1,2.39-.15,3.6-.16l15.23-7.5,7.17-.46,4.19.33c2.84,2,5.92,6,8.5,5.72,11.17-1.28,22.2-3.81,33.29-5.89q-5.46,9.24-10.93,18.47Z"/><path class="cls-14" d="M784.21,143.08c-11.09,2.08-22.12,4.61-33.29,5.89-2.58.29-5.66-3.7-8.5-5.72l11.5-7.82c1.09,0,2.18,0,3.27,0l38.09-.25-6.06,4.44-5.11,3.45Z"/><path class="cls-4" d="M795.28,135.22l-38.08.25q5.74-5.78,11.5-11.53l26.56-7.58c.73.21,1.46.41,2.21.58Z"/><path class="cls-9" d="M727.45,162.26l45.83-.71c1.2,2.42,2.39,4.83,3.58,7.25L727.61,170Q727.53,166.12,727.45,162.26Z"/><path class="cls-10" d="M784.11,143.11l5.11-3.45Z"/><path class="cls-9" d="M759.89,66.65l28.42,5L785.7,82.36l-29.39.8-59.51.27c-7.76-11.94-15.49-11.88-23.21,0L670,87.31l.1-.21-13.93-.94q-.06-6.39-.13-12.8Z"/><path class="cls-9" d="M795.26,116.36l-26.56,7.58-16.33-6.31-17.86.07c0-4,0-8.06,0-12.09l18.44-1,35.63-4.42Q791.92,108.25,795.26,116.36Z"/><path class="cls-4" d="M788.59,100.15,753,104.58q0-7.33-.1-14.67l3.45-6.75,29.39-.8Q787.14,91.26,788.59,100.15Z"/><path class="cls-7" d="M210.21,189l-34.37,1.82-6.39,0-35.13.06.35-.7c8.24-3.77,16.71-7.14,24.67-11.44,5.86-3.16,11-7.55,16.55-11.39l14.67-.85,11.86.56,68,0c-4.32,2.37-8.42,5.44-13,7C241.77,179.36,226,184.07,210.21,189Z"/><path class="cls-5" d="M253.57,26.52l34.29-3.86,15.67-3.44c2.23.08,4.46.17,6.7.24l27,7c-2.45,2.37-4.54,6.16-7.41,6.89C307.18,39,284.41,44.19,261.7,49.53l-7.56,3.54L239,57.2l.07,0-18.93,4,0,0-18.75.47L136.67,81.38l-14.57-.64c12.09-6.18,23.56-14.62,36.38-18.12,34.05-9.3,68.69-16.47,103.09-24.48l28-6.29c0-1.89-.11-3.78-.16-5.66Z"/><path class="cls-5" d="M152.16,50.45l-48.93-7.28c8.6-2.51,17.5-4.34,25.69-7.82,4.38-1.86,7.56-6.56,11.27-10l87.38,2c-4.82,2.48-9.4,5.85-14.52,7.27C192.85,40.26,172.47,45.24,152.16,50.45Z"/><path class="cls-15" d="M122.1,80.74l14.58.64q2.32,22.29,4.67,44.6a19.43,19.43,0,0,0-3.54.85L119.1,126l-3.86-3.57c-.38-2.85-.76-5.71-1.13-8.55L115,89q.87-3.57,1.75-7.12Z"/><path class="cls-16" d="M253.57,26.52l35.86-.33c.05,1.88.11,3.77.16,5.66l-28,6.29L235.12,27.47Z"/><path class="cls-2" d="M140.19,25.38c-3.71,3.41-6.89,8.11-11.27,10-8.19,3.48-17.09,5.31-25.69,7.82L84,39.66l22.71-11.13,18.44-.79,7.77-2.21Z"/><path class="cls-17" d="M310.54,15.34l45.27-.68-22.14,5.8-.09,2.1,26.36-.25c-.07,1.28-.14,2.57-.22,3.86l-22.51.25-27-7C310.33,18.1,310.43,16.72,310.54,15.34Z"/><path class="cls-17" d="M303.53,19.22l-15.67,3.44Z"/><path class="cls-5" d="M132.89,25.53l-7.77,2.21Z"/><path class="cls-12" d="M28.49,168.81c.1-1.32.19-2.63.29-3.95l67.48-4.69,23,4.34.12,2.58-7.63.75-7.63.27-18.63.69Z"/><path class="cls-6" d="M175.89,167.37c-5.5,3.84-10.69,8.23-16.55,11.39-8,4.3-16.43,7.67-24.67,11.44l-26.4-.11,14.81-11,34.12-11Z"/><path class="cls-8" d="M157.2,168.09l-34.12,11-11.36-11.27,7.63-.74Z"/><path class="cls-2" d="M115,89l-.84,24.89-59.63-2.8Z"/><path class="cls-12" d="M119.1,126l18.71.84-15,18.45-19-2.58c1.84-13.48-8.17-12.11-16.34-13l27.25-4.19Z"/><path class="cls-5" d="M87.4,129.65c8.17.94,18.18-.43,16.34,13l-18.5,3.88-11.62-.49q0-7.7-.07-15.39Z"/><path class="cls-12" d="M73.55,130.69q0,7.69.07,15.38l-11.35,2.55L58.19,138c.07-2.46.15-4.92.22-7.38Z"/><path class="cls-8" d="M119.1,126l-4.45-.53c.19-1,.39-2,.58-3Z"/><path class="cls-5" d="M58.19,138l4.08,10.59-18.22,1.43-12-11.48Z"/><path class="cls-9" d="M44.05,150.05l18.22-1.43,11.35-2.55q5.8.26,11.62.49l11,13.61-67.47,4.69c.11-2.56.22-5.13.34-7.69Z"/><path class="cls-5" d="M270.43,167.13l-68,0c45.57-13.07,91-26.71,136.76-39,31.05-8.33,62.58-14.84,93.94-22C479.39,95.6,525.65,85,572,74.9c30.13-6.57,60.45-12.33,90.68-18.45L729.94,52c6.68.24,14.1-1.22,19.81,1.26,4.48,1.95,6.84,8.77,10.14,13.41L656,73.35c-9.54,3.58-18.8,8.42-28.65,10.54-44.19,9.54-88.7,17.6-132.79,27.57-40.22,9.09-80.13,19.63-120,30.16-24.84,6.55-49.38,14.26-74.06,21.45l-11.26,3.19Z"/><path class="cls-5" d="M157.2,168.09l-37.85-1-.12-2.59,87.13-14.9-.69-4.52-7.17-.75c34.67-10.36,69.14-21.49,104.08-30.85,35.29-9.46,71.06-17.14,106.6-25.66C449.9,78.07,490.29,66.62,531.4,59c30.59-5.68,62.09-6.44,93.19-9.4l41.2-4.15,7.3,3.76-10.83.41c-21.51,5.13-42.92,10.7-64.54,15.29-33.2,7-66.57,13.25-99.81,20.09-34.48,7.1-69.07,13.74-103.28,22-52.17,12.57-104.21,25.77-156,39.94-16.57,4.54-32.09,13-48.09,19.61l-14.67.85Z"/><path class="cls-16" d="M624.59,49.59c-31.1,3-62.6,3.72-93.19,9.4-41.11,7.63-81.5,19.08-122.22,28.84-35.54,8.52-71.31,16.2-106.6,25.66-34.94,9.36-69.41,20.49-104.09,30.85l-7.7-3.27c11.14-5,21.88-11.3,33.48-14.68,38.43-11.22,77-22.15,115.83-31.76,51.5-12.74,103.28-24.37,155-36C531.74,50.35,568.5,42.86,605.19,35l15.2-3.93,22.43.1.15,6.88C635.42,39.65,623.39,34.07,624.59,49.59Z"/><path class="cls-16" d="M190.56,166.52c16-6.65,31.52-15.07,48.09-19.61,51.77-14.17,103.81-27.37,156-39.94,34.21-8.24,68.8-14.88,103.28-22,33.24-6.84,66.61-13,99.81-20.09,21.62-4.59,43-10.16,64.54-15.29.15,2.29.29,4.57.44,6.85C632.47,62.57,602.15,68.33,572,74.9,525.65,85,479.39,95.6,433.12,106.13c-31.36,7.13-62.89,13.64-93.94,22C293.4,140.38,248,154,202.42,167.09Z"/><path class="cls-10" d="M673.09,49.2l-7.3-3.76,41.75-10.23c.52,2.8,1,5.59,1.57,8.39Z"/><path class="cls-10" d="M643,38.08l-.15-6.88,49.32-.86Z"/><path class="cls-10" d="M692.21,30.29,699.94,23c0,2.37-.05,4.75-.07,7.12Z"/><path class="cls-5" d="M605.19,35C568.5,42.86,531.74,50.35,495.14,58.6c-51.76,11.66-103.54,23.29-155,36-38.86,9.61-77.4,20.54-115.83,31.76-11.6,3.38-22.34,9.7-33.48,14.68l-68,4.21,15-18.45a19.43,19.43,0,0,1,3.54-.85c3.93-.4,10.4.38,11.26-1.46,1.64-3.49,1.78-10.89-.45-12.47-14.92-10.62-5.88-14.92,4.47-18.08C173.7,88.75,191,84.3,208.26,79.73,237.4,72,266.58,64.48,295.74,56.88c6.23-.33,12.59,0,18.67-1.09,33.81-6.35,67.63-12.7,101.27-19.9,10.59-2.26,20.61-7.13,30.89-10.8a14.47,14.47,0,0,1,.19-3.66l14.67-.16c3.85,3.59,7.28,9.46,11.66,10.28,8.43,1.58,17.4.31,26.15.23C480.48,37,461.89,43,442.93,47.41,383.83,61.07,324.5,73.73,265.44,87.56c-29.58,6.93-58.85,15.25-88.06,23.64-5.91,1.69-10.92,6.5-16.34,9.87a38.71,38.71,0,0,0,21.51-.07c49.22-13.89,98.2-28.64,147.6-41.84,21.68-5.79,44.3-8,66.25-12.87,37.84-8.48,75.2-19.53,113.34-26.21,26.37-4.62,53.7-3.7,80.61-5.26C595.29,34.9,600.24,35,605.19,35Z"/><path class="cls-18" d="M590.35,34.82c-26.91,1.56-54.24.64-80.61,5.26-38.14,6.68-75.5,17.73-113.34,26.21-21.95,4.91-44.57,7.08-66.25,12.87-49.4,13.2-98.38,28-147.6,41.84a38.71,38.71,0,0,1-21.51.07c5.42-3.37,10.43-8.18,16.34-9.87,29.21-8.39,58.48-16.71,88.06-23.64C324.5,73.73,383.83,61.07,442.93,47.41c19-4.38,37.55-10.37,56.31-15.63L514,31.19l8.17-2.89,38.43-7.69,6.08,0c2.13,16.32,15.15,8.19,23.53,10.48C590.19,32.32,590.25,33.57,590.35,34.82Z"/><path class="cls-5" d="M359.73,26.17l.21-3.86,48.91,3.61c-1.27,2-2.25,5.52-3.86,5.84C368.6,39.05,332.15,46,295.71,53l-11.4.06c23.25-6.49,46.56-12.83,69.7-19.71C356.41,32.61,357.84,28.63,359.73,26.17Z"/><path class="cls-18" d="M295.71,53C332.15,46,368.6,39.05,405,31.76c1.61-.32,2.59-3.82,3.86-5.84l26.53-1.34,11.19.51c-10.28,3.67-20.3,8.54-30.89,10.8-33.64,7.2-67.46,13.55-101.27,19.9-6.08,1.14-12.44.76-18.67,1.08Z"/><path class="cls-17" d="M560.55,20.61,522.12,28.3,514,31.19l-14.71.59c-8.75.08-17.72,1.35-26.15-.23-4.38-.82-7.81-6.69-11.66-10.28Z"/><path class="cls-17" d="M590.16,31.07c-8.38-2.29-21.4,5.84-23.53-10.48l70.54-.41-16.66,4Z"/><path class="cls-19" d="M620.35,4.87l19,0-19.33,7C620.14,9.52,620.24,7.2,620.35,4.87Z"/><path class="cls-17" d="M446.57,25.09l-11.19-.51,11.38-3.16A14.57,14.57,0,0,0,446.57,25.09Z"/><path class="cls-10" d="M590.16,31.07l30.35-6.89-.12,6.92L605.19,35c-5-.07-9.9-.13-14.84-.21C590.25,33.57,590.19,32.32,590.16,31.07Z"/><path class="cls-7" d="M519.86,186.55l-79.38.45,31.13-13.44L463,164.51a16.81,16.81,0,0,1,3.27-.88l57.27.4H584c-5.6,2.43-11.07,5.25-16.83,7.2C551.46,176.53,535.64,181.47,519.86,186.55Z"/><path class="cls-6" d="M519.86,186.55c15.78-5.08,31.6-10,47.3-15.33,5.76-1.95,11.23-4.77,16.83-7.2l15-.71c5.84,1.13,11.73,3.37,17.52,3.16,13-.5,26-2.21,39.05-3.43-8.4,3.81-16.48,8.93-25.28,11.08-11.43,2.79-23.49,2.83-35.13,4.92-2.75.5-4.88,4.46-7.3,6.82Z"/><path class="cls-6" d="M463,164.51l8.58,9.05L440.48,187l-83,.8c10.34-3.7,20.53-7.93,31.07-11,14.64-4.23,29.53-7.57,44.32-11.29Z"/><path class="cls-7" d="M432.9,165.54c-14.79,3.72-29.68,7.06-44.32,11.29-10.54,3-20.73,7.27-31.07,11l-45.49.31c4.39-2.42,8.62-5.17,13.19-7.18C337.05,175.71,349,170.82,361,165.8l15-3.42,11.56,2.94Z"/><path class="cls-7" d="M289.23,166.26l11.26-3.19L312.1,166l33.91.39c-5,2.39-9.74,5.28-14.9,7.07-15.05,5.22-30.24,10-45.38,15l-41.72.3c8.31-3.61,16.77-6.92,24.88-10.92C275.87,174.34,282.47,170.13,289.23,166.26Z"/><path class="cls-6" d="M289.23,166.26c-6.76,3.87-13.36,8.08-20.34,11.51-8.11,4-16.57,7.31-24.88,10.92l-33.8.29c15.75-4.91,31.56-9.62,47.2-14.87,4.6-1.54,8.7-4.61,13-7Z"/><path class="cls-6" d="M285.73,188.39c15.14-4.95,30.33-9.74,45.38-15,5.16-1.79,9.94-4.68,14.9-7.07L361,165.8c-11.93,5-23.91,9.91-35.75,15.13-4.57,2-8.8,4.76-13.19,7.18Z"/><path class="cls-16" d="M655.58,163c-13,1.22-26,2.93-39.05,3.43-5.79.21-11.68-2-17.52-3.16,28.7-7.79,57.41-15.57,86-23.56.38-.11,0-2.9,0-4.45,4-3.47,7.38-8.79,11.94-10.06,12.25-3.44,25-5.14,37.52-7.53l17.88-.08c-2.34,2.14-4.35,5-7.09,6.33-10.74,5.28-21.72,10.09-32.61,15.08l-47.62,14.15.86,2.11,19.92-.18-11.37,7.66Z"/><path class="cls-7" d="M712.11,169.64l7.81-7.27Z"/><path class="cls-5" d="M685.85,155.12l-19.92.18-.86-2.11L712.68,139q12.72-1.29,25.43-2.61l.12,6.49-7.17.46-15.23,7.5c-1.21,0-2.41.06-3.6.16l-18.92,3.81Z"/><path class="cls-16" d="M693.31,154.85,712.23,151C708,162.82,700.87,159.81,693.31,154.85Z"/><path class="cls-16" d="M715.83,150.88l15.23-7.5Z"/><path class="cls-16" d="M738.23,142.92l-.12-6.5,15.81-1-11.5,7.82Z"/><path class="cls-7" d="M753.92,135.43l-15.81,1q-12.72,1.32-25.43,2.62c10.9-5,21.88-9.8,32.62-15.08,2.74-1.34,4.75-4.19,7.09-6.34q8.15,3.18,16.31,6.32-5.75,5.76-11.5,11.53C756.1,135.47,755,135.46,753.92,135.43Z"/><path class="cls-5" d="M361,165.8l-14.95.56L312.1,166c30.91-8.26,61.71-16.94,92.76-24.68,44.21-11,88.46-22,133-31.81,39.25-8.63,78.87-15.61,118.32-23.32l13.93.94q-1,8.31-2,16.6c-12.31,1-24.82,1.08-36.85,3.47-11.29,2.24-22.09,7-33.1,10.64l-88.25,9.63.5,6.63,43-.41,11.07.14c-2.33,2.38-4.34,6.34-7.05,6.9-28.22,5.89-56.59,11.11-84.83,16.93-2.4.5-4.19,3.93-6.27,6a16.81,16.81,0,0,0-3.27.88l-30.13,1-45.35-.22c3.36-1.25,6.62-2.93,10.08-3.69,30.68-6.75,61.39-13.35,96.59-21-7-3.2-9.53-5.46-11.37-5-35.66,8.72-71.25,17.75-106.85,26.72Z"/><path class="cls-16" d="M656.14,86.16c-39.45,7.71-79.07,14.69-118.32,23.32-44.5,9.8-88.75,20.78-133,31.81C373.81,149,343,157.71,312.1,166l-11.61-2.9c24.68-7.19,49.22-14.9,74.06-21.45,39.88-10.53,79.79-21.07,120-30.16,44.09-10,88.6-18,132.79-27.57,9.85-2.12,19.11-7,28.65-10.54Q656.08,79.77,656.14,86.16Z"/><path class="cls-15" d="M668.12,103.71l2-16.61-.1.21,3.62-3.84c7.72-11.92,15.45-12,23.21,0q2.43,8.94,4.84,17.88c-.56,1.35-1.1,2.68-1.65,4-3.6,14-14.64,12.32-25.1,11.85Q671.49,110.45,668.12,103.71Z"/><path class="cls-12" d="M701.65,101.31q-2.43-8.94-4.85-17.88l59.51-.27-3.45,6.75C734.87,89.57,717,90,701.65,101.31Z"/><path class="cls-5" d="M673.59,83.47,670,87.31Z"/><path class="cls-7" d="M674.89,117.18c10.46.47,21.5,2.19,25.11-11.84l34.52.27c0,4,0,8,0,12.09-12.54,2.4-25.27,4.1-37.52,7.54-4.56,1.27-8,6.59-11.93,10.07l-63.69,1.93c4-4,7.31-10.19,12-11.55C646.94,121.8,661,119.88,674.89,117.18Z"/><path class="cls-16" d="M734.52,105.61,700,105.34c.54-1.35,1.08-2.68,1.64-4C717,90,734.87,89.57,752.86,89.91q.06,7.34.1,14.67Z"/><path class="cls-2" d="M295.71,53l0,3.89C266.58,64.48,237.4,72,208.26,79.73,191,84.3,173.7,88.75,156.63,94c-10.35,3.16-19.39,7.46-4.47,18.08,2.23,1.58,2.09,9,.45,12.47-.86,1.84-7.33,1.06-11.26,1.46q-2.34-22.31-4.67-44.6l64.74-19.82c6.54,11.6,12.8,11.53,18.75-.46l0,0,18.93-4-.07,0,15.14-4.13,7.56-3.54,4,3.8L284.41,53l-.11.06Z"/><path class="cls-16" d="M265.68,53.33l-4-3.8C284.41,44.19,307.18,39,329.8,33.3c2.87-.73,5-4.52,7.41-6.89l22.51-.24c-1.88,2.46-3.31,6.44-5.71,7.16-23.14,6.88-46.45,13.22-69.7,19.71l.1-.06Z"/><path class="cls-16" d="M220.17,61.1c-5.95,12-12.21,12.06-18.75.46Z"/><path class="cls-16" d="M239.07,57.16l-18.93,4Z"/><path class="cls-16" d="M254.14,53.07,239,57.2Z"/><path class="cls-8" d="M122.77,145.28l68-4.21,7.7,3.27,7.18.75.69,4.52-87.13,14.9-23-4.34-11-13.61,18.5-3.87Z"/><path class="cls-5" d="M514,31.19l8.17-2.89Z"/><path class="cls-18" d="M466.3,163.63c2.08-2.07,3.87-5.5,6.27-6,28.24-5.82,56.61-11,84.83-16.93,2.71-.56,4.72-4.52,7.05-6.9l45.68,6.9c-18.76,5.24-37.5,10.57-56.3,15.68-10,2.74-20.17,5.11-30.26,7.65Z"/><path class="cls-5" d="M523.57,164c10.09-2.54,20.22-4.91,30.26-7.65,18.8-5.11,37.54-10.44,56.3-15.68l11.24-3.46,63.69-1.93c0,1.54.38,4.33,0,4.44-28.64,8-57.35,15.77-86,23.56L584,164Z"/><path class="cls-18" d="M376,162.38c35.6-9,71.19-18,106.85-26.72,1.84-.45,4.34,1.81,11.37,5-35.2,7.61-65.91,14.21-96.59,21-3.46.76-6.72,2.44-10.08,3.69Z"/><path class="cls-10" d="M621.37,137.24l-11.24,3.46-45.68-6.9-11.07-.14c4.19-2.55,8.11-6.52,12.62-7.4,11.59-2.26,23.44-3.16,35.19-4.6a22.29,22.29,0,0,0-1.26-3.43c-.2-.36-1.16-.29-1.78-.42,11-3.65,21.81-8.4,33.1-10.64,12-2.39,24.54-2.42,36.85-3.47,2.27,4.5,4.52,9,6.79,13.48-13.86,2.7-27.95,4.62-41.48,8.51C628.68,127.05,625.34,133.25,621.37,137.24Z"/><path class="cls-8" d="M598.15,117.81c.62.13,1.58.06,1.78.42a22.29,22.29,0,0,1,1.26,3.43c-11.75,1.44-23.6,2.34-35.19,4.6-4.51.88-8.43,4.85-12.62,7.4l-43,.41-.5-6.63Z"/><path class="cls-5" d="M265.68,53.33,284.41,53Z"/><text class="cls-20" transform="translate(251.12 147.66) rotate(-0.54)">Exit</text></g></g></svg>