<svg xmlns="http://www.w3.org/2000/svg" viewBox="0 0 815.45 176.01"><defs><style>.cls-1{fill:#4b2607;}.cls-2{fill:#c68555;}.cls-3{font-size:75.34px;fill:#512609;stroke:#492107;stroke-miterlimit:10;stroke-width:7px;font-family:MongolianBaiti, Mongolian Baiti;}</style></defs><title>Instructions Button</title><g id="Layer_2" data-name="Layer 2"><g id="Layer_1-2" data-name="Layer 1"><path class="cls-1" d="M119.31,5.14c20.36,1.14,33.51-.95,46.77-3.4C182-1.2,198.19.18,214.31,1.57c36,3.11,71.81,8.2,108.45,6.32A190.71,190.71,0,0,0,342.9,5.47a186.27,186.27,0,0,1,33.14-2c33.66.76,67.27-1,100.92-1.15,15.73,0,31.15,2.09,46.81,2.62,8.28.28,16.4,3.26,24.56,5.09C573,15.52,598.49,15.56,624,16.82c29.89,1.47,60.2.81,89.57,6.26a50.17,50.17,0,0,1,9.32,2.21c17.59,7.1,37.32,9.64,56.4,13.44,7.08,1.42,11.56,4.1,15,8.24,11.47,14,20.5,28.5,19.51,45.28-.17,2.85.89,5.73,1.36,8.6,2.34,14.2-7.39,25.83-16,37.58-17.71,24.12-48.8,29.61-82.84,27.72-20.79-1.15-41.24-2.14-61.69.63-14.75,2-29.24-.84-43.89-.29-8.39.32-16.6.56-24.38,3.19-4.22,1.42-8.92,1.06-13.47,1.22-30.76,1-61.34,4-92.18,4.13-31.14.12-62.68,2.37-93.33-.39-32.41-2.93-64.62-5.38-97.16-4.61-18.35.43-36.77.87-55.12,2.57-17.32,1.6-34.83.54-52.11-1.49A783.26,783.26,0,0,1,89.66,154.8c-14-3.41-25.94-9.53-38.68-14.59-5.73-2.28-11.89-3.85-17.68-6.08-14.63-5.63-19.22-15.83-23.07-25.92-3-7.75-5.23-15.63-8.57-23.35-3.19-7.4-2-17.13,5.63-20.64C24,56.57,27.65,42.63,40.93,33.9c11.46-7.54,21.7-16.79,35.67-21.47C91.72,7.37,108.4,3.88,119.31,5.14Zm554.84,92C681.09,87.73,683,86,690,84c17.83-5,36.78-5,55.25-4.38,15.89.56,11,3.15,20-7.25a32.57,32.57,0,0,0,3.46-4.81c4.94-8.44.66-16.62-11.09-20.19-11.39-3.46-23-6.6-34.9-9.09-37.23-7.78-75.37-10.09-114-10.06-6.37,0-13.65,1.37-19-1.09-11-5.06-22.45-6.32-35.28-5.53-8.16.5-16.37,1.84-24.81.63-12.82-1.83-25.74-4.06-38.71-4.39-23.47-.59-47-.93-70.51.59a285.93,285.93,0,0,1-33.38.16c-14.6-.77-29.11-2.65-42.89,2.77-1.42.56-3.44.46-5.18.48-11.83.08-23.67.31-35.5.12-20.39-.33-40.86.56-61-3.22-11.06-2.09-22.45-1.37-33.86-.33-8.21.75-16.39,3.35-24.61,2.09-7.39-1.14-14.59-.83-21.81-.45-22.61,1.18-45.19,2.76-67.8,4C82.64,24.74,72.24,27,64.81,34.22,56.61,42.24,48,50,39.47,57.88c-1.31,1.2-2,2-1.14,3.76,4,7.77,1.69,15-5.2,21.39-6.28,5.77-6.38,12-4.05,18.49,7.24,20.19,43.92,36.57,73.24,33,9-1.11,18.17-.37,27.26-.54a7.6,7.6,0,0,1,4.65,1.56c5.92,4,12.53,4.17,19.46,1.63,5.46-2,10.11-1,14.54,1.58,3.12,1.83,6.39,4.19,10.56,3.76,9.16-.94,18,1,27.84-1.41A55.53,55.53,0,0,1,240,144c6,2.59,12.22,4.61,19.21,3.07,13.26-2.92,26.19-2.2,39.1.92,1.42.35,3.37.18,3.94,1.3,3.38,6.7,11.34,6.22,18.89,6.22q71.78.06,143.56,0c2.1,0,4.48.64,6.61-.83-.55-.82-1.08-1.6-1.6-2.4-1.18-1.81-4.85-3.38-2.74-5.56,2.46-2.55,6.39-3.09,10.86-2.45a108.21,108.21,0,0,0,11.3.48c22.92.79,45.42-3.57,68.49-2.47,9.76.46,19.71-1.84,29.87-1.9a564,564,0,0,0,71.47-4.93c9.35-1.26,18.79-3.92,28.36-2.35,8,1.3,15.56.76,23.24-.27,6.94-.93,13.86-1.76,20.91-2.21,11.69-.75,18.18-4.62,19.78-11.11.74-3,.27-5.09-5.15-5.6a75.07,75.07,0,0,1-20.61-5.3C709.7,102.33,694.06,96,674.15,97.12Z"/><path class="cls-2" d="M674.15,97.12c19.91-1.12,35.55,5.21,51.29,11.47a75.07,75.07,0,0,0,20.61,5.3c5.42.51,5.89,2.58,5.15,5.6-1.6,6.49-8.09,10.36-19.78,11.11-7,.45-14,1.28-20.91,2.21-7.68,1-15.26,1.57-23.24.27-9.57-1.57-19,1.09-28.36,2.35a564,564,0,0,1-71.47,4.93c-10.16.06-20.11,2.36-29.87,1.9-23.07-1.1-45.57,3.26-68.49,2.47a108.21,108.21,0,0,1-11.3-.48c-4.47-.64-8.4-.1-10.86,2.45-2.11,2.18,1.56,3.75,2.74,5.56.52.8,1,1.58,1.6,2.4-2.13,1.47-4.51.83-6.61.83q-71.79.07-143.56,0c-7.55,0-15.51.48-18.89-6.22-.57-1.12-2.52-.95-3.94-1.3-12.91-3.12-25.84-3.84-39.1-.92-7,1.54-13.18-.48-19.21-3.07a55.53,55.53,0,0,0-33.32-2.93c-9.87,2.43-18.68.47-27.84,1.41-4.17.43-7.44-1.93-10.56-3.76-4.43-2.59-9.08-3.58-14.54-1.58-6.93,2.54-13.54,2.33-19.46-1.63a7.6,7.6,0,0,0-4.65-1.56c-9.09.17-18.24-.57-27.26.54-29.32,3.6-66-12.78-73.24-33C26.75,95,26.85,88.8,33.13,83c6.89-6.34,9.22-13.62,5.2-21.39-.91-1.75-.17-2.56,1.14-3.76C48,50,56.61,42.24,64.81,34.22,72.24,27,82.64,24.74,94.42,24.09c22.61-1.26,45.19-2.84,67.8-4,7.22-.38,14.42-.69,21.81.45,8.22,1.26,16.4-1.34,24.61-2.09,11.41-1,22.8-1.76,33.86.33,20.13,3.78,40.6,2.89,61,3.22,11.83.19,23.67,0,35.5-.12,1.74,0,3.76.08,5.18-.48C358,16,372.46,17.84,387.06,18.61a285.93,285.93,0,0,0,33.38-.16c23.51-1.52,47-1.18,70.51-.59,13,.33,25.89,2.56,38.71,4.39,8.44,1.21,16.65-.13,24.81-.63,12.83-.79,24.23.47,35.28,5.53,5.39,2.46,12.67,1.09,19,1.09,38.59,0,76.73,2.28,114,10.06,11.92,2.49,23.51,5.63,34.9,9.09,11.75,3.57,16,11.75,11.09,20.19a32.57,32.57,0,0,1-3.46,4.81c-9,10.4-4.14,7.81-20,7.25C726.78,79,707.83,79,690,84,683,86,681.09,87.73,674.15,97.12ZM358.62,55.53c-3.79,0-7.59-.12-11.37,0-13.28.5-21.92,5.87-25.05,15-1.53,4.47,0,9.17-1.65,13.44-2.79,7.12,3.84,12,8.24,16.53,6.36,6.51,32.65,7.81,42.71,3.59,16.35-6.86,21.78-17.23,15.83-32.81-5.76-15.08-9.93-16-26.44-15.78C360.13,55.55,359.37,55.54,358.62,55.53Zm66.31,17.06c-2.2-4.74-3.76-8.35-5.56-11.9-1.55-3.08-4-5.9-9.35-4.74-5,1.06-10.71,2.13-9.8,7.38a109,109,0,0,1,1.19,16.22c.16,6.32-.52,12.66,1.32,18.94,1.11,3.81,3,7.24,8.8,7.9,5.29.61,5.71-3.32,8-5.54,2.73-2.7,3.81-7.61,8.78-7.49,5.67.14,6.17,5.18,8,8.36,4.38,7.58,7.91,9.25,18.82,8.68,3.62-.19,4.63-1.17,4.83-3.63.41-5-4-8.51-7-12.37-9.21-11.86-11.37-23.19,3.25-33.79,2.82-2,1.76-3.45-1.41-4.57-3.63-1.28-6.66-1.84-9.93,1C438.87,62.12,432.31,66.87,424.93,72.59Z"/><path class="cls-1" d="M358.62,55.53c.75,0,1.51,0,2.27,0,16.51-.27,20.68.7,26.44,15.78,5.95,15.58.52,26-15.83,32.81-10.06,4.22-36.35,2.92-42.71-3.59-4.4-4.52-11-9.41-8.24-16.53,1.68-4.27.12-9,1.65-13.44,3.13-9.15,11.77-14.52,25.05-15C351,55.41,354.83,55.53,358.62,55.53Zm11.65,23.88a45,45,0,0,0-2-6.92c-2.06-4.5-7.16-6.6-13.29-6.83s-10.4,2.16-12.5,6.45a20.1,20.1,0,0,0-1.13,14.46c1.34,4.92,6.35,7.93,13.35,8.18s11.25-2.91,13.37-7.36C369.28,84.86,369.56,82.11,370.27,79.41Z"/><path class="cls-1" d="M424.93,72.59c7.38-5.72,13.94-10.47,19.9-15.58,3.27-2.81,6.3-2.25,9.93-1,3.17,1.12,4.23,2.53,1.41,4.57-14.62,10.6-12.46,21.93-3.25,33.79,3,3.86,7.42,7.38,7,12.37-.2,2.46-1.21,3.44-4.83,3.63-10.91.57-14.44-1.1-18.82-8.68-1.84-3.18-2.34-8.22-8-8.36-5-.12-6,4.79-8.78,7.49-2.25,2.22-2.67,6.15-8,5.54-5.75-.66-7.69-4.09-8.8-7.9-1.84-6.28-1.16-12.62-1.32-18.94a109,109,0,0,0-1.19-16.22c-.91-5.25,4.84-6.32,9.8-7.38,5.38-1.16,7.8,1.66,9.35,4.74C421.17,64.24,422.73,67.85,424.93,72.59Z"/><path class="cls-2" d="M370.27,79.41c-.71,2.7-1,5.45-2.19,8-2.12,4.45-6.45,7.61-13.37,7.36s-12-3.26-13.35-8.18a20.1,20.1,0,0,1,1.13-14.46c2.1-4.29,6.34-6.69,12.5-6.45s11.23,2.33,13.29,6.83A45,45,0,0,1,370.27,79.41Z"/><rect class="cls-2" x="297.97" y="39.12" width="185.43" height="83.83"/><text class="cls-3" transform="translate(169.33 98.84) scale(1.35 1)">Instructions</text></g></g></svg>