<svg xmlns="http://www.w3.org/2000/svg" viewBox="0 0 857.29 165.87"><defs><style>.cls-1{fill:#4b2607;}.cls-2{fill:#c68555;}.cls-3{font-size:79px;fill:#512609;stroke:#492107;stroke-miterlimit:10;stroke-width:3px;font-family:MongolianBaiti, Mongolian Baiti;}</style></defs><title>options</title><g id="Layer_2" data-name="Layer 2"><g id="Layer_1-2" data-name="Layer 1"><path class="cls-1" d="M125.43,4.84c21.4,1.08,35.23-.9,49.17-3.2,16.73-2.77,33.76-1.47,50.7-.16,37.88,2.93,75.5,7.73,114,6,7.24-.34,14.24-1.31,21.17-2.28a217.78,217.78,0,0,1,34.84-1.92c35.39.72,70.73-1,106.1-1.08,16.53-.05,32.75,2,49.21,2.47,8.71.26,17.24,3.07,25.82,4.79,25.94,5.21,52.73,5.25,79.53,6.43,31.42,1.39,63.29.77,94.17,5.9a58,58,0,0,1,9.8,2.09c18.49,6.68,39.24,9.08,59.29,12.66,7.45,1.34,12.16,3.86,15.73,7.76,12,13.18,21.55,26.87,20.51,42.68-.18,2.68.93,5.4,1.43,8.1,2.46,13.38-7.78,24.35-16.84,35.42-18.62,22.73-51.31,27.91-87.1,26.12-21.85-1.08-43.35-2-64.84.6-15.52,1.88-30.75-.79-46.15-.28-8.82.3-17.46.53-25.64,3-4.43,1.34-9.37,1-14.16,1.15-32.33,1-64.48,3.79-96.9,3.89-32.74.11-65.9,2.24-98.12-.37-34.07-2.76-67.94-5.07-102.14-4.34-19.3.4-38.66.82-57.95,2.42-18.21,1.51-36.62.51-54.78-1.41a907.57,907.57,0,0,1-98-15.37c-14.73-3.21-27.27-9-40.66-13.74-6-2.15-12.5-3.63-18.59-5.74-15.38-5.3-20.2-14.91-24.26-24.43-3.11-7.29-5.5-14.72-9-22C-1.61,73-.39,63.83,7.67,60.53,25.25,53.32,29.07,40.18,43,31.94c12-7.1,22.82-15.82,37.51-20.23C96.42,7,114,3.65,125.43,4.84ZM708.74,91.53C716,82.68,718,81,725.4,79.18c18.74-4.71,38.66-4.74,58.09-4.13,16.7.53,11.6,3,21-6.83a31,31,0,0,0,3.64-4.53c5.19-7.95.69-15.66-11.66-19-12-3.26-24.16-6.22-36.69-8.57-39.14-7.32-79.23-9.51-119.8-9.48-6.7,0-14.36,1.29-20-1-11.62-4.76-23.61-5.95-37.09-5.2-8.58.47-17.21,1.73-26.09.59-13.47-1.72-27.06-3.83-40.69-4.14-24.67-.56-49.41-.88-74.13.56a339.61,339.61,0,0,1-35.1.15c-15.34-.73-30.6-2.5-45.08,2.61a18.35,18.35,0,0,1-5.45.45c-12.44.08-24.89.29-37.32.11-21.44-.31-43,.53-64.12-3-11.62-2-23.6-1.29-35.59-.31-8.64.7-17.24,3.16-25.87,2-7.77-1.07-15.34-.78-22.93-.42C146.77,20,123,21.51,99.27,22.7c-12.39.62-23.33,2.7-31.14,9.55-8.61,7.56-17.67,14.9-26.63,22.29-1.38,1.14-2.16,1.9-1.2,3.55,4.23,7.32,1.77,14.18-5.47,20.16-6.6,5.44-6.7,11.31-4.26,17.42,7.62,19,46.18,34.47,77,31.08,9.48-1,19.1-.35,28.66-.52a8.68,8.68,0,0,1,4.88,1.47c6.23,3.74,13.18,3.93,20.47,1.54a18.65,18.65,0,0,1,15.28,1.49c3.28,1.73,6.72,4,11.11,3.55,9.62-.89,18.89,1,29.27-1.33a64.67,64.67,0,0,1,35,2.75c6.34,2.45,12.85,4.35,20.2,2.9,13.94-2.75,27.53-2.07,41.11.87,1.48.33,3.54.17,4.13,1.22,3.55,6.32,11.92,5.86,19.86,5.87q75.46,0,150.93,0c2.21,0,4.71.59,6.95-.79-.58-.77-1.14-1.51-1.68-2.25-1.25-1.72-5.1-3.19-2.89-5.25,2.59-2.4,6.72-2.91,11.42-2.31,3.85.5,7.91.34,11.88.46,24.1.74,47.76-3.37,72-2.34,10.26.44,20.72-1.73,31.4-1.78a659.36,659.36,0,0,0,75.13-4.65c9.84-1.18,19.76-3.7,29.83-2.22,8.38,1.24,16.35.72,24.42-.25,7.3-.87,14.57-1.66,22-2.08,12.29-.71,19.11-4.36,20.79-10.47.78-2.85.28-4.79-5.41-5.28a85.59,85.59,0,0,1-21.67-5C746.11,96.44,729.66,90.47,708.74,91.53Z"/><path class="cls-2" d="M708.74,91.53c20.92-1.06,37.37,4.91,53.92,10.8a85.59,85.59,0,0,0,21.67,5c5.69.49,6.19,2.43,5.41,5.28-1.68,6.11-8.5,9.76-20.79,10.47-7.42.42-14.69,1.21-22,2.08-8.07,1-16,1.49-24.42.25-10.07-1.48-20,1-29.83,2.22a659.36,659.36,0,0,1-75.13,4.65c-10.68.05-21.14,2.22-31.4,1.78-24.25-1-47.91,3.08-72,2.34-4-.12-8,0-11.88-.46-4.7-.6-8.83-.09-11.42,2.31-2.21,2.06,1.64,3.53,2.89,5.25.54.74,1.1,1.48,1.68,2.25-2.24,1.38-4.74.78-6.95.79q-75.47.06-150.93,0c-7.94,0-16.31.45-19.86-5.87-.59-1.05-2.65-.89-4.13-1.22-13.58-2.94-27.17-3.62-41.11-.87-7.35,1.45-13.86-.45-20.2-2.9a64.67,64.67,0,0,0-35-2.75c-10.38,2.29-19.65.44-29.27,1.33-4.39.4-7.83-1.82-11.11-3.55a18.65,18.65,0,0,0-15.28-1.49c-7.29,2.39-14.24,2.2-20.47-1.54a8.68,8.68,0,0,0-4.88-1.47c-9.56.17-19.18-.53-28.66.52-30.82,3.39-69.38-12-77-31.08-2.44-6.11-2.34-12,4.26-17.42,7.24-6,9.7-12.84,5.47-20.16-1-1.65-.18-2.41,1.2-3.55,9-7.39,18-14.73,26.63-22.29,7.81-6.85,18.75-8.93,31.14-9.55,23.77-1.19,47.5-2.67,71.28-3.78,7.59-.36,15.16-.65,22.93.42,8.63,1.19,17.23-1.27,25.87-2,12-1,24-1.66,35.59.31,21.16,3.56,42.68,2.72,64.12,3,12.43.18,24.88,0,37.32-.11a18.35,18.35,0,0,0,5.45-.45c14.48-5.11,29.74-3.34,45.08-2.61a339.61,339.61,0,0,0,35.1-.15c24.72-1.44,49.46-1.12,74.13-.56,13.63.31,27.22,2.42,40.69,4.14,8.88,1.14,17.51-.12,26.09-.59,13.48-.75,25.47.44,37.09,5.2,5.66,2.32,13.32,1,20,1,40.57,0,80.66,2.16,119.8,9.48,12.53,2.35,24.71,5.31,36.69,8.57,12.35,3.37,16.85,11.08,11.66,19a31,31,0,0,1-3.64,4.53c-9.45,9.81-4.35,7.36-21,6.83-19.43-.61-39.35-.58-58.09,4.13C718,81,716,82.68,708.74,91.53ZM377,52.33c-4,0-8-.11-11.95,0-13.95.48-23,5.53-26.33,14.15-1.61,4.22,0,8.65-1.73,12.67-2.94,6.71,4,11.32,8.66,15.58,6.69,6.14,34.32,7.36,44.9,3.38,17.19-6.46,22.9-16.23,16.64-30.92C401.14,53,396.76,52.09,379.4,52.34,378.61,52.35,377.81,52.34,377,52.33Zm69.72,16.08c-2.31-4.46-4-7.87-5.84-11.22-1.64-2.9-4.18-5.56-9.83-4.47-5.22,1-11.26,2-10.3,7A93.59,93.59,0,0,1,422,75c.16,6-.55,11.93,1.38,17.85,1.17,3.59,3.21,6.82,9.26,7.44,5.56.58,6-3.13,8.36-5.22,2.88-2.55,4-7.17,9.23-7.05,6,.13,6.49,4.87,8.43,7.88,4.6,7.13,8.31,8.71,19.78,8.17,3.81-.17,4.86-1.1,5.08-3.42.43-4.7-4.23-8-7.37-11.65-9.68-11.18-12-21.86,3.41-31.85,3-1.92,1.85-3.25-1.48-4.31-3.81-1.21-7-1.73-10.44.91C461.39,58.54,454.49,63,446.73,68.41Z"/><path class="cls-1" d="M377,52.34h2.39c17.36-.25,21.74.66,27.8,14.87,6.26,14.69.55,24.46-16.64,30.92-10.58,4-38.21,2.76-44.9-3.38-4.63-4.26-11.6-8.87-8.66-15.58,1.76-4,.12-8.45,1.73-12.67,3.29-8.62,12.38-13.67,26.33-14.15C369,52.22,373,52.33,377,52.34Zm12.26,22.49c-.69-2.2-1-4.43-2.09-6.51-2.17-4.24-7.54-6.22-14-6.44s-10.93,2-13.14,6.08a17.14,17.14,0,0,0-1.19,13.63c1.41,4.63,6.68,7.47,14,7.71s11.82-2.75,14-6.94C388.23,80,388.52,77.38,389.27,74.83Z"/><path class="cls-1" d="M446.73,68.41c7.76-5.4,14.66-9.87,20.92-14.69,3.44-2.64,6.63-2.12,10.44-.91,3.33,1.06,4.45,2.39,1.48,4.31-15.37,10-13.09,20.67-3.41,31.85,3.14,3.63,7.8,7,7.37,11.65-.22,2.32-1.27,3.25-5.08,3.42-11.47.54-15.18-1-19.78-8.17-1.94-3-2.47-7.75-8.43-7.88-5.22-.12-6.35,4.5-9.23,7.05-2.37,2.09-2.8,5.8-8.36,5.22-6-.62-8.09-3.85-9.26-7.44C421.46,86.9,422.17,80.92,422,75a93.59,93.59,0,0,0-1.25-15.29c-1-5,5.08-6,10.3-7,5.65-1.09,8.19,1.57,9.83,4.47C442.78,60.54,444.42,64,446.73,68.41Z"/><path class="cls-2" d="M389.27,74.83c-.75,2.55-1,5.14-2.31,7.53-2.23,4.19-6.78,7.17-14,6.94s-12.63-3.08-14-7.71A17.14,17.14,0,0,1,360.06,68c2.21-4,6.67-6.31,13.14-6.08s11.81,2.2,14,6.44C388.24,70.4,388.58,72.63,389.27,74.83Z"/><rect class="cls-2" x="308.72" y="36.87" width="194.94" height="79"/><text class="cls-3" transform="translate(277.46 94.7)">Options</text></g></g></svg>