<svg xmlns="http://www.w3.org/2000/svg" viewBox="0 0 1405.05 851.1"><defs><style>.cls-1{fill:#fefefe;}.cls-2{fill:#f0bf90;}.cls-3{fill:#d1863d;}.cls-4{fill:#e8994c;}.cls-5{fill:#e5b78a;}.cls-6{fill:#a55f1d;}.cls-7{fill:#9a734e;}.cls-8{fill:#b97129;}.cls-9{fill:#ab6420;}.cls-10{fill:#492405;}.cls-11{fill:#d08133;}.cls-12{fill:#b06b28;}.cls-13{fill:#605549;}.cls-14{fill:#cd7e30;}.cls-15{fill:#a0540c;}.cls-16{fill:#dd9147;}.cls-17{fill:#a75b13;}.cls-18{fill:#954e09;}.cls-19{fill:#917b64;}.cls-20{fill:#edeceb;}.cls-21{fill:#cfbfb0;}.cls-22{fill:#f4b784;stroke:#824009;stroke-width:6px;}.cls-22,.cls-23,.cls-26{stroke-miterlimit:10;}.cls-23{font-size:92px;stroke-width:7px;}.cls-23,.cls-26{fill:#512609;stroke:#492107;font-family:MongolianBaiti, Mongolian Baiti;}.cls-24{fill:#c68555;}.cls-25{fill:#4b2607;}.cls-26{font-size:58.43px;stroke-width:3px;}</style></defs><title>Options_Menu</title><g id="Layer_2" data-name="Layer 2"><g id="Layer_1-2" data-name="Layer 1"><path class="cls-1" d="M82.67,334.85l-1.2-87.57,97.09-.63q.58,43.78,1.16,87.57l0,0-97.13.63Z"/><path class="cls-1" d="M275.69,248.83,271.61,246Z"/><path class="cls-2" d="M140.5,226.44q22.14-.06,44.3-.12l56-.13,18.38-.77,40.8.58,159-1.49,92.61.46c-7.48,3-14.47,7.35-22.53,8.81-20.82,3.78-42.11,6.29-63.21,9.31l-46.7,1.74-7.82,3-11.19.22c-8.41-1.18-16.83-3.43-25.23-3.39q-156.77.72-313.51,2L42.69,233.05l2-6Z"/><path class="cls-3" d="M419.15,244.83l46.69-1.73,99.11,0,13.78,4q-3.39,7.2-6.77,14.41l-26.24.48-.34-4.89,25.34-4.86c-36.73-8.19-61.41-.61-88.36,4.45-71.23,13.4-143.93,23-215.56,35.4-10,1.73-17.24,11.12-25.77,17l-39.64,15.28c2.18-8.09,4.7-16.35-14.17-14.19L93.46,303l-51.9-1.22L49,288.26c19.62,1,37,.06,32.72-19l33.51,13.56c41.7-.21,83.5.52,125.06-1.28,11.3-.48,21.92-8.61,32.85-13.23l127.05-20.27,11.2-.22Z"/><path class="cls-4" d="M400.14,248.05l-127,20.26c-32.33-2.5-64.64-6.66-97-6.9-20.75-.15-41.58,5.49-62.37,8.53a34.85,34.85,0,0,0,1.64,4.16q-.08,4.36-.17,8.73L81.67,269.27c-12.88-2.87-25.82-5.63-38.41-9-.45-.12,2.51-6.44,3.88-9.87l14-3.59.26-.12q156.75-1.09,313.51-2C383.31,244.62,391.73,246.87,400.14,248.05Z"/><path class="cls-2" d="M61.14,246.78l-14,3.6Z"/><path class="cls-5" d="M565,243.13l-99.11,0c21.11-3,42.4-5.54,63.22-9.32,8.06-1.46,15.05-5.79,22.53-8.81l65.69-2.3,252.84-1.19-.23,1.34,11.9,8.07,8.16-8.4,45.81-2,199.42,0,60.29-4.89,32.32-.35h32.52l14.84,5c-12,3.06-23.71,6.8-36,9-27.79,5.05-55.86,9.34-83.81,13.94l-118.79,1.42-34.17-4-13.14-.94L837.48,241l-33.62.38c-37.5-10.26-74.87-6.32-112.22.48L670.39,243l-12.51-1.21Z"/><path class="cls-6" d="M1036.56,244.62l118.77-1.42a28.71,28.71,0,0,0,6.23.65c8.57,3,16.92,8.06,25.76,8.53,20.38,1.06,41-.11,61.51-.37l66-9.55,1.08,12.9c-7.59,3.57-15,7.36-22.81,10.65s-16.22,6.13-24.35,9.17l-99,5.07c3.65-26.4,38.61-5.12,56.31-20.35l-83.33,6.3-46,1.5-26.21-8.82,19.23-.34,58.61-.38-.6-4.5-58.74.39Z"/><path class="cls-7" d="M1314.81,242.46l-66,9.55c-8.54-2.88-16.85-7.79-25.66-8.26-20.41-1.11-41.06-.07-61.61.1a28.71,28.71,0,0,1-6.23-.65c28-4.6,56-8.89,83.82-13.94,12.29-2.23,24-6,36-9l110.24-.72,2.07,6Z"/><path class="cls-8" d="M1268.72,275.18c8.14-3,16.46-5.85,24.36-9.17s15.22-7.08,22.81-10.65l85.92,10q-4.77,16.34-9.55,32.66l-76.49-4.18L1356.88,281Z"/><path class="cls-4" d="M419.15,244.83l-7.81,3Z"/><path class="cls-9" d="M1404.46,357.19q.3,7.62.59,15.23l-82.25,13.73-72.27-4.06-20.12-9-98.92,1.19c-14-.07-28-.16-41.93-.19q-35.73-.07-71.46-.09l-119,1.59-26.33-4.45c86.18-9.2,172.5-17.85,258.45-28,18.36-2.18,44.72,4.84,52.52-15.79,11.5,12.87,19,33.33,48.28,12.36l11.29.8c31.58.19,64.44,3.15,85.71-19.15.56-.61,1.47-1.19,1.57-1.84a2,2,0,0,0-1.18-1.76c-9.21-3.17-18.48-6.25-27.74-9.36l82.49,8.39,11,22.56c-35.45-.25-70.66.2-109.86,17.29,31.11,1.52,53.53,3.24,76,3.49C1375.67,360.23,1390.08,358.22,1404.46,357.19Z"/><path class="cls-10" d="M1384.15,316.73l-82.49-8.39c-22,4.37-49.18-10.44-67,8.93L1211,300.36l44.25-2.52,8-.29,52.43-3.73,76.49,4.18Q1388.21,307.36,1384.15,316.73Z"/><path class="cls-10" d="M1404.46,357.19c-14.38,1-28.79,3-43.15,2.88-22.46-.25-44.88-2-76-3.49,39.2-17.09,74.41-17.54,109.86-17.29Z"/><path class="cls-6" d="M1322.79,386.15l82.26-13.73-9.27,13.21-3.23,0-3.22.19-72.49.53Q1319.81,386.11,1322.79,386.15Z"/><path class="cls-11" d="M545.38,257.12c.12,1.63.23,3.26.34,4.88l-22.36,11.78c49-6.33,88.25-10.9,127.17-16.69,14.06-2.09,27.22-7.11,40.8-10.79l32.18-.57,8,.52,32.17.83c-6.49,2.88-12.54,7.49-19.53,8.35-40.85,5.05-82.33,7.88-122.82,14-58.85,8.88-117.06,19.84-175.5,30Q351.17,316,256.6,332.68q-4.64-11.13-9.26-22.24c22.35-3.43,44.9-6.34,67-10.38C391.45,286,468.39,271.46,545.38,257.12Zm-66.05,23.55,36.28-1.55q-2-4.67-3.91-9.32l-32.34,10.89-20.11,1.36,1.53,3.78Z"/><path class="cls-4" d="M545.38,257.12c-77,14.34-153.93,28.84-231,42.94-22.12,4-44.67,6.95-67,10.37a34.16,34.16,0,0,1-6.31-1.35c8.53-5.85,15.79-15.24,25.77-17,71.63-12.45,144.33-22,215.56-35.4,26.95-5.06,51.63-12.64,88.36-4.45Z"/><path class="cls-4" d="M32,353.12l-2.68-.23L28.91,351c4.8-5.31,8.19-14.11,14.62-15.37,47.56-9.34,95.72-17.18,143.69-25.48,18.87-2.16,16.35,6.1,14.17,14.19l.07-.06c-22,3.42-44.41,6-65.88,10.61-12,2.58-22.43,8.62-33.57,13.11Z"/><path class="cls-12" d="M113.72,269.94c20.79-3,41.62-8.68,62.37-8.53,32.36.24,64.67,4.4,97,6.9-10.93,4.63-21.55,12.76-32.85,13.24-41.56,1.8-83.36,1.07-125.06,1.28q.1-4.36.17-8.73c.67-.55,2.05-1.47,1.92-1.6A32.26,32.26,0,0,0,113.72,269.94Z"/><path class="cls-12" d="M187.22,310.17c-48,8.3-96.13,16.14-143.69,25.48-6.43,1.26-9.82,10.06-14.62,15.37-23.23-7.9-9.63-17-1.8-26,16.29-3.45,33-6.2,48.7-10.67,6.94-2,11.83-7.46,17.65-11.35Z"/><path class="cls-13" d="M241,309.08a34.16,34.16,0,0,0,6.31,1.35q4.64,11.13,9.25,22.26-4.18,9.36-8.34,18.71l-40,.39q-3.39-13.76-6.76-27.49l-.07.06Z"/><path class="cls-4" d="M691.33,246.3c-13.58,3.68-26.74,8.7-40.8,10.79-38.92,5.79-78.21,10.36-127.17,16.69L545.72,262l26.24-.47L592,257l13-.23,13.23-.33L670.38,243l21.25-1.19C691.55,243.32,691.46,244.81,691.33,246.3Z"/><path class="cls-10" d="M93.46,303c-5.82,3.89-10.71,9.37-17.65,11.35-15.7,4.47-32.41,7.22-48.7,10.67q7.22-11.62,14.45-23.24Z"/><path class="cls-2" d="M565,243.13l92.93-1.33-66.36,4.93-12.79.39Z"/><path class="cls-11" d="M578.73,247.12l12.79-.39L592,257,572,261.53Q575.35,254.32,578.73,247.12Z"/><path class="cls-10" d="M208.22,351.79l40-.39,45.06.7q.27,6.38.53,12.76l-38.41,2.55-14.89-.6-19-.18-40.21.86-20,3-39,2.08-7.58,2.7-55.1,1.09L32,353.12l70-5.1Z"/><path class="cls-8" d="M56.12,441.2l-6.39-9.47Q56.36,420.15,63,408.58l52.84-14.38c9.55,3.06,19,8.5,28.65,8.75,37.22,1,74.53.28,111.81.21L230,420.65c-46.87.57-93.74,1.75-140.59,1.41C68.87,421.91,58.34,427.27,56.12,441.2Z"/><path class="cls-4" d="M115.85,394.2,63,408.58q-1.75-16.11-3.47-32.2,27.59-.53,55.13-1.08l7.57-2.7,39-2.08,20-3,40.21-.86a23.88,23.88,0,0,1-.07,3.38L149,389.62Z"/><path class="cls-3" d="M113.72,269.94a32.26,32.26,0,0,1,3.55,2.56c.13.13-1.25,1.05-1.92,1.6A36.56,36.56,0,0,1,113.72,269.94Z"/><path class="cls-4" d="M255.43,367.41l38.42-2.55c42-9.43,83.5-20.19,126.11-28,64.23-11.77,129.19-21.61,193.93-32,89.89-14.46,179.48-30,270-42.39,38.32-5.25,78.57-3.65,125.1-5.44l-43.3-7,36.73-9.41,34.18,4q26.21,4.71,52.4,9.42a43,43,0,0,1,.72,4.5l-19.24.33c-5.52-.07-11.28-.9-16.5-.07-78.1,12.43-156.05,25.35-234.21,37.58-56.19,8.8-112.61,16.85-169,25.05-36.51,5.31-73.59,9-109.58,15.69C469.88,350.29,399.17,365,328.21,379l-13.36,9L202.57,393c5.92-4.6,10.82-10.3,18-13.55C231.35,374.53,243.73,371.34,255.43,367.41Z"/><path class="cls-4" d="M293.31,352.1l-45.06-.7q4.16-9.36,8.34-18.71,94.62-16.63,189.23-33.24c58.44-10.19,116.65-21.15,175.5-30,40.49-6.11,82-8.94,122.82-14,7-.86,13-5.47,19.53-8.36l40.19-5.73,33.61-.37L904,245c-8.52,3.2-16.54,7.91-25.63,9.35-55,8.68-110.25,16.51-165.36,24.83-69,10.43-138.36,20-206.85,31.91C434.76,323.5,364.22,338.32,293.31,352.1Z"/><path class="cls-14" d="M293.31,352.1c70.91-13.78,141.45-28.6,212.84-41C574.64,299.13,644,289.58,713,279.15c55.11-8.32,110.37-16.15,165.36-24.83,9.09-1.44,17.11-6.15,25.62-9.35l25.33-.66,14.08-2.87,45.85-1.73,13.14.94-36.74,9.41,43.3,7c-46.53,1.79-86.78.19-125.1,5.44-90.47,12.39-180.06,27.93-270,42.39-64.74,10.41-129.7,20.25-193.93,32-42.61,7.8-84.11,18.56-126.11,28C293.66,360.61,293.49,356.35,293.31,352.1Z"/><path class="cls-2" d="M803.86,241.34l-40.19,5.73-32.17-.82-8-.52-32.18.57c.13-1.49.22-3,.3-4.48C729,235,766.36,231.08,803.86,241.34Z"/><path class="cls-2" d="M929.31,244.31,904,245l-66.51-4,151.77-1.26-45.85,1.72Z"/><path class="cls-3" d="M592,257l-.51-10.23,66.36-4.93c4.17.39,8.35.79,12.51,1.2l-52.11,13.4-5.32-7-7.91,7.35Z"/><path class="cls-4" d="M1255.29,297.84,1211,300.35l-15.59,8.43c-10-2.12-21-7.18-29.91-5.78-21.93,3.47-42.38,11.63-64.35,14.82-78.76,11.47-158.28,20.5-236.8,32.66C779.79,363.59,695.81,378.71,612,394c-26.64,4.85-52,13.07-78,19.75l-33.24,2.19-52.59,3.62-78.95-.3c3.26-2.64,5.86-6.85,9.9-7.68,57.06-11.77,114.07-23.72,171.57-34.36,79.75-14.75,159.52-29.6,240-42.25,73.29-11.51,147.63-19.72,221.28-30.18,52.79-7.5,105.19-16.31,157.77-24.54l99-5.07,88.15,5.83-41.11,12.81-52.43,3.73Z"/><path class="cls-14" d="M1169.69,280.25c-52.58,8.23-105,17-157.77,24.54-73.65,10.46-148,18.67-221.28,30.18-80.45,12.65-160.22,27.5-240,42.25-57.5,10.64-114.51,22.59-171.57,34.36-4,.83-6.64,5-9.91,7.69l-34.29-4.34L372,398.22l-17.75-1.47L328,388.08l.23-9c70.95-14.06,141.66-28.75,212.94-41.92,36-6.65,73.07-10.38,109.58-15.69,56.37-8.2,112.79-16.25,169-25.05,78.16-12.23,156.11-25.15,234.21-37.58,5.22-.83,11,0,16.5.07l26.21,8.83c-6.52,3-13,8.6-19.55,8.62-67,.17-132.24,5.25-196.81,19.55-50.5,11.18-103.8,16.05-155.47,24.81C627.72,337.14,530.9,354.39,434,371.3c-19,3.31-38,6.54-63.36,10.89l30.6,10.18-8.76,1.75,1.7,1.76,7.07-3.5c14.11-1.09,28.68-1,42.26-3.46,62.66-11.49,124.73-24.64,187.64-35.4,65.36-11.18,131.42-20.39,197.22-30.31,85.59-12.9,171.57-24.66,256.57-39.21,19.48-3.34,49.66,5.08,57.76-17.81L1226,259.9C1208.3,275.13,1173.34,253.85,1169.69,280.25Z"/><path class="cls-4" d="M401.21,392.37l-30.6-10.18c25.32-4.35,44.35-7.58,63.36-10.89,96.93-16.91,193.75-34.16,290.84-50.62,51.67-8.76,105-13.63,155.47-24.81,64.57-14.3,129.84-19.38,196.81-19.55,6.53,0,13-5.62,19.55-8.62q23-.75,46-1.5c-8.1,22.88-38.28,14.46-57.76,17.8-85,14.55-171,26.31-256.57,39.21-65.8,9.92-131.86,19.13-197.22,30.31-62.91,10.76-125,23.91-187.64,35.4-13.58,2.49-28.15,2.37-42.26,3.46Z"/><path class="cls-14" d="M1161.56,243.85c20.55-.17,41.2-1.21,61.61-.1,8.81.47,17.12,5.38,25.66,8.26-20.51.26-41.13,1.43-61.51.37C1178.48,251.91,1170.13,246.84,1161.56,243.85Z"/><path class="cls-14" d="M1089.67,258.54a43,43,0,0,0-.72-4.5l58.73-.38.6,4.5Z"/><path class="cls-15" d="M1363.58,404.55l27,22.84c-10.25,1.68-20.45,4.7-30.73,4.82-64.93.79-129.87.94-194.8,1.31,12.86-2.84,25.88-5.37,38.52-8.61,11.58-3,22.74-6.73,34.09-10.14l45.94-5.59Z"/><path class="cls-8" d="M1363.58,404.55l-80,4.64-13.06-17.87,46.3-5,72.49-.53Z"/><path class="cls-15" d="M56.12,441.2c2.22-13.93,12.75-19.29,33.31-19.14,46.85.34,93.72-.84,140.58-1.4l85.13-3.85c-5.41,4.44-9.61,10.64-16.49,12.93-13.44,4.48-28.37,6.77-42.68,10l-13.81,1.17-12.94,0-45.77,2.73-.32,1.67L63.27,443.67l-6.39-2.32Z"/><path class="cls-4" d="M1183.73,327.29c-7.8,20.63-34.16,13.61-52.52,15.79-86,10.17-172.27,18.82-258.46,28-19.68,4.68-39.06,10.1-59.07,13.91-51,9.72-102.38,18.72-153.6,28l-32.68,2.16L615,415l-34.21,3.09-6.85.65-5.64-.8c14-5.87,27-14.53,42.2-17.15Q760.28,375,911,351.51c29.78-4.69,60.47-6.49,90.58-10.26,60.73-7.62,121.34-15.69,182-23.57Q1183.63,322.48,1183.73,327.29Z"/><path class="cls-14" d="M1018.1,374q35.73,0,71.46.09c14,0,28,.12,41.93.18-4.41,2.87-8.3,7.63-13.3,8.29-30.09,4-61,5.5-90.53,10.92C997.68,399,969,408,939.81,415.56L859.4,416.9l-33.41-5c41.65-7.71,83.4-15.17,124.92-23.22C973.51,384.26,995.72,378.89,1018.1,374Z"/><path class="cls-4" d="M939.82,415.55C969,408,997.68,399,1027.66,393.44c29.49-5.42,60.44-6.9,90.53-10.92,5-.66,8.89-5.42,13.3-8.29l98.92-1.18c-5.07,3.17-9.49,8.18-15.33,9.18-23.27,4-47,6.78-70.53,10L1131,396.69l-26.22.55-33,13.41L992,416Z"/><path class="cls-4" d="M1018.1,374c-22.38,4.93-44.59,10.3-67.19,14.68-41.52,8.05-83.27,15.51-124.91,23.23l-106,5.88L701,417.12c1.18-2.12,1.82-5.8,3.62-6.1,44.2-7.4,88.67-14,132.78-21.7,20.92-3.63,41.18-9.12,61.74-13.77Z"/><path class="cls-14" d="M899.09,375.55c-20.56,4.65-40.82,10.14-61.74,13.77-44.11,7.67-88.58,14.3-132.78,21.7-1.8.3-2.44,4-3.63,6.1L660.08,413c51.22-9.29,102.55-18.29,153.6-28,20-3.81,39.39-9.23,59.07-13.91Z"/><path class="cls-13" d="M1183.73,327.29q-.11-4.82-.19-9.61l11.9-8.9,15.59-8.43,23.6,16.92q-1.31,11.19-2.62,22.38C1202.74,360.62,1195.23,340.16,1183.73,327.29Z"/><path class="cls-16" d="M1232,339.65q1.32-11.19,2.62-22.38c17.85-19.37,45.07-4.56,67-8.93,9.26,3.11,18.53,6.19,27.74,9.36a2,2,0,0,1,1.18,1.76c-.1.65-1,1.23-1.57,1.84-23.55,1.78-47.33,2.72-70.48,5.91-6.09.84-10.21,8.64-15.23,13.24Z"/><path class="cls-11" d="M1243.3,340.45c5-4.6,9.14-12.4,15.23-13.24,23.15-3.19,46.93-4.13,70.48-5.91C1307.74,343.6,1274.88,340.64,1243.3,340.45Z"/><path class="cls-16" d="M1316.84,386.32l-46.3,5-66.25,5.2-13.4-4.66,59.64-9.77,72.27,4.06C1320.8,386.12,1318.82,386.18,1316.84,386.32Z"/><path class="cls-14" d="M1250.53,382.09l-59.64,9.77-46.34.37c23.55-3.22,47.26-6,70.53-10,5.84-1,10.26-6,15.33-9.18Z"/><path class="cls-8" d="M1255.29,297.84l8-.29Z"/><path class="cls-4" d="M479.36,280.69,511.7,269.8q2,4.65,3.91,9.32l-36.28,1.55Z"/><path class="cls-4" d="M479.33,280.67l-18.55,5.16-1.53-3.78,20.11-1.36Z"/><path class="cls-4" d="M723.51,245.73l8,.52Z"/><path class="cls-3" d="M208.22,351.79,102,348c11.14-4.49,21.59-10.53,33.57-13.11,21.47-4.64,43.87-7.19,65.88-10.61Q204.84,338,208.22,351.79Z"/><path class="cls-11" d="M605.05,256.73l7.91-7.35,5.32,7Z"/><path class="cls-3" d="M255.43,367.41c-11.7,3.93-24.08,7.12-34.87,12-7.17,3.25-12.07,8.95-18,13.56L149,389.62,221.46,370l19.08-3.2Z"/><path class="cls-16" d="M240.54,366.81,221.46,370a25.46,25.46,0,0,0,.06-3.38Z"/><path class="cls-16" d="M181.31,367.49l-20,3Z"/><path class="cls-3" d="M122.24,372.6l-7.57,2.7Z"/><path class="cls-6" d="M149,389.62,202.57,393l112.28-4.91H328l26.23,8.68-97.91,6.4c-37.28.07-74.59.76-111.81-.21-9.69-.25-19.1-5.69-28.65-8.75Z"/><path class="cls-4" d="M256.31,403.16l97.91-6.4c4.26.34,8.51.7,17.75,1.46L334.9,414.93q-9.88,1-19.76,1.88L230,420.66Z"/><path class="cls-16" d="M328,388.08H314.85l13.36-9Q328.11,383.57,328,388.08Z"/><path class="cls-4" d="M929.31,244.31l14.08-2.88C938.7,242.4,934,243.35,929.31,244.31Z"/><path class="cls-14" d="M1195.44,308.78l-11.9,8.9c-60.67,7.88-121.28,15.95-182,23.57-30.11,3.77-60.8,5.57-90.58,10.26Q760.38,375.2,610.46,400.79c-15.17,2.62-28.19,11.28-42.21,17.16L534,413.75c26-6.68,51.34-14.9,78-19.75,83.85-15.29,167.83-30.41,252.42-43.52,78.52-12.16,158-21.19,236.8-32.66,22-3.19,42.42-11.35,64.35-14.82C1174.42,301.6,1185.41,306.66,1195.44,308.78Z"/><path class="cls-17" d="M315.14,416.81q9.89-.93,19.76-1.88l34.29,4.34,78.95.29L388.87,438l-86.77,2L256,439.7c14.31-3.19,29.24-5.48,42.68-10C305.53,427.45,309.73,421.25,315.14,416.81Z"/><path class="cls-17" d="M534,413.75l34.27,4.2c1.89.25,3.77.52,5.65.79l7.18,4.83-.13-.14q.12,6.61.23,13.24l-20.57.33-12.3,0-100.46.39c11.21-2.61,23.18-4.25,33.38-8.15,7.68-2.94,13.09-8.79,19.51-13.34Z"/><path class="cls-18" d="M500.74,415.94c-6.42,4.55-11.83,10.4-19.51,13.34-10.2,3.9-22.17,5.54-33.38,8.15l-59,.61,59.26-18.48Z"/><path class="cls-4" d="M401.22,392.38l-7.07,3.5-1.7-1.76,8.76-1.75Z"/><path class="cls-6" d="M1165.05,433.52l-46.77,3.57-111.87.91c39.52-4.42,79.2-8.29,118.43-13.73,7.4-1,13-8.34,19.43-12.75l32.33-5,61.06,8.21c-11.35,3.41-22.51,7.16-34.09,10.14C1190.93,428.15,1177.91,430.68,1165.05,433.52Z"/><path class="cls-14" d="M1237.66,414.77q-30.53-4.11-61.05-8.22l27.68-10,66.25-5.2,13.06,17.87Z"/><path class="cls-17" d="M660.08,413l40.86,4.1,19.08.63c-4.77,3.2-8.8,7.95-14.47,9.28-16.85,4-34.34,6.57-51.58,9.71l-53.3-.15,0-12.9,12.7-.75,15.45,3.49-1.39-11.25Z"/><path class="cls-14" d="M613.34,422.94l-12.7.75L581,423.43l.12.14c-.11-1.83-.21-3.65-.32-5.48L615,415Q614.14,419,613.34,422.94Z"/><path class="cls-15" d="M613.34,422.94q.79-4,1.61-7.95l12.45.19q.71,5.63,1.39,11.25Z"/><path class="cls-15" d="M580.75,418.09c.11,1.83.21,3.65.32,5.48l-7.17-4.83Z"/><path class="cls-15" d="M654,436.73c17.24-3.13,34.73-5.74,51.58-9.7,5.67-1.33,9.7-6.08,14.47-9.28l106-5.88,33.4,5c-5.84,3.24-11.69,6.46-17.51,9.71q-7.8,4.35-15.55,8.74l-13.29.1-19.59.21Z"/><path class="cls-17" d="M826.34,435.34q7.77-4.36,15.55-8.73c5.82-3.25,11.67-6.47,17.51-9.71l80.41-1.34L992,416l-78.69,19.28Z"/><path class="cls-18" d="M913.32,435.26,992,416l79.84-5.33,72.42.87c-6.43,4.41-12,11.72-19.43,12.75-39.23,5.44-78.91,9.31-118.43,13.73L914,439A34.19,34.19,0,0,1,913.32,435.26Z"/><path class="cls-3" d="M1144.27,411.52l-72.42-.87,33-13.41,25.58,8.15c.21-2.9.43-5.8.64-8.7l13.52-4.46,46.34-.37,13.4,4.66-27.68,10Z"/><path class="cls-14" d="M1131,396.69c-.21,2.9-.43,5.8-.64,8.7l-25.58-8.15Z"/><path class="cls-15" d="M600.67,436.59l-19.49.09q-.1-6.63-.23-13.25l19.69.26Z"/><path class="cls-10" d="M68,579.93,36.34,555l4.73-3.42,80.12-1.34,90.66,3.48c16.44,8.87,31.56,9.08,44.78-3.32l54.1,4.26a8.18,8.18,0,0,1,.16,3.58L239.57,573l-61-.47Z"/><path class="cls-15" d="M57.11,637.84,70,606.07l25.6-.22c3,4.35,5.76,12.38,9,12.47,42.89,1.26,85.86,1.41,128.8,1.83l33.44,2.25c-4.68,3.32-8.53,8.13-14.2,9.69-14.51,4-29.84,6.49-44.84,9.59l-15.47,1.42c-18.52-.14-37.08.24-55.54-.54C110.22,641.43,83.68,639.45,57.11,637.84Z"/><path class="cls-12" d="M41.06,551.62,36.34,555c-3.49-6.28-10.55-12.84-9.58-18.76,1.24-7.53,9-14.53,13.91-21.76l9.3-4.64,136.17,3.66c-44.3,8-88.76,15.6-132.7,24.47C47.9,539.13,45.12,546.92,41.06,551.62Z"/><path class="cls-4" d="M68,579.93l110.62-7.36,18.91,5.57-10.31,4.28-25.53.41L148,591.67,96.18,597c-14.8.24-29.43.32-27.4-14.71C67.58,581.64,67.31,580.87,68,579.93Z"/><path class="cls-16" d="M68.78,582.27c-2,15,12.6,15,27.39,14.71-.18,3-.35,5.91-.53,8.87l-25.6.22Z"/><path class="cls-3" d="M186.14,513.54,50,509.88c-3.9-12.42,4-16.46,21.28-18.94,13.68-2,38.09,2.14,35.26-17.58,23.53,8.72,46.91,16.15,75.35,13.1,19.53-2.09,40.24.94,59.65-1.4,12.71-1.53,24-8.57,36-13.15,36.75-8.42,80.05-1.17,111.34-22.67l19.84-.26,19.55-.65,39.85-1.55,71.49.92C480.4,458.7,420.9,468.93,362.16,481c-43.61,8.93-92.66,5.84-130.31,28.16l-15,4.65Z"/><path class="cls-2" d="M468.09,446.77l-39.86,1.55-19.55.66-19.84.25L67.73,450.48,51.05,431l95.28-.62,39.35-3.6,32.9,3.78,85.34-.49,157.32-1.64,98,.35c-6.18,3.08-11.8,7.88-18.62,8.93C516.67,441.42,492.3,443.85,468.09,446.77Z"/><path class="cls-4" d="M67.73,450.48l321.11-1.25c-31.29,21.51-74.59,14.26-111.33,22.68L78.85,468.54l-34.34-6.15Z"/><path class="cls-12" d="M78.85,468.54l198.66,3.37c-12,4.58-23.29,11.62-36,13.15-19.41,2.34-40.12-.69-59.65,1.4-28.44,3.05-51.82-4.38-75.35-13.1Z"/><path class="cls-10" d="M1386.53,496.55q-3.69,16-7.37,31.95l-71.55-17-83.79.49-27.65-5.28a24.41,24.41,0,0,1,1.59-3.7l117-6h59Z"/><path class="cls-18" d="M1218.66,635.28l-53.16.41c12.81-2.89,25.79-5.47,38.39-8.76,11.52-3,22.64-6.75,33.93-10.17l39-8.64c11.22,1.07,22.4,2.69,33.66,3.06,15.28.5,30.63.05,46,0l12.55,5.45c-10.86,2.88-21.42,7.22-32.65,8.37C1297.26,629,1257.92,631.94,1218.66,635.28Z"/><path class="cls-6" d="M1395.24,560.23c16.07,16-1.07,22.33-17.19,29l-101.23,13.66-12.8-9.14,51-5.47,79.21-23Z"/><path class="cls-10" d="M1395.24,560.23q-.51,2.53-1,5.07l-58.93-4c-4.92-3-9.7-6.11-14.81-8.93-5.82-3.2-11.94-6.14-17.93-9.19l13-.31,19.84-.92,24.07-1L1387,542.1Q1391.15,551.16,1395.24,560.23Z"/><path class="cls-6" d="M1218.66,635.28c39.26-3.34,78.6-6.25,117.71-10.27,11.23-1.15,21.79-5.49,32.65-8.37l25.85,13.78c-46.9,1.55-93.79,3.17-140.69,4.61C1242.36,635.39,1230.5,635.21,1218.66,635.28Z"/><path class="cls-8" d="M1276.81,602.9l101.24-13.67-21.58,22c-15.33,0-30.68.49-46,0-11.26-.37-22.44-2-33.65-3.07C1276.84,606.37,1276.83,604.63,1276.81,602.9Z"/><path class="cls-17" d="M1387,542.1q-13.79-.61-27.55-1.21c-4.93-3.9-9-8.86-15.09-11.47-6.53-2.79-15-3.37-22.61-4.91l-14.19-13,71.56,17Z"/><path class="cls-4" d="M1386.53,496.55l-12.68.47,17.74-10.35q.81,4.43,1.6,8.83Z"/><path class="cls-15" d="M1237.82,616.76c-11.29,3.42-22.41,7.17-33.93,10.17-12.6,3.29-25.58,5.87-38.39,8.76l-32.6.31-209.56.78c11.69-2.9,23.86-5.1,34.92-8.9,8.68-3,16-7.94,23.89-12l71.78-2.08,90.49-4.42,33.63-.47Z"/><path class="cls-9" d="M1391.59,486.67,1373.85,497h-59l40.42-14.29L1157.4,484l-33.64-21.93,13.21-2.69c-.26-.67-.52-1.35-.77-2l-58.78.39-32.36-9.6,46-3.81,66,3.44c17.54,12.95,61,12.67,78.57-.51l78.47,4c23.5,7.38,47.34,14.29,70.2,22.54C1388.67,475.46,1389.24,482.27,1391.59,486.67Z"/><path class="cls-19" d="M1255.5,423.84l139.82-5.46c-22.89,20.23-53.54,18.75-80.44,23.65-12.24-1.47-24.39-3.55-36.71-4.28-23.17-1.38-46.44-2-69.66-2.9l20-2.25Z"/><path class="cls-12" d="M1208.5,434.85c23.23.92,46.5,1.52,69.67,2.9,12.32.73,24.47,2.81,36.71,4.28q-.41,4.65-.83,9.3l-78.47-4-78.57.51-66-3.44Z"/><path class="cls-5" d="M1208,419l46.52.58a21.6,21.6,0,0,1,1,4.22l-27,8.76-39.44-11.86,7.48-1.45Z"/><path class="cls-4" d="M1045.06,448.17l32.37,9.59c-32.69,6.11-65.12,13.09-98.15,18.12-57.59,8.78-115.67,16-173.34,24.53-70.39,10.44-141,20.51-210.74,32.73C509.94,548.07,425.38,565,340.69,581.41c-6.06,1.17-10.75,5.8-16.08,8.82l-117.5,1.66L239.57,573l71.32-14.75c11.81-.9,24-.83,35.34-2.85,87.36-15.54,174.31-32.21,261.89-47.11,88.52-15.07,177.27-29.73,266.63-42.05,34.81-4.79,71.59-2.4,107.42-3.92,10.68-.46,32.38,3.72,17.14-13.58l-.06,0c0-1.45,0-2.91,0-4.36Z"/><path class="cls-4" d="M310.73,554.7l-54.09-4.26q3.56-9.81,7.09-19.58c55.45-8.68,110.93-17.23,166.31-26.07,78.23-12.5,156.35-25.32,234.59-37.78,45.65-7.27,91.43-14.1,137.15-21.13l99.66,2.76c-11.76,3.35-23.12,7.84-35.33,9.84-46.92,7.69-94.26,14.13-141.16,21.88C631,495.88,537.16,511.5,443.6,528,398.93,535.83,355,545.72,310.73,554.7Z"/><path class="cls-14" d="M310.73,554.7c44.27-9,88.2-18.87,132.87-26.73C537.16,511.5,631,495.88,725,480.36c46.9-7.75,94.24-14.19,141.16-21.88,12.21-2,23.57-6.49,35.32-9.83l97.79-4.27c0,1.45,0,2.91,0,4.36l-35.81,1.59q2,4.65,4,9.3l31.9-10.85c15.24,17.3-6.46,13.12-17.14,13.58-35.83,1.52-72.61-.87-107.42,3.92-89.36,12.32-178.11,27-266.63,42.05-87.58,14.9-174.53,31.57-261.89,47.11-11.38,2-23.53,1.95-35.34,2.85A8.22,8.22,0,0,0,310.73,554.7Z"/><path class="cls-4" d="M186.14,513.54l30.68.22q-4.65,7-9.23,14l-86.4,22.56-80.12,1.34c4-4.7,6.83-12.49,12.37-13.61C97.38,529.14,141.84,521.53,186.14,513.54Z"/><path class="cls-13" d="M207.59,527.72q4.59-7,9.23-14l15-4.65,18.64,5.39,13.21,16.35q-3.52,9.79-7.07,19.59c-13.23,12.4-28.35,12.19-44.79,3.32Q209.74,540.76,207.59,527.72Zm49.24,7.3H254.6l.09,6.81h2.23Z"/><path class="cls-3" d="M207.59,527.72q2.13,13,4.26,26l-90.66-3.48Z"/><path class="cls-16" d="M239.57,573l-32.46,18.85L179.2,597l8-14.62,10.31-4.28-18.91-5.57Z"/><path class="cls-12" d="M187.21,582.42l-8,14.62,27.91-5.15,117.5-1.65,20.29,9.31c-32,4.67-64.1,9.14-96,14.19-5.56.88-10.32,4.21-15.46,6.41-42.94-.42-85.91-.57-128.8-1.83-3.25-.09-6-8.12-9-12.47.18-3,.35-5.91.53-8.87l51.81-5.3,13.7-8.85Z"/><path class="cls-4" d="M233.45,620.15c5.14-2.2,9.9-5.53,15.46-6.41,31.89-5,64-9.52,96-14.19l32.94-.07-.06,0L344.51,614l-32.32,4.92-45.3,3.48Z"/><path class="cls-18" d="M266.89,622.4l45.3-3.48c-5.27,4.46-9.29,10.78-16.07,13-13.32,4.36-28.16,6.45-42.37,9.48l-45.9.27c15-3.1,30.33-5.62,44.84-9.59C258.36,630.53,262.21,625.72,266.89,622.4Z"/><path class="cls-16" d="M161.68,582.83,148,591.68Z"/><path class="cls-4" d="M250.5,514.51l-18.64-5.4c37.64-22.32,86.69-19.23,130.3-28.16,58.74-12,118.24-22.25,177.41-33.26l20.35-1,6.39,1.48c-8,4.26-15.07,10.47-24.07,12.41-18.44,4-38.21,4.89-56.89,8.44C407,483.9,328.76,499.3,250.5,514.51Z"/><path class="cls-5" d="M559.93,446.66l-20.36,1-71.49-.91c24.22-2.93,48.59-5.36,72.55-9.08,6.82-1.05,12.44-5.85,18.62-8.93L592.33,427l52.33,1.19c-7.33,3.09-14.14,7.53-22.09,9C602,441.07,580.84,443.61,559.93,446.66Z"/><path class="cls-4" d="M408.68,449l19.55-.66Z"/><path class="cls-4" d="M1157.4,484l197.83-1.29L1314.81,497l-117,6c-27.69,3.18-55.51,5.87-83,9.77-12.21,1.73-23.37,7-35.57,8.8-74.86,10.91-150.19,20.33-224.78,32.07C782.34,565,710.83,578.21,639.31,591.3c-35.18,6.44-69.79,14.4-104.65,21.67l-32.18,4.84-51.72,1.82-79.39-1.28c55.7-12.74,110.8-27,167.25-37.81,65.44-12.53,132-22.28,198.25-32.64,21.16-3.31,43.19-3.89,64.37-7.16,67.88-10.5,135.52-21.73,203.29-32.56Q1080.93,496,1157.4,484Z"/><path class="cls-14" d="M534.65,613c34.87-7.28,69.48-15.24,104.66-21.68,71.52-13.09,143-26.32,215.12-37.68,74.59-11.74,149.92-21.16,224.78-32.07,12.2-1.77,23.36-7.07,35.57-8.8,27.47-3.9,55.29-6.59,83-9.77a23.38,23.38,0,0,0-1.58,3.7l-17.41,14.39c-47.29,6.11-94.5,12.54-141.89,18.22-40.55,4.87-81.81,7.3-121.85,13.6-71.95,11.33-143.27,24.65-214.78,37.33-39.43,7-78.73,14.32-118,21.76-.57.11.19,3.62.32,5.55l-7.5,3.71Z"/><path class="cls-13" d="M1178.77,521.07l17.41-14.39,27.63,5.27q3.89,8.9,7.75,17.79-1.05,6.81-2.06,13.64l-38.34,9.86-16.63-9.67Q1176.65,532.32,1178.77,521.07Z"/><path class="cls-16" d="M1231.57,529.74,1223.81,512l83.8-.48,14.18,13Z"/><path class="cls-11" d="M1237.82,616.76l-59.77-7.88,86-15.13,12.8,9.14c0,1.74,0,3.48,0,5.22Z"/><path class="cls-8" d="M1335.3,561.25l58.93,4-79.21,23L1244,584.67l-20.17-8.88-13.3-1c5.45-2.75,10.61-7.54,16.38-7.93C1262.94,564.42,1299.14,563,1335.3,561.25Z"/><path class="cls-16" d="M1244,584.67l71,3.61-51,5.47-86,15.13q-16.82.25-33.61.47Q1194.23,597,1244,584.67Z"/><path class="cls-17" d="M1335.3,561.25c-36.16,1.75-72.36,3.17-108.43,5.58-5.77.39-10.93,5.18-16.37,7.94l-84.59,1.68-52.66.08c17.2-3.17,34.48-6.17,51.59-9.56,22.18-4.41,44.22-9.14,66.32-13.72l38.35-9.87,73-.25c6,3,12.11,6,17.93,9.19C1325.6,555.14,1330.38,558.26,1335.3,561.25Z"/><path class="cls-14" d="M1302.56,543.13l-73,.25q1-6.82,2-13.64l90.23-5.23c7.62,1.54,16.08,2.12,22.61,4.91,6.1,2.61,10.16,7.57,15.09,11.47q-12.06.5-24.08,1l-19.84.91Z"/><path class="cls-17" d="M1315.57,542.82l19.84-.91Z"/><path class="cls-4" d="M1125.91,576.45l84.59-1.68,13.3,1c-6.19,3.06-11.78,7.59-18.66,9-50.25,10-100.77,19.43-151.21,29l-71.78,2.06-53.1-1.22c46.44-8.1,93-15.85,139.26-24.46C1087.87,586.52,1106.73,581.07,1125.91,576.45Z"/><path class="cls-17" d="M929,614.63l53.11,1.21c-7.91,4.1-15.21,9-23.89,12-11.06,3.8-23.23,6-34.92,8.9l-20.42,1.31q-29.55-2.15-59.11-4.32l6.89-5.37,12.78-13Z"/><path class="cls-11" d="M1053.93,613.78c50.44-9.6,101-19,151.21-29,6.88-1.37,12.47-5.9,18.66-9l20.16,8.88-99.52,24.68Z"/><path class="cls-14" d="M1157.4,484q-76.44,12.08-152.87,24.15C936.76,519,869.12,530.24,801.24,540.74c-21.18,3.27-43.21,3.85-64.37,7.16C670.61,558.26,604.06,568,538.62,580.54c-56.45,10.8-111.55,25.07-167.24,37.81L344.51,614l33.27-14.56c37.44-6.41,74.81-13,112.34-19.19,74.56-12.23,149.3-23.93,223.79-36.37,58.18-9.72,115.73-21.39,174.2-30.12,74.78-11.18,150.22-20.21,225.31-30.39,5.95-.81,11.43-3.36,17.13-5.1q-1.33-3.15-2.65-6.32c-19.71,2.76-39.37,7.66-59.14,7.88-65.2.71-128.34,6-191.71,19.1-71,14.65-145.67,20.54-217.93,32.61C565,547.26,471.66,565.3,378,582.47c-1.53.28-2.45,2.19-4.89,4.53L392,592.26l-14.14,7.22-32.94.07-20.29-9.31c5.33-3,10-7.66,16.08-8.83C425.38,565,509.94,548.07,595.2,533.14c69.78-12.22,140.35-22.29,210.74-32.73,57.67-8.56,115.75-15.75,173.34-24.53,33-5,65.46-12,98.15-18.12l58.77-.38c.25.68.51,1.36.77,2l-13.21,2.69Z"/><path class="cls-2" d="M1102.9,424.57l40.67.34,25.73-4.45,19.76.28,39.44,11.86-20,2.25L1091,444.36l-46,3.81-45.84-3.79-97.79,4.27-99.64-2.77-65,.69L723.5,447q-19.35.08-38.72.15l-27-.52-58.69,1-6.93.32-25.86.18-6.39-1.49c20.92-3.06,42-5.6,62.65-9.44,7.95-1.48,14.76-5.92,22.09-9l235.83-3,46.3-.86Z"/><path class="cls-8" d="M1157,447.8l78.57-.51C1218,460.47,1174.55,460.75,1157,447.8Z"/><path class="cls-11" d="M736.79,446.57l65-.69c-45.73,7-91.51,13.86-137.16,21.13C586.39,479.47,508.27,492.29,430,504.79c-55.38,8.84-110.86,17.39-166.31,26.07L250.5,514.5C328.76,499.3,407,483.9,485.35,469c18.68-3.55,38.45-4.46,56.89-8.44,9-1.94,16.11-8.15,24.07-12.41q12.93-.07,25.85-.18l6.94-.31,58.69-1c-32.37,6.31-64.95,12.17-97,19.15-16.06,3.49-31.21,9-46.77,13.65l-19.86,1.37,1.5,3.75,18.4-5.09c53.44-6.64,107-13,160.19-20.4,4.47-.62,7.08-7.78,10.56-11.9L723.5,447Z"/><path class="cls-4" d="M999.31,448.78l-31.9,10.85q-2-4.65-4-9.3l35.81-1.59Z"/><ellipse class="cls-10" cx="255.76" cy="538.43" rx="1.58" ry="4.82" transform="translate(-7.86 3.8) rotate(-0.84)"/><path class="cls-17" d="M344.51,614l26.87,4.35q39.67.64,79.38,1.27c-4.8,3.85-8.55,9.49-14.59,11.22-14.12,4-29.34,6.18-44.11,9.09l-85.48,2-52.83-.52c14.21-3,29.05-5.12,42.37-9.48,6.78-2.23,10.8-8.55,16.07-13Z"/><path class="cls-17" d="M516.67,639.22l-65.92,0c12-2.81,24.72-4.71,35.78-8.79,6.65-2.46,10.72-8.33,16-12.67L534.66,613l40.43,8.26Z"/><path class="cls-18" d="M502.48,617.81c-5.23,4.34-9.3,10.21-16,12.67-11.06,4.08-23.77,6-35.78,8.79l-58.69.66c14.77-2.91,30-5.06,44.11-9.09,6-1.73,9.79-7.37,14.59-11.22Q476.62,618.73,502.48,617.81Z"/><path class="cls-4" d="M1178.77,521.07c-1.42,7.5-2.83,15-4.28,22.5-36.57,2.7-73.26,4.65-109.61,8.27-67.26,6.71-134.32,14.39-201.47,21.67-19.43,4.7-38.58,10.07-58.33,14C757,597,708.65,605.82,660.41,614.92l-33.31,2.26-32.83,1.28a6.26,6.26,0,0,0-5.77.06,57.82,57.82,0,0,0-5.91-1c-.13-1.93-.89-5.44-.32-5.55,39.25-7.44,78.55-14.78,118-21.76,71.51-12.68,142.83-26,214.78-37.33,40-6.3,81.3-8.73,121.85-13.6C1084.27,533.61,1131.48,527.18,1178.77,521.07Z"/><path class="cls-18" d="M582.59,617.53c2,.23,4,.56,5.9,1l5.78,0,32.83-1.28c-5.37,4.28-10.35,8.84-16.23,12.76-4.85,3.22-10.76,5.67-16.21,8.46l-12.95.09-13,.13-52.08.6,58.43-18Z"/><path class="cls-8" d="M863.41,573.51c67.15-7.28,134.21-15,201.47-21.67,36.35-3.62,73-5.57,109.61-8.27l16.67,9.67c-22.1,4.59-44.14,9.32-66.32,13.73-17.11,3.39-34.39,6.39-51.59,9.56l-65.64.21-111.13,1.35Z"/><path class="cls-14" d="M1007.61,576.73l65.64-.2,52.66-.08c-19.18,4.62-38,10.07-57.6,13.71-46.24,8.61-92.82,16.36-139.26,24.46l-65.57.74L850.58,619l-13.05-5c2.21-2.42,3.88-6.58,6.72-7,47.16-7.18,94.55-13.61,141.65-21C993.73,584.79,1000.4,579.92,1007.61,576.73Z"/><path class="cls-18" d="M837.53,614l13.05,5,.12,9.37-6.89,5.37-196.12,4.81c18.13-3.07,36.63-5.4,54.22-9.58,6.92-1.65,11.82-7.43,17.65-11.34l71.7-1.87q4.53,6,9.07,12l11-12.65Z"/><path class="cls-17" d="M719.56,617.67c-5.83,3.9-10.73,9.68-17.65,11.33-17.59,4.18-36.09,6.51-54.22,9.58l-53-.18c5.44-2.79,11.35-5.24,16.2-8.46,5.88-3.92,10.86-8.48,16.23-12.76l33.31-2.25,39.16,1.37Z"/><path class="cls-15" d="M850.7,628.4l-.12-9.37,12.9-3.67Z"/><path class="cls-4" d="M377.84,599.48,392,592.26,373.14,587c2.44-2.34,3.36-4.25,4.89-4.53,93.63-17.17,187-35.21,281.09-50.93,72.26-12.07,146.9-18,217.93-32.61,63.37-13.07,126.51-18.39,191.71-19.1,19.77-.22,39.43-5.12,59.14-7.88q1.32,3.17,2.65,6.32c-5.7,1.74-11.18,4.29-17.13,5.1-75.09,10.18-150.53,19.21-225.31,30.39-58.47,8.73-116,20.4-174.2,30.12C639.42,556.32,564.68,568,490.12,580.25c-37.53,6.15-74.9,12.78-112.34,19.19Z"/><path class="cls-4" d="M514,479.42c15.56-4.62,30.71-10.16,46.77-13.65,32.07-7,64.65-12.84,97-19.15l27,.52c-3.47,4.13-6.08,11.29-10.55,11.91C621,466.41,567.48,472.81,514,479.45Z"/><path class="cls-4" d="M736.79,446.57,723.5,447Z"/><path class="cls-4" d="M599.1,447.66l-6.94.31Z"/><path class="cls-4" d="M514,479.45l-18.4,5.09-1.5-3.75L514,479.42Z"/><path class="cls-11" d="M699.57,616.3l-39.16-1.37C708.65,605.82,757,597,805.08,587.48c19.75-3.9,38.9-9.27,58.33-14l33.07,4.57c-8.68,3-16.93,7.19-26.1,8.82C813.56,597,756.53,606.57,699.57,616.3Z"/><path class="cls-17" d="M594.27,618.46l-5.78,0A6.34,6.34,0,0,1,594.27,618.46Z"/><path class="cls-4" d="M699.57,616.3c57-9.73,114-19.28,170.81-29.4,9.17-1.63,17.42-5.81,26.1-8.82l111.13-1.34c-7.21,3.18-13.88,8-21.71,9.27-47.1,7.37-94.49,13.8-141.65,21-2.84.43-4.51,4.59-6.72,7l-26.24,1.18-20,.61-71.7,1.87Z"/><path class="cls-17" d="M791.26,615.79l20-.61-11,12.65Q795.78,621.82,791.26,615.79Z"/><path class="cls-19" d="M1381.9,9.79l-87.68,16.92-12.9-4.08L1162,22.4c31.84-3.06,63.79-5.69,95.48-9.42,10.4-1.23,20.12-5.29,30.16-8.06l83.91-1.87L1382,6.21A3.38,3.38,0,0,0,1381.9,9.79Z"/><path class="cls-3" d="M30.42,90,68.55,67.25a17,17,0,0,1,5.89,1.51,6.74,6.74,0,0,0,1.16,2.07,7.56,7.56,0,0,0,2.22,1c4.31-4.93,8.51-9.89,12.72-14.85l4.89,7.92c9.73,2,19.52,5.77,29.2,5.65,26.83-.35,53.68-1.94,80.42-3.79,19.38-1.33,38.58-3.86,57.87-5.85,35.09-6.28,70.3-12.29,105.21-19,8.84-1.71,16.74-5.78,25.08-8.76l13,.08L452,46c-59.44,9.67-119.28,18.32-178.12,29.53-22.15,4.23-42,14.41-62.85,21.87l-9.32,1.35-37.45-1.14Z"/><path class="cls-2" d="M406.25,33.14l-13-.09-151-2.44-12.62.19-13.42,2.66-31.86,1L53.2,34.71,42.88,21l94.78-.62,111.71-.78,12.84-.09,26.29.12,248.06-1.09c-.18,1.66-.35,3.32-.53,5l-11.58-.31-27.07,4.15L438.13,32Z"/><path class="cls-12" d="M262.92,60.86c-19.29,2-38.49,4.52-57.87,5.85-26.74,1.85-53.59,3.44-80.42,3.79-9.68.12-19.47-3.65-29.2-5.65l-4.89-7.92c-4.21,5-8.41,9.92-12.72,14.85a7.56,7.56,0,0,1-2.22-1,6.74,6.74,0,0,1-1.16-2.07l-27-16.59A12.42,12.42,0,0,0,47,48.66l98.12-.82,33.3,4.23Z"/><path class="cls-4" d="M145.08,47.84,47,48.66l-5.88,3.4L0,47.43,53.2,34.71q65.57-.15,131.13-.3Z"/><path class="cls-3" d="M41.09,52.06,47,48.66a12.78,12.78,0,0,1,.5,3.51Z"/><path class="cls-18" d="M108.4,230l-45.54.29L51,212.72c25.09-.16,46.35.58,67.31-.82,10.09-.67,19.62-5.39,29.4-8.27l32.18-.84c-10.68,4.62-21.09,9.58-32.11,13.75C134.91,221.4,121.54,225.56,108.4,230Z"/><path class="cls-17" d="M108.4,230c13.14-4.46,26.51-8.62,39.34-13.48,11-4.17,21.43-9.13,32.11-13.75l13.19-.33,19.62,13.6L187.08,229.3,179,231Z"/><path class="cls-9" d="M147.67,203.63c-9.78,2.88-19.31,7.6-29.4,8.27-21,1.4-42.22.66-67.31.82l11.9,17.59c-37,2.47-10.22-17.76-18.58-25.48v-.27a11.33,11.33,0,0,0,4.95-.93Z"/><path class="cls-10" d="M49.5,162.5l-28.59-27L94.14,134l103,3.37,2,10.33-1,3.65L151,156.4l-23.93,1.25-26.16,0Z"/><path class="cls-4" d="M94.14,134l-73.23,1.5-6.54-3.16c31.44-7.14,63.12-13.82,94.2-21.66,9.15-2.31,16.6-7.91,24.83-12l30.8-1,37.44,1.14c-1,2.86-2,5.72-3,8.58Z"/><path class="cls-8" d="M133.4,98.66c-8.23,4.09-15.68,9.69-24.83,12-31.08,7.84-62.76,14.52-94.2,21.66q2-9.93,4-19.87Z"/><path class="cls-15" d="M133.4,98.66,18.34,112.45q6-11.24,12.08-22.46l133.79,7.62Z"/><path class="cls-9" d="M49.5,162.5l51.42-4.89q-.18,4.44-.38,8.9l-45.15.65a12.05,12.05,0,0,0-4.6-.17Z"/><path class="cls-16" d="M50.79,167a12.05,12.05,0,0,1,4.6.17L76.11,181l-25.8,8.59a3.37,3.37,0,0,1-3.3.92Z"/><path class="cls-20" d="M49.23,203.63a11.33,11.33,0,0,1-4.95.93L47,190.51a3.37,3.37,0,0,0,3.3-.92c-.2,3.1-.39,6.19-.58,9.29C49.56,200.46,49.39,202.05,49.23,203.63Z"/><path class="cls-6" d="M1292.57,31.89l34.09,13.33c-10.24,3-20.38,6.18-30.75,8.94-11.45,3.05-23.12,5.71-34.68,8.54l-116.18,5.41c-.26-2.75-.51-5.51-.76-8.26l18.72-.51,62.22-6.74q-1.35-5.07-2.71-10.13l-72.13,12.34-71.19,5c-2.07-18.74,18.72-12,31.76-13.89l85-9.34.12-.06,13.23-.24Z"/><path class="cls-8" d="M1261.22,62.7c11.57-2.83,23.24-5.49,34.69-8.54,10.37-2.76,20.51-5.94,30.75-8.94l50.27,13.66q-7.42,13.77-14.85,27.54l-49.1-6c-5.7-5.6-9.78-13.83-17.52-16.18C1285.59,61.23,1272.77,63,1261.22,62.7Z"/><path class="cls-16" d="M1292.57,31.89l-83.3,4.41q.06-4.29.13-8.58l71.92-5.09,12.9,4.08Z"/><path class="cls-2" d="M1221,0l66.64,4.91c-10,2.78-19.76,6.84-30.16,8.07-31.69,3.73-63.64,6.36-95.47,9.42l-61.08,1.94L979,24.84l-10.5,0-171.27.79q-12.66.09-25.34.18l-19.65,3.81-45.85,1.62-84.5-4.36-45.55.3.16-2.53,38.24-7,456.55-3.4,33.4-8.46L1117.34,1l1.65.19,56.38-.71Z"/><path class="cls-6" d="M1101,24.34,1162,22.4l119.31.23-71.93,5.09L1196,36.54l-.12.06-85.23,1L1072,37.52l.21-8.35Z"/><path class="cls-17" d="M1342.29,203.62l32.49,10.07c-8.69,2.81-17.27,7.88-26.09,8.08-54.25,1.23-108.55,1.37-162.84,1.87,6.84-3.12,13.13-7.39,20.64-9.12,16.58-3.84,33.78-6.4,50.72-9.48Z"/><path class="cls-17" d="M1113.14,224.58l-97.39-.37c4.18-2.86,7.86-7.64,12.62-8.24,20.1-2.52,41-2.57,60.69-5.93,15.21-2.59,29.17-8.78,43.69-13.36l32.65-.32q.35,6.64.71,13.29L1127,223.34Z"/><path class="cls-18" d="M1127,223.34l39.1-13.68,64.33-5,13.5-8.77,13-.14c.1,3.1.19,6.21.28,9.31-16.94,3.08-34.14,5.64-50.72,9.48-7.51,1.73-13.8,6-20.64,9.12Z"/><path class="cls-8" d="M1256.93,195.73l-13,.14-13.49,8.77-64.33,5q-.35-6.66-.7-13.3l19.65-9.25,12.9-.32c13.06,6,25.44,9.62,32.67-4.59,2.07-.12,4.15-.18,6.22-.19l26.33-9,12.38-.55,7.24.39c4.92,2.44,10.23,7.26,14.69,6.9,19.3-1.54,38.36-4.6,57.51-7.1l-18.87,22.28Z"/><path class="cls-6" d="M1355,172.6c-19.15,2.5-38.21,5.56-57.51,7.1-4.46.36-9.77-4.46-14.69-6.9l19.88-9.43c1.88,0,3.76,0,5.65,0l65.81-.3-10.47,5.36-8.84,4.16Z"/><path class="cls-12" d="M1374.13,163.11l-65.81.3,19.89-13.9,45.88-9.14c1.26.25,2.53.49,3.82.7Z"/><path class="cls-10" d="M1256.93,195.73l79.19-.85,6.17,8.74L1257.21,205C1257.12,201.94,1257,198.83,1256.93,195.73Z"/><path class="cls-8" d="M1354.83,172.63l8.83-4.16Z"/><path class="cls-10" d="M1313,80.4l49.1,6c-1.5,4.3-3,8.62-4.5,12.93l-50.79,1-102.82.33c-13.4-14.4-26.77-14.33-40.1,0l-6.26,4.63.17-.25-24.07-1.13q-.11-7.72-.22-15.44Z"/><path class="cls-10" d="M1374.09,140.37l-45.88,9.14L1300,141.9l-30.86.08q0-7.3,0-14.58l31.85-1.26,61.56-5.33Z"/><path class="cls-12" d="M1362.56,120.81,1301,126.15q-.08-8.84-.18-17.7l6-8.13,50.79-1Z"/><path class="cls-17" d="M363.21,228l-59.38,2.19-11.05.05-60.69.08.59-.85c14.25-4.55,28.88-8.61,42.63-13.8,10.12-3.82,19.11-9.11,28.6-13.75l25.35-1,20.5.68,117.51.06c-7.48,2.85-14.55,6.56-22.5,8.42C417.75,216.36,390.42,222,363.21,228Z"/><path class="cls-4" d="M438.13,32l59.25-4.67,27.07-4.15c3.86.1,7.72.21,11.58.3l46.62,8.38c-4.24,2.86-7.85,7.43-12.81,8.31-39.08,6.92-78.41,13.14-117.67,19.58L439.11,64,413,69l.12,0-32.7,4.81.05-.07-32.4.57L236.15,98.17,211,97.4c20.88-7.46,40.7-17.64,62.85-21.87C332.67,64.32,392.51,55.67,452,46l48.42-7.58-.27-6.83Z"/><path class="cls-4" d="M262.92,60.86l-84.55-8.78c14.86-3,30.23-5.24,44.39-9.44,7.57-2.24,13.05-7.91,19.47-12l151,2.44c-8.34,3-16.24,7.06-25.08,8.77C333.22,48.57,298,54.58,262.92,60.86Z"/><path class="cls-13" d="M211,97.4l25.17.76q4,26.91,8.07,53.81a45.56,45.56,0,0,0-6.11,1l-32.32-1-6.68-4.31q-1-5.18-1.94-10.32l1.44-30c1-2.86,2-5.72,3-8.58Z"/><path class="cls-14" d="M438.13,32l62-.41.27,6.83L452,46l-45.7-12.86Z"/><path class="cls-3" d="M242.23,30.61c-6.42,4.12-11.9,9.79-19.47,12-14.16,4.2-29.53,6.4-44.39,9.44l-33.29-4.24,39.25-13.43,31.86-.95,13.42-2.66Z"/><path class="cls-5" d="M536.56,18.51l78.22-.82-38.24,7-.16,2.53,45.54-.3c-.12,1.55-.24,3.1-.37,4.65l-38.89.31L536,23.48C536.21,21.83,536.38,20.17,536.56,18.51Z"/><path class="cls-5" d="M524.45,23.18l-27.07,4.15Z"/><path class="cls-4" d="M229.61,30.8l-13.42,2.66Z"/><path class="cls-16" d="M49.23,203.63c.16-1.58.33-3.17.5-4.76l116.59-5.65L206,198.45c.07,1,.14,2.07.2,3.11l-13.17.9-13.19.33-32.18.84Z"/><path class="cls-18" d="M303.91,201.89c-9.49,4.64-18.48,9.93-28.6,13.75-13.75,5.19-28.38,9.25-42.63,13.8l-45.6-.13,25.58-13.25,59-13.29Z"/><path class="cls-9" d="M271.61,202.77l-59,13.29L193,202.46l13.17-.89Z"/><path class="cls-3" d="M198.61,107.33l-1.44,30L94.14,134Z"/><path class="cls-16" d="M205.79,152l32.32,1q-13,11.12-26,22.26l-32.88-3.12c3.18-16.26-14.12-14.61-28.24-15.74l47.08-5.06Z"/><path class="cls-4" d="M151,156.4c14.12,1.13,31.42-.52,28.23,15.73l-32,4.68-20.08-.6-.12-18.56Z"/><path class="cls-16" d="M127.08,157.65l.12,18.56-19.61,3.07-7-12.77q.19-4.45.38-8.9Z"/><path class="cls-9" d="M205.79,152l-7.7-.65,1-3.66Z"/><path class="cls-4" d="M100.54,166.51l7.06,12.77L76.11,181,55.39,167.16Z"/><path class="cls-10" d="M76.11,181l31.49-1.72,19.6-3.07q10,.3,20.08.58l19,16.42L49.73,198.87q.29-4.63.58-9.28Z"/><path class="cls-4" d="M467.27,201.61l-117.51-.06c78.73-15.75,157.2-32.21,236.3-47,53.64-10,108.12-17.89,162.3-26.5,80-12.7,159.89-25.48,240-37.67,52.07-7.92,104.45-14.87,156.7-22.25l116.17-5.4c11.54.29,24.36-1.47,34.23,1.52,7.74,2.35,11.82,10.58,17.52,16.18l-179.5,8.09C1117,92.8,1101,98.63,1084,101.2c-76.35,11.51-153.27,21.22-229.44,33.25-69.5,11-138.45,23.69-207.36,36.38-42.93,7.91-85.33,17.21-128,25.88l-19.44,3.85Z"/><path class="cls-4" d="M271.61,202.77l-65.4-1.2c-.06-1-.13-2.09-.2-3.13l150.55-18-1.2-5.45L343,174.11c59.92-12.49,119.48-25.92,179.85-37.21,61-11.41,122.77-20.67,184.18-30.95,70.35-11.77,140.15-25.59,211.19-34.8,52.85-6.84,107.28-7.76,161-11.32q35.6-2.51,71.2-5L1163,59.34l-18.72.5c-37.16,6.19-74.16,12.91-111.52,18.44-57.36,8.5-115,16-172.46,24.25C800.74,111.08,741,119.09,681.87,129q-135.23,22.74-269.51,48.18c-28.65,5.47-55.45,15.63-83.1,23.65l-25.35,1Z"/><path class="cls-14" d="M1079.2,59.83c-53.73,3.56-108.16,4.48-161,11.32-71,9.21-140.84,23-211.19,34.8-61.41,10.28-123.21,19.54-184.18,31C462.45,148.19,402.89,161.62,343,174.11l-13.31-3.94c19.24-6,37.8-13.62,57.84-17.71,66.4-13.53,133-26.71,200.14-38.31,89-15.37,178.46-29.4,267.9-43.47,63.23-9.94,126.75-19,190.15-28.42L1072,37.52l38.74.11.27,8.31C1097.92,47.83,1077.13,41.09,1079.2,59.83Z"/><path class="cls-14" d="M329.26,200.87c27.65-8,54.45-18.18,83.1-23.65Q546.52,151.58,681.87,129c59.1-9.95,118.87-18,178.44-26.51,57.44-8.26,115.1-15.75,172.46-24.25,37.36-5.53,74.36-12.25,111.52-18.44q.38,4.14.76,8.27c-52.24,7.37-104.62,14.32-156.69,22.24-80.11,12.19-160,25-240,37.67-54.18,8.61-108.66,16.46-162.3,26.5-79.1,14.82-157.57,31.28-236.3,47Z"/><path class="cls-8" d="M1163,59.34l-12.61-4.52,72.12-12.35q1.35,5.07,2.71,10.13Z"/><path class="cls-8" d="M1111,45.94l-.27-8.31,85.23-1Z"/><path class="cls-8" d="M1196,36.54l13.35-8.82-.12,8.58Z"/><path class="cls-4" d="M1045.68,42.26C982.29,51.7,918.77,60.74,855.54,70.68c-89.44,14.07-178.91,28.1-267.9,43.47-67.14,11.6-133.74,24.78-200.14,38.31-20,4.09-38.6,11.71-57.84,17.71l-117.53,5.09q13-11.13,26-22.26a45.44,45.44,0,0,1,6.12-1c6.8-.49,18,.46,19.47-1.77,2.83-4.2,3.06-13.13-.79-15-25.78-12.8-10.15-18,7.73-21.81,29.49-6.29,59.39-11.67,89.21-17.17C410.19,86.88,460.61,77.79,511,68.61c10.77-.39,21.77.07,32.27-1.31,58.42-7.67,116.86-15.33,175-24,18.28-2.73,35.61-8.6,53.38-13a12.21,12.21,0,0,1,.32-4.42l25.34-.19c6.66,4.33,12.59,11.41,20.15,12.4,14.57,1.91,30.07.38,45.18.27-32.41,6.35-64.53,13.58-97.3,18.86C663.2,73.67,560.68,88.94,458.64,105.62,407.52,114,357,124,306.48,134.14c-10.2,2-18.86,7.84-28.23,11.9a94.55,94.55,0,0,0,37.17-.08c85-16.76,169.68-34.55,255-50.47,37.46-7,76.55-9.6,114.46-15.53,65.4-10.23,130-23.56,195.85-31.62C926.31,42.77,973.55,43.88,1020,42Z"/><path class="cls-11" d="M1020,42c-46.48,1.87-93.72.76-139.27,6.33C814.86,56.4,750.31,69.73,684.91,80c-37.91,5.93-77,8.55-114.46,15.53-85.35,15.92-170,33.71-255,50.47a94.55,94.55,0,0,1-37.17.08c9.37-4.06,18-9.86,28.23-11.9C357,124,407.52,114,458.64,105.62c102-16.68,204.56-31.95,306.67-48.43,32.77-5.28,64.89-12.51,97.31-18.85l25.4-.72,14.13-3.48,66.39-9.27,10.51,0c3.68,19.69,26.18,9.88,40.66,12.64C1019.76,39,1019.87,40.5,1020,42Z"/><path class="cls-4" d="M621.55,31.57c.13-1.56.25-3.11.37-4.66l84.51,4.35c-2.19,2.44-3.88,6.66-6.66,7.05C636.9,47.1,573.9,55.47,510.94,63.91l-19.7.07c40.18-7.83,80.45-15.47,120.43-23.78C615.82,39.34,618.3,34.54,621.55,31.57Z"/><path class="cls-11" d="M510.94,63.91c63-8.44,126-16.81,188.83-25.6,2.78-.39,4.47-4.61,6.66-7l45.84-1.61,19.35.62c-17.77,4.43-35.1,10.3-53.38,13-58.12,8.67-116.56,16.33-175,24-10.5,1.38-21.5.92-32.26,1.31Z"/><path class="cls-5" d="M968.54,24.87l-66.39,9.27L888,37.62l-25.4.72c-15.12.1-30.62,1.63-45.19-.28-7.56-1-13.49-8.07-20.15-12.4Z"/><path class="cls-5" d="M1019.71,37.47c-14.48-2.76-37,7.05-40.66-12.64l121.88-.49-28.77,4.83Z"/><path class="cls-21" d="M1071.87,5.88l32.85,0-33.39,8.46Z"/><path class="cls-5" d="M771.62,30.27l-19.35-.62,19.66-3.81A12.5,12.5,0,0,0,771.62,30.27Z"/><path class="cls-8" d="M1019.71,37.47l52.45-8.3-.21,8.35-26.26,4.74L1020,42C1019.87,40.5,1019.76,39,1019.71,37.47Z"/><path class="cls-17" d="M898.25,225l-137.17.55,53.79-16.22-14.82-10.91a38.75,38.75,0,0,1,5.66-1.06l98.94.48h104.4c-9.68,2.92-19.12,6.33-29.08,8.68C952.85,212.94,925.5,218.9,898.25,225Z"/><path class="cls-18" d="M898.25,225c27.25-6.13,54.6-12.09,81.72-18.49,10-2.35,19.4-5.76,29.08-8.69l26-.85c10.1,1.36,20.26,4.07,30.27,3.81,22.53-.6,45-2.66,67.48-4.13-14.52,4.58-28.48,10.77-43.69,13.36-19.74,3.36-40.59,3.41-60.69,5.93-4.76.6-8.44,5.38-12.62,8.24Z"/><path class="cls-18" d="M800.05,198.45l14.82,10.91-53.79,16.22-143.36,1c17.87-4.46,35.49-9.56,53.69-13.23,25.29-5.1,51-9.13,76.57-13.63Z"/><path class="cls-17" d="M748,199.69c-25.54,4.49-51.28,8.52-76.57,13.62-18.2,3.67-35.82,8.77-53.69,13.23l-78.59.37c7.58-2.91,14.89-6.23,22.78-8.66,20.46-6.29,41.16-12.19,61.77-18.25l26-4.12,20,3.54Z"/><path class="cls-17" d="M499.76,200.56l19.44-3.85,20.06,3.49,58.6.48c-8.57,2.88-16.83,6.37-25.76,8.53-26,6.3-52.25,12.07-78.4,18l-72.08.36c14.36-4.35,29-8.35,43-13.16C476.67,210.31,488.07,205.23,499.76,200.56Z"/><path class="cls-18" d="M499.76,200.56c-11.69,4.67-23.09,9.75-35.15,13.89-14,4.81-28.63,8.81-43,13.16l-58.41.36c27.21-5.93,54.54-11.61,81.56-17.94,8-1.86,15-5.57,22.5-8.42Z"/><path class="cls-18" d="M493.7,227.26c26.15-6,52.41-11.75,78.4-18,8.93-2.16,17.19-5.65,25.76-8.53l25.82-.68c-20.61,6.06-41.31,12-61.77,18.25-7.89,2.43-15.2,5.75-22.78,8.66Z"/><path class="cls-14" d="M1132.75,196.68c-22.49,1.47-45,3.53-67.48,4.13-10,.26-20.17-2.45-30.27-3.81q74.38-14.1,148.69-28.42c.66-.13,0-3.5,0-5.36,6.82-4.19,12.75-10.61,20.64-12.15,21.16-4.14,43.15-6.2,64.82-9.08l30.88-.1c-4,2.59-7.5,6-12.24,7.65-18.56,6.37-37.53,12.17-56.34,18.18l-82.29,17.07,1.5,2.55,34.41-.23-19.65,9.25Z"/><path class="cls-17" d="M1230.43,204.64l13.49-8.77Z"/><path class="cls-4" d="M1185.05,187.11l-34.41.23-1.5-2.55,82.28-17.06,43.92-3.16.21,7.84-12.38.55-26.33,9c-2.07,0-4.15.07-6.22.19L1198,186.79Z"/><path class="cls-14" d="M1198,186.79l32.67-4.59C1223.39,196.41,1211,192.77,1198,186.79Z"/><path class="cls-14" d="M1236.84,182l26.33-9Z"/><path class="cls-14" d="M1275.55,172.41q-.1-3.91-.2-7.85l27.32-1.19-19.88,9.43Z"/><path class="cls-17" d="M1302.67,163.37l-27.32,1.19q-22,1.6-43.93,3.17c18.82-6,37.79-11.82,56.35-18.19,4.74-1.63,8.21-5.06,12.24-7.65q14.09,3.83,28.2,7.62l-19.89,13.9C1306.43,163.42,1304.55,163.4,1302.67,163.37Z"/><path class="cls-4" d="M623.68,200l-25.82.68-58.6-.48c53.41-10,106.64-20.43,160.27-29.77,76.4-13.3,152.86-26.55,229.75-38.36,67.82-10.42,136.26-18.83,204.43-28.13l24.07,1.13q-1.68,10-3.4,20c-21.27,1.27-42.88,1.3-63.67,4.19-19.51,2.71-38.16,8.43-57.19,12.83L881,153.73l.86,8,74.26-.49,19.12.16c-4,2.88-7.49,7.64-12.17,8.33-48.77,7.1-97.78,13.4-146.58,20.42-4.14.6-7.24,4.74-10.82,7.24a38.75,38.75,0,0,0-5.66,1.06L748,199.69l-78.34-.27c5.79-1.51,11.42-3.53,17.4-4.45,53-8.14,106.08-16.1,166.91-25.28-12.16-3.86-16.48-6.58-19.65-6-61.62,10.52-123.11,21.41-184.62,32.23Z"/><path class="cls-14" d="M1133.71,103.94c-68.17,9.3-136.61,17.71-204.43,28.13-76.89,11.81-153.35,25.06-229.75,38.36-53.63,9.34-106.86,19.81-160.27,29.77l-20.06-3.49c42.64-8.67,85-18,128-25.88,68.91-12.69,137.86-25.41,207.36-36.38,76.17-12,153.09-21.74,229.44-33.25,17-2.57,33-8.4,49.51-12.71Q1133.61,96.22,1133.71,103.94Z"/><path class="cls-13" d="M1154.41,125.11q1.68-10,3.37-20l-.17.25,6.26-4.63c13.33-14.38,26.7-14.45,40.1,0q4.18,10.78,8.36,21.57c-1,1.62-1.9,3.24-2.84,4.85-6.23,16.94-25.31,14.86-43.38,14.29Q1160.25,133.24,1154.41,125.11Z"/><path class="cls-16" d="M1212.35,122.21,1204,100.64l102.82-.33-6,8.15C1269.76,108.05,1239,108.51,1212.35,122.21Z"/><path class="cls-4" d="M1163.87,100.69l-6.26,4.63Z"/><path class="cls-17" d="M1166.12,141.35c18.06.57,37.14,2.65,43.37-14.28l59.66.33q0,7.28,0,14.58c-21.67,2.89-43.66,5-64.82,9.09-7.89,1.54-13.82,8-20.63,12.16l-110,2.32c6.86-4.81,12.63-12.29,20.81-13.93C1117.82,146.93,1142.16,144.61,1166.12,141.35Z"/><path class="cls-14" d="M1269.15,127.4l-59.66-.33c.94-1.62,1.88-3.24,2.84-4.86,26.62-13.7,57.43-14.16,88.51-13.75q.09,8.85.17,17.69Z"/><path class="cls-3" d="M510.94,63.91l.06,4.7c-50.39,9.18-100.81,18.27-151.15,27.57-29.82,5.5-59.72,10.88-89.21,17.17-17.88,3.82-33.51,9-7.73,21.81,3.85,1.91,3.62,10.84.79,15-1.5,2.23-12.67,1.28-19.47,1.77q-4-26.91-8.08-53.81L348,74.26c11.3,14,22.11,13.91,32.4-.56l-.05.07L413.08,69,413,69l26.15-5,13.06-4.26,6.88,4.58,32.36-.42-.17.07Z"/><path class="cls-14" d="M459.05,64.33l-6.88-4.58c39.26-6.44,78.59-12.66,117.67-19.58,5-.88,8.57-5.45,12.81-8.31l38.9-.3c-3.25,3-5.73,7.78-9.88,8.64-40,8.31-80.25,15.95-120.43,23.78l.17-.07Z"/><path class="cls-14" d="M380.43,73.7c-10.29,14.47-21.1,14.55-32.4.56Z"/><path class="cls-14" d="M413.08,69l-32.7,4.81Z"/><path class="cls-14" d="M439.11,64,413,69Z"/><path class="cls-9" d="M212.13,175.26l117.53-5.09L343,174.11l12.39.91,1.2,5.45L206,198.44q-19.84-2.59-39.69-5.22l-19-16.43,32-4.66Z"/><path class="cls-4" d="M888,37.62l14.13-3.48Z"/><path class="cls-11" d="M805.71,197.39c3.58-2.5,6.68-6.64,10.82-7.24,48.8-7,97.81-13.32,146.58-20.42,4.68-.69,8.14-5.45,12.18-8.33l78.93,8.33c-32.42,6.32-64.81,12.74-97.29,18.91-17.34,3.3-34.85,6.17-52.28,9.23Z"/><path class="cls-4" d="M904.65,197.87c17.43-3.06,34.94-5.93,52.28-9.23,32.48-6.17,64.87-12.59,97.29-18.91l19.42-4.18,110-2.32c0,1.85.67,5.22,0,5.35Q1109.44,183,1035,197l-26,.85Z"/><path class="cls-11" d="M649.68,195.88c61.51-10.82,123-21.71,184.62-32.23,3.17-.54,7.49,2.18,19.65,6C793.12,178.87,740.05,186.83,687,195c-6,.92-11.61,2.94-17.4,4.45Z"/><path class="cls-8" d="M1073.64,165.55l-19.42,4.18-78.93-8.33-19.13-.16c7.24-3.09,14-7.87,21.81-8.93,20-2.73,40.5-3.81,60.8-5.55a21.22,21.22,0,0,0-2.18-4.13c-.34-.44-2-.36-3.07-.52,19-4.4,37.68-10.12,57.19-12.83,20.79-2.89,42.4-2.92,63.67-4.19l11.73,16.26c-23.95,3.26-48.29,5.58-71.66,10.27C1086.27,153.26,1080.5,160.74,1073.64,165.55Z"/><path class="cls-9" d="M1033.52,142.11c1.06.16,2.73.08,3.07.52a21.22,21.22,0,0,1,2.18,4.13c-20.3,1.74-40.78,2.82-60.8,5.55-7.81,1.06-14.57,5.84-21.81,8.93l-74.26.49-.86-8Z"/><path class="cls-4" d="M459.05,64.33l32.36-.42Z"/><rect class="cls-22" x="130.49" y="65.63" width="1154" height="108" rx="54" ry="54"/><text class="cls-23" transform="translate(485.35 146.48)">Pause Menu</text><path class="cls-10" d="M70,787.93,38.34,763l4.73-3.42,80.12-1.34,90.66,3.48c16.44,8.87,31.56,9.08,44.78-3.32l54.1,4.26a8.18,8.18,0,0,1,.16,3.58L241.57,781l-61-.47Z"/><path class="cls-15" d="M59.11,845.84,72,814.07l25.6-.22c3,4.35,5.76,12.38,9,12.47,42.89,1.26,85.86,1.41,128.8,1.83l33.44,2.25c-4.68,3.32-8.53,8.13-14.2,9.69-14.51,4-29.84,6.49-44.84,9.59l-15.47,1.42c-18.52-.14-37.08.24-55.54-.54C112.22,849.43,85.68,847.45,59.11,845.84Z"/><path class="cls-12" d="M43.06,759.62,38.34,763c-3.49-6.28-10.55-12.84-9.58-18.76,1.24-7.53,9-14.53,13.91-21.76l9.3-4.64,136.17,3.66c-44.3,8-88.76,15.6-132.7,24.47C49.9,747.13,47.12,754.92,43.06,759.62Z"/><path class="cls-4" d="M70,787.93l110.62-7.36,18.91,5.57-10.31,4.28-25.53.41L150,799.67,98.18,805c-14.8.24-29.43.32-27.4-14.71C69.58,789.64,69.31,788.87,70,787.93Z"/><path class="cls-16" d="M70.78,790.27c-2,15,12.6,15,27.39,14.71-.18,3-.35,5.91-.53,8.87l-25.6.22Z"/><path class="cls-3" d="M188.14,721.54,52,717.88c-3.9-12.42,4-16.46,21.28-18.94,13.68-2,38.09,2.14,35.26-17.58,23.53,8.72,46.91,16.15,75.35,13.1,19.53-2.09,40.24.94,59.65-1.4,12.71-1.53,24-8.57,36-13.15,36.75-8.42,80.05-1.17,111.34-22.67l19.84-.26,19.55-.65,39.85-1.55,71.49.92C482.4,666.7,422.9,676.93,364.16,689c-43.61,8.93-92.66,5.84-130.31,28.16l-15,4.65Z"/><path class="cls-2" d="M470.09,654.77l-39.86,1.55-19.55.66-19.84.25L69.73,658.48,53.05,639l95.28-.62,39.35-3.6,32.9,3.78,85.34-.49,157.32-1.64,98,.35c-6.18,3.08-11.8,7.88-18.62,8.93C518.67,649.42,494.3,651.85,470.09,654.77Z"/><path class="cls-4" d="M69.73,658.48l321.11-1.25c-31.29,21.51-74.59,14.26-111.33,22.68L80.85,676.54l-34.34-6.15Z"/><path class="cls-12" d="M80.85,676.54l198.66,3.37c-12,4.58-23.29,11.62-36,13.15-19.41,2.34-40.12-.69-59.65,1.4-28.44,3-51.82-4.38-75.35-13.1Z"/><path class="cls-10" d="M1388.53,704.55q-3.69,16-7.37,32l-71.55-17-83.79.49-27.65-5.28a24.41,24.41,0,0,1,1.59-3.7l117-6h59Z"/><path class="cls-18" d="M1220.66,843.28l-53.16.41c12.81-2.89,25.79-5.47,38.39-8.76,11.52-3,22.64-6.75,33.93-10.17l39-8.64c11.22,1.07,22.4,2.69,33.66,3.06,15.28.5,30.63.05,46,0l12.55,5.45c-10.86,2.88-21.42,7.22-32.65,8.37C1299.26,837,1259.92,839.94,1220.66,843.28Z"/><path class="cls-6" d="M1397.24,768.23c16.07,16-1.07,22.33-17.19,29l-101.23,13.66-12.8-9.14,51-5.47,79.21-23Z"/><path class="cls-10" d="M1397.24,768.23q-.51,2.53-1,5.07l-58.93-4c-4.92-3-9.7-6.11-14.81-8.93-5.82-3.2-11.94-6.14-17.93-9.19l13-.31,19.84-.92,24.07-1L1389,750.1Q1393.15,759.16,1397.24,768.23Z"/><path class="cls-6" d="M1220.66,843.28c39.26-3.34,78.6-6.25,117.71-10.27,11.23-1.15,21.79-5.49,32.65-8.37l25.85,13.78c-46.9,1.55-93.79,3.17-140.69,4.61C1244.36,843.39,1232.5,843.21,1220.66,843.28Z"/><path class="cls-8" d="M1278.81,810.9l101.24-13.67-21.58,22c-15.33,0-30.68.49-46,0-11.26-.37-22.44-2-33.65-3.07C1278.84,814.37,1278.83,812.63,1278.81,810.9Z"/><path class="cls-17" d="M1389,750.1q-13.79-.61-27.55-1.21c-4.93-3.9-9-8.86-15.09-11.47-6.53-2.79-15-3.37-22.61-4.91l-14.19-13,71.56,17Z"/><path class="cls-4" d="M1388.53,704.55l-12.68.47,17.74-10.35q.81,4.43,1.6,8.83Z"/><path class="cls-15" d="M1239.82,824.76c-11.29,3.42-22.41,7.17-33.93,10.17-12.6,3.29-25.58,5.87-38.39,8.76l-32.6.31-209.56.78c11.69-2.9,23.86-5.1,34.92-8.9,8.68-3,16-7.94,23.89-12l71.78-2.08,90.49-4.42,33.63-.47Z"/><path class="cls-9" d="M1393.59,694.67,1375.85,705h-59l40.42-14.29L1159.4,692l-33.64-21.93,13.21-2.69c-.26-.67-.52-1.35-.77-2l-58.78.39-32.36-9.6,46-3.81,66,3.44c17.54,13,61,12.67,78.57-.51l78.47,4c23.5,7.38,47.34,14.29,70.2,22.54C1390.67,683.46,1391.24,690.27,1393.59,694.67Z"/><path class="cls-19" d="M1257.5,631.84l139.82-5.46c-22.89,20.23-53.54,18.75-80.44,23.65-12.24-1.47-24.39-3.55-36.71-4.28-23.17-1.38-46.44-2-69.66-2.9l20-2.25Z"/><path class="cls-12" d="M1210.5,642.85c23.23.92,46.5,1.52,69.67,2.9,12.32.73,24.47,2.81,36.71,4.28q-.41,4.65-.83,9.3l-78.47-4-78.57.51-66-3.44Z"/><path class="cls-5" d="M1210,627l46.52.58a21.6,21.6,0,0,1,1,4.22l-27,8.76-39.44-11.86,7.48-1.45Z"/><path class="cls-4" d="M1047.06,656.17l32.37,9.59c-32.69,6.11-65.12,13.09-98.15,18.12-57.59,8.78-115.67,16-173.34,24.53-70.39,10.44-141,20.51-210.74,32.73C511.94,756.07,427.38,773,342.69,789.41c-6.06,1.17-10.75,5.8-16.08,8.82l-117.5,1.66L241.57,781l71.32-14.75c11.81-.9,24-.83,35.34-2.85,87.36-15.54,174.31-32.21,261.89-47.11,88.52-15.07,177.27-29.73,266.63-42.05,34.81-4.79,71.59-2.4,107.42-3.92,10.68-.46,32.38,3.72,17.14-13.58l-.06,0c0-1.45,0-2.91,0-4.36Z"/><path class="cls-4" d="M312.73,762.7l-54.09-4.26q3.56-9.81,7.09-19.58c55.45-8.68,110.93-17.23,166.31-26.07,78.23-12.5,156.35-25.32,234.59-37.78,45.65-7.27,91.43-14.1,137.15-21.13l99.66,2.76c-11.76,3.35-23.12,7.84-35.33,9.84-46.92,7.69-94.26,14.13-141.16,21.88C633,703.88,539.16,719.5,445.6,736,400.93,743.83,357,753.72,312.73,762.7Z"/><path class="cls-14" d="M312.73,762.7c44.27-9,88.2-18.87,132.87-26.73C539.16,719.5,633,703.88,727,688.36c46.9-7.75,94.24-14.19,141.16-21.88,12.21-2,23.57-6.49,35.32-9.83l97.79-4.27c0,1.45,0,2.91,0,4.36l-35.81,1.59q2,4.65,4,9.3l31.9-10.85c15.24,17.3-6.46,13.12-17.14,13.58-35.83,1.52-72.61-.87-107.42,3.92-89.36,12.32-178.11,27-266.63,42.05-87.58,14.9-174.53,31.57-261.89,47.11-11.38,2-23.53,1.95-35.34,2.85A8.22,8.22,0,0,0,312.73,762.7Z"/><path class="cls-4" d="M188.14,721.54l30.68.22q-4.65,7-9.23,14l-86.4,22.56-80.12,1.34c4-4.7,6.83-12.49,12.37-13.61C99.38,737.14,143.84,729.53,188.14,721.54Z"/><path class="cls-13" d="M209.59,735.72q4.59-7,9.23-14l15-4.65,18.64,5.39,13.21,16.35q-3.52,9.79-7.07,19.59c-13.23,12.4-28.35,12.19-44.79,3.32Q211.74,748.76,209.59,735.72Zm49.24,7.3H256.6l.09,6.81h2.23Z"/><path class="cls-3" d="M209.59,735.72q2.13,13,4.26,26l-90.66-3.48Z"/><path class="cls-16" d="M241.57,781l-32.46,18.85L181.2,805l8-14.62,10.31-4.28-18.91-5.57Z"/><path class="cls-12" d="M189.21,790.42l-8,14.62,27.91-5.15,117.5-1.65,20.29,9.31c-32,4.67-64.1,9.14-96,14.19-5.56.88-10.32,4.21-15.46,6.41-42.94-.42-85.91-.57-128.8-1.83-3.25-.09-6-8.12-9-12.47.18-3,.35-5.91.53-8.87l51.81-5.3,13.7-8.85Z"/><path class="cls-4" d="M235.45,828.15c5.14-2.2,9.9-5.53,15.46-6.41,31.89-5,64-9.52,96-14.19l32.94-.07-.06,0L346.51,822l-32.32,4.92-45.3,3.48Z"/><path class="cls-18" d="M268.89,830.4l45.3-3.48c-5.27,4.46-9.29,10.78-16.07,13-13.32,4.36-28.16,6.45-42.37,9.48l-45.9.27c15-3.1,30.33-5.62,44.84-9.59C260.36,838.53,264.21,833.72,268.89,830.4Z"/><path class="cls-16" d="M163.68,790.83,150,799.68Z"/><path class="cls-4" d="M252.5,722.51l-18.64-5.4c37.64-22.32,86.69-19.23,130.3-28.16,58.74-12,118.24-22.25,177.41-33.26l20.35-1,6.39,1.48c-8,4.26-15.07,10.47-24.07,12.41-18.44,4-38.21,4.89-56.89,8.44C409,691.9,330.76,707.3,252.5,722.51Z"/><path class="cls-5" d="M561.93,654.66l-20.36,1-71.49-.91c24.22-2.93,48.59-5.36,72.55-9.08,6.82-1.05,12.44-5.85,18.62-8.93L594.33,635l52.33,1.19c-7.33,3.09-14.14,7.53-22.09,9C604,649.07,582.84,651.61,561.93,654.66Z"/><path class="cls-4" d="M410.68,657l19.55-.66Z"/><path class="cls-4" d="M1159.4,692l197.83-1.29L1316.81,705l-117,6c-27.69,3.18-55.51,5.87-83,9.77-12.21,1.73-23.37,7-35.57,8.8-74.86,10.91-150.19,20.33-224.78,32.07C784.34,773,712.83,786.21,641.31,799.3c-35.18,6.44-69.79,14.4-104.65,21.67l-32.18,4.84-51.72,1.82-79.39-1.28c55.7-12.74,110.8-27,167.25-37.81,65.44-12.53,132-22.28,198.25-32.64,21.16-3.31,43.19-3.89,64.37-7.16,67.88-10.5,135.52-21.73,203.29-32.56Q1082.93,704,1159.4,692Z"/><path class="cls-14" d="M536.65,821c34.87-7.28,69.48-15.24,104.66-21.68,71.52-13.09,143-26.32,215.12-37.68,74.59-11.74,149.92-21.16,224.78-32.07,12.2-1.77,23.36-7.07,35.57-8.8,27.47-3.9,55.29-6.59,83-9.77a23.38,23.38,0,0,0-1.58,3.7l-17.41,14.39c-47.29,6.11-94.5,12.54-141.89,18.22-40.55,4.87-81.81,7.3-121.85,13.6-71.95,11.33-143.27,24.65-214.78,37.33-39.43,7-78.73,14.32-118,21.76-.57.11.19,3.62.32,5.55l-7.5,3.71Z"/><path class="cls-13" d="M1180.77,729.07l17.41-14.39,27.63,5.27q3.89,8.89,7.75,17.79-1.05,6.81-2.06,13.64l-38.34,9.86-16.63-9.67Q1178.65,740.32,1180.77,729.07Z"/><path class="cls-16" d="M1233.57,737.74,1225.81,720l83.8-.48,14.18,13Z"/><path class="cls-11" d="M1239.82,824.76l-59.77-7.88,86-15.13,12.8,9.14c0,1.74,0,3.48,0,5.22Z"/><path class="cls-8" d="M1337.3,769.25l58.93,4-79.21,23L1246,792.67l-20.17-8.88-13.3-1c5.45-2.75,10.61-7.54,16.38-7.93C1264.94,772.42,1301.14,771,1337.3,769.25Z"/><path class="cls-16" d="M1246,792.67l71,3.61-51,5.47-86,15.13q-16.82.25-33.61.47Q1196.23,805,1246,792.67Z"/><path class="cls-17" d="M1337.3,769.25c-36.16,1.75-72.36,3.17-108.43,5.58-5.77.39-10.93,5.18-16.37,7.94l-84.59,1.68-52.66.08c17.2-3.17,34.48-6.17,51.59-9.56,22.18-4.41,44.22-9.14,66.32-13.72l38.35-9.87,73-.25c6,3,12.11,6,17.93,9.19C1327.6,763.14,1332.38,766.26,1337.3,769.25Z"/><path class="cls-14" d="M1304.56,751.13l-73,.25q1-6.82,2-13.64l90.23-5.23c7.62,1.54,16.08,2.12,22.61,4.91,6.1,2.61,10.16,7.57,15.09,11.47q-12.06.5-24.08,1l-19.84.91Z"/><path class="cls-17" d="M1317.57,750.82l19.84-.91Z"/><path class="cls-4" d="M1127.91,784.45l84.59-1.68,13.3,1c-6.19,3.06-11.78,7.59-18.66,9-50.25,10-100.77,19.43-151.21,29l-71.78,2.06-53.1-1.22c46.44-8.1,93-15.85,139.26-24.46C1089.87,794.52,1108.73,789.07,1127.91,784.45Z"/><path class="cls-17" d="M931,822.63l53.11,1.21c-7.91,4.1-15.21,9-23.89,12-11.06,3.8-23.23,6-34.92,8.9l-20.42,1.31q-29.55-2.15-59.11-4.32l6.89-5.37,12.78-13Z"/><path class="cls-11" d="M1055.93,821.78c50.44-9.6,101-19,151.21-29,6.88-1.37,12.47-5.9,18.66-9l20.16,8.88-99.52,24.68Z"/><path class="cls-14" d="M1159.4,692q-76.44,12.08-152.87,24.15C938.76,727,871.12,738.24,803.24,748.74c-21.18,3.27-43.21,3.85-64.37,7.16C672.61,766.26,606.06,776,540.62,788.54c-56.45,10.8-111.55,25.07-167.24,37.81L346.51,822l33.27-14.56c37.44-6.41,74.81-13,112.34-19.19,74.56-12.23,149.3-23.93,223.79-36.37,58.18-9.72,115.73-21.39,174.2-30.12,74.78-11.18,150.22-20.21,225.31-30.39,5.95-.81,11.43-3.36,17.13-5.1q-1.33-3.15-2.65-6.32c-19.71,2.76-39.37,7.66-59.14,7.88-65.2.71-128.34,6-191.71,19.1-71,14.65-145.67,20.54-217.93,32.61C567,755.26,473.66,773.3,380,790.47c-1.53.28-2.45,2.19-4.89,4.53L394,800.26l-14.14,7.22-32.94.07-20.29-9.31c5.33-3,10-7.66,16.08-8.83C427.38,773,511.94,756.07,597.2,741.14c69.78-12.22,140.35-22.29,210.74-32.73,57.67-8.56,115.75-15.75,173.34-24.53,33-5,65.46-12,98.15-18.12l58.77-.38c.25.68.51,1.36.77,2l-13.21,2.69Z"/><path class="cls-2" d="M1104.9,632.57l40.67.34,25.73-4.45,19.76.28,39.44,11.86-20,2.25L1093,652.36l-46,3.81-45.84-3.79-97.79,4.27-99.64-2.77-65,.69L725.5,655q-19.35.07-38.72.15l-27-.52-58.69,1-6.93.32-25.86.18-6.39-1.49c20.92-3.06,42-5.6,62.65-9.44,7.95-1.48,14.76-5.92,22.09-9l235.83-3,46.3-.86Z"/><path class="cls-8" d="M1159,655.8l78.57-.51C1220,668.47,1176.55,668.75,1159,655.8Z"/><path class="cls-11" d="M738.79,654.57l65-.69c-45.73,7-91.51,13.86-137.16,21.13C588.39,687.47,510.27,700.29,432,712.79c-55.38,8.84-110.86,17.39-166.31,26.07L252.5,722.5C330.76,707.3,409,691.9,487.35,677c18.68-3.55,38.45-4.46,56.89-8.44,9-1.94,16.11-8.15,24.07-12.41q12.93-.07,25.85-.18l6.94-.31,58.69-1c-32.37,6.31-64.95,12.17-97,19.15-16.06,3.49-31.21,9-46.77,13.65l-19.86,1.37,1.5,3.75,18.4-5.09c53.44-6.64,107-13,160.19-20.4,4.47-.62,7.08-7.78,10.56-11.9L725.5,655Z"/><path class="cls-4" d="M1001.31,656.78l-31.9,10.85q-2-4.65-4-9.3l35.81-1.59Z"/><ellipse class="cls-10" cx="257.76" cy="746.43" rx="1.58" ry="4.82" transform="translate(-10.91 3.86) rotate(-0.84)"/><path class="cls-17" d="M346.51,822l26.87,4.35q39.67.64,79.38,1.27c-4.8,3.85-8.55,9.49-14.59,11.22-14.12,4-29.34,6.18-44.11,9.09l-85.48,2-52.83-.52c14.21-3,29.05-5.12,42.37-9.48,6.78-2.23,10.8-8.55,16.07-13Z"/><path class="cls-17" d="M518.67,847.22l-65.92,0c12-2.81,24.72-4.71,35.78-8.79,6.65-2.46,10.72-8.33,16-12.67L536.66,821l40.43,8.26Z"/><path class="cls-18" d="M504.48,825.81c-5.23,4.34-9.3,10.21-16,12.67-11.06,4.08-23.77,6-35.78,8.79l-58.69.66c14.77-2.91,30-5.06,44.11-9.09,6-1.73,9.79-7.37,14.59-11.22Q478.62,826.73,504.48,825.81Z"/><path class="cls-4" d="M1180.77,729.07c-1.42,7.5-2.83,15-4.28,22.5-36.57,2.7-73.26,4.65-109.61,8.27-67.26,6.71-134.32,14.39-201.47,21.67-19.43,4.7-38.58,10.07-58.33,14C759,805,710.65,813.82,662.41,822.92l-33.31,2.26-32.83,1.28a6.26,6.26,0,0,0-5.77.06,57.82,57.82,0,0,0-5.91-1c-.13-1.93-.89-5.44-.32-5.55,39.25-7.44,78.55-14.78,118-21.76,71.51-12.68,142.83-26,214.78-37.33,40-6.3,81.3-8.73,121.85-13.6C1086.27,741.61,1133.48,735.18,1180.77,729.07Z"/><path class="cls-18" d="M584.59,825.53c2,.23,4,.56,5.9,1l5.78,0,32.83-1.28c-5.37,4.28-10.35,8.84-16.23,12.76-4.85,3.22-10.76,5.67-16.21,8.46l-12.95.09-13,.13-52.08.6,58.43-18Z"/><path class="cls-8" d="M865.41,781.51c67.15-7.28,134.21-15,201.47-21.67,36.35-3.62,73-5.57,109.61-8.27l16.67,9.67c-22.1,4.59-44.14,9.32-66.32,13.73-17.11,3.39-34.39,6.39-51.59,9.56l-65.64.21-111.13,1.35Z"/><path class="cls-14" d="M1009.61,784.73l65.64-.2,52.66-.08c-19.18,4.62-38,10.07-57.6,13.71-46.24,8.61-92.82,16.36-139.26,24.46l-65.57.74L852.58,827l-13.05-5c2.21-2.42,3.88-6.58,6.72-7,47.16-7.18,94.55-13.61,141.65-21C995.73,792.79,1002.4,787.92,1009.61,784.73Z"/><path class="cls-18" d="M839.53,822l13.05,5,.12,9.37-6.89,5.37-196.12,4.81c18.13-3.07,36.63-5.4,54.22-9.58,6.92-1.65,11.82-7.43,17.65-11.34l71.7-1.87q4.53,6,9.07,12l11-12.65Z"/><path class="cls-17" d="M721.56,825.67c-5.83,3.9-10.73,9.68-17.65,11.33-17.59,4.18-36.09,6.51-54.22,9.58l-53-.18c5.44-2.79,11.35-5.24,16.2-8.46,5.88-3.92,10.86-8.48,16.23-12.76l33.31-2.25,39.16,1.37Z"/><path class="cls-15" d="M852.7,836.4l-.12-9.37,12.9-3.67Z"/><path class="cls-4" d="M379.84,807.48,394,800.26,375.14,795c2.44-2.34,3.36-4.25,4.89-4.53,93.63-17.17,187-35.21,281.09-50.93,72.26-12.07,146.9-18,217.93-32.61,63.37-13.07,126.51-18.39,191.71-19.1,19.77-.22,39.43-5.12,59.14-7.88q1.32,3.16,2.65,6.32c-5.7,1.74-11.18,4.29-17.13,5.1-75.09,10.18-150.53,19.21-225.31,30.39-58.47,8.73-116,20.4-174.2,30.12C641.42,764.32,566.68,776,492.12,788.25c-37.53,6.15-74.9,12.78-112.34,19.19Z"/><path class="cls-4" d="M516,687.42c15.56-4.62,30.71-10.16,46.77-13.65,32.07-7,64.65-12.84,97-19.15l27,.52c-3.47,4.13-6.08,11.29-10.55,11.91C623,674.41,569.48,680.81,516,687.45Z"/><path class="cls-4" d="M738.79,654.57,725.5,655Z"/><path class="cls-4" d="M601.1,655.66l-6.94.31Z"/><path class="cls-4" d="M516,687.45l-18.4,5.09-1.5-3.75L516,687.42Z"/><path class="cls-11" d="M701.57,824.3l-39.16-1.37C710.65,813.82,759,805,807.08,795.48c19.75-3.9,38.9-9.27,58.33-14l33.07,4.57c-8.68,3-16.93,7.19-26.1,8.82C815.56,805,758.53,814.57,701.57,824.3Z"/><path class="cls-17" d="M596.27,826.46l-5.78,0A6.34,6.34,0,0,1,596.27,826.46Z"/><path class="cls-4" d="M701.57,824.3c57-9.73,114-19.28,170.81-29.4,9.17-1.63,17.42-5.81,26.1-8.82l111.13-1.34c-7.21,3.18-13.88,8-21.71,9.27-47.1,7.37-94.49,13.8-141.65,21-2.84.43-4.51,4.59-6.72,7l-26.24,1.18-20,.61-71.7,1.87Z"/><path class="cls-17" d="M793.26,823.79l20-.61-11,12.65Q797.78,829.82,793.26,823.79Z"/><path class="cls-24" d="M898.61,323.46c15.48-.78,27.64,3.63,39.89,8a63.52,63.52,0,0,0,16,3.7c4.21.36,4.58,1.8,4,3.91-1.24,4.52-6.28,7.22-15.37,7.74-5.49.31-10.87.89-16.27,1.54a66.59,66.59,0,0,1-18.07.18c-7.44-1.09-14.78.77-22,1.64a485.23,485.23,0,0,1-55.58,3.44c-7.9,0-15.64,1.65-23.23,1.32-17.93-.76-35.43,2.28-53.26,1.73-2.93-.09-5.94,0-8.79-.34-3.47-.44-6.53-.06-8.44,1.71-1.64,1.52,1.21,2.61,2.13,3.88.4.55.82,1.1,1.25,1.67-1.66,1-3.51.58-5.15.58q-55.82,0-111.63,0c-5.87,0-12.07.33-14.69-4.34-.44-.79-2-.67-3.06-.91a74,74,0,0,0-30.41-.64c-5.43,1.07-10.25-.33-14.93-2.14a47.75,47.75,0,0,0-25.91-2c-7.68,1.69-14.54.32-21.65,1-3.25.3-5.79-1.34-8.22-2.62a13.77,13.77,0,0,0-11.3-1.1c-5.4,1.77-10.54,1.62-15.14-1.14a6.33,6.33,0,0,0-3.61-1.09c-7.07.13-14.19-.39-21.2.38-22.8,2.51-51.32-8.91-57-23-1.81-4.52-1.73-8.87,3.15-12.89,5.36-4.42,7.18-9.5,4.05-14.91-.71-1.22-.13-1.79.89-2.63,6.62-5.46,13.32-10.9,19.7-16.48,5.77-5.07,13.87-6.61,23-7.07,17.58-.88,35.13-2,52.72-2.8a91.76,91.76,0,0,1,17,.31c6.39.88,12.75-.93,19.14-1.45,8.87-.73,17.73-1.23,26.33.22,15.65,2.64,31.57,2,47.42,2.25,9.2.13,18.41,0,27.61-.08a13.73,13.73,0,0,0,4-.34c10.71-3.78,22-2.47,33.35-1.93a247,247,0,0,0,26-.11c18.28-1.06,36.58-.82,54.83-.41,10.08.23,20.13,1.79,30.1,3.06,6.56.84,13-.09,19.29-.44,10-.55,18.84.33,27.44,3.85,4.19,1.72,9.85.77,14.8.76,30,0,59.67,1.6,88.62,7,9.27,1.73,18.28,3.92,27.14,6.33,9.14,2.49,12.47,8.2,8.62,14.08a22,22,0,0,1-2.69,3.35c-7,7.25-3.21,5.44-15.57,5-14.37-.45-29.1-.42-43,3.06C905.46,315.7,904,316.92,898.61,323.46Zm-245.37-29c-3,0-5.9-.09-8.84,0-10.32.35-17,4.09-19.48,10.47-1.19,3.12,0,6.39-1.28,9.37-2.17,5,3,8.38,6.41,11.52,4.94,4.54,25.38,5.45,33.21,2.51,12.71-4.79,16.94-12,12.31-22.88-4.48-10.51-7.73-11.18-20.56-11Zm51.57,11.89c-1.71-3.3-2.92-5.82-4.32-8.3-1.21-2.14-3.09-4.11-7.28-3.3-3.86.74-8.32,1.48-7.62,5.15a68.13,68.13,0,0,1,.93,11.31c.12,4.4-.4,8.82,1,13.2.87,2.65,2.38,5,6.85,5.5,4.12.43,4.44-2.31,6.19-3.86,2.12-1.88,3-5.31,6.83-5.22,4.4.1,4.79,3.61,6.23,5.83,3.4,5.28,6.15,6.44,14.63,6.05,2.82-.13,3.6-.82,3.75-2.53.32-3.48-3.12-5.93-5.45-8.62-7.16-8.27-8.84-16.17,2.53-23.56,2.19-1.42,1.37-2.41-1.1-3.19-2.82-.89-5.18-1.28-7.72.68C715.65,299.06,710.55,302.37,704.81,306.36Z"/><path class="cls-25" d="M653.24,294.47H655c12.83-.18,16.08.49,20.56,11,4.63,10.87.4,18.09-12.31,22.88-7.83,2.94-28.27,2-33.21-2.51-3.43-3.14-8.58-6.56-6.41-11.52,1.3-3,.09-6.25,1.28-9.37,2.44-6.38,9.16-10.12,19.48-10.47C647.34,294.38,650.29,294.47,653.24,294.47Zm9.06,16.64a29.07,29.07,0,0,0-1.54-4.82c-1.61-3.13-5.57-4.6-10.34-4.76s-8.09,1.5-9.72,4.5a12.71,12.71,0,0,0-.88,10.08c1,3.43,4.94,5.53,10.38,5.7s8.75-2,10.4-5.13C661.54,314.91,661.75,313,662.3,311.11Z"/><path class="cls-25" d="M704.81,306.36c5.74-4,10.84-7.3,15.47-10.86,2.54-2,4.9-1.57,7.72-.68,2.47.78,3.29,1.77,1.1,3.19-11.37,7.39-9.69,15.29-2.53,23.56,2.33,2.69,5.77,5.14,5.45,8.62-.15,1.71-.93,2.4-3.75,2.53-8.48.39-11.23-.77-14.63-6.05-1.44-2.22-1.83-5.73-6.23-5.83-3.87-.09-4.71,3.34-6.83,5.22-1.75,1.55-2.07,4.29-6.19,3.86-4.47-.46-6-2.85-6.85-5.5-1.42-4.38-.9-8.8-1-13.2a68.13,68.13,0,0,0-.93-11.31c-.7-3.67,3.76-4.41,7.62-5.15,4.19-.81,6.07,1.16,7.28,3.3C701.89,300.54,703.1,303.06,704.81,306.36Z"/><path class="cls-24" d="M662.3,311.11c-.55,1.88-.76,3.8-1.7,5.57-1.65,3.1-5,5.3-10.4,5.13s-9.34-2.27-10.38-5.7A12.71,12.71,0,0,1,640.7,306c1.63-3,4.93-4.67,9.72-4.5s8.73,1.63,10.34,4.76A29.07,29.07,0,0,1,662.3,311.11Z"/><rect class="cls-24" x="602.73" y="283.03" width="144.2" height="58.43"/><path class="cls-25" d="M467.15,259.34A153.31,153.31,0,0,0,503.52,257c12.37-2.05,25-1.09,37.5-.12,28,2.17,55.85,5.72,84.34,4.41,5.36-.25,10.53-1,15.66-1.69a161.72,161.72,0,0,1,25.77-1.41c26.18.53,52.31-.73,78.48-.81,12.23,0,24.22,1.46,36.4,1.83,6.44.19,12.75,2.27,19.1,3.55,19.18,3.85,39,3.88,58.83,4.75,23.24,1,46.81.57,69.65,4.37a42.34,42.34,0,0,1,7.24,1.54c13.68,4.95,29,6.72,43.86,9.37,5.51,1,9,2.86,11.64,5.74,8.91,9.75,15.94,19.87,15.17,31.57-.13,2,.69,4,1.06,6,1.81,9.9-5.76,18-12.46,26.2-13.77,16.81-38,20.64-64.42,19.32-16.17-.8-32.07-1.49-48,.44-11.48,1.39-22.74-.58-34.13-.2-6.53.22-12.91.39-19,2.22-3.27,1-6.93.74-10.47.85-23.91.73-47.7,2.8-71.67,2.88-24.22.08-48.75,1.65-72.58-.28-25.21-2-50.26-3.74-75.56-3.21-14.27.3-28.59.61-42.86,1.79-13.47,1.12-27.09.38-40.52-1a671.06,671.06,0,0,1-72.51-11.38C433.2,361.29,423.92,357,414,353.5c-4.45-1.59-9.24-2.69-13.75-4.24-11.37-3.92-14.94-11-17.94-18.07-2.3-5.4-4.06-10.89-6.66-16.27-2.48-5.16-1.57-11.95,4.38-14.39,13-5.33,15.83-15,26.16-21.14,8.91-5.26,16.88-11.71,27.74-15C445.69,260.9,458.67,258.46,467.15,259.34Zm431.46,64.12c5.4-6.54,6.85-7.76,12.32-9.13,13.87-3.48,28.6-3.51,43-3.06,12.36.39,8.58,2.2,15.57-5a22,22,0,0,0,2.69-3.35c3.85-5.88.52-11.59-8.62-14.08-8.86-2.41-17.87-4.6-27.14-6.33-28.95-5.42-58.61-7-88.62-7-4.95,0-10.61,1-14.8-.76-8.6-3.52-17.46-4.4-27.44-3.85-6.34.35-12.73,1.28-19.29.44-10-1.27-20-2.83-30.1-3.06-18.25-.41-36.55-.65-54.83.41a247,247,0,0,1-26,.11c-11.36-.54-22.64-1.85-33.35,1.93a13.73,13.73,0,0,1-4,.34c-9.2.05-18.41.21-27.61.08-15.85-.23-31.77.39-47.42-2.25-8.6-1.45-17.46-.95-26.33-.22-6.39.52-12.75,2.33-19.14,1.45a91.76,91.76,0,0,0-17-.31c-17.59.82-35.14,1.92-52.72,2.8-9.16.46-17.26,2-23,7.07-6.38,5.58-13.08,11-19.7,16.48-1,.84-1.6,1.41-.89,2.63,3.13,5.41,1.31,10.49-4.05,14.91-4.88,4-5,8.37-3.15,12.89,5.64,14.07,34.16,25.49,57,23,7-.77,14.13-.25,21.2-.38a6.33,6.33,0,0,1,3.61,1.09c4.6,2.76,9.74,2.91,15.14,1.14a13.77,13.77,0,0,1,11.3,1.1c2.43,1.28,5,2.92,8.22,2.62,7.11-.66,14,.71,21.65-1a47.75,47.75,0,0,1,25.91,2c4.68,1.81,9.5,3.21,14.93,2.14a74,74,0,0,1,30.41.64c1.1.24,2.62.12,3.06.91,2.62,4.67,8.82,4.33,14.69,4.34q55.82,0,111.63,0c1.64,0,3.49.44,5.15-.58-.43-.57-.85-1.12-1.25-1.67-.92-1.27-3.77-2.36-2.13-3.88,1.91-1.77,5-2.15,8.44-1.71,2.85.37,5.86.25,8.79.34,17.83.55,35.33-2.49,53.26-1.73,7.59.33,15.33-1.28,23.23-1.32a485.23,485.23,0,0,0,55.58-3.44c7.27-.87,14.61-2.73,22-1.64a66.59,66.59,0,0,0,18.07-.18c5.4-.65,10.78-1.23,16.27-1.54,9.09-.52,14.13-3.22,15.37-7.74.58-2.11.21-3.55-4-3.91a63.52,63.52,0,0,1-16-3.7C926.25,327.09,914.09,322.68,898.61,323.46Z"/><text class="cls-26" transform="translate(538.27 325.8)">Save Game</text></g></g></svg>