<svg xmlns="http://www.w3.org/2000/svg" viewBox="0 0 798.82 187.75"><defs><style>.cls-1{fill:#ab6420;}.cls-2{fill:#8b4e11;}.cls-3{fill:#b97129;}.cls-4{fill:#fdfbf8;}.cls-5{fill:#e8994c;}.cls-6{fill:#f0bf90;}.cls-7{fill:#b06b28;}.cls-8{fill:#dd9147;}.cls-9{fill:#a55f1d;}.cls-10{fill:#954e09;}.cls-11{fill:#a0540c;}.cls-12{fill:#a75b13;}.cls-13{fill:#9a734e;}.cls-14{fill:#cd7e30;}.cls-15{fill:#d08133;}.cls-16{fill:#e5b78a;}.cls-17{fill:#605549;}.cls-18{fill:#d1863d;}.cls-19{font-size:57px;fill:#492405;font-family:NeatChalk, Neat Chalk;}</style></defs><title>Ranking BG</title><g id="Layer_2" data-name="Layer 2"><g id="Layer_1-2" data-name="Layer 1"><path class="cls-1" d="M741.39,22.1,792.5,41.73q-1.34,8.58-2.68,17.17l-6.46,5.22-.69-.18-4.33-6.18c-.89,1.92-1.77,3.85-2.65,5.77l-11.78-2.86c-5.25-3.85-10.53-11.07-15.74-11-31.35.31-62.69,2.29-94,3.7Q654.08,48,654,42.62l18.15-1c-.17-1.21-.34-2.42-.52-3.64l-78.49,5c.1-2.38.2-4.75.31-7.13l11-.38,31.88-.3-.06-7.64-32,.3-14.67-.23,10.95-5.82,37.7,1.57Z"/><path class="cls-2" d="M791,105.48q.45,7.8.89,15.62l-27.62-7.71-11.28,0-18.9-.07c0-3.59,0-7.19,0-10.78l49.89-9.45q3.12,5.2,6.23,10.43A1.3,1.3,0,0,0,791,105.48Z"/><path class="cls-3" d="M783.9,93.11,734,102.55l-7.76-.31c4.15-2.53,8.43-4.88,12.4-7.67,3.44-2.43,6.53-5.36,9.78-8.07l.21-7.25,3.57-3.18c11.46,10.75,20.58,4.33,29.44-4l2.87-.88q-.59,7.71-1.19,15.43C783.51,88.78,783.71,90.94,783.9,93.11Z"/><path class="cls-4" d="M783.9,93.11c-.19-2.17-.39-4.33-.58-6.5l6.81,16.93Q787,98.32,783.9,93.11Z"/><path class="cls-4" d="M783.36,64.12l6.46-5.22-5.31,12.28-2.87.88C782.21,69.41,782.79,66.77,783.36,64.12Z"/><path class="cls-5" d="M28.09,37.53,14,31.71l10.7-6.27L127.3,23.82l45.29.16,49.5.31L146.15,43.41c-20.51-3.39-40.93-8.52-61.57-9.65C65.87,32.74,46.93,36.1,28.09,37.53Z"/><path class="cls-6" d="M127.31,23.82,24.71,25.44c-1.17-4.65-2.33-9.31-3.4-13.59l48.9-5.17L93.54,2.26,104,5.71l23,.18,19-.16,7.21-.39,7.57.37a30.19,30.19,0,0,1,.25,3.68Z"/><path class="cls-7" d="M28.09,37.53c18.84-1.43,37.78-4.79,56.49-3.77,20.64,1.13,41.06,6.26,61.58,9.65L131.05,54.66l-18.75.51-11.42,0-7,7.12a16.79,16.79,0,0,1-.27-3.16L47.17,55.55l3.51-8.28Z"/><path class="cls-7" d="M7,111.39c-14.5-10.63-2.31-21.81-.66-32.78a29.66,29.66,0,0,1,3-.53l26,1.88c-1.57-3.09-4-7.83-6.4-12.57l56.77,6.46,7.54,3.86C67,84.44,40.72,90.77,14.78,98.35,11.2,99.4,9.44,106.66,6.83,111Z"/><path class="cls-8" d="M85.68,73.85,28.91,67.39l-17.46.33L47.17,55.55l46.39,3.63-12,.81,0,2.46,12.27-.11,7-7.12,11.42,0,18.75-.51L123.64,63l-3.59,3.42C106.51,59.31,95.39,63.32,85.68,73.85ZM62.52,64c.11.9.22,1.8.32,2.69l7.94-1.25-.3-2.21Z"/><path class="cls-2" d="M11.45,67.72l17.46-.33c2.42,4.74,4.83,9.48,6.4,12.57l-26-1.88Z"/><path class="cls-8" d="M22.88,150.08q.32-9.14.61-18.26l85.42-13.45,11,1.7c.15,2.63.3,5.27.44,7.9l-18.67,10.7-15.12,7.51a22.52,22.52,0,0,0-3.58-.13c-5.22-10.59-10.51-10.31-15.87-.1Z"/><path class="cls-2" d="M108.91,118.37,23.49,131.82Q15.26,121.62,7,111.39L6.83,111c27.36-1,54.74-2.76,82.08-2.42,10.46.13,15.81-3.11,19.08-12.06Q108.46,107.47,108.91,118.37Z"/><path class="cls-2" d="M22.88,150.08,67.16,146l15.87.1a22.52,22.52,0,0,1,3.58.13l-.27,7.08c-11,.27-22.19-.55-32.91,1.3-4.56.79-8.16,7.19-12.19,11L30,184.21l-7.41.4Q22.76,167.34,22.88,150.08Z"/><path class="cls-9" d="M768.93,161.77,798.82,181l-87.08,1.25-57.71.89-10.3-1.66-38-3c5.81-3.57,11.32-7.85,17.52-10.55,7.75-3.38,16.08-5.45,24.15-8.08l18.82-.61,3.88,4.29c-2.12,4.89-4.24,9.79-7.57,17.46,23.51-5.53,45.36-11.34,67.51-15.63C742.74,162.87,755.94,162.88,768.93,161.77Z"/><path class="cls-3" d="M670.07,163.5l-3.88-4.29,20.86-15.07-9.74-8.08,12.52-4.94-12.54-5.53,56.77-12.25,18.9.07c0,2.52,0,5,0,7.56l-34.07,4.78.33,3,33.83-.32c1.44,3.82,2.17,10.31,4.47,10.92,5.71,1.53,12.13.37,18.27.28l2.72,2.67L768,158.79c-5.36-.9-10.82-2.93-16.09-2.53C724.63,158.33,697.36,161,670.07,163.5Zm34.66-23.62,1-2.85-6.86-2.59c-.35,1-1.06,3-1,3C700.12,138.38,702.43,139.11,704.73,139.88Zm38.35,2.23c-.23-.38-.37-1-.7-1.09s-.93.09-1.41.16l.95,1.71Z"/><path class="cls-10" d="M670.07,163.5c27.29-2.48,54.56-5.17,81.87-7.24,5.27-.4,10.73,1.63,16.09,2.53a6.07,6.07,0,0,1,.9,3c-13,1.11-26.19,1.1-38.92,3.56-22.15,4.29-44,10.1-67.51,15.63C665.83,173.29,668,168.39,670.07,163.5Z"/><path class="cls-11" d="M764.24,113.39l27.62,7.71c-.55,2.39-1.09,4.79-1.64,7.18L787,131.62l-.22.31-10.91.29Zm16,12.1a4.82,4.82,0,0,0-1.59.55c-.15.13.23.9.36,1.38a5,5,0,0,0,1.6-.56C780.71,126.74,780.34,126,780.2,125.49Z"/><path class="cls-3" d="M775.91,132.22l10.91-.29-8.29,10.38-2.72-2.67Q775.86,135.94,775.91,132.22Z"/><path class="cls-12" d="M787,131.62l3.18-3.34Z"/><path class="cls-6" d="M638.24,23.35l-37.7-1.57q-41.62-.21-83.26-.38l-72.13.37-41.51.64-15.15-.6L430,6.54l90.92-4.17a29.15,29.15,0,0,0,3.58-.74l91-.85L641.45.59l4.06.24,7.67-.29L676.36.35,687.5.28,708.58,0l36,.59c-21,2.51-42.3,3.81-63,8C666.72,11.51,652.65,18.28,638.24,23.35Z"/><path class="cls-13" d="M638.24,23.35c14.41-5.07,28.48-11.84,43.31-14.81,20.7-4.14,42-5.44,63-7.95L794,.13l-52.58,22Z"/><path class="cls-5" d="M654.14,53.35c31.34-1.41,62.68-3.39,94-3.7,5.21,0,10.49,7.17,15.74,11l-83.22,8.41-34.28,3.63C626.13,77.9,606,83.56,585.56,88.18c-54.2,12.27-108.53,23.95-162.75,36.13-35.65,8-71.29,16.14-106.73,25-6.22,1.56-11.47,7-17.16,10.68l-30.52,4-22.4.87-49.38-.82c12.51-4.94,24.71-10.93,37.58-14.63,38.6-11.12,77.22-22.29,116.26-31.7,53.55-12.9,107.42-24.57,161.3-36.06,37-7.89,74.26-14.56,111.38-21.85C633.5,57.81,643.81,55.52,654.14,53.35Z"/><path class="cls-5" d="M101.73,138.67q9.33-5.34,18.67-10.71l48.77-13.33c18.41-5,36.74-10.47,55.27-15.06Q278.68,86.15,333.13,73.5C383.75,61.8,434.36,50,485.19,39.28c16.75-3.53,33.3-6.87,51.55-4.54,17,2.18,35.19-4.41,52.85-7.14l14.67.23c.08,2.55.15,5.09.22,7.64l-11,.37c-26,5.11-52,9.95-78,15.4-29.65,6.23-59.27,12.64-88.75,19.64-51.71,12.27-103.44,24.54-154.9,37.79-29.21,7.52-57.91,17-86.84,25.57Z"/><path class="cls-14" d="M654.14,53.35c-10.33,2.17-20.64,4.46-31,6.49-37.12,7.29-74.38,14-111.38,21.85C457.88,93.18,404,104.85,350.46,117.75c-39,9.41-77.66,20.58-116.26,31.7-12.87,3.7-25.07,9.69-37.58,14.63l-11.47-3,27.33-16.1-16.07.15q-.15-3.63-.28-7.27l.56-.44c8.24,1.91,16.44,4.05,24.75,5.64,4.17.79,8.85,1.72,12.77.65C289.69,128.58,344.78,112,400.56,98.19c42.21-10.45,85.26-17.48,127.94-26l91.15-18.23L654,42.63C654.06,46.2,654.1,49.78,654.14,53.35Z"/><path class="cls-15" d="M589.59,27.6c-17.66,2.73-35.81,9.32-52.85,7.14-18.25-2.33-34.8,1-51.55,4.54C434.36,50,383.75,61.8,333.13,73.5Q278.68,86.09,224.44,99.57c-18.53,4.59-36.86,10-55.27,15.06a30.07,30.07,0,0,0,.37-3.15c8.21-4,16-9.29,24.68-11.76,42.28-12.11,84.59-24.13,127.23-34.87C352.7,57,384.5,51.33,416,44.37c33.81-7.47,67.53-15.3,101.29-23q41.63.18,83.26.38Z"/><path class="cls-14" d="M185,134.24c28.93-8.59,57.63-18.05,86.84-25.57,51.46-13.25,103.19-25.52,154.9-37.79,29.48-7,59.1-13.41,88.75-19.64,25.92-5.45,52-10.29,78-15.4l-.3,7.14c0,2.5,0,5,0,7.51-43.81.27-86.28,7.06-128.64,19.35-51,14.8-103.43,24.44-155,37.21-37.8,9.36-75.23,20.16-112.82,30.32l-.57.45Z"/><path class="cls-2" d="M680.69,69.09l83.22-8.42,11.78,2.86,7,.41.69.18c-.57,2.65-1.15,5.29-1.72,7.94-8.86,8.34-18,14.76-29.44,4l-3.82.63-61-.81h-6.56Q680.74,72.49,680.69,69.09Z"/><path class="cls-8" d="M593.18,50.49V43l78.49-5c.18,1.22.35,2.43.52,3.64l-18.15,1L619.65,53.94Z"/><path class="cls-14" d="M604.48,35.47c-.07-2.55-.14-5.09-.22-7.64l32-.3.06,7.64Z"/><path class="cls-11" d="M734.06,113.34l-56.77,12.25L616.68,130l53-15.89,26.73-7.8,29.81-4.05,7.76.31Z"/><path class="cls-12" d="M775.91,132.22q-.06,3.72-.1,7.42c-6.14.09-12.56,1.25-18.27-.28-2.3-.61-3-7.1-4.47-10.92L753,121c0-2.52,0-5,0-7.56l11.28,0Z"/><path class="cls-5" d="M687.32,75.89l61.06.8a24.37,24.37,0,0,1,.25,2.56l-.21,7.25-51.76,4.67Q692,83.54,687.32,75.89Z"/><path class="cls-15" d="M696.66,91.17l51.76-4.67c-3.25,2.71-6.34,5.64-9.78,8.07-4,2.79-8.25,5.14-12.4,7.67l-29.81,4.05Q696.54,98.73,696.66,91.17Z"/><path class="cls-15" d="M748.63,79.25a24.37,24.37,0,0,0-.25-2.56l3.82-.62Z"/><path class="cls-15" d="M123.64,63l7.41-8.3,15.11-11.25,75.92-19.13,34.06-1.78,33.82.68c-23,6-45.89,12.44-69,17.92C188.6,48.76,156.08,55.71,123.64,63Z"/><path class="cls-6" d="M256.14,22.49l-34.06,1.79L172.59,24c3-17.32,17-9.27,26.52-11.47l75.63-.75Z"/><path class="cls-16" d="M199.11,12.51c-9.54,2.2-23.52-5.85-26.52,11.47l-45.29-.16L161.06,9.38Z"/><path class="cls-15" d="M93.83,62.34l-12.27.11,0-2.46,12-.81A16.79,16.79,0,0,0,93.83,62.34Z"/><path class="cls-15" d="M112.3,55.17l-11.42,0Z"/><path class="cls-5" d="M123.64,63c32.44-7.25,65-14.2,97.31-21.86,23.12-5.48,46-11.91,69-17.92l38.22.11c-37.27,10.35-74.57,20.58-111.8,31.1-30.86,8.73-61.63,17.8-92.44,26.71-11.19-.9-16,4.73-16,15.46-3.27,9-8.62,12.19-19.08,12.06-27.34-.34-54.72,1.47-82.08,2.42,2.61-4.38,4.37-11.64,8-12.69C40.72,90.77,67,84.44,93.22,77.71l26.83-11.33Z"/><path class="cls-15" d="M120.05,66.38,93.22,77.71l-7.54-3.86C95.39,63.32,106.51,59.31,120.05,66.38Z"/><path class="cls-15" d="M62.52,64l8-.77.3,2.21-7.94,1.25C62.74,65.76,62.63,64.86,62.52,64Z"/><path class="cls-9" d="M105.67,187.75l-6.36-.7-61.55-2.91,37.79-3.9L117,180l30.56-.33,79.25-.71,4.2,2.95-68.9,4.39Z"/><path class="cls-10" d="M75.55,180.24l-37.79,3.9-7.73.07L41.24,165.6l56.6-.24Z"/><path class="cls-1" d="M185,134.24l11.11,3.58q.13,3.65.28,7.27l-63.93,8.76-46.14-.59.27-7.08,15.12-7.51Z"/><path class="cls-17" d="M108,96.56c-.09-10.73,4.76-16.36,16-15.46l12.86,12q1.17,9.18,2.33,18.36L120,120.07l-11-1.7Q108.45,107.46,108,96.56Z"/><path class="cls-9" d="M120,120.07l19.17-8.57,30.41,0a30.07,30.07,0,0,1-.37,3.15L120.4,128C120.26,125.34,120.11,122.7,120,120.07Z"/><path class="cls-1" d="M83,146.05,67.16,146C72.52,135.74,77.81,135.46,83,146.05Z"/><path class="cls-14" d="M86.34,153.26l46.14.59q-7.68,5.44-15.34,10.91l-19.31.6-56.59.24c4-3.85,7.63-10.25,12.19-11C64.15,152.71,75.34,153.53,86.34,153.26Z"/><path class="cls-8" d="M616.68,130l60.61-4.4,12.54,5.53-12.52,4.94,9.74,8.08-20.86,15.07-18.82.61-98.31,2.27-45.49-1.24c-.33-11,4.38-13,13.94-8.48,4.66,2.2,10.47,4.59,15.14,3.69a470.63,470.63,0,0,0,45.86-11.47c9.22-2.76,17.93-7.22,26.87-10.92Z"/><path class="cls-18" d="M162.07,186.27l68.9-4.39,26.16-.55,27.37-.05,41.31-2.86,48.23-.18,80.55-1,62.78-.56L583,178.91l7.7-.19,15-.27,38,3-.16,1.67-26.26.22-91.1.84-90.78.52-90.89.75-91.06.49-90,1.26Z"/><path class="cls-10" d="M605.7,178.45l-15,.27-7.71.19-65.62-2.22,31.67-14.59,98.31-2.28c-8.07,2.63-16.4,4.7-24.15,8.08C617,170.6,611.51,174.88,605.7,178.45Z"/><path class="cls-11" d="M753,121l.09,7.47-33.83.32-.33-3Z"/><path class="cls-8" d="M704.73,139.88c-2.3-.77-4.61-1.5-6.84-2.43-.08,0,.63-2,1-3l6.86,2.59Z"/><path class="cls-12" d="M743.08,142.11l-1.16.78-.95-1.71c.48-.07,1-.31,1.41-.16S742.85,141.73,743.08,142.11Z"/><path class="cls-12" d="M780.2,125.49c.14.48.51,1.25.37,1.37a5,5,0,0,1-1.6.56c-.13-.48-.51-1.25-.36-1.38A4.82,4.82,0,0,1,780.2,125.49Z"/><path class="cls-5" d="M169.54,111.48l-30.41,0q-1.17-9.19-2.31-18.37c6.81-2.66,13.41-6.17,20.43-7.84,56.61-13.46,113.22-26.91,170-39.66C358,38.72,389.08,33.2,420,27c8.39-1.67,16.76-3.49,25.14-5.24l72.13-.37c-33.76,7.67-67.48,15.5-101.29,23-31.49,7-63.29,12.62-94.54,20.48C278.81,75.59,236.5,87.61,194.22,99.72,185.58,102.19,177.75,107.49,169.54,111.48Z"/><path class="cls-15" d="M445.15,21.77C436.77,23.52,428.4,25.34,420,27c-30.93,6.19-62,11.71-92.77,18.62-56.77,12.75-113.38,26.2-170,39.66-7,1.67-13.62,5.18-20.43,7.84q-6.47-6-12.88-12c30.81-8.91,61.58-18,92.44-26.71,37.23-10.52,74.53-20.75,111.8-31.1l37.37-.75L301.47,41.87l-18.86,4-20.67,1.29,1.93,7.77,18.75-9,18.92-3.94,102.1-19.53Z"/><path class="cls-16" d="M365.55,22.54l-37.37.75L290,23.18l-33.82-.68q9.3-5.38,18.6-10.74L430,6.54,388.49,21.81Z"/><path class="cls-5" d="M365.55,22.54l22.94-.73,15.15.6L301.54,41.94l-.07-.07Z"/><path class="cls-14" d="M298.92,160c5.69-3.66,10.94-9.12,17.16-10.68,35.44-8.87,71.08-17,106.73-25C477,112.13,531.36,100.45,585.56,88.18c20.4-4.62,40.57-10.28,60.85-15.47q.29,3.53.55,7.05c-6.1,2.75-11.94,6.77-18.33,8-39.42,7.8-79.2,13.94-118.41,22.63-44.52,9.86-88.62,21.62-132.79,33-23.73,6.08-47.23,13-70.84,19.57Z"/><path class="cls-12" d="M226.76,178.93l-79.24.71L158.59,165,185.15,161l11.47,3,49.38.81Z"/><path class="cls-12" d="M298.92,160l7.67,2.95L318,164.18l-33.5,17.1-27.37.06L268.4,164Z"/><path class="cls-10" d="M268.4,164l-11.27,17.31-26.16.54-4.2-2.95,19.23-14Z"/><path class="cls-9" d="M647,79.75c-.19-2.34-.37-4.69-.56-7l34.28-3.63q0,3.42.08,6.82l-4.6,7.7Z"/><path class="cls-5" d="M593.18,50.49l26.47,3.45L528.5,72.16c-42.68,8.55-85.73,15.58-127.94,26C344.78,112,289.69,128.58,234.21,143.67c-3.92,1.07-8.6.14-12.77-.65-8.31-1.59-16.51-3.73-24.75-5.64,37.6-10.17,75-21,112.83-30.33,51.59-12.77,104.05-22.41,155-37.21C506.9,57.55,549.37,50.76,593.18,50.49Z"/><path class="cls-5" d="M185.15,161,158.59,165l-26.2,1-15.25-1.2q7.67-5.46,15.34-10.91l63.93-8.76,16.07-.15Z"/><path class="cls-17" d="M676.17,83.59q2.3-3.84,4.6-7.69h6.56q4.65,7.64,9.33,15.28-.12,7.56-.23,15.12l-26.73,7.8q-2.37-9.25-4.73-18.52Z"/><path class="cls-3" d="M665,95.57q2.37,9.27,4.73,18.52l-53,15.89c-3.76,1.24-7.53,2.46-11.3,3.69l-30.54-7.47-.27-12.38,32.8-6.61Z"/><path class="cls-12" d="M117.14,164.76l15.25,1.2L117,180l-41.41.27,22.29-14.88Z"/><path class="cls-10" d="M117,180l15.43-14,26.2-1-11.07,14.67Z"/><path class="cls-14" d="M574.84,126.2l30.54,7.47c-8.94,3.7-17.65,8.16-26.87,10.92a470.63,470.63,0,0,1-45.86,11.47c-4.67.9-10.48-1.49-15.14-3.69-9.56-4.51-14.27-2.54-13.94,8.49l-30,4.11q-4-2.21-8-4.39c2.61-3.43,4.73-9.24,7.93-9.91,17-3.58,34.57-4.71,51.35-9,12.11-3.1,23.31-9.8,34.91-14.9Z"/><path class="cls-12" d="M473.56,165l30-4.11,45.49,1.23-31.67,14.6-62.81.56Z"/><path class="cls-10" d="M473.56,165l-19,12.28-80.53,1c4-2.78,7.93-5.7,12.05-8.3,3.7-2.34,7.61-4.35,11.43-6.5l68-2.86Z"/><path class="cls-12" d="M397.53,163.43c-3.82,2.15-7.73,4.16-11.43,6.5-4.12,2.6-8,5.52-12.05,8.3l-48.24.19,14.57-14.95,30.47-4.09,11.48,2.86Z"/><path class="cls-10" d="M340.38,163.47l-14.57,14.95-41.31,2.86L318,164.17Z"/><path class="cls-5" d="M282.62,45.88l-18.75,9-1.93-7.77,20.67-1.29Z"/><path class="cls-5" d="M282.61,45.87l18.86-4,.07.07-18.92,3.94Z"/><path class="cls-5" d="M340.38,163.47l-22.39.7L306.59,163c23.61-6.55,47.11-13.49,70.84-19.57,44.17-11.34,88.27-23.1,132.79-33,39.21-8.69,79-14.83,118.41-22.63,6.39-1.26,12.23-5.28,18.33-8l29.21,3.84-11.2,12-57.6,11.64q-16.39,3.3-32.8,6.62-30.72,4.61-61.45,9.17l.66,4.21,45.93-.44c-11.6,5.1-22.8,11.8-34.91,14.9-16.78,4.29-34.35,5.42-51.35,9-3.2.67-5.32,6.48-7.93,9.91q-34,1.41-68,2.85l-15.2-1.19c26.08-6.51,52.27-12.63,78.18-19.78,6.36-1.76,11.8-6.88,17.67-10.45-29.6,3.63-57.12,9.91-84.4,17.09-8,2.11-15.31,6.78-22.93,10.28Z"/><path class="cls-1" d="M559.71,126.77l-45.93.44-.66-4.21q30.72-4.57,61.45-9.17l.27,12.37Z"/><path class="cls-15" d="M370.85,159.38c7.62-3.5,14.94-8.17,22.93-10.28,27.28-7.18,54.8-13.46,84.4-17.09-5.87,3.57-11.31,8.69-17.67,10.45-25.91,7.15-52.1,13.27-78.18,19.78Z"/><text class="cls-19" transform="matrix(1, -0.01, 0.01, 1, 164.47, 117.99)">rankings</text></g></g></svg>