<svg xmlns="http://www.w3.org/2000/svg" viewBox="0 0 794.83 187.17"><defs><style>.cls-1{fill:#d1863d;}.cls-2{fill:#8b4e11;}.cls-3{fill:#dd9147;}.cls-4{fill:#b06b28;}.cls-5{fill:#e8994c;}.cls-6{fill:#a0540c;}.cls-7{fill:#f0bf90;}.cls-8{fill:#a55f1d;}.cls-9{fill:#954e09;}.cls-10{fill:#b97129;}.cls-11{fill:#a75b13;}.cls-12{fill:#ab6420;}.cls-13{fill:#9a734e;}.cls-14{fill:#605549;}.cls-15{fill:#cd7e30;}.cls-16{fill:#e5b78a;}.cls-17{fill:#d08133;}.cls-18{font-size:60.75px;fill:#492405;font-family:NeatChalk, Neat Chalk;}</style></defs><title>Settings button</title><g id="Layer_2" data-name="Layer 2"><g id="Layer_1-2" data-name="Layer 1"><path class="cls-1" d="M21.92,158.26Q23.3,145,24.67,131.64l83.67-14,41.42.35c-3.46,2.79-6.51,6.89-10.46,8.14-11.36,3.58-23.08,6-34.66,8.91.16,1,.32,1.93.49,2.9l48.83-.46c-5.68,2.4-11.29,6.67-17.05,6.9-30.72,1.2-61.48,1.39-92.23,1.93l-8,7.18q-3.57,7.38-7.13,14.78l-7.12.94C22.25,165.55,22.09,161.91,21.92,158.26Z"/><path class="cls-2" d="M108.34,117.63l-83.67,14q-9-10.39-18-20.8c-.14-1.41-.27-2.83-.4-4.25l56.4-2.79,40.79,5.89c.47-8.42.9-16.4,1.34-24.39L115,84.69Q111.7,101.16,108.34,117.63Z"/><path class="cls-3" d="M17.1,59.35,47.14,44c7.28,2.42,14.42,6.11,21.88,7,16.51,1.94,33.18,2.46,49.79,3.56Q113.23,60.3,107.66,66l.08,0L84.86,73.37c-9.36,0-20.92,3.44-27.63-.79-15.92-10-29.15-5.43-43.29,1.59Q15.52,66.76,17.1,59.35Z"/><path class="cls-4" d="M13.94,74.17c14.14-7,27.37-11.61,43.29-1.59,6.71,4.23,18.27.76,27.63.79l7.58,3.81c-15.79,3-32.11,4.34-47.2,9.4-13.69,4.59-26,13.18-39,20,.14,1.42.27,2.84.41,4.25C-6.17,95.6,1.31,84.38,13.94,74.17Z"/><path class="cls-5" d="M21.92,158.26c.17,3.65.33,7.29.49,10.94L18.94,172c-.32-1.15-.64-2.29-1-3.44Q19.94,163.41,21.92,158.26Z"/><path class="cls-6" d="M18.94,172l3.47-2.78,7.13-.94L97,163.78l19,.68,7.92,1.24c.78,9.09-2.34,14-12.53,13.55-4.6-.2-9.31,2-14,3.18a6.29,6.29,0,0,0-.14,2c-21.09,0-42.18,0-63.27.15C25.17,184.68,17.46,184,18.94,172Z"/><path class="cls-7" d="M24.15,25.1,19,11.81,85,6.25l10.17-.82,11.61.22,53.44-.56c1.13.1,2.25.26,3.36.46,5.95,1,11.89,3,17.84,3,33.13.2,66.26-.06,99.39-.17q-.09,6.78-.19,13.56l-56.32,2Z"/><path class="cls-5" d="M24.15,25.1l200.13-1.22L145,43.07c-18.36-2-36.67-4.84-55.08-5.69-23.25-1.08-46.57-.52-69.87-.67L6.79,32.17Z"/><path class="cls-4" d="M20.07,36.71c23.3.15,46.62-.41,69.87.67,18.41.85,36.72,3.72,55.08,5.69L118.81,54.58C102.2,53.48,85.53,53,69,51c-7.46-.87-14.6-4.56-21.88-7Z"/><path class="cls-8" d="M708.08,181.33l-33.47.31-7.73-.18c18.13-5.23,36-12.23,54.46-15.17,17.52-2.79,35.71-1.31,53.61-1.71l19.88,15.32Z"/><path class="cls-9" d="M775,164.58c-17.9.4-36.09-1.08-53.61,1.71-18.49,2.94-36.33,9.94-54.46,15.17l-7.46,3.95-15.28.19-.15-.43-.28-7.15c6-7.65,24.11,2.52,23.07-15.6l18.54-.48,11.88-.42,7.51-2.76,59.77-8.43Z"/><path class="cls-10" d="M764.48,150.33l-59.77,8.42,29.81-19.31c6.29.51,12.57,1.19,18.87,1.48,7.17.34,14.35.32,21.53.46Z"/><path class="cls-11" d="M774.92,141.38c-7.18-.14-14.36-.12-21.53-.46-6.3-.29-12.58-1-18.87-1.48l10.64-7.87,42.18-3.94-4,3.74-8,9.74Z"/><path class="cls-10" d="M787.34,127.63l-42.17,3.94-3.41-3.49,26.38-8,20.23-8.39a6.47,6.47,0,0,1,2.78.53Z"/><path class="cls-10" d="M775.36,141.11l8-9.74Z"/><path class="cls-12" d="M738,21.7c14.33,6.46,28.85,12.52,42.82,19.68,3.18,1.64,4.42,7.06,6.55,10.74l-2.16,3.1-13.83,4.47c-2.86,2.4-5.44,5.8-8.72,6.74-1.36.39-4.23-4.47-6.41-6.94,8-14.77-3.86-14.2-12-14.29-23.57-.25-47.14.5-70.71.86l-18.9-1.27.07-2,21.55-1.93c-.09-.77-.19-1.54-.28-2.3l-37.28.35-14.33,3,7-7.43,71.82-11.87Z"/><path class="cls-8" d="M777.85,74.85Q778.95,83.93,780,93c-15.44,6.23-35.14,2.62-45.84,19.82-19.25-.73-37.24,3-52.93,14.89l-74.66,2.25-11.66-.82,69-16.39c12.59.88,26.34,4,28.89-14.8,12.1-1.17,24.19-3,36.32-3.34,13.24-.39,13.92-9.65,15.21-19,7.74,1.19,15.47,2.94,23.25,3.29C771,79.05,774.45,76.29,777.85,74.85Z"/><path class="cls-2" d="M777.85,74.85c-3.4,1.44-6.86,4.2-10.19,4.05-7.78-.35-15.51-2.1-23.25-3.3l-56.36-.25-18.19.32-7.88.5L644.2,78.76c-.16-2.07-.33-4.14-.49-6.21L756.24,59.49c2.18,2.47,5,7.33,6.41,6.94,3.28-.94,5.86-4.34,8.72-6.74l10.88-.24Q780,67.15,777.85,74.85Z"/><path class="cls-2" d="M734.19,112.8C744.89,95.6,764.59,99.21,780,93q4.17,9.34,8.34,18.72l-20.23,8.4-15.25-7.3Z"/><path class="cls-5" d="M782.25,59.45l-10.88.24,13.83-4.47Z"/><path class="cls-13" d="M738,21.7l-34.77.88c-8.79-.55-17.57-1.24-26.37-1.63-13.85-.61-27.72-1-41.58-1.53L684.06,7.35l68-7L784.89,0l.79,2.36Z"/><path class="cls-5" d="M154,137.47l-48.83.46c-.17-1-.33-1.94-.49-2.9,11.58-2.89,23.3-5.33,34.66-8.91,3.95-1.25,7-5.35,10.46-8.14l13.71-4c8.61-1.14,17.47-1.28,25.74-3.58,31.34-8.71,62.27-18.94,93.75-27.06,48.29-12.45,96.53-25.68,145.51-34.76,51-9.45,102.79-14.37,154.24-21.26l18.33.26c-2.93,2.43-5.54,6.34-8.84,7.05-55.88,12.11-112,23.13-167.74,35.82C368,83.34,311.83,97.33,255.75,111.67c-24.42,6.24-48.29,14.59-72.42,22Z"/><path class="cls-8" d="M154,137.47l29.38-3.82q.1,7.08.2,14.15l-66.76,5.38-20.07-.05-44.77,3.08-7.25-9.91c30.74-.54,61.5-.73,92.22-1.93C142.67,144.14,148.28,139.87,154,137.47Z"/><path class="cls-14" d="M163.46,114l-13.7,4-41.42-.35q3.34-16.47,6.7-32.94c.1-1.27.2-2.53.29-3.79l20,11.39.17,18.38,28.49,1A16.9,16.9,0,0,0,163.46,114Z"/><path class="cls-5" d="M51.94,156.21l44.77-3.08c.09,3.55.16,7.1.24,10.64l-67.41,4.49,7.13-14.79Z"/><path class="cls-10" d="M51.94,156.21l-15.27-2.74,8-7.17Z"/><path class="cls-5" d="M115.33,80.9c-.09,1.26-.19,2.52-.29,3.79l-10.22.61L62.69,103.8l-56.4,2.79c12.93-6.83,25.26-15.42,39-20,15.09-5.06,31.41-6.43,47.2-9.4,8.15.42,16.44,1,15.3-11.22l-.08,0c22.64-5.3,45.3-10.52,67.92-15.92Q231.92,36.61,288.21,23l19.17-.71,22.48.63L254.48,45.65l.07,0L235.8,46l-7.69,3.63-15,7.74.09,0-15.29,4a29.49,29.49,0,0,0-3.39,0l-11.4.27Z"/><path class="cls-1" d="M62.69,103.8l42.13-18.5c-.44,8-.87,16-1.34,24.39Z"/><path class="cls-15" d="M288.21,23Q231.9,36.53,175.58,50.08C153,55.48,130.3,60.7,107.66,66q5.58-5.7,11.15-11.42L145,43.07l79.26-19.19,56.32-2Z"/><path class="cls-15" d="M107.74,66c1.14,12.24-7.15,11.64-15.3,11.22l-7.58-3.81Z"/><path class="cls-5" d="M116.78,153.18l66.76-5.37,16.9.91L187.75,156l-30.43,8.37L123.9,165.7,116,164.46Q116.39,158.82,116.78,153.18Z"/><path class="cls-2" d="M123.9,165.7l33.42-1.35q-5.22,7.46-10.46,14.9l-28.78,6.61-14,1.31-6.72-4.74c4.65-1.14,9.36-3.38,14-3.18C121.56,179.7,124.68,174.79,123.9,165.7Z"/><path class="cls-10" d="M116.78,153.18q-.41,5.64-.8,11.28l-19-.68c-.08-3.55-.15-7.1-.24-10.65Z"/><path class="cls-16" d="M280.79,8.36l71.4-1.23L307.38,22.24,288.21,23l-7.61-1Q280.69,15.14,280.79,8.36Z"/><path class="cls-1" d="M741.76,128.08l3.41,3.49-10.65,7.87-29.81,19.31-7.51,2.78L680.85,145.2l-2.52,3,7,13.71-18.54.48.19-.4c-2.38-3.49-4.87-9.92-7.12-9.84-4.13.15-8.13,4.13-12.19,6.51l-11.35.84L591.55,163l-4.24-4c3.71-2.41,7.12-5.92,11.19-7.06,28.82-8.08,57.78-15.68,86.69-23.42l27,2.71Z"/><path class="cls-1" d="M644,185.17l-29.76-2.74-90.76.88-90.3.61-90.63.78-90.45.63-90,.94-8.33-.33-35.67-.07q14.41-3.31,28.8-6.63l62.61-.88,46.65-.26,28.57-.23L323.51,180l4.67-.18,229.34-1.36,52.63-1,33.56.53C643.8,180.41,643.9,182.79,644,185.17Z"/><path class="cls-11" d="M643.71,178l-33.56-.52c3.81-3.58,7.25-7.7,11.52-10.61,4.47-3,9.72-4.95,14.64-7.36l11.35-.83L667,162l-.19.4C667.82,180.54,649.74,170.37,643.71,178Z"/><path class="cls-10" d="M685.32,161.94l-7-13.71,2.52-3,16.35,16.33Z"/><path class="cls-11" d="M741.76,128.08l-29.55,3.1c3.52-2.34,6.78-5.32,10.61-6.92,9.89-4.14,20-7.68,30.07-11.46l15.25,7.3Z"/><path class="cls-5" d="M756.24,59.49,643.7,72.55c-19.56,5-39,10.84-58.7,15-43.48,9.2-87.35,16.68-130.67,26.57-46.76,10.68-93.13,23.09-139.54,35.25-12.49,3.27-24.51,8.35-36.74,12.61l-10.14,3.53-23.41-1.22-49.66-4.49c.87-.88,1.61-2.29,2.64-2.56,51.34-13.64,102.55-27.8,154.11-40.54,50.89-12.58,102-24.67,153.29-35.2,46.06-9.45,92.68-16.19,138.91-24.87,10.22-1.92,19.86-7,29.77-10.59,23.57-.36,47.14-1.11,70.71-.86C752.38,45.29,764.28,44.72,756.24,59.49Z"/><path class="cls-15" d="M673.56,46.06c-9.91,3.61-19.55,8.67-29.77,10.59-46.23,8.68-92.85,15.42-138.91,24.87-51.34,10.53-102.4,22.62-153.29,35.2-51.56,12.74-102.77,26.9-154.11,40.54-1,.27-1.77,1.68-2.64,2.55L187.75,156l12.69-7.27-16.9-.91c-.06-4.73-.13-9.44-.2-14.16,24.12-7.39,48-15.74,72.41-22C311.83,97.33,368,83.34,424.46,70.49,480.2,57.8,536.32,46.78,592.2,34.67c3.3-.71,5.91-4.62,8.84-7l30.37,6.83-7,7.43C615.21,43.31,606,46,596.85,46c-45,0-87.49,12.5-130.56,23.53-58,14.84-116.86,26.52-175.13,40.44-29.82,7.13-59.18,16.2-89.2,24.51,14.57,7.88,26.76,8.42,43.51,3,47.48-15.38,96.52-26,145-38.11,25.14-6.28,50.33-12.45,75.73-17.55,43.1-8.64,86.7-15,129.4-25.27,14.53-3.49,36.1,5.59,43.09-17.62L676,38.53c.09.76.19,1.53.28,2.3l-21.55,1.93-.07,2Z"/><path class="cls-5" d="M638.72,38.88c-7,23.21-28.56,14.13-43.09,17.62-42.7,10.24-86.3,16.63-129.4,25.27-25.4,5.1-50.59,11.27-75.73,17.55-48.51,12.13-97.55,22.73-145,38.11-16.75,5.43-28.94,4.89-43.51-3,30-8.31,59.38-17.38,89.2-24.51C349.43,96,408.27,84.33,466.29,69.49,509.36,58.46,551.85,46,596.85,46c9.18,0,18.36-2.65,27.54-4.08Z"/><path class="cls-10" d="M631.41,34.45,601,27.62l-18.34-.26,22.13-6.54,30.44-1.4c13.86.5,27.73.92,41.58,1.53,8.8.39,17.58,1.08,26.37,1.63Z"/><path class="cls-15" d="M594.94,129.12c3.89.27,7.77.55,11.66.81-3.35,3.52-6.22,9.4-10.12,10.18-23.83,4.81-47.93,8.24-71.82,12.77-3.29.62-5.92,4.8-8.85,7.33l-71.9.18c2.46-2.32,4.6-6.18,7.41-6.75,35.28-7.11,70.67-13.63,106-20.74,2.69-.55,4.71-4.48,7-6.84l15.22-.59Z"/><path class="cls-5" d="M515.8,160.21c2.94-2.53,5.57-6.71,8.86-7.33,23.89-4.53,48-8,71.82-12.77,3.9-.78,6.77-6.66,10.12-10.18l74.66-2.23,3.93.77c-28.91,7.74-57.87,15.34-86.69,23.42-4.07,1.14-7.48,4.65-11.19,7.07l-7.48,1.25q-14.91.6-29.82,1.2Q532.91,160.8,515.8,160.21Z"/><path class="cls-10" d="M594.94,129.12l-15.41-3.65c3.39-3.74,6.18-8.48,10.32-11,4.68-2.8,10.57-3.57,15.94-5.22l56.1-14.7q1.05,9.07,2.12,18.13Z"/><path class="cls-3" d="M688.05,75.35l56.36.25c-1.29,9.34-2,18.6-15.21,19-12.13.36-24.22,2.17-36.32,3.34Z"/><path class="cls-14" d="M688.05,75.35l4.83,22.58c-2.55,18.77-16.3,15.68-28.89,14.8q-1-9.08-2.1-18.14l.75-10.52,7.22-8.4Z"/><path class="cls-10" d="M685.19,128.47l-3.93-.77c15.69-11.9,33.68-15.63,52.93-14.9h18.7c-10,3.78-20.18,7.32-30.07,11.46-3.83,1.6-7.09,4.58-10.61,6.92Z"/><path class="cls-5" d="M662.64,84.07l-.75,10.52-56.1,14.71c-14.18,1.25-28.46,1.77-42.51,3.88-27.16,4.09-54.19,9.07-81.27,13.68-1.87-.06-3.83-.54-5.58-.13-39.18,9.2-78.37,18.42-117.46,28-2.23.55-3.67,4.3-5.47,6.56l-11.34,1.29-33.73,0c1.54-2.47,2.65-6.65,4.69-7.17,28.13-7.19,56.29-14.32,84.65-20.54,22.53-4.93,45.53-7.77,68-13,28.59-6.7,56.58-16.06,85.29-22.11,26.78-5.66,54.21-8.21,81.22-12.86,4.33-.74,8-5.34,12-8.15L662,76.17Z"/><path class="cls-17" d="M644.2,78.76c-4,2.81-7.62,7.41-12,8.15-27,4.65-54.44,7.2-81.22,12.86-28.71,6-56.7,15.41-85.29,22.11-22.44,5.26-45.44,8.1-68,13-28.36,6.22-56.52,13.35-84.65,20.54-2,.52-3.15,4.7-4.69,7.17L297.18,166l-19.13-4c12.23-4.25,24.25-9.33,36.74-12.6,46.41-12.16,92.78-24.57,139.54-35.25,43.32-9.89,87.19-17.37,130.67-26.57,19.74-4.18,39.14-10,58.7-15Q644,75.66,644.2,78.76Z"/><path class="cls-17" d="M662.64,84.07l-.66-7.9,7.88-.5Z"/><path class="cls-7" d="M634.9,1.56l4-.36L653.52.61l19.26,0,3.69.12,7.49,0q.06,3.36.1,6.7L635.27,19.42l-30.43,1.4-18.76-.75c3.3-1.32,6.57-2.7,9.9-3.95Q615.42,8.82,634.9,1.56Z"/><path class="cls-17" d="M586.07,20.07l18.77.75L582.7,27.36c-51.44,6.89-103.26,11.81-154.23,21.26-49,9.08-97.22,22.31-145.51,34.76-31.48,8.12-62.41,18.35-93.75,27.06-8.27,2.3-17.13,2.44-25.74,3.58a15.92,15.92,0,0,1,.48-2.36c4.05-2.93,7.71-7.35,12.21-8.53,18-4.71,36.44-7.95,54.5-12.57,54.56-14,108.88-28.91,163.56-42.38,40-9.86,80.41-18,120.63-26.88l41.33-1.65Z"/><path class="cls-5" d="M514.85,21.3c-40.22,8.89-80.64,17-120.63,26.88-54.68,13.47-109,28.4-163.56,42.38-18.06,4.62-36.47,7.86-54.5,12.57-4.5,1.18-8.16,5.6-12.21,8.53l-28.49-1c-.06-6.56-.11-12.47-.18-18.38L247.16,61l15-.35L269.78,57c10.56-2.62,21-5.66,31.69-7.79,39.29-7.86,78.64-15.46,118-23.07,9-1.74,18-3.13,27-4.68Z"/><path class="cls-1" d="M269.78,57l-7.59,3.61-15,.35L135.28,92.29l-20-11.39L183.1,61.52l11.4-.27a29.49,29.49,0,0,1,3.39,0l15.29-4-.09,0c4.75-3.08,15.95,6.36,15-7.74L235.8,46l18.75-.37-.07,0,7.75.06,7.45,3.68Z"/><path class="cls-7" d="M514.85,21.3l-68.39.19-45,.75-37.87-.06-33.75.69-22.48-.63L352.19,7.13l79.45-4s-.29-.68-.29-.68L454.1,3l71.64-1L612.39.78l14.76.88-71,18Z"/><path class="cls-15" d="M329.86,22.87l33.75-.69L262.24,45.72l-7.76-.07Z"/><path class="cls-15" d="M228.11,49.61c.93,14.1-10.27,4.66-15,7.74Z"/><path class="cls-15" d="M254.55,45.61,235.8,46Z"/><path class="cls-15" d="M213.18,57.32l-15.29,4Z"/><path class="cls-15" d="M194.5,61.25l-11.4.27Z"/><path class="cls-11" d="M187.74,156l7.1,3.82,49.66,4.49-35,14.06-62.6.88q5.23-7.44,10.46-14.89Z"/><path class="cls-9" d="M550,161.42l29.82-1.22L591.55,163l44.76-3.45c-4.92,2.41-10.17,4.31-14.64,7.36-4.27,2.91-7.71,7-11.52,10.61l-52.63,1L534.76,175Z"/><path class="cls-10" d="M667,162l-19.31-3.32c4.06-2.39,8.06-6.37,12.19-6.52C662.1,152.1,664.59,158.53,667,162Z"/><path class="cls-11" d="M591.55,163l-11.72-2.78,7.48-1.24Z"/><path class="cls-2" d="M534.76,175l22.76,3.49-229.35,1.36c11.6-1.06,23.51-.85,34.74-3.52,13.64-3.25,26.71-8.94,40-13.57l27.07.66-14.94,9.44c20.48,1,39.34,2.39,58.21,2.7C493.76,175.91,514.26,175.24,534.76,175Z"/><path class="cls-11" d="M402.94,162.77c-13.32,4.63-26.39,10.32-40,13.57-11.23,2.67-23.14,2.46-34.74,3.52l-4.66.18c3.17-3.53,6.14-7.27,9.56-10.53,2.74-2.61,6-4.63,9.09-6.91l11.34-1.28,30.24.22Z"/><path class="cls-9" d="M342.16,162.6c-3.05,2.28-6.35,4.3-9.09,6.91-3.42,3.26-6.39,7-9.56,10.53l-38.8-2.17L297.18,166l11.25-3.38Z"/><path class="cls-11" d="M297.18,166l-12.47,11.87-28.6.23q5.89-6.3,11.8-12.57L278.05,162Z"/><path class="cls-9" d="M267.91,165.53q-5.91,6.28-11.8,12.57l-46.64.26,35-14.06Z"/><path class="cls-5" d="M402.94,162.77l-19.2-1.23c4.09-2.61,7.85-6.18,12.3-7.67,29.29-9.76,62.58-4,89.49-23.12l78.78-4.69c-2.33,2.36-4.35,6.29-7,6.84C522,140,486.6,146.53,451.32,153.64c-2.81.57-4.95,4.43-7.41,6.76l-13.9,3Z"/><path class="cls-11" d="M430,163.43l13.9-3,71.9-.19,34.2,1.2L534.76,175c-20.5.23-41,.9-61.48.56-18.87-.31-37.73-1.7-58.21-2.7Z"/><path class="cls-12" d="M564.31,126.06l-78.78,4.68L482,126.86c27.08-4.61,54.11-9.59,81.27-13.68,14.05-2.11,28.33-2.63,42.51-3.88-5.37,1.64-11.26,2.41-15.94,5.21-4.14,2.48-6.93,7.22-10.32,11Z"/><path class="cls-17" d="M482,126.86l3.52,3.88c-26.91,19.12-60.2,13.37-89.49,23.13-4.45,1.49-8.21,5.06-12.3,7.67l-30.24-.22c1.8-2.27,3.24-6,5.47-6.57,39.09-9.6,78.28-18.82,117.46-28C478.18,126.32,480.14,126.8,482,126.86Z"/><path class="cls-16" d="M556.18,19.65l71-18,7.75-.1Q615.43,8.83,596,16.12c-3.33,1.25-6.6,2.63-9.9,3.95Z"/><path class="cls-17" d="M401.48,22.24l45-.75c-9,1.55-18,2.94-27,4.68-39.34,7.61-78.69,15.21-118,23.07-10.65,2.13-21.13,5.17-31.69,7.79,0-2.55-.07-5.09-.1-7.64Z"/><path class="cls-17" d="M247.16,61l15-.35Z"/><path class="cls-5" d="M401.48,22.24,269.68,49.39l-7.45-3.68L363.61,22.18Z"/><text class="cls-18" transform="matrix(1, -0.01, 0.01, 1, 169.47, 125.61)">Settings</text></g></g></svg>